<svg xmlns="http://www.w3.org/2000/svg" width="62.214" height="38.508" viewBox="0 0 62.214 38.508">
  <path id="academico-icon" d="M61.725,96.79,31.291,88.172a.673.673,0,0,0-.366,0L.49,96.79a.672.672,0,0,0-.059,1.274l14.7,5.668-.514,4.078a2.469,2.469,0,0,0,1.242,2.447c2.8,1.735,11.626,5.987,14.277,6.622a4.274,4.274,0,0,0,2.307,0c2.649-.634,11.479-4.886,14.278-6.622a2.468,2.468,0,0,0,1.242-2.447l-.532-4.209L50.7,102.34v12.783a2.511,2.511,0,0,0-.843,4.426q-.23,1.014-.5,2.024a.666.666,0,0,0-.068.246c-.351,1.277-.75,2.545-1.2,3.792a.672.672,0,0,0,.559.9,24.839,24.839,0,0,0,5.443,0,.672.672,0,0,0,.559-.9,52.209,52.209,0,0,1-1.765-6.062,2.511,2.511,0,0,0-.843-4.426v-13.3l9.742-3.757a.672.672,0,0,0-.059-1.274ZM49.641,125.246q.456-1.34.84-2.7h1.779q.384,1.362.84,2.7A23.49,23.49,0,0,1,49.641,125.246ZM51.9,121.2H50.841q.146-.575.279-1.151c.082.008.166.013.25.013s.168,0,.25-.013Q51.753,120.624,51.9,121.2Zm.642-3.654a1.172,1.172,0,1,1-1.172-1.172A1.173,1.173,0,0,1,52.542,117.544ZM46.2,104.616l-5.8,2.236a.672.672,0,1,0,.484,1.255l5.489-2.117.093.736-2.8,1.082a.672.672,0,1,0,.484,1.255l2.485-.958a1.138,1.138,0,0,1-.591.991l-.022.013c-2.918,1.813-11.577,5.916-13.9,6.465l-.029.008a2.931,2.931,0,0,1-1.6,0l-.029-.008c-2.326-.55-10.985-4.653-13.9-6.465l-.022-.013a1.15,1.15,0,0,1-.582-.849l2.117.817a.672.672,0,0,0,.484-1.255l-2.463-.95.093-.736,5.147,1.985a.672.672,0,0,0,.484-1.255l-5.457-2.1.065-.518,14.445,5.57a.672.672,0,0,0,.484,0l14.787-5.7Zm4.658-3.78L31.244,96.779a.672.672,0,1,0-.272,1.317l17.57,3.634-17.434,6.723L2.8,97.535l28.312-8.017L59.42,97.535Z" transform="translate(-0.001 -88.147)" fill="#fff"/>
</svg>
