<svg xmlns="http://www.w3.org/2000/svg" width="35.287" height="35.287" viewBox="0 0 35.287 35.287">
  <g id="covid19-icon" transform="translate(0.001 0)">
    <path id="Path_571" data-name="Path 571" d="M34.519,19.929a1.034,1.034,0,0,0-1.266.731l-.024.089-2.392-.641a13.456,13.456,0,0,0,0-4.93l2.392-.641.024.089a1.034,1.034,0,1,0,2-.535l-.583-2.176a1.034,1.034,0,0,0-2,.535l.024.089-2.393.641a13.428,13.428,0,0,0-2.47-4.265L29.588,7.16l.065.065a1.034,1.034,0,1,0,1.462-1.462L29.523,4.171a1.034,1.034,0,0,0-1.462,1.462l.065.065L26.37,7.454A13.428,13.428,0,0,0,22.1,4.984l.641-2.393.089.024a1.034,1.034,0,0,0,.535-2L21.194.036a1.034,1.034,0,1,0-.535,2l.089.024-.641,2.392a13.457,13.457,0,0,0-4.93,0l-.641-2.392.089-.024a1.034,1.034,0,0,0-.535-2L11.915.618a1.034,1.034,0,1,0,.535,2l.089-.024.641,2.393a13.429,13.429,0,0,0-4.265,2.47L7.159,5.7l.065-.065A1.034,1.034,0,0,0,5.763,4.17L4.17,5.763A1.034,1.034,0,0,0,5.632,7.225L5.7,7.16,7.453,8.916a13.429,13.429,0,0,0-2.47,4.265L2.591,12.54l.024-.089a1.034,1.034,0,1,0-2-.535L.035,14.091a1.034,1.034,0,1,0,2,.535l.024-.089,2.392.641a13.456,13.456,0,0,0,0,4.93l-2.392.641-.024-.089a1.034,1.034,0,1,0-2,.535l.583,2.176a1.034,1.034,0,0,0,2-.535l-.024-.089,2.393-.641a13.429,13.429,0,0,0,2.47,4.265L5.7,28.127l-.065-.065A1.034,1.034,0,1,0,4.17,29.523l1.593,1.593a1.034,1.034,0,0,0,1.462-1.462l-.065-.065,1.756-1.756A13.428,13.428,0,0,0,13.18,30.3l-.641,2.393-.089-.024a1.034,1.034,0,0,0-.535,2l2.176.583a1.034,1.034,0,1,0,.535-2l-.089-.024.641-2.392a13.457,13.457,0,0,0,4.93,0l.641,2.392-.089.024a1.034,1.034,0,0,0,.535,2l2.176-.583a1.034,1.034,0,1,0-.535-2l-.089.024L22.1,30.3a13.429,13.429,0,0,0,4.265-2.47l1.756,1.756-.065.065a1.034,1.034,0,0,0,1.462,1.462l1.593-1.593a1.034,1.034,0,1,0-1.462-1.462l-.065.065L27.832,26.37a13.428,13.428,0,0,0,2.47-4.265l2.393.641-.024.089a1.034,1.034,0,0,0,2,.535L35.25,21.2a1.033,1.033,0,0,0-.731-1.266ZM17.643,29A11.355,11.355,0,1,1,29,17.643,11.368,11.368,0,0,1,17.643,29Z" transform="translate(0)" fill="#2e4294"/>
    <circle id="Ellipse_82" data-name="Ellipse 82" cx="1.034" cy="1.034" r="1.034" transform="translate(16.609 8.858)" fill="#2e4294"/>
    <circle id="Ellipse_83" data-name="Ellipse 83" cx="1.034" cy="1.034" r="1.034" transform="translate(16.609 24.361)" fill="#2e4294"/>
    <circle id="Ellipse_84" data-name="Ellipse 84" cx="1.034" cy="1.034" r="1.034" transform="translate(14.394 18.824)" fill="#2e4294"/>
    <circle id="Ellipse_85" data-name="Ellipse 85" cx="1.034" cy="1.034" r="1.034" transform="translate(18.823 18.824)" fill="#2e4294"/>
    <circle id="Ellipse_86" data-name="Ellipse 86" cx="1.034" cy="1.034" r="1.034" transform="translate(18.823 14.395)" fill="#2e4294"/>
    <circle id="Ellipse_87" data-name="Ellipse 87" cx="1.034" cy="1.034" r="1.034" transform="translate(14.394 14.395)" fill="#2e4294"/>
    <circle id="Ellipse_88" data-name="Ellipse 88" cx="1.034" cy="1.034" r="1.034" transform="translate(24.36 16.609)" fill="#2e4294"/>
    <circle id="Ellipse_89" data-name="Ellipse 89" cx="1.034" cy="1.034" r="1.034" transform="translate(8.858 16.609)" fill="#2e4294"/>
    <circle id="Ellipse_90" data-name="Ellipse 90" cx="1.034" cy="1.034" r="1.034" transform="translate(22.09 11.129)" fill="#2e4294"/>
    <circle id="Ellipse_91" data-name="Ellipse 91" cx="1.034" cy="1.034" r="1.034" transform="translate(11.128 22.091)" fill="#2e4294"/>
    <circle id="Ellipse_92" data-name="Ellipse 92" cx="1.034" cy="1.034" r="1.034" transform="translate(22.09 22.091)" fill="#2e4294"/>
    <circle id="Ellipse_93" data-name="Ellipse 93" cx="1.034" cy="1.034" r="1.034" transform="translate(11.128 11.129)" fill="#2e4294"/>
  </g>
</svg>
