<svg xmlns="http://www.w3.org/2000/svg" width="37.852" height="37.852" viewBox="0 0 37.852 37.852">
  <g id="etapas-de-la-vida-icon" transform="translate(0)">
    <g id="Group_287" data-name="Group 287" transform="translate(0 0)">
      <g id="Group_286" data-name="Group 286">
        <path id="Path_473" data-name="Path 473" d="M37.463,36.462l-9.7-5.227c-3.095-1.667-5.58-2.757-8.1-2.938V27.8l2.05-1.184a6.406,6.406,0,0,0,9.223-5.751.739.739,0,0,0-.37-.641,6.406,6.406,0,0,0-9.593,5.112l-1.311.757V17.819l2.582-1.491a5.2,5.2,0,0,0,7.413-4.706.739.739,0,0,0-.37-.641,5.2,5.2,0,0,0-7.782,4.067l-1.843,1.064V8.358a.743.743,0,0,0-.018-.16A4.806,4.806,0,0,0,19.3.1a.739.739,0,0,0-.74,0A4.805,4.805,0,0,0,18.2,8.2a.742.742,0,0,0-.018.16v5.183l-1.315-.759a5.281,5.281,0,0,0-7.9-4.137.739.739,0,0,0-.37.641,5.284,5.284,0,0,0,5.277,5.282h0a5.305,5.305,0,0,0,2.257-.506l2.054,1.186V23.7l-1.311-.757a6.4,6.4,0,0,0-9.593-5.112.739.739,0,0,0-.37.641,6.408,6.408,0,0,0,6.4,6.405h0a6.435,6.435,0,0,0,2.823-.654l2.05,1.184V28.3c-2.516.181-5,1.27-8.1,2.938l-9.7,5.227a.739.739,0,0,0,.351,1.39H37.112a.739.739,0,0,0,.351-1.39ZM24.9,21.509a4.921,4.921,0,0,1,4.537-.2,4.915,4.915,0,0,1-6.056,4.35l1.082-.624a.739.739,0,1,0-.739-1.28l-1.081.624A4.943,4.943,0,0,1,24.9,21.509Zm-.074-9.247a3.717,3.717,0,0,1,3.326-.2,3.721,3.721,0,0,1-5.161,2.98A3.737,3.737,0,0,1,24.828,12.262Zm-10.953.827h0A3.8,3.8,0,0,1,10.1,9.727a3.8,3.8,0,0,1,5.283,3.05A3.822,3.822,0,0,1,13.876,13.089Zm-.49,9.55,1.082.624a4.934,4.934,0,0,1-1.155.139h0a4.929,4.929,0,0,1-4.9-4.489,4.923,4.923,0,0,1,6.8,3.07l-1.081-.624a.739.739,0,1,0-.739,1.28ZM17.632,4.261a3.341,3.341,0,0,1,1.294-2.633,3.327,3.327,0,0,1,0,5.267A3.341,3.341,0,0,1,17.632,4.261ZM3.67,36.373l7.121-3.836c3.772-2.032,5.977-2.788,8.134-2.788s4.362.756,8.134,2.788l7.121,3.836Z" transform="translate(0 0)" fill="#fff"/>
      </g>
    </g>
    <g id="Group_289" data-name="Group 289" transform="translate(25.185 22.583)">
      <g id="Group_288" data-name="Group 288">
        <path id="Path_474" data-name="Path 474" d="M342.067,305.83a.739.739,0,0,0-1.01-.271l-.025.015a.739.739,0,1,0,.739,1.281l.025-.015A.739.739,0,0,0,342.067,305.83Z" transform="translate(-340.662 -305.46)" fill="#fff"/>
      </g>
    </g>
    <g id="Group_291" data-name="Group 291" transform="translate(11.162 20.189)">
      <g id="Group_290" data-name="Group 290">
        <path id="Path_475" data-name="Path 475" d="M152.123,273.2l-.025-.015a.739.739,0,0,0-.74,1.28l.025.015a.739.739,0,0,0,.74-1.28Z" transform="translate(-150.988 -273.089)" fill="#fff"/>
      </g>
    </g>
  </g>
</svg>
