<svg xmlns="http://www.w3.org/2000/svg" width="41.295" height="37.84" viewBox="0 0 41.295 37.84">
  <g id="familiar-icon" transform="translate(0 -21.42)">
    <g id="Group_279" data-name="Group 279" transform="translate(0 21.42)">
      <g id="Group_278" data-name="Group 278">
        <path id="Path_471" data-name="Path 471" d="M39.612,46.514l-4.739-1.9a.792.792,0,0,1-.073-.036,12.517,12.517,0,0,0,4.892-2.047.6.6,0,0,0,.215-.553,78.365,78.365,0,0,1-.685-9.59,8.207,8.207,0,1,0-16.415,0c0,1.24-.056,2.757-.148,4.192l-1.321.66-3.876-1.938-.034-.014a6.776,6.776,0,0,0,.349-1.692,1.986,1.986,0,0,0,.71-3.4V26.172A3.366,3.366,0,0,0,17,23.395a2.659,2.659,0,0,0-2.578-1.975H8.9a5.449,5.449,0,0,0-5.443,5.443V30.2a1.986,1.986,0,0,0,.71,3.4,6.822,6.822,0,0,0,2.745,4.963v1.672l-5,1.5A2.662,2.662,0,0,0,0,44.3v6.751a.6.6,0,0,0,.6.6H.691v7a.6.6,0,0,0,1.21,0v-7H4.147v7a.6.6,0,0,0,1.21,0V48.224a2.67,2.67,0,0,0-.45-1.486L3.873,45.188a.6.6,0,1,0-1.007.671L3.9,47.41a1.464,1.464,0,0,1,.247.815v2.223H1.21V44.3a1.459,1.459,0,0,1,1.047-1.407l2.077-.623A6.826,6.826,0,0,0,14.206,46.7a1.985,1.985,0,0,0,1.6.815H15.9V47.6a5.445,5.445,0,0,0,2.765,4.735v.987a.086.086,0,0,1-.059.082l-2.256.752a2.675,2.675,0,0,0-1.831,2.541v1.961a.6.6,0,1,0,1.21,0V56.694a1.466,1.466,0,0,1,1-1.393l.664-.221a4.752,4.752,0,0,0,7.9,0l.663.221a1.467,1.467,0,0,1,1,1.393v1.961a.6.6,0,0,0,1.21,0V56.694a2.675,2.675,0,0,0-1.831-2.541L24.076,53.4a.086.086,0,0,1-.059-.082v-.987a5.465,5.465,0,0,0,2.561-3.265,6.133,6.133,0,0,0,10.275-2.354l2.309.924A1.461,1.461,0,0,1,40.085,49V51.83H37.839v-.777a.6.6,0,1,0-1.21,0v7.6a.6.6,0,1,0,1.21,0V53.04h1.555v5.615a.6.6,0,1,0,1.21,0V53.04h.086a.6.6,0,0,0,.6-.6V49A2.665,2.665,0,0,0,39.612,46.514ZM24.017,32.392a7,7,0,1,1,13.995,0,79.42,79.42,0,0,0,.648,9.395,12.95,12.95,0,0,1-4.276,1.649v-.963a6.773,6.773,0,0,0,.918-.624,6.81,6.81,0,0,0,2.537-5.31c0-3.419-2.473-3.91-4.864-4.385a9.7,9.7,0,0,1-4.348-1.617.6.6,0,0,0-.983.472c0,.016-.026,1.608-2.306,2.178a.6.6,0,0,0,.293,1.174,4,4,0,0,0,3-2.352,12.669,12.669,0,0,0,4.1,1.332c2.556.507,3.89.88,3.89,3.2a5.6,5.6,0,0,1-2.088,4.37,5.614,5.614,0,0,1-6.8.2,6.835,6.835,0,0,0-1.656-2.553v-2.7a.6.6,0,0,0-.875-.541l-1.306.653C23.981,34.7,24.017,33.5,24.017,32.392Zm.864,4.434v2.189l-2.189-1.095Zm-7.084,0,2.189,1.095L17.8,39.015ZM14.514,43.45v.575a1.987,1.987,0,0,0-.691,1.5,5.615,5.615,0,0,1-8.328-3.6l1.494-.448a4.059,4.059,0,0,0,7.583,1.084A6.8,6.8,0,0,0,14.514,43.45ZM8.121,40.684v-1.4a6.816,6.816,0,0,0,5.7,0v1.4a2.851,2.851,0,0,1-5.7.008S8.121,40.687,8.121,40.684ZM10.972,38.7a5.622,5.622,0,0,1-5.615-5.615.6.6,0,0,0-.6-.6.777.777,0,1,1,0-1.555H6.134a.6.6,0,0,0,.574-.414l.555-1.666c1.39-.031,5.7-.227,8.126-1.44a.6.6,0,0,0-.541-1.082c-2.6,1.3-7.969,1.318-8.023,1.318a.6.6,0,0,0-.574.414L5.7,29.714H4.752l-.086,0V26.863A4.238,4.238,0,0,1,8.9,22.63h5.529a1.458,1.458,0,0,1,1.443,1.238.6.6,0,0,0,.3.432,2.159,2.159,0,0,1,1.107,1.872v3.544l-.086,0H16.5a.6.6,0,1,0,0,1.21h.691a.777.777,0,0,1,0,1.555.6.6,0,0,0-.6.6A5.622,5.622,0,0,1,10.972,38.7Zm4.06,1.987V38.563a6.88,6.88,0,0,0,1.555-1.607v1.6a6.835,6.835,0,0,0-1.559,2.3C15.03,40.8,15.032,40.742,15.032,40.685Zm9.047,13.991a3.539,3.539,0,0,1-5.481,0l.386-.128a1.294,1.294,0,0,0,.886-1.229v-.482a5.415,5.415,0,0,0,2.937,0v.482a1.294,1.294,0,0,0,.886,1.229Zm2.1-8.376a.6.6,0,0,0-.6.6v.6c0,.005,0,.01,0,.016V47.6a4.233,4.233,0,1,1-8.466,0v-.691a.6.6,0,0,0-.6-.6H15.81a.778.778,0,0,1-.777-.777.768.768,0,0,1,.39-.668.6.6,0,0,0,.143-.118c1.5-.043,6.343-.325,9.528-2.145a.6.6,0,0,0-.6-1.05c-2.791,1.595-7.176,1.914-8.771,1.978v-.07a5.621,5.621,0,0,1,.958-3.133.6.6,0,0,0,.781.219L21.339,38.6l3.876,1.938A.6.6,0,0,0,26,40.317a5.621,5.621,0,0,1,.958,3.133v.883a.6.6,0,0,0,.3.523.768.768,0,0,1,.391.668.778.778,0,0,1-.777.777Zm4.838,3.456a4.931,4.931,0,0,1-4.133-2.246,1.982,1.982,0,0,0,1.282-3.486V43.45a6.8,6.8,0,0,0-.039-.725,6.821,6.821,0,0,0,5.049.286V43.9a1.978,1.978,0,0,0,1.249,1.845l1.3.522A4.921,4.921,0,0,1,31.015,49.756Z" transform="translate(0 -21.42)" fill="#fff"/>
      </g>
    </g>
  </g>
</svg>
