<svg xmlns="http://www.w3.org/2000/svg" width="121.49" height="121.49" viewBox="0 0 121.49 121.49">
  <g id="feel-happy-icon" transform="translate(1.075 1.075)">
    <path id="Path_53" data-name="Path 53" d="M60.745,0A60.745,60.745,0,1,1,0,60.745,60.745,60.745,0,0,1,60.745,0Z" transform="translate(-1.075 -1.075)" fill="#feddba"/>
    <circle id="Ellipse_60" data-name="Ellipse 60" cx="6.451" cy="6.451" r="6.451" transform="translate(34.404 46.828)" fill="#1c3e89"/>
    <path id="Path_152" data-name="Path 152" d="M187.71,327.056a28.645,28.645,0,0,1-27.584-20.125A2.306,2.306,0,0,1,162.38,304h50.635a2.306,2.306,0,0,1,2.254,2.931A28.586,28.586,0,0,1,187.71,327.056Z" transform="translate(-127.749 -230.73)" fill="#1c3e89"/>
    <circle id="Ellipse_61" data-name="Ellipse 61" cx="6.451" cy="6.451" r="6.451" transform="translate(76.335 46.828)" fill="#1c3e89"/>
    <ellipse id="Ellipse_62" data-name="Ellipse 62" cx="59.5" cy="59" rx="59.5" ry="59" transform="translate(-0.075 -0.075)" fill="rgba(0,0,0,0)"/>
  </g>
</svg>
