<svg id="Layer_1" data-name="Layer 1" xmlns="http://www.w3.org/2000/svg" viewBox="0 0 297.79 255.61"><defs><style>.cls-1,.cls-17,.cls-23,.cls-3{fill:#c33959;stroke:#c33959;}.cls-1,.cls-10,.cls-11,.cls-12,.cls-13,.cls-14,.cls-15,.cls-16,.cls-17,.cls-18,.cls-19,.cls-2,.cls-20,.cls-21,.cls-22,.cls-23,.cls-24,.cls-3,.cls-4,.cls-5,.cls-6,.cls-7,.cls-8,.cls-9{stroke-linecap:round;stroke-linejoin:round;}.cls-1,.cls-10,.cls-17,.cls-18,.cls-19,.cls-2,.cls-21,.cls-5,.cls-7,.cls-8{stroke-width:4px;}.cls-1,.cls-2,.cls-3,.cls-4{opacity:0.8;}.cls-18,.cls-2,.cls-24,.cls-4{fill:#c30059;stroke:#c30059;}.cls-11,.cls-12,.cls-14,.cls-15,.cls-20,.cls-22,.cls-23,.cls-24,.cls-3,.cls-4,.cls-6,.cls-9{stroke-width:2px;}.cls-5,.cls-6,.cls-8,.cls-9{fill:#2b82d5;}.cls-12,.cls-15,.cls-5,.cls-6,.cls-8,.cls-9{stroke:#2b82d5;}.cls-14,.cls-15,.cls-16,.cls-5,.cls-6,.cls-7{opacity:0.7;}.cls-10,.cls-11,.cls-14,.cls-7{fill:#2ba3d5;stroke:#2ba3d5;}.cls-12,.cls-15,.cls-21,.cls-22{fill:#22821e;}.cls-13,.cls-16,.cls-27{fill:#fff;}.cls-13,.cls-16{stroke:#fff;stroke-width:0.75px;}.cls-19,.cls-20{fill:#227c48;stroke:#227c48;}.cls-21,.cls-22{stroke:#22821e;}.cls-25{fill:#f18f2b;}.cls-26{fill:#223081;}</style></defs><path class="cls-1" d="M31.18,152.79C7.56,139.66-1.81,116.21,5,100.85A30.49,30.49,0,0,1,30.79,83.57C43.41,83,54.63,90.94,58.88,99.93,66,115.07,56.39,139.54,31.18,152.79Z" transform="translate(-0.84 -11.66)"/><path class="cls-2" d="M59.17,100.15c-4.1-8.7-14.75-16.41-26.87-16.38v68.79C56.89,139.21,66.24,115.13,59.17,100.15Z" transform="translate(-0.84 -11.66)"/><polygon class="cls-3" points="30.34 143.81 27.17 150.44 34.42 150.44 30.34 143.81"/><polygon class="cls-4" points="30.34 143.91 30.34 150.35 34.3 150.35 30.34 143.91"/><line class="cls-3" x1="30.34" y1="152.31" x2="30.34" y2="210.34"/><path class="cls-5" d="M267.14,152.58c24.58-13.66,34.32-38.06,27.22-54a31.68,31.68,0,0,0-26.81-18c-13.13-.59-24.81,7.67-29.22,17C230.89,113.33,240.91,138.79,267.14,152.58Z" transform="translate(-0.84 -11.66)"/><polygon class="cls-6" points="266.31 142.76 269.6 149.66 262.05 149.66 266.31 142.76"/><path class="cls-7" d="M238.71,97.82c4.27-9.06,15.35-17.08,28-17v71.57C241.08,138.46,231.35,113.39,238.71,97.82Z" transform="translate(-0.84 -11.66)"/><path class="cls-8" d="M74.58,145.15C39.22,125.49,25.19,90.38,35.41,67.39c5.8-13,20.68-25.07,38.59-25.88,18.89-.85,35.7,11,42.05,24.49C126.76,88.67,112.33,125.31,74.58,145.15Z" transform="translate(-0.84 -11.66)"/><polygon class="cls-9" points="73.74 136.14 69 146.08 79.86 146.08 73.74 136.14"/><path class="cls-10" d="M115.5,66.35c-6.15-13-22.08-24.58-40.23-24.54v103C112.08,124.83,126.09,88.76,115.5,66.35Z" transform="translate(-0.84 -11.66)"/><polygon class="cls-11" points="73.74 136.29 73.74 145.93 79.68 145.93 73.74 136.29"/><line class="cls-12" x1="73.74" y1="150.24" x2="73.74" y2="237.12"/><path class="cls-13" d="M50.05,54.45c4.86-4.48,12-8.12,13.09-6.78,1.25,1.5-4.76,9.44-12.4,14-.69.42-6.19,3.73-7.16,2.54S46.36,57.84,50.05,54.45Z" transform="translate(-0.84 -11.66)"/><polygon class="cls-14" points="266.31 142.86 266.31 149.56 262.18 149.56 266.31 142.86"/><line class="cls-15" x1="266.31" y1="152.55" x2="266.31" y2="212.93"/><path class="cls-16" d="M284.19,89.55c-3.38-3.11-8.31-5.64-9.09-4.71s3.31,6.56,8.61,9.74c.48.29,4.3,2.59,5,1.77S286.75,91.91,284.19,89.55Z" transform="translate(-0.84 -11.66)"/><path class="cls-17" d="M218.19,145.18c35.36-19.66,49.39-54.77,39.17-77.76-5.8-13-20.68-25.07-38.59-25.88-18.9-.85-35.7,11-42.05,24.49C166,88.7,180.44,125.34,218.19,145.18Z" transform="translate(-0.84 -11.66)"/><path class="cls-16" d="M19.32,97.56c-3.38,3.11-8.32,5.64-9.1,4.71s3.31-6.56,8.62-9.74c.48-.29,4.3-2.59,5-1.77S21.88,95.2,19.32,97.56Z" transform="translate(-0.84 -11.66)"/><path class="cls-18" d="M176.27,66.37c6.15-13,22.08-24.57,40.23-24.53v103C179.69,124.85,165.68,88.79,176.27,66.37Z" transform="translate(-0.84 -11.66)"/><path class="cls-19" d="M150,140c-43.09-24-60.18-66.74-47.73-94.75,7.06-15.89,25.19-30.55,47-31.54,23-1,43.5,13.45,51.24,29.85C213.58,71.18,196,115.83,150,140Z" transform="translate(-0.84 -11.66)"/><polygon class="cls-20" points="149.16 131.57 143.38 143.68 156.62 143.68 149.16 131.57"/><path class="cls-21" d="M199.86,44C192.36,28.1,173,14,150.84,14.08v125.5C195.7,115.24,212.76,71.29,199.86,44Z" transform="translate(-0.84 -11.66)"/><polygon class="cls-22" points="149.16 131.75 149.16 143.5 156.4 143.5 149.16 131.75"/><line class="cls-22" x1="149.16" y1="148.75" x2="149.16" y2="254.61"/><path class="cls-13" d="M120.1,29.48c5.93-5.46,14.59-9.89,16-8.26,1.53,1.83-5.81,11.5-15.11,17.08-.85.51-7.55,4.54-8.73,3.1S115.61,33.61,120.1,29.48Z" transform="translate(-0.84 -11.66)"/><polygon class="cls-23" points="217.35 137.53 222.09 147.47 211.23 147.47 217.35 137.53"/><polygon class="cls-24" points="217.35 137.68 217.35 147.32 211.41 147.32 217.35 137.68"/><line class="cls-23" x1="217.35" y1="150.26" x2="217.35" y2="237.14"/><path class="cls-13" d="M242.72,54.48c-4.86-4.48-12-8.12-13.09-6.78-1.25,1.5,4.76,9.43,12.4,14,.69.41,6.19,3.72,7.16,2.54S246.41,57.87,242.72,54.48Z" transform="translate(-0.84 -11.66)"/><ellipse class="cls-25" cx="133.55" cy="61.02" rx="18.76" ry="17.67"/><path class="cls-26" d="M178.15,60.65l-.53-.49a19.5,19.5,0,0,0-26.41,0L136.1,74.39a16.86,16.86,0,0,0-3.16,20.92,12.51,12.51,0,0,0,1.26,1.87l.08.1.19.23a19.2,19.2,0,0,0,1.63,1.76l.53.49a17.6,17.6,0,0,0,1.48,1.26l11.74,11,11.9-11.21c.44-.35.87-.71,1.28-1.1l15.12-14.23A16.89,16.89,0,0,0,178.15,60.65Z" transform="translate(-0.84 -11.66)"/><ellipse class="cls-25" cx="52.52" cy="72.99" rx="15.08" ry="14.2"/><ellipse class="cls-25" cx="16.18" cy="104.89" rx="9.09" ry="8.56"/><path class="cls-26" d="M256.79,89.5l0-.45A12.34,12.34,0,0,0,245,77.23l-13.14-.39a10.64,10.64,0,0,0-10.77,7.94,7.24,7.24,0,0,0-.28,1.4v.08c0,.07,0,.13,0,.19a9.57,9.57,0,0,0-.06,1.52v.46c0,.41.05.82.1,1.22l.31,10.2,10.35.31c.35,0,.7.07,1.06.08l13.14.4A10.69,10.69,0,0,0,256.79,89.5Z" transform="translate(-0.84 -11.66)"/><path class="cls-26" d="M292.31,112.52v-.27a7.12,7.12,0,0,0-6.82-6.81l-7.58-.23a6.15,6.15,0,0,0-6.21,4.58,4.3,4.3,0,0,0-.16.81v.05a.37.37,0,0,0,0,.11,6.19,6.19,0,0,0,0,.87v.27c0,.23,0,.47.06.7l.17,5.89,6,.17a4.32,4.32,0,0,0,.62,0l7.57.23A6.17,6.17,0,0,0,292.31,112.52Z" transform="translate(-0.84 -11.66)"/><ellipse class="cls-27" cx="274.88" cy="99.95" rx="2.69" ry="2.54"/><ellipse class="cls-27" cx="280.91" cy="99.95" rx="2.69" ry="2.54"/><ellipse class="cls-27" cx="287.34" cy="99.95" rx="2.69" ry="2.54"/></svg>