<svg xmlns="http://www.w3.org/2000/svg" xmlns:xlink="http://www.w3.org/1999/xlink" width="332.485" height="332.485" viewBox="0 0 332.485 332.485">
  <defs>
    <clipPath id="clip-path">
      <circle id="Ellipse_79" data-name="Ellipse 79" cx="124.714" cy="124.714" r="124.714" fill="none"/>
    </clipPath>
    <clipPath id="clip-path-2">
      <path id="Path_528" data-name="Path 528" d="M238.878,306.645l22.451,17.908c4.123,3.288,8.373,6.415,12.538,9.65,3.733,2.9,8.1,5.566,10.512,9.776,6.411,11.17,10.926,23.6,17.464,34.878,2.311,3.988,4.149,11.845,10.014,11.834a6.445,6.445,0,0,0,4.615-2.233c2.242-2.461,3.511-6.4,2.108-9.575-3.317-7.5-6.856-14.891-10.163-22.391-3.206-7.271-5.465-15.2-9.563-22.027-2.255-3.76-7.727-8.915-10.262-12.488-5.266-7.42-6.929-9.177-12.2-16.6.483.687,3.444,1.5,4.266,1.893,3.536,1.686,7.049,3.423,10.561,5.158q5.77,2.85,11.527,5.725c3.162,1.578,6.942,2.831,9.116,5.7,8.371,11.05,18.25,20.873,27.594,31.083a4.632,4.632,0,0,0,1.588,1.285c4.579,1.842,8.751-5.506,7.431-9.175-1.758-4.891-6.723-9.482-9.588-13.818-3.389-5.131-6.576-10.4-10.231-15.349a63.741,63.741,0,0,0-10.428-11.329c-4.158-3.446-8.841-5.266-13.478-7.806-12-6.575-23.74-13.7-35.6-20.539Z" transform="translate(-238.878 -278.206)" fill="none"/>
    </clipPath>
  </defs>
  <g id="finish-exercise" transform="translate(-38.936 -27.402)">
    <circle id="Ellipse_76" data-name="Ellipse 76" cx="166.242" cy="166.242" r="166.242" transform="translate(38.936 27.402)" fill="#f0f0f0" opacity="0.25"/>
    <circle id="Ellipse_77" data-name="Ellipse 77" cx="142.467" cy="142.467" r="142.467" transform="translate(62.711 51.176)" fill="#f0f0f0" opacity="0.25"/>
    <circle id="Ellipse_78" data-name="Ellipse 78" cx="125.15" cy="125.15" r="125.15" transform="translate(80.029 68.494)" fill="#f0f0f0"/>
    <g id="Group_319" data-name="Group 319" transform="translate(80.465 68.93)">
      <g id="Group_318" data-name="Group 318" clip-path="url(#clip-path)">
        <g id="Group_315" data-name="Group 315" transform="translate(53.564 162.874)">
          <path id="Path_493" data-name="Path 493" d="M175.371,310.46c1.75-1.048-.132-13.047-1.745-14.032-.674-.411-2.558,4.287-2.109,5.013-4.674-1.4-6.561-9.939-9.623-11.993-1.675,2.1-1.768,5.9-2.049,8.444-.55,4.99.109,7.082,2.8,8.594.873.491,8.477,6.648,7.978,6.877C171.095,312.512,174.469,311,175.371,310.46Z" transform="translate(-159.667 -289.449)" fill="#f3cebb"/>
          <path id="Path_494" data-name="Path 494" d="M180.107,313.322l-10.8,5.111-2.872,68.335H188.35Z" transform="translate(-161.104 -294.519)" fill="#83232d"/>
          <path id="Path_495" data-name="Path 495" d="M167.6,315.568l.393,6.31,14.065-7.6-1.145-3.46Z" transform="translate(-161.351 -293.986)" fill="#621a22"/>
        </g>
        <g id="Group_316" data-name="Group 316" transform="translate(86.386 178.492)">
          <path id="Path_496" data-name="Path 496" d="M214.927,327.458c1.514-.907-.115-11.289-1.509-12.141-.584-.356-2.214,3.708-1.825,4.338-4.045-1.209-5.677-8.6-8.326-10.376-1.448,1.813-1.53,5.106-1.772,7.305-.476,4.317.093,6.127,2.419,7.435.755.425,7.335,5.753,6.9,5.95C211.227,329.232,214.146,327.923,214.927,327.458Z" transform="translate(-201.339 -309.278)" fill="#f3cebb"/>
          <path id="Path_497" data-name="Path 497" d="M219.024,329.933l-9.344,4.422-2.485,59.125h18.962Z" transform="translate(-202.583 -313.664)" fill="#83232d"/>
          <path id="Path_498" data-name="Path 498" d="M208.2,331.877l.34,5.46,12.17-6.58-.991-2.994Z" transform="translate(-202.796 -313.203)" fill="#621a22"/>
        </g>
        <g id="Group_317" data-name="Group 317" transform="translate(144.119 182.699)">
          <path id="Path_499" data-name="Path 499" d="M326.113,335.63c-1.75-1.048.132-13.047,1.744-14.032.674-.412,2.559,4.286,2.109,5.013,4.674-1.4,6.562-9.939,9.623-11.993,1.674,2.1,1.769,5.9,2.049,8.443.55,4.99-.108,7.082-2.8,8.594-.872.49-8.477,6.648-7.978,6.876C330.388,337.681,327.015,336.168,326.113,335.63Z" transform="translate(-285.42 -314.619)" fill="#f3cebb"/>
          <path id="Path_500" data-name="Path 500" d="M319.891,338.491l10.8,5.111,2.872,68.335H311.648Z" transform="translate(-282.497 -319.688)" fill="#39a798"/>
          <path id="Path_501" data-name="Path 501" d="M334.412,340.738l-.393,6.31-14.065-7.6,1.145-3.46Z" transform="translate(-284.261 -319.156)" fill="#2b7d72"/>
          <path id="Path_502" data-name="Path 502" d="M287.153,352.627c-1.515-.907.114-11.288,1.509-12.141.583-.356,2.214,3.709,1.825,4.338,4.044-1.208,5.677-8.6,8.325-10.376,1.449,1.813,1.53,5.107,1.773,7.305.476,4.318-.094,6.128-2.42,7.436-.755.424-7.335,5.752-6.9,5.95C290.853,354.4,287.933,353.092,287.153,352.627Z" transform="translate(-277.167 -318.83)" fill="#f3cebb"/>
          <path id="Path_503" data-name="Path 503" d="M281.77,355.1l9.344,4.422L293.6,418.65H274.638Z" transform="translate(-274.638 -323.216)" fill="#39a798"/>
          <path id="Path_504" data-name="Path 504" d="M294.334,357.046l-.34,5.46-12.17-6.58.991-2.994Z" transform="translate(-276.164 -322.755)" fill="#2b7d72"/>
        </g>
      </g>
    </g>
    <g id="Group_325" data-name="Group 325" transform="translate(113.481 92.332)">
      <path id="Path_505" data-name="Path 505" d="M376.026,365.238s21.114-3.61,25.978.9c1.651,1.532-2.714,4.124-7.312,5.324-8.215,2.143-26.1,2.949-26.1,2.949Z" transform="translate(-183.487 -165.781)" fill="#1b1b23"/>
      <path id="Path_506" data-name="Path 506" d="M336.187,408.539s11.678,15.557,11.6,22.191c-.028,2.252-3.422,1.8-7.4-.8-7.1-4.653-16.643-17.719-16.643-17.719Z" transform="translate(-173.962 -175.266)" fill="#1b1b23"/>
      <path id="Path_507" data-name="Path 507" d="M234.546,186.347c-4.182,1.041-6.674,5.959-6.233,11.616-.079.013-.158.027-.237.046a2.73,2.73,0,0,0,1.319,5.3c.061-.016.121-.035.18-.054a14.992,14.992,0,0,0,3.387,5.1l2.645,10.623,5.254-1.307-1.635-6.569a6.648,6.648,0,0,0,1.433-.194c4.874-1.213,7.457-7.694,5.769-14.475S239.42,185.134,234.546,186.347Z" transform="translate(-153.207 -128.04)" fill="#f3cebb"/>
      <path id="Path_508" data-name="Path 508" d="M240.516,182.921c-1.854,2.906-12.245,6.34-12.245,6.34s.089,4.586-2.866,5.8a2.974,2.974,0,0,0-2.068,2.526c.025,2.519,2.516,2.357,3.387,2.773,1.83.874,3.567,5.042,3.567,5.042s-12.153.53-15.6-7.234c-4.509-10.158,4.444-12.823,4.444-12.823s4.412-12.683,13.336-13.065C236.939,172.093,244.208,177.132,240.516,182.921Z" transform="translate(-150.535 -125.094)" fill="#201d5b"/>
      <path id="Path_509" data-name="Path 509" d="M150.263,184.215c.769-1.336-4.893-8.56-6.319-8.616-.6-.024-.109,3.77.454,4.085-3.6.8-7.99-4.142-10.766-4.37-.333,2,1.007,4.546,1.758,6.326,1.475,3.495,2.68,4.633,5.01,4.641.756,0,8.043,1.264,7.8,1.6C148.2,187.144,149.866,184.9,150.263,184.215Z" transform="translate(-133.58 -125.739)" fill="#f3cebb"/>
      <path id="Path_510" data-name="Path 510" d="M286.761,153.766l5.587-13.515,12.774,6.758-10.479,10.7Z" transform="translate(-166.109 -118.293)" fill="#f3cebb"/>
      <g id="Group_321" data-name="Group 321" transform="translate(100.145)">
        <path id="Path_511" data-name="Path 511" d="M301.333,151.525l-2.1,3.229a2.557,2.557,0,0,0,.751,3.538l2.387,1.552,9.6-14.774-2.388-1.552a2.557,2.557,0,0,0-3.538.751l-2.1,3.229Z" transform="translate(-268.815 -118.899)" fill="#f9ac30"/>
        <path id="Path_512" data-name="Path 512" d="M283.522,112.373a7.386,7.386,0,0,0-6.255,3.724l-.041.063-14.111,21.711-.041.063a7.384,7.384,0,0,0-.863,7.228c1.1,2.42,3.572,4.071,6.784,4.529,5.9.841,11.73-4.818,11.976-5.06l.562-.554h0l8.842-13.6h0l.278-.74c.12-.321,2.925-7.947-.24-13C288.692,113.984,286.18,112.4,283.522,112.373Zm4.676,5.75c1.269,2.024,1.215,4.794.947,6.761a21.062,21.062,0,0,1-.417,2.167L277.74,143.96h0a21.142,21.142,0,0,1-1.811,1.26c-1.688,1.044-4.2,2.218-6.563,1.881-2.31-.329-4.049-1.43-4.772-3.021a4.873,4.873,0,0,1,.674-4.721l.043-.065,14.108-21.707.042-.065a4.873,4.873,0,0,1,4.041-2.533C285.247,115,286.96,116.146,288.2,118.123Z" transform="translate(-260.916 -112.373)" fill="#dd8d19"/>
        <path id="Path_513" data-name="Path 513" d="M295.549,142.085l-2.131-1.381a5.155,5.155,0,0,1-2.368-4.542c.262-5.809-4.4-13.121-12.187-18.18l-4.028-2.618-14.111,21.711,4.028,2.618c7.783,5.058,16.36,6.353,21.562,3.755a5.156,5.156,0,0,1,5.111.319l2.127,1.387,2.956-.574Z" transform="translate(-260.725 -113.008)" fill="#f9ac30"/>
        <g id="Group_320" data-name="Group 320" transform="translate(0 18.407)">
          <path id="Path_514" data-name="Path 514" d="M291.946,147.3l2.127,1.385-.52.8-2.127-1.386a5.154,5.154,0,0,0-5.111-.319c-5.2,2.6-13.78,1.3-21.562-3.755l-4.028-2.618,3.679-5.661,4.028,2.618c7.783,5.057,15.341,7.921,19.118,7.516A7.484,7.484,0,0,1,291.946,147.3Z" transform="translate(-260.725 -135.743)" fill="#dd8d19"/>
          <path id="Path_515" data-name="Path 515" d="M302.275,151.954l-.942,1.45-2.1,3.229a2.557,2.557,0,0,0,.751,3.538l2.387,1.552,3.041-4.679-2.388-1.552A2.558,2.558,0,0,1,302.275,151.954Z" transform="translate(-268.815 -139.186)" fill="#dd8d19"/>
        </g>
        <path id="Path_516" data-name="Path 516" d="M304.767,154.191l-3.668,5.643a1.453,1.453,0,0,0,.426,2.01l4.345,2.824L318.132,145.8l-4.345-2.824a1.453,1.453,0,0,0-2.01.427l-3.668,5.643" transform="translate(-269.249 -118.822)" fill="#4f5b5e"/>
        <path id="Path_517" data-name="Path 517" d="M302.048,162.587l-.95,1.462a1.452,1.452,0,0,0,.426,2.01l4.345,2.824.951-1.462-4.345-2.824A1.453,1.453,0,0,1,302.048,162.587Z" transform="translate(-269.249 -123.036)" fill="#3b4547"/>
      </g>
      <path id="Path_518" data-name="Path 518" d="M299.854,149.323l-5.273-2.435a3.141,3.141,0,0,1-1.531-4.156h0a3.141,3.141,0,0,1,4.156-1.531l5.274,2.435a3.141,3.141,0,0,1,1.53,4.156h0A3.141,3.141,0,0,1,299.854,149.323Z" transform="translate(-167.384 -118.434)" fill="#f3cebb"/>
      <path id="Path_519" data-name="Path 519" d="M288.793,152.941s-1.321-6.2-.095-7.568c.374-.416,1.3.332,1.715.7,1.359,1.209,2.235,6.437,2.235,6.437Z" transform="translate(-166.41 -119.355)" fill="#f3cebb"/>
      <path id="Path_520" data-name="Path 520" d="M238.878,306.645l22.451,17.908c4.123,3.288,8.373,6.415,12.538,9.65,3.733,2.9,8.1,5.566,10.512,9.776,6.411,11.17,10.926,23.6,17.464,34.878,2.311,3.988,4.149,11.845,10.014,11.834a6.445,6.445,0,0,0,4.615-2.233c2.242-2.461,3.511-6.4,2.108-9.575-3.317-7.5-6.856-14.891-10.163-22.391-3.206-7.271-5.465-15.2-9.563-22.027-2.255-3.76-7.727-8.915-10.262-12.488-5.266-7.42-6.929-9.177-12.2-16.6.483.687,3.444,1.5,4.266,1.893,3.536,1.686,7.049,3.423,10.561,5.158q5.77,2.85,11.527,5.725c3.162,1.578,6.942,2.831,9.116,5.7,8.371,11.05,18.25,20.873,27.594,31.083a4.632,4.632,0,0,0,1.588,1.285c4.579,1.842,8.751-5.506,7.431-9.175-1.758-4.891-6.723-9.482-9.588-13.818-3.389-5.131-6.576-10.4-10.231-15.349a63.741,63.741,0,0,0-10.428-11.329c-4.158-3.446-8.841-5.266-13.478-7.806-12-6.575-23.74-13.7-35.6-20.539Z" transform="translate(-155.941 -147.589)" fill="#ffdd5c"/>
      <path id="Path_521" data-name="Path 521" d="M235.153,221.647c.957.051,1.886.633,2.964.441,1.916-.343,1.5-.629,2.59-1.385a11.037,11.037,0,0,1,3.183-1.058s11.418,36.081,27.632,42.7c0,0-6.8,25.349-25.437,27.632s-16.748-65.769-16.748-65.769l3.351-1.553c.658-.306,1.311-.643,1.983-.919A1.1,1.1,0,0,1,235.153,221.647Z" transform="translate(-153.903 -135.153)" fill="#4cdfcb"/>
      <path id="Path_522" data-name="Path 522" d="M270.514,272.478c-2.444,6.745-9.779,22.888-24.476,24.689-5.106.625-8.671-4.028-11.156-11.114,2.491,9.28,6.37,15.886,12.392,15.148,18.637-2.283,25.437-27.632,25.437-27.632A17.571,17.571,0,0,1,270.514,272.478Z" transform="translate(-155.092 -146.373)" fill="#39a798"/>
      <path id="Path_523" data-name="Path 523" d="M244.59,207.333a4.725,4.725,0,0,0,.128,1.477q.962,4.876,1.923,9.751c.91,4.617,1.869,9.359,4.419,13.314,2.794,4.334,7.309,7.236,10.908,10.84A85.939,85.939,0,0,1,272.753,255.9c1.07,1.612,2.149,3.323,3.822,4.3,4.223,2.464,8.4-1.066,11.1-4.129a50.961,50.961,0,0,0,4.416-6.016c1.2-1.851,2.873-3.6,3.692-5.667,1.341-3.379-1.066-4.962-4.089-5.534-8.958-1.693-19.385-6.756-24.867-14.321-5.164-7.125-3.658-14.3.651-21.265a103.991,103.991,0,0,0,5.957-10.828c3.969-8.5,7.381-17.245,11.277-25.778.775-1.7,1.564-3.6.973-5.37a6.16,6.16,0,0,0-3.18-3.193,5.909,5.909,0,0,0-4.7-.752,6.774,6.774,0,0,0-3.085,3.124C266.6,173.823,263,190.278,251.552,200.909c-1.768,1.641-3.691,3.106-5.6,4.579a3.493,3.493,0,0,0-1.247,1.385A2,2,0,0,0,244.59,207.333Z" transform="translate(-157.15 -121.873)" fill="#e83f50"/>
      <path id="Path_524" data-name="Path 524" d="M296.2,238.853c-8.958-1.693-19.385-6.756-24.867-14.321-5.164-7.125-3.658-14.3.651-21.265a103.991,103.991,0,0,0,5.957-10.828c3.969-8.5,7.381-17.245,11.277-25.778.775-1.7,1.564-3.6.973-5.37a6.16,6.16,0,0,0-3.18-3.193,5.909,5.909,0,0,0-4.7-.752,4.453,4.453,0,0,0-1.677,1.177,6.5,6.5,0,0,1,4.109.917,6.156,6.156,0,0,1,3.18,3.193c.592,1.769-.2,3.673-.973,5.37-3.9,8.533-7.308,17.278-11.277,25.778a103.7,103.7,0,0,1-5.957,10.828c-4.308,6.965-5.814,14.14-.65,21.265,5.482,7.564,15.91,12.627,24.867,14.321,3.024.571,5.429,2.155,4.089,5.534-.819,2.064-2.493,3.816-3.692,5.667a50.957,50.957,0,0,1-4.416,6.016,21.591,21.591,0,0,1-3.194,3.02,16.644,16.644,0,0,0,5.463-4.361,50.961,50.961,0,0,0,4.416-6.016c1.2-1.851,2.873-3.6,3.692-5.667C301.629,241.008,299.223,239.425,296.2,238.853Z" transform="translate(-161.656 -121.873)" fill="#ae2f3c" opacity="0.3"/>
      <path id="Path_525" data-name="Path 525" d="M375.116,372.94s23.495-2.607,28.027-5.487a6.491,6.491,0,0,1-.559,3.412,90,90,0,0,1-15.057,3.265,116.65,116.65,0,0,1-15.136,1.029Z" transform="translate(-184.293 -166.541)" fill="#060607"/>
      <g id="Group_324" data-name="Group 324" transform="translate(82.937 130.617)">
        <g id="Group_323" data-name="Group 323" transform="translate(0 0)" clip-path="url(#clip-path-2)">
          <g id="Group_322" data-name="Group 322" transform="translate(0 25.073)" opacity="0.5">
            <path id="Path_526" data-name="Path 526" d="M318.7,390.769A6.445,6.445,0,0,1,314.081,393c-5.864.011-7.7-7.846-10.013-11.834-6.538-11.279-11.053-23.707-17.465-34.878-2.416-4.21-6.779-6.876-10.512-9.776-4.164-3.236-8.414-6.361-12.537-9.65l-21.092-16.824-3.584,3.366,22.451,17.908c4.123,3.288,8.373,6.415,12.538,9.65,3.733,2.9,8.1,5.566,10.512,9.776,6.411,11.17,10.926,23.6,17.464,34.878,2.311,3.988,4.149,11.845,10.014,11.834a6.445,6.445,0,0,0,4.615-2.233,10.645,10.645,0,0,0,2.465-4.731C318.857,390.582,318.779,390.678,318.7,390.769Z" transform="translate(-238.878 -310.039)" fill="#bfa645"/>
            <path id="Path_527" data-name="Path 527" d="M353.388,358.995a4.641,4.641,0,0,1-1.587-1.286c-9.344-10.21-19.224-20.034-27.6-31.083-1.273-1.68-3.036-2.389-4.9-3.229-5.346-2.4-10.661-4.847-16.082-7.089q-3.113-1.288-6.237-2.553c-1.815-.734-4.346-1.688-6.36-1.524a24.6,24.6,0,0,0-4.111.369c4.976,2.155,6.589,3.009,8.329,3.859q3.253,1.588,6.5,3.191,5.77,2.85,11.527,5.725c3.162,1.578,6.942,2.831,9.116,5.7,8.371,11.05,18.25,20.873,27.594,31.083a4.625,4.625,0,0,0,1.588,1.286c3.511,1.413,6.78-2.579,7.52-6.171C357.267,358.869,355.367,359.79,353.388,358.995Z" transform="translate(-248.994 -310.5)" fill="#bfa645"/>
          </g>
          <circle id="Ellipse_80" data-name="Ellipse 80" cx="8.265" cy="8.265" r="8.265" transform="translate(51.544 62.597) rotate(-80.984)" fill="#bfa645" opacity="0.2"/>
          <circle id="Ellipse_81" data-name="Ellipse 81" cx="8.265" cy="8.265" r="8.265" transform="translate(74.352 22.622)" fill="#bfa645" opacity="0.2"/>
        </g>
      </g>
      <path id="Path_529" data-name="Path 529" d="M226.4,222.788c4.445-.466,8.48,3.1,10.209,7.224s1.732,8.724,2.031,13.183,1.027,9.151,3.856,12.611c4.95,6.055,14.589,6.359,19.75,12.235a5.613,5.613,0,0,1,1.548,3.09,6.26,6.26,0,0,1-.575,2.81,24.856,24.856,0,0,1-14.648,14.1,4.979,4.979,0,0,1-2.583.373,5.517,5.517,0,0,1-2.061-1.069,19.36,19.36,0,0,1-8.283-9.83c-3.747-7.889-7.494-15.78-10.93-23.809a42.245,42.245,0,0,1-3.18-9.632c-1.185-7.206,1.185-14.515,4.129-21.2" transform="translate(-152.192 -135.812)" fill="#39a798" opacity="0.2"/>
      <path id="Path_530" data-name="Path 530" d="M217.555,214.615c-.987-.889-6.168-1.11-7.569-1.324-5.017-.767-10.81-1.378-15.582-3.453a72.524,72.524,0,0,1-10.934-6.217c-7.431-4.913-14.385-10.487-21.5-15.828-1.055-.791-2.113-1.576-3.188-2.339-4.1-2.9-8.954,2.533-8.373,7.461.128,1.071,1.7,2.25,2.4,2.937,1.734,1.7,3.585,3.291,5.433,4.868,9.359,7.991,18.377,16.67,29.307,22.53,5.806,3.113,17.042,4.527,17.953,12.585.517,4.564.159,9.168.316,13.747.222,6.5.25,13,.133,19.5-.169,9.371.27,21.414-4.39,29.912,0,0,21.695,10.048,33.113-5.938,2.742-3.838,3.164-8.638,2.048-13.14a43.491,43.491,0,0,0-5.464-12.02c-3.633-5.912-7.969-11.5-10.5-18.022-2.795-7.2-2.03-14.74-2.259-22.291-.083-2.754,1.179-10.844-.907-12.937Z" transform="translate(-137.142 -127.719)" fill="#e83f50"/>
      <path id="Path_531" data-name="Path 531" d="M237.5,279.912a43.491,43.491,0,0,0-5.464-12.02c-3.633-5.912-7.969-11.5-10.5-18.022-2.795-7.2-2.03-14.74-2.259-22.291-.083-2.754,1.179-10.844-.907-12.937l-.028-.027c-.987-.889-6.168-1.11-7.569-1.324-5.017-.767-10.81-1.378-15.582-3.453a72.522,72.522,0,0,1-10.934-6.217c-7.431-4.913-14.385-10.487-21.5-15.828-1.055-.791-2.113-1.576-3.188-2.339a4.317,4.317,0,0,0-5.488.392,4.089,4.089,0,0,1,2.769.8c1.075.762,2.134,1.548,3.188,2.339,7.12,5.342,14.074,10.914,21.5,15.828a72.554,72.554,0,0,0,10.933,6.217c4.772,2.075,10.565,2.686,15.583,3.452,1.4.214,6.582.435,7.568,1.324l.029.028c2.086,2.093.824,10.183.907,12.937.229,7.55-.536,15.093,2.258,22.291,2.531,6.518,6.867,12.11,10.5,18.021a43.518,43.518,0,0,1,5.464,12.021c1.116,4.5.693,9.3-2.048,13.14a20.967,20.967,0,0,1-7.337,6.5,20.666,20.666,0,0,0,10.056-7.694C238.2,289.214,238.62,284.414,237.5,279.912Z" transform="translate(-137.933 -127.72)" fill="#ae2f3c" opacity="0.3"/>
      <path id="Path_532" data-name="Path 532" d="M233.832,222.7l-6.827,12.983,5.044,1.17L229.365,248.4l7.323,8.617a124.178,124.178,0,0,1-1.711-15.315c-.318-6.915.339-14.975.092-16.407A9.149,9.149,0,0,0,233.832,222.7Z" transform="translate(-153.419 -135.801)" fill="#ae2f3c"/>
      <path id="Path_533" data-name="Path 533" d="M229.865,251.216l2.761-11.885-5.365-.772-.257.489,5.044,1.17-2.684,11.553,7.323,8.617s-.1-.52-.247-1.434Z" transform="translate(-153.419 -139.17)" fill="#83232d"/>
      <path id="Path_534" data-name="Path 534" d="M244.946,219.645s-1.327,1.3-.129,5.329c1.112,3.747,2.317,18.076,8.778,23.421l2.2-12.437-7.711-4.542,2.15-3.166Z" transform="translate(-157.096 -135.153)" fill="#ae2f3c"/>
      <path id="Path_535" data-name="Path 535" d="M248.173,231.416l2.15-3.166-5.293-8.6a1.806,1.806,0,0,0-.319.536l4.963,8.069-2.15,3.166,7.711,4.542L253.119,247.9c.182.173.369.341.56.5l2.2-12.437Z" transform="translate(-157.179 -135.153)" fill="#83232d"/>
    </g>
    <path id="Path_536" data-name="Path 536" d="M181.833,146s-5.747-7.394-13.348-6.2l-3.151,4.205S176.457,141.564,181.833,146Z" transform="translate(-26.842 -25.838)" fill="#fa5c43"/>
    <path id="Path_537" data-name="Path 537" d="M329.719,215.745s-2.012-9.146-9.387-11.338l-4.653,2.442S326.772,209.426,329.719,215.745Z" transform="translate(-58.769 -39.585)" fill="#fa5c43"/>
    <path id="Path_538" data-name="Path 538" d="M390.162,226.957s6.367,32.531,32.282,40.9l16.666-8.262S400.069,249.562,390.162,226.957Z" transform="translate(-74.586 -44.374)" fill="#ffdd5d"/>
    <path id="Path_539" data-name="Path 539" d="M143.5,235.794s-8.751-3.335-14.629,1.629l-.51,5.23S136.6,234.792,143.5,235.794Z" transform="translate(-18.991 -46.018)" fill="#4cdfcb"/>
    <path id="Path_540" data-name="Path 540" d="M368.2,275.871s.961,6.538,6.042,8.448l3.4-1.488S369.962,280.465,368.2,275.871Z" transform="translate(-69.923 -54.761)" fill="#4cdfcb"/>
    <path id="Path_541" data-name="Path 541" d="M366.77,180.781s4.29,5.026,9.61,3.941l2.085-3.066S370.7,183.736,366.77,180.781Z" transform="translate(-69.619 -34.568)" fill="#4cdfcb"/>
    <path id="Path_542" data-name="Path 542" d="M183.889,276.681s-3.822-6.257-9.839-6l-2.821,2.995S180.1,272.755,183.889,276.681Z" transform="translate(-28.093 -53.658)" fill="#f54363"/>
    <path id="Path_543" data-name="Path 543" d="M224.944,114.978s6.02,4.186,11.422,1.523l1.374-3.878S230,117.042,224.944,114.978Z" transform="translate(-39.501 -20.094)" fill="#f54363"/>
    <path id="Path_544" data-name="Path 544" d="M133.58,299.667s4.943-.365,6.648-4.063l-.929-2.622S137.113,298.6,133.58,299.667Z" transform="translate(-20.098 -58.395)" fill="#ffdd5d"/>
    <path id="Path_545" data-name="Path 545" d="M210,163.532s7.832-.578,10.532-6.438l-1.472-4.154S215.6,161.84,210,163.532Z" transform="translate(-36.328 -28.656)" fill="#ffdd5d"/>
    <path id="Path_546" data-name="Path 546" d="M109.019,207.805s-22.162-28.513-51.473-23.926L45.393,200.1S88.287,190.684,109.019,207.805Z" transform="translate(-1.371 -35.12)" fill="#2e93ca"/>
    <path id="Path_547" data-name="Path 547" d="M306.227,100.456s27,14.908,48.451,1.434l4.074-16.819S328.264,106.907,306.227,100.456Z" transform="translate(-56.762 -14.243)" fill="#4cdfcb"/>
  </g>
</svg>
