<svg id="gift-box" xmlns="http://www.w3.org/2000/svg" width="77.246" height="72.777" viewBox="0 0 77.246 72.777">
  <g id="Group_330" data-name="Group 330" transform="translate(10.219)">
    <path id="Path_554" data-name="Path 554" d="M12572.072,5566.312s1.118-25.443-5.22-27.028-23.485,13.234-23.485,13.234,15.081-6.855,19.852-4.1,5.685,18.454,5.685,18.454Z" transform="translate(-12543.367 -5539.165)" fill="#2e4294"/>
    <path id="Path_555" data-name="Path 555" d="M12543.441,5561.347s-1.118-20.79,5.22-22.085,23.486,10.813,23.486,10.813-15.082-5.6-19.852-3.351-5.686,15.078-5.686,15.078Z" transform="translate(-12512.438 -5535.319)" fill="#2e4294"/>
    <path id="Path_556" data-name="Path 556" d="M12557.757,5581.638l5.368-1.31s-7.55-7.643-10.438-12.583c1.677-3.355,10.438-6.711,10.438-6.711s-3.075-3.728-19.758,3.915C12551.568,5578.836,12557.757,5581.638,12557.757,5581.638Z" transform="translate(-12543.367 -5551.596)" fill="#d6dbe2"/>
    <path id="Path_557" data-name="Path 557" d="M12554.092,5582.044l-5.114-3.076s6.245-3.542,7.363-7.735c-2.33-5.126-12.489-7.922-12.489-7.922s6.9-1.118,19.293,3.542C12566.593,5574.681,12554.092,5582.044,12554.092,5582.044Z" transform="translate(-12503.775 -5552.194)" fill="#d6dbe2"/>
  </g>
  <g id="Group_331" data-name="Group 331" transform="translate(0 22.488)">
    <path id="Path_548" data-name="Path 548" d="M12522.507,5624.4l-2.363-1.417-1.89-12.443,51.335-9.066.329,13.634-1.1,1.575-.118,34.786-43.2-.134Z" transform="translate(-12518.254 -5601.453)" fill="#fcc284"/>
    <path id="Path_549" data-name="Path 549" d="M12669.556,5615.552l-1.892,9.293-1.732,1.26-2.834,25.358h-20.477l-.186-34.722,1.188-1.782v-13.532Z" transform="translate(-12592.31 -5601.428)" fill="#f18528"/>
    <path id="Path_550" data-name="Path 550" d="M12573.467,5611.2l-12.618,1.936,1.5,13.192,1.219,1.146,2.079,29.609h11.615l-1.506-31.474-1.577-1.648Z" transform="translate(-12543.923 -5607.223)" fill="#fff"/>
    <path id="Path_551" data-name="Path 551" d="M12668.518,5616.661l-.574,12.044-1.361,1.363-1.434,30.684h5.734l1.506-28.318,1.578-1.29.859-11.041Z" transform="translate(-12605.78 -5610.462)" fill="#fff"/>
    <path id="Path_552" data-name="Path 552" d="M12522.971,5642.753l49.683-7.241-.574,1.578-47.531,7.169Z" transform="translate(-12521.458 -5621.642)" fill="#f18528"/>
    <path id="Path_553" data-name="Path 553" d="M12667.6,5645.015l-23.371-9.678-.574,1.505,22.941,9.607Z" transform="translate(-12593.032 -5621.538)" fill="#d87825"/>
  </g>
</svg>
