<svg xmlns="http://www.w3.org/2000/svg" width="35.001" height="38.63" viewBox="0 0 35.001 38.63">
  <g id="laboral-icon" transform="translate(-24.048)">
    <g id="Group_237" data-name="Group 237" transform="translate(24.048 0)">
      <g id="Group_236" data-name="Group 236">
        <path id="Path_450" data-name="Path 450" d="M45.676,19.63l-2.882-1.112-1.654-1.654a.564.564,0,0,0-.39-.165V15.347a6.1,6.1,0,0,0,1.559-3.078l0,0a1.669,1.669,0,0,0,.433-.031,1.73,1.73,0,0,0,1.342-1.717v-.433a1.752,1.752,0,0,0-.528-1.256c.531-2.857.1-5.185-1.244-6.74C41.015.59,38.922-.126,36.26.018A7.922,7.922,0,0,0,31.7,1.7a3,3,0,0,0-2.648,3.326,14.793,14.793,0,0,0,.42,3.481,1.731,1.731,0,0,0-.976,1.58v.427a1.73,1.73,0,0,0,1.342,1.717,1.668,1.668,0,0,0,.433.031l0,0a6.1,6.1,0,0,0,1.559,3.078V16.7a.564.564,0,0,0-.39.165l-1.654,1.654-3.242,1.25a3.9,3.9,0,0,0-2.495,3.8l.46,11.5a.566.566,0,0,0,.565.543H25.1a.566.566,0,0,0,.543-.588l-.46-11.5a2.767,2.767,0,0,1,.109-.887l1.838,1.838a2.752,2.752,0,0,1,.811,1.959V35.04a.566.566,0,1,0,1.132,0V26.431a3.876,3.876,0,0,0-1.143-2.759L25.855,21.6a2.765,2.765,0,0,1,1.1-.773l3.025-1.167,2.309,3.464a1.672,1.672,0,0,0,1.231.739q.084.008.167.008a1.668,1.668,0,0,0,.868-.245l-.5,11.391a.566.566,0,0,0,.541.59h.025a.566.566,0,0,0,.565-.541l.46-10.562h1.286l.46,10.562a.566.566,0,0,0,.565.541h.025a.566.566,0,0,0,.541-.59l-.5-11.391a1.667,1.667,0,0,0,.868.245c.055,0,.111,0,.167-.008a1.671,1.671,0,0,0,1.23-.739L42.6,19.658l2.665,1.028a.566.566,0,0,0,.407-1.056ZM31.385,12.057a1.129,1.129,0,0,0-1.173-.92.54.54,0,0,1-.146-.01.6.6,0,0,1-.437-.608v-.427a.592.592,0,0,1,.443-.593.545.545,0,0,1,.536.206.8.8,0,0,0,1.1.173,4.313,4.313,0,0,0,1.159-1.224.566.566,0,0,0-.956-.606,3.223,3.223,0,0,1-.628.729,1.673,1.673,0,0,0-.665-.358,13.605,13.605,0,0,1-.433-3.387,2.107,2.107,0,0,1,.849-1.926,1.957,1.957,0,0,1,.9-.288.571.571,0,0,0,.391-.156,6.72,6.72,0,0,1,4-1.513c2.3-.125,4.076.457,5.136,1.682,1.074,1.241,1.428,3.147,1.033,5.532a2.532,2.532,0,0,0-.546.037l-.567-1.362a.566.566,0,0,0-.666-.33c-.055.014-5.555,1.418-7.874-1.469a.566.566,0,0,0-.882.709c2.352,2.929,7.037,2.272,8.56,1.964l.441,1.059a.948.948,0,0,0,1.1.562,1.321,1.321,0,0,1,.457-.033.589.589,0,0,1,.444.586v.433a.605.605,0,0,1-.437.608.535.535,0,0,1-.146.01,1.129,1.129,0,0,0-1.173.92,4.988,4.988,0,0,1-9.812,0ZM34.07,22.577a.546.546,0,0,1-.841-.083L30.9,19l.966-.966,3.595,3.145Zm1.627.793.037-.858.556-.556.556.556.037.858Zm.594-2.966-3.326-2.911v-1.2a6.118,6.118,0,0,0,6.653,0v1.2Zm3.062,2.089a.544.544,0,0,1-.4.241.538.538,0,0,1-.44-.157l-1.393-1.393,3.595-3.145.966.966Z" transform="translate(-24.048 0)" fill="#fff"/>
      </g>
    </g>
    <g id="Group_239" data-name="Group 239" transform="translate(39.773 21.168)">
      <g id="Group_238" data-name="Group 238">
        <path id="Path_451" data-name="Path 451" d="M251.743,285.969a2.383,2.383,0,0,0-2.38-2.38h-3.668V282.34a1.777,1.777,0,0,0-1.775-1.775H240.29a1.777,1.777,0,0,0-1.775,1.775v1.249h-3.668a2.383,2.383,0,0,0-2.38,2.38v1.68a2.99,2.99,0,0,0,.6,1.764v6.294a2.321,2.321,0,0,0,2.319,2.319h13.429a2.321,2.321,0,0,0,2.319-2.319v-6.294a2.991,2.991,0,0,0,.6-1.764v-1.68Zm-12.1-3.629h0a.645.645,0,0,1,.644-.644h3.629a.644.644,0,0,1,.644.644v1.249h-4.916Zm10.964,5.309c0,.971-.919,1.935-2.5,2.654v-.1a.566.566,0,0,0-.566-.566h-2.419a.566.566,0,0,0-.566.566v1.814a1.775,1.775,0,0,0,3.551,0v-.484a8.756,8.756,0,0,0,1.892-1.016v5.19a1.188,1.188,0,0,1-1.187,1.187H235.391a1.188,1.188,0,0,1-1.187-1.187v-5.19a8.758,8.758,0,0,0,1.892,1.016v.484a1.775,1.775,0,0,0,3.5.4,18.947,18.947,0,0,0,2.5.164c.207,0,.416,0,.623-.01a.566.566,0,1,0-.036-1.131c-.195.006-.392.009-.587.009a17.763,17.763,0,0,1-2.458-.168V290.2a.566.566,0,0,0-.566-.566h-2.419a.566.566,0,0,0-.566.566v.1c-1.578-.72-2.5-1.683-2.5-2.654v-1.68a1.25,1.25,0,0,1,1.249-1.249h14.515a1.25,1.25,0,0,1,1.249,1.249Zm-3.629,3.119v1.249a.644.644,0,1,1-1.287,0v-1.249Zm-9.755,1.249v-1.249h1.287v1.249a.644.644,0,1,1-1.287,0Z" transform="translate(-232.467 -280.565)" fill="#fff"/>
      </g>
    </g>
  </g>
</svg>
