<svg xmlns="http://www.w3.org/2000/svg" width="39.988" height="37.909" viewBox="0 0 39.988 37.909">
  <g id="pareja-icon" transform="translate(0 -13.311)">
    <g id="Group_247" data-name="Group 247" transform="translate(2.773 36.185)">
      <g id="Group_246" data-name="Group 246">
        <path id="Path_455" data-name="Path 455" d="M37.994,309.282l-1.386-2.773a.586.586,0,1,0-1.048.524l1.324,2.649v10.952a.586.586,0,0,0,1.172,0V309.544A.585.585,0,0,0,37.994,309.282Z" transform="translate(-35.498 -306.185)" fill="#fff"/>
      </g>
    </g>
    <g id="Group_249" data-name="Group 249" transform="translate(16.636 36.185)">
      <g id="Group_248" data-name="Group 248">
        <path id="Path_456" data-name="Path 456" d="M215.234,306.247a.586.586,0,0,0-.786.262l-1.386,2.773a.585.585,0,0,0-.062.262v11.091a.586.586,0,0,0,1.172,0V309.682l1.324-2.649A.586.586,0,0,0,215.234,306.247Z" transform="translate(-213 -306.185)" fill="#fff"/>
      </g>
    </g>
    <g id="Group_257" data-name="Group 257" transform="translate(19.408 13.311)">
      <g id="Group_256" data-name="Group 256">
        <path id="Path_460" data-name="Path 460" d="M267.4,38.477l-4.753-1.9a.8.8,0,0,1-.5-.743v-1.44a6.765,6.765,0,0,0,.929-.63,6.808,6.808,0,0,0,2.537-5.31c0-3.412-2.471-3.9-4.861-4.377a9.749,9.749,0,0,1-4.37-1.626.586.586,0,0,0-.89.195,6.868,6.868,0,0,1-.887,1.282,2.989,2.989,0,0,1-2.056,1.168,1.96,1.96,0,0,0-.8.17v-.971a7.039,7.039,0,0,1,14.078,0V25.68a.586.586,0,1,0,1.172,0V24.294a8.216,8.216,0,0,0-4.2-7.161,2.837,2.837,0,0,0,.039-.464c0-1.852-1.818-3.358-4.052-3.358s-4.052,1.507-4.052,3.358a2.827,2.827,0,0,0,.039.464,8.216,8.216,0,0,0-4.2,7.161v2.773a1.976,1.976,0,0,0,1.4,1.889,6.812,6.812,0,0,0,3.447,5.437v1.44a.8.8,0,0,1-.5.743l-4.753,1.9a2.652,2.652,0,0,0-1.675,2.475V44.4a.586.586,0,0,0,.586.586h.107v5.652a.586.586,0,0,0,1.172,0V44.982h1.6v5.653a.586.586,0,1,0,1.172,0V43.01a.586.586,0,0,0-1.172,0v.8h-2.294V40.952a1.487,1.487,0,0,1,.939-1.387l3.7-1.478a10.791,10.791,0,0,0,4.221,4.061.586.586,0,0,0,.524,0,10.79,10.79,0,0,0,4.221-4.061l3.7,1.479a1.487,1.487,0,0,1,.939,1.387V43.81h-2.294v-.8a.586.586,0,0,0-1.172,0v7.625a.586.586,0,0,0,1.172,0V44.982h1.6v5.653a.586.586,0,0,0,1.172,0V44.982h.107a.586.586,0,0,0,.586-.586V40.952A2.652,2.652,0,0,0,267.4,38.477ZM258.79,14.483c1.559,0,2.832.946,2.878,2.122a8.208,8.208,0,0,0-5.756,0C255.958,15.429,257.231,14.483,258.79,14.483Zm-3.551,18.369a5.636,5.636,0,0,1-2.1-4.4.586.586,0,0,0-.586-.586.8.8,0,1,1,0-1.6c1.776,0,3.065-1.608,3.646-2.508a12.091,12.091,0,0,0,4.327,1.467c2.575.511,3.918.887,3.918,3.228a5.636,5.636,0,0,1-2.1,4.4,5.654,5.654,0,0,1-7.1,0Zm3.551,8.11a9.8,9.8,0,0,1-3.38-3.319,1.961,1.961,0,0,0,1.193-1.81v-.917a6.782,6.782,0,0,0,4.374,0v.917a1.961,1.961,0,0,0,1.193,1.81A9.8,9.8,0,0,1,258.79,40.962Z" transform="translate(-248.5 -13.311)" fill="#fff"/>
      </g>
    </g>
    <g id="Group_259" data-name="Group 259" transform="translate(0 13.311)">
      <g id="Group_258" data-name="Group 258">
        <path id="Path_461" data-name="Path 461" d="M20.067,33.688l-3.8-1.141-.634-.951a.584.584,0,0,0-.595-.251v-.87a6.822,6.822,0,0,0,2.754-4.983,1.966,1.966,0,0,0,.711-3.383V18.058a3.356,3.356,0,0,0-1.485-2.772,2.646,2.646,0,0,0-2.567-1.972H8.9a5.444,5.444,0,0,0-5.438,5.438v3.358a1.966,1.966,0,0,0,.711,3.383,6.822,6.822,0,0,0,2.754,4.983v.87a.584.584,0,0,0-.595.251l-.634.951L1.9,33.688A2.649,2.649,0,0,0,0,36.241v14.4a.586.586,0,1,0,1.172,0v-14.4A1.485,1.485,0,0,1,2.236,34.81l2.617-.785a.584.584,0,0,0,.128.341l2.353,2.941a1.273,1.273,0,0,0,1.766.224l1.3-.973V50.636a.586.586,0,1,0,1.172,0V36.558l1.3.973a1.273,1.273,0,0,0,1.766-.224l2.353-2.941a.584.584,0,0,0,.128-.341l2.617.785a1.485,1.485,0,0,1,1.065,1.431.586.586,0,1,0,1.172,0A2.649,2.649,0,0,0,20.067,33.688ZM5.33,24.989a.586.586,0,0,0-.586-.586.8.8,0,0,1-.8-.8.791.791,0,0,1,.4-.688c.013-.008.025-.016.037-.025a.8.8,0,0,1,.362-.088h.818a1.282,1.282,0,0,0,1.254-1.028l.426-2.131a.1.1,0,0,1,.046-.067.115.115,0,0,1,.094-.01,13.1,13.1,0,0,0,3.6.464,11.8,11.8,0,0,0,4.385-.738.586.586,0,0,0-.451-1.081,10.784,10.784,0,0,1-3.933.648,12.094,12.094,0,0,1-3.271-.417,1.293,1.293,0,0,0-1.03.133,1.276,1.276,0,0,0-.588.84l-.426,2.131a.108.108,0,0,1-.105.086H4.745c-.036,0-.072,0-.107,0V18.751A4.271,4.271,0,0,1,8.9,14.485h5.545a1.483,1.483,0,0,1,1.468,1.259.586.586,0,0,0,.291.418,2.187,2.187,0,0,1,1.121,1.9v4.351a.586.586,0,0,0,.291.506.791.791,0,0,1,.4.688.8.8,0,0,1-.8.8.586.586,0,0,0-.586.586,5.653,5.653,0,1,1-11.305,0ZM8.4,36.594a.107.107,0,0,1-.148-.019L6.163,33.969l.787-1.181,3.089,2.574Zm2.587-1.97-2.88-2.4v-1.05a6.809,6.809,0,0,0,5.76,0v1.05Zm2.735,1.951a.107.107,0,0,1-.148.019l-1.643-1.232,3.089-2.574.787,1.181Z" transform="translate(0 -13.313)" fill="#fff"/>
      </g>
    </g>
    <g id="Group_261" data-name="Group 261" transform="translate(8.321 41.038)">
      <g id="Group_260" data-name="Group 260">
        <path id="Path_462" data-name="Path 462" d="M107.133,368.313h-.007a.583.583,0,0,0-.582.586.587.587,0,1,0,.589-.586Z" transform="translate(-106.544 -368.313)" fill="#fff"/>
      </g>
    </g>
    <g id="Group_263" data-name="Group 263" transform="translate(8.321 46.583)">
      <g id="Group_262" data-name="Group 262">
        <path id="Path_463" data-name="Path 463" d="M107.133,439.313h-.007a.583.583,0,0,0-.582.586.587.587,0,1,0,.589-.586Z" transform="translate(-106.544 -439.313)" fill="#fff"/>
      </g>
    </g>
    <g id="Group_265" data-name="Group 265" transform="translate(8.321 43.81)">
      <g id="Group_264" data-name="Group 264">
        <path id="Path_464" data-name="Path 464" d="M107.133,403.813h-.007a.589.589,0,1,0,.007,0Z" transform="translate(-106.544 -403.813)" fill="#fff"/>
      </g>
    </g>
  </g>
</svg>
