<svg id="personal-icon" xmlns="http://www.w3.org/2000/svg" width="26.385" height="38.692" viewBox="0 0 26.385 38.692">
  <g id="Group_230" data-name="Group 230">
    <path id="Path_447" data-name="Path 447" d="M167.9,113.981l-5.147-2.288a1.008,1.008,0,0,1-.6-.921v-1.413a7.5,7.5,0,0,0,2.84-5.876v-1.99a1.835,1.835,0,0,0,.947-1.6V99.7a7.521,7.521,0,0,0-7.512-7.512h-1.893a7.521,7.521,0,0,0-7.512,7.512v1.752a1.857,1.857,0,0,0,.707,1.488,1.728,1.728,0,0,0,.24.155v.391a7.5,7.5,0,0,0,2.84,5.876v1.413a1.009,1.009,0,0,1-.6.921l-5.147,2.288a4.676,4.676,0,0,0-2.775,4.27V129.99a.886.886,0,1,0,1.771,0V118.251a2.9,2.9,0,0,1,.018-.3l2.372,2.372a1.942,1.942,0,0,1,.572,1.382v8.29a.886.886,0,1,0,1.771,0V121.7a3.7,3.7,0,0,0-1.091-2.634l-2.827-2.827a2.893,2.893,0,0,1,.908-.638l5.06-2.249L156.6,117.1V129.99a.886.886,0,1,0,1.771,0V117.1l3.753-3.753,5.06,2.249a2.892,2.892,0,0,1,.908.638l-2.827,2.827a3.7,3.7,0,0,0-1.091,2.634v8.29a.886.886,0,1,0,1.771,0V121.7a1.942,1.942,0,0,1,.572-1.382l2.371-2.371a2.89,2.89,0,0,1,.018.3V129.99a.886.886,0,1,0,1.771,0V118.251A4.677,4.677,0,0,0,167.9,113.981Zm-10.418,1.5-3.293-3.293a2.774,2.774,0,0,0,.392-1.418v-.36a7.506,7.506,0,0,0,5.8,0v.36a2.774,2.774,0,0,0,.392,1.419Zm0-6.26a5.747,5.747,0,0,1-5.741-5.741v-.4a5.237,5.237,0,0,0,1.609-1.044.886.886,0,0,0-1.2-1.3,3.181,3.181,0,0,1-1.315.785l-.023,0a.18.18,0,0,1-.015-.08V99.7a5.748,5.748,0,0,1,5.741-5.741h1.893a5.747,5.747,0,0,1,5.741,5.741v.193a.057.057,0,0,1-.04.058c-5.3,1.048-7.964-.927-8.862-1.824a.886.886,0,0,0-1.253,1.253c2.75,2.75,6.764,2.8,9.207,2.506v1.6A5.748,5.748,0,0,1,157.484,109.224Z" transform="translate(-144.292 -92.184)" fill="#fff"/>
  </g>
</svg>
