<svg xmlns="http://www.w3.org/2000/svg" width="60.465" height="38.692" viewBox="0 0 60.465 38.692">
  <g id="social-icon" transform="translate(0 -92.184)">
    <g id="Group_231" data-name="Group 231" transform="translate(17.04 92.184)">
      <g id="Group_230" data-name="Group 230">
        <path id="Path_447" data-name="Path 447" d="M167.9,113.981l-5.147-2.288a1.008,1.008,0,0,1-.6-.921v-1.413a7.5,7.5,0,0,0,2.84-5.876v-1.99a1.835,1.835,0,0,0,.947-1.6V99.7a7.521,7.521,0,0,0-7.512-7.512h-1.893a7.521,7.521,0,0,0-7.512,7.512v1.752a1.857,1.857,0,0,0,.707,1.488,1.728,1.728,0,0,0,.24.155v.391a7.5,7.5,0,0,0,2.84,5.876v1.413a1.009,1.009,0,0,1-.6.921l-5.147,2.288a4.676,4.676,0,0,0-2.775,4.27V129.99a.886.886,0,1,0,1.771,0V118.251a2.9,2.9,0,0,1,.018-.3l2.372,2.372a1.942,1.942,0,0,1,.572,1.382v8.29a.886.886,0,1,0,1.771,0V121.7a3.7,3.7,0,0,0-1.091-2.634l-2.827-2.827a2.893,2.893,0,0,1,.908-.638l5.06-2.249L156.6,117.1V129.99a.886.886,0,1,0,1.771,0V117.1l3.753-3.753,5.06,2.249a2.892,2.892,0,0,1,.908.638l-2.827,2.827a3.7,3.7,0,0,0-1.091,2.634v8.29a.886.886,0,1,0,1.771,0V121.7a1.942,1.942,0,0,1,.572-1.382l2.371-2.371a2.89,2.89,0,0,1,.018.3V129.99a.886.886,0,1,0,1.771,0V118.251A4.677,4.677,0,0,0,167.9,113.981Zm-10.418,1.5-3.293-3.293a2.774,2.774,0,0,0,.392-1.418v-.36a7.506,7.506,0,0,0,5.8,0v.36a2.774,2.774,0,0,0,.392,1.419Zm0-6.26a5.747,5.747,0,0,1-5.741-5.741v-.4a5.237,5.237,0,0,0,1.609-1.044.886.886,0,0,0-1.2-1.3,3.181,3.181,0,0,1-1.315.785l-.023,0a.18.18,0,0,1-.015-.08V99.7a5.748,5.748,0,0,1,5.741-5.741h1.893a5.747,5.747,0,0,1,5.741,5.741v.193a.057.057,0,0,1-.04.058c-5.3,1.048-7.964-.927-8.862-1.824a.886.886,0,0,0-1.253,1.253c2.75,2.75,6.764,2.8,9.207,2.506v1.6A5.748,5.748,0,0,1,157.484,109.224Z" transform="translate(-144.292 -92.184)" fill="#fff"/>
      </g>
    </g>
    <g id="Group_233" data-name="Group 233" transform="translate(0 96.917)">
      <g id="Group_232" data-name="Group 232" transform="translate(0 0)">
        <path id="Path_448" data-name="Path 448" d="M15.972,144.511v-1.894a6.564,6.564,0,0,0-3.01-5.515,3.726,3.726,0,1,0-7.112,0,6.564,6.564,0,0,0-3.01,5.515v1.893a6.562,6.562,0,0,0,2.84,5.4v1.948a1,1,0,0,1-.557.9l-3.064,1.532A3.706,3.706,0,0,0,0,157.626v7.712a.886.886,0,0,0,1.771,0v-7.328l1.443,1.443a1.942,1.942,0,0,1,.572,1.382v4.5a.886.886,0,0,0,1.771,0v-4.5A3.7,3.7,0,0,0,4.467,158.2l-2.008-2.008-.03-.027a1.975,1.975,0,0,1,.423-.286l3.064-1.532a2.821,2.821,0,0,0,.439-.274l2.166,2.166v9.1a.886.886,0,1,0,1.771,0v-9.1l2.166-2.166a2.81,2.81,0,0,0,.439.274l.845.422a.886.886,0,1,0,.792-1.584l-.845-.422a1,1,0,0,1-.557-.9v-1.948A6.562,6.562,0,0,0,15.972,144.511ZM9.406,134.036a1.956,1.956,0,0,1,1.954,1.954,1.985,1.985,0,0,1-.031.349,6.565,6.565,0,0,0-3.844,0,1.942,1.942,0,0,1,1.921-2.3Zm0,3.787a4.8,4.8,0,0,1,4.794,4.794v.321a5.56,5.56,0,0,1-5.979-1.8.886.886,0,0,0-1.335-.095,5.794,5.794,0,0,1-2.272,1.45A4.8,4.8,0,0,1,9.406,137.823Zm0,16.8-2.047-2.047a2.8,2.8,0,0,0,.092-.711V150.78a6.578,6.578,0,0,0,3.909,0v1.081a2.8,2.8,0,0,0,.092.711Zm0-5.313a4.8,4.8,0,0,1-4.794-4.794v-.184a7.1,7.1,0,0,0,2.846-1.418A7.992,7.992,0,0,0,9.1,144.1a7.045,7.045,0,0,0,3.385.874,7.421,7.421,0,0,0,1.708-.2A4.8,4.8,0,0,1,9.406,149.305Z" transform="translate(0 -132.265)" fill="#fff"/>
      </g>
    </g>
    <g id="Group_235" data-name="Group 235" transform="translate(42.6 98.811)">
      <g id="Group_234" data-name="Group 234">
        <path id="Path_449" data-name="Path 449" d="M376.531,166.54l-4.957-2.478a1,1,0,0,1-.557-.9v-1.255a5.606,5.606,0,0,0,1.893-4.2V156.7h.061a.886.886,0,0,0,.886-.886v-1.893a5.626,5.626,0,0,0-5.619-5.619h-1.893a5.626,5.626,0,0,0-5.619,5.619v1.893a.886.886,0,0,0,.886.886l.061,0V157.7a5.606,5.606,0,0,0,1.893,4.2v1.255a1,1,0,0,1-.557.9.886.886,0,1,0,.792,1.584,2.821,2.821,0,0,0,.439-.274l2.166,2.166v11.94a.886.886,0,1,0,1.771,0v-11.94l2.166-2.166a2.81,2.81,0,0,0,.439.274l4.8,2.4-1.455,1.455a3.7,3.7,0,0,0-1.091,2.634v7.344a.886.886,0,0,0,1.771,0v-7.344a1.942,1.942,0,0,1,.572-1.382l1.378-1.378a1.975,1.975,0,0,1,.065.5v9.6a.886.886,0,1,0,1.771,0v-9.6A3.705,3.705,0,0,0,376.531,166.54Zm-14.034-11.8v-.825h0a3.852,3.852,0,0,1,3.848-3.848h1.893a3.852,3.852,0,0,1,3.848,3.848v.984a13.546,13.546,0,0,1-6.2-1.721.886.886,0,0,0-1.118.111A5.8,5.8,0,0,1,362.5,154.743Zm4.794,11.175-2.047-2.047a2.8,2.8,0,0,0,.092-.711v-.189a5.614,5.614,0,0,0,3.909,0v.189a2.8,2.8,0,0,0,.092.711Zm0-4.366a3.852,3.852,0,0,1-3.848-3.848v-1.428h0a7.5,7.5,0,0,0,2.079-1.269,15.735,15.735,0,0,0,5.617,1.6v1.1A3.852,3.852,0,0,1,367.292,161.551Z" transform="translate(-360.726 -148.298)" fill="#fff"/>
      </g>
    </g>
  </g>
</svg>
