<svg xmlns="http://www.w3.org/2000/svg" width="300.014" height="336.716" viewBox="0 0 300.014 336.716">
  <g id="cell-slide-2" transform="translate(-694 -549)">
    <path id="Path_1" data-name="Path 1" d="M941.862,999.066H722.246c-22.2,0-40.2-18.455-40.2-41.226V703.576c0-22.769,17.993-41.226,40.2-41.226H941.86c22.2,0,40.2,18.455,40.2,41.226V957.84C982.058,980.612,964.062,999.066,941.862,999.066Z" transform="translate(11.954 -113.35)" fill="#31b1dc" opacity="0.14"/>
    <path id="Path_2" data-name="Path 2" d="M1431.96,2170.08V2158c-15.945-10.072-21.777-22.067-23.8-27.01-5.706-13.969-5.34-31.3-5.127-41.51.091-4.3.4-7.851-1.563-12.073-3.481-7.477-10.429-9.157-10.6-15.285a8.548,8.548,0,0,1,2.345-6.166c3.969-3.859,13.409-2.617,22.755,4.256l92.587,14.271-4.173,68.839a9.877,9.877,0,0,1-5.906,5.906l.434,20.845Z" transform="translate(-625.524 -1361.026)" fill="#f4e2d3"/>
    <path id="Path_3" data-name="Path 3" d="M1818.42,934.183V921.821a2.233,2.233,0,0,0-2.192-2.233v-7.536a16.492,16.492,0,0,0-16.492-16.492h-56.973a16.492,16.492,0,0,0-16.491,16.491v146.4a16.491,16.491,0,0,0,16.492,16.492h56.972a16.492,16.492,0,0,0,16.492-16.492V955.83a2.233,2.233,0,0,0,1.753-2.183V941.284a2.233,2.233,0,0,0-1.753-2.183v-2.684a2.233,2.233,0,0,0,2.192-2.234Z" transform="translate(-929.895 -297.276)" fill="#084b5f"/>
    <rect id="Rectangle_1" data-name="Rectangle 1" width="84.431" height="142.822" transform="translate(799.418 616.522)" fill="#fff"/>
    <path id="Path_4" data-name="Path 4" d="M1535.05,932.99v11.9l2.717,1.553h3.494l3.882-2.2V932.99Z" transform="translate(-698.066 -277.678)" fill="#f4e2d3"/>
    <path id="Path_5" data-name="Path 5" d="M2217.55,1594.56l10.12,6.294-.027-6.294Z" transform="translate(-1380.523 -938.627)" fill="#eac6c1"/>
    <path id="Path_6" data-name="Path 6" d="M2073.494,1708.28l14.491.126-3.226,70.624a20.537,20.537,0,0,1-21.327,0Z" transform="translate(-1236.774 -1045.389)" fill="#31b1dc"/>
    <rect id="Rectangle_2" data-name="Rectangle 2" width="27.705" height="3.156" rx="1.578" transform="translate(827.916 609.246)" fill="#3c57a4"/>
    <path id="Path_8" data-name="Path 8" d="M1437.427,1858.567l3.846,4.255-4.866,4.4-3.453-3.817a4.74,4.74,0,0,1-4.512-1.387,5.315,5.315,0,0,1,7.852-7.1A4.624,4.624,0,0,1,1437.427,1858.567Z" transform="translate(-650.239 -1178.847)" fill="#f6e4d5"/>
    <path id="Path_9" data-name="Path 9" d="M1216.485,1046.16l-11.773,96.462H1187.07l18.136-95.521Z" transform="translate(-379.663 -383.278)" fill="#3c57a4"/>
    <path id="Path_10" data-name="Path 10" d="M1545.754,1735.364c-4.892,7.777-6.051,13.518-9.7,14-2.244.3-5.891-1.328-11.52-11.767l-8.284,6.549c.99,1.993,11.741,23.263,20.551,21.461,2.12-.433,4.509-3.03,9.2-8.206a142.239,142.239,0,0,0,9.036-11.022l3.658-25.734a57.134,57.134,0,0,0-12.944,14.714Z" transform="translate(-733.122 -1056.843)" fill="#3c57a4"/>
    <path id="Path_11" data-name="Path 11" d="M1163.97,1278.27H1189.5l8.609,38.784h-24.858Z" transform="translate(-356.563 -596.069)" fill="#fdb141"/>
    <path id="Path_12" data-name="Path 12" d="M2149.817,2234.449l5.716.477-.543,6.536-5.129-.427a4.751,4.751,0,0,1-4.243,2.073,5.315,5.315,0,0,1,.877-10.549,4.63,4.63,0,0,1,3.323,1.891Z" transform="translate(-1312.585 -1526.551)" fill="#f6e4d5"/>
    <path id="Path_7" data-name="Path 7" d="M2329.081,1725.456a84.576,84.576,0,0,0-8.038-15.591l-10.442-1.355a238.911,238.911,0,0,0-7.2,42.925c-.837.015-1.617.025-2.332.033q-.663,5.423-1.326,10.845c.6.247,1.657.664,3.061,1.089a239.584,239.584,0,0,0,2.576,41.444h15.663v-41.508a25.268,25.268,0,0,0,2.817-1.194c2.323-1.157,6-2.989,8.452-7.032C2337.383,1746.733,2333.06,1735.65,2329.081,1725.456Zm-6.549,23.893a3.1,3.1,0,0,1-1.491.954v-13.917c.638,1.28,4.58,9.4,1.492,12.963Z" transform="translate(-1459.448 -1045.502)" fill="#3c57a4"/>
    <path id="Path_13" data-name="Path 13" d="M2458.18,1215.89a8.093,8.093,0,0,1,6.093.248,8.259,8.259,0,0,1,4,4.864c1.6,4.311.634,10.849-3.647,12.853a7.694,7.694,0,0,1-5.711.131" transform="translate(-1601.689 -591.32)" fill="#fdbb53"/>
    <path id="Path_14" data-name="Path 14" d="M2458.18,1346.6a5.734,5.734,0,0,1,2.843-1.015,2.917,2.917,0,0,1,1.363.171c1.114.475,1.532,1.844,1.576,3.054a9.281,9.281,0,0,1-1.455,5.312,3.954,3.954,0,0,1-1.985,1.746,1.885,1.885,0,0,1-2.3-.876,16.492,16.492,0,0,0,.607-6.133,4.517,4.517,0,0,0-.649-2.259Z" transform="translate(-1600.047 -710.263)" fill="#f4e2d3" stroke="#f4e2d3" stroke-miterlimit="10" stroke-width="1"/>
    <path id="Path_15" data-name="Path 15" d="M2468.89,1371.1a1.792,1.792,0,0,1,1.315-1.8,1.811,1.811,0,0,1,2.118,1.451,3.08,3.08,0,0,0-1.932-.345A3.043,3.043,0,0,0,2468.89,1371.1Z" transform="translate(-1608.92 -731.961)" fill="#eac6c1"/>
    <path id="Path_16" data-name="Path 16" d="M2467.25,1404.3a1.5,1.5,0,0,1-.248,2.965Q2467.13,1405.78,2467.25,1404.3Z" transform="translate(-1607.346 -763.626)" fill="#eac6c1"/>
    <path id="Path_17" data-name="Path 17" d="M2062.6,1141.04c.45,2.669.768,4.791.952,6.053,1.26,8.654,1.661,13.837,4.714,18.527.1.155.193.285.274.4a19.176,19.176,0,0,0,8,6.248h6.711a18.492,18.492,0,0,0,4.208-2.194,19.613,19.613,0,0,0,2.5-2.18c3.431-3.621,4.934-11.613,5.673-16.527.387-2.57.835-6.09,1.119-10.324a19.6,19.6,0,0,0-34.157,0Z" transform="translate(-1238.518 -513.297)" fill="#f4e2d3"/>
    <path id="Path_18" data-name="Path 18" d="M2267.6,1175.31l.087-41.125a19.738,19.738,0,0,1,17.117,9.98,72.606,72.606,0,0,1-1.287,13.075c-1.3,6.787-2.233,11.3-6.022,14.712a15.631,15.631,0,0,1-6.2,3.356Z" transform="translate(-1425.441 -516.174)" fill="#eac6c1"/>
    <path id="Path_19" data-name="Path 19" d="M2236.79,1410.38a1.355,1.355,0,0,0,.681,1.643,3.957,3.957,0,0,0,1.9.349l.992.016a3.65,3.65,0,0,0,1.748-.261,1.25,1.25,0,0,0,.69-1.474" transform="translate(-1398.13 -760.158)" fill="none" stroke="#fff" stroke-miterlimit="10" stroke-width="3"/>
    <path id="Path_20" data-name="Path 20" d="M2428.88,1303.49a12.031,12.031,0,0,0,1.058,4.578l-2.067,16.147a47.3,47.3,0,0,0,4.045-16.147c.093-1.406.116-2.755.083-4.043Z" transform="translate(-1572.667 -671.893)" fill="#fdbb53"/>
    <path id="Path_21" data-name="Path 21" d="M2092.543,1145.57a57.468,57.468,0,0,1-17.875-6.585,21.919,21.919,0,0,1-3.433,1.509,22.565,22.565,0,0,1-7.123,1.195,8.331,8.331,0,0,1-3.731,2.354q-.672,4.713-1.347,9.427a17.223,17.223,0,0,1-2.487-10.713,14.994,14.994,0,0,1,.446-2.238,20.2,20.2,0,0,1,17.633-10.005,18.092,18.092,0,0,1,17.745,9.981Q2092.449,1143.03,2092.543,1145.57Z" transform="translate(-1232.887 -512.756)" fill="#fdbb53"/>
    <rect id="Rectangle_3" data-name="Rectangle 3" width="79.901" height="11.811" rx="5.905" transform="translate(802.401 759.562)" fill="#084b5f"/>
    <path id="Path_23" data-name="Path 23" d="M2003.72,1321.15a3.354,3.354,0,0,1-.549,2.155,4.172,4.172,0,0,1-4.864,1.042,6.988,6.988,0,0,0,4.516,2.345,6.647,6.647,0,0,0,3.142-.5Z" transform="translate(-1179.834 -686.322)" fill="#fdbb53"/>
    <path id="Path_24" data-name="Path 24" d="M1321.521,1075.692l-4.306-11.086a8.886,8.886,0,0,1,0-2.3v-22.1a4.889,4.889,0,0,0-4.89-4.89H1261.7a4.889,4.889,0,0,0-4.889,4.889v22.1a4.89,4.89,0,0,0,4.889,4.89h34.851Z" transform="translate(-508.096 -425.47)" fill="#fdb141"/>
    <circle id="Ellipse_1" data-name="Ellipse 1" cx="6.408" cy="6.408" r="6.408" transform="translate(834.334 761.755)" fill="#3c57a4"/>
    <path id="Path_25" data-name="Path 25" d="M2579.5,1806.05c-5.577.944-10.569-2.625-11.377-7.208a9.41,9.41,0,0,1,4.689-9.38l32.916-13.2a10.443,10.443,0,0,1,12.073,5.038c2.426,4.8.347,11.232-5.037,13.892Z" transform="translate(-1706.638 -1087.347)" fill="#f4e2d3"/>
    <path id="Path_26" data-name="Path 26" d="M2620.08,1963.69c-4.954,1.766-9.623-.146-10.682-2.791-1.169-2.919,1.44-8.269,7.407-9.778Z" transform="translate(-1747.563 -1246.763)" fill="#eac6c1"/>
    <path id="Path_27" data-name="Path 27" d="M2604.74,2051.07c-4.935.834-9.351-2.324-10.067-6.379a8.326,8.326,0,0,1,4.15-8.3l29.125-11.681a8.946,8.946,0,0,1,6.224,16.752Z" transform="translate(-1730.299 -1315.096)" fill="#f4e2d3"/>
    <path id="Path_28" data-name="Path 28" d="M2640.69,2190.56c-4.383,1.564-8.517-.129-9.452-2.47-1.034-2.583,1.274-7.316,6.555-8.651Z" transform="translate(-1766.496 -1456.336)" fill="#eac6c1"/>
    <path id="Path_29" data-name="Path 29" d="M2637.42,2258.12c-4.968.608-9.236-2.748-9.765-6.832a8.331,8.331,0,0,1,4.525-8.1l29.628-10.336a8.946,8.946,0,0,1,5.452,17.02Z" transform="translate(-1760.149 -1506.365)" fill="#f4e2d3"/>
    <path id="Path_30" data-name="Path 30" d="M2672.99,2384.46c-4.45,1.361-8.5-.519-9.329-2.9-.915-2.627,1.607-7.251,6.946-8.343Z" transform="translate(-1795.966 -1634.584)" fill="#eac6c1"/>
    <path id="Path_31" data-name="Path 31" d="M2687.02,2472.02c-4.281.14-7.663-3.046-7.8-6.566a7.12,7.12,0,0,1,4.473-6.561l26.039-6.556a7.655,7.655,0,0,1,3.353,14.921Z" transform="translate(-1807.5 -1707.386)" fill="#f4e2d3"/>
    <path id="Path_32" data-name="Path 32" d="M2716.79,2558.11c-3.9.821-7.206-1.089-7.731-3.181-.579-2.309,1.921-6.058,6.552-6.583Q2716.2,2553.23,2716.79,2558.11Z" transform="translate(-1837.361 -1795.114)" fill="#eac6c1"/>
    <rect id="Rectangle_4" data-name="Rectangle 4" width="74.082" height="44.988" transform="translate(803.417 809.356)" fill="#3c57a4"/>
  </g>
</svg>
