<svg xmlns="http://www.w3.org/2000/svg" width="302.006" height="336.907" viewBox="0 0 302.006 336.907">
  <g id="slide-2" transform="translate(-498.04 -393.52)">
    <path id="Path_33" data-name="Path 33" d="M759.325,730.427H540.759a40.718,40.718,0,0,1-40.719-40.719V434.239a40.718,40.718,0,0,1,40.719-40.719H759.327a40.718,40.718,0,0,1,40.719,40.719V689.708A40.721,40.721,0,0,1,759.325,730.427Z" transform="translate(0)" fill="#ffbd53" opacity="0.15"/>
    <g id="Group_2" data-name="Group 2" transform="translate(579.485 594.108)">
      <g id="Group_1" data-name="Group 1" transform="translate(0 0)">
        <path id="Path_34" data-name="Path 34" d="M981.4,1554.277a23.714,23.714,0,0,0-12.184-2.739,12.071,12.071,0,0,0-5.514,1.389c-4.334,2.512-5.363,8.344-4.935,13.336a38.385,38.385,0,0,0,8.647,21.086c2.378,2.865,5.38,5.482,9.04,6.175s7.987-1.169,8.988-4.757c-3.606-7.954-5.077-16.167-5.578-24.886C979.7,1561.045,979.886,1556.685,981.4,1554.277Z" transform="translate(-958.676 -1551.513)" fill="#f8ece2" stroke="#f8ece2" stroke-miterlimit="10" stroke-width="1"/>
        <path id="Path_35" data-name="Path 35" d="M1008.775,1603.558a7.409,7.409,0,0,0-6.309-6.73,7.492,7.492,0,0,0-7.966,7.024,12.713,12.713,0,0,1,7.76-2.387A12.585,12.585,0,0,1,1008.775,1603.558Z" transform="translate(-988.295 -1588.947)" fill="#f2dad5"/>
      </g>
      <path id="Path_36" data-name="Path 36" d="M1057.486,1661.18a6.2,6.2,0,0,0,2.524,12.054Q1058.747,1667.206,1057.486,1661.18Z" transform="translate(-1036.864 -1642.183)" fill="#f2dad5"/>
    </g>
    <path id="Path_37" data-name="Path 37" d="M1032.116,1631.85a6.2,6.2,0,0,0,2.524,12.054Q1033.377,1637.879,1032.116,1631.85Z" transform="translate(-436.403 -1023.826)" fill="#f2dad5"/>
    <path id="Path_38" data-name="Path 38" d="M1128.295,1330.7a33.149,33.149,0,0,0,15.214,9.257q3.315,19.4,6.629,38.8c9.544-20.073,9.506-35.766,8.5-44.627-.166-1.464-1.026-9.032-1.982-9.009-2.1.047-4.864,36.92-1.561,73.073a325.029,325.029,0,0,0,11.192,59.837q-77.734,3.042-155.467,6.083a442.381,442.381,0,0,0,4.569-134.438" transform="translate(-422.303 -770.228)" fill="#ffcf78"/>
    <ellipse id="Ellipse_2" data-name="Ellipse 2" cx="70.671" cy="6.141" rx="70.671" ry="6.141" transform="translate(592.79 553.228) rotate(-1.845)" fill="#e17f90" stroke="#e17f90" stroke-miterlimit="10" stroke-width="3"/>
    <path id="Path_39" data-name="Path 39" d="M1193.41,1324.05c-.554,6.482-1.5,16.6-2.985,28.949-7.121,59.129-14.935,71.453-18.205,76.1-4.819,6.851-14.166,17.5-32.29,25.976l-27.755.9c-14.466-4.684-23.263-11.625-28.318-16.541-21.893-21.287-24.564-54.111-27.48-89.946-.672-8.268-.9-15.084-.987-19.56a520.977,520.977,0,0,0,138.02-5.875Z" transform="translate(-459.152 -769.343)" fill="#f8ece2"/>
    <g id="Group_4" data-name="Group 4" transform="translate(723.562 585.728)">
      <g id="Group_3" data-name="Group 3" transform="translate(0)">
        <path id="Path_40" data-name="Path 40" d="M1792.239,1506.653a23.719,23.719,0,0,1,11.983-3.518,12.078,12.078,0,0,1,5.591,1.031c4.487,2.228,5.891,7.982,5.786,12.99a38.391,38.391,0,0,1-7.27,21.6c-2.189,3.012-5.016,5.819-8.623,6.745s-8.044-.653-9.276-4.168c3.087-8.171,4.026-16.459,3.961-25.193C1794.369,1513.3,1793.9,1508.958,1792.239,1506.653Z" transform="translate(-1790.43 -1503.131)" fill="#f8ece2" stroke="#f8ece2" stroke-miterlimit="10" stroke-width="1"/>
        <path id="Path_41" data-name="Path 41" d="M1818.19,1556.413a7.412,7.412,0,0,1,5.862-7.123,7.492,7.492,0,0,1,8.4,6.5,12.475,12.475,0,0,0-14.264.625Z" transform="translate(-1813.381 -1541.215)" fill="#f2dad5"/>
      </g>
      <path id="Path_42" data-name="Path 42" d="M1810.7,1616.19a6.2,6.2,0,0,1-1.741,12.193Z" transform="translate(-1805.75 -1596.606)" fill="#f2dad5"/>
    </g>
    <path id="Path_43" data-name="Path 43" d="M1414.12,2097.6l.662,20.494.507,15.763-8.122,5-10.641.343-12.039-6.319-1.107-34.288Z" transform="translate(-730.328 -1408.898)" fill="#f8ece2"/>
    <path id="Path_44" data-name="Path 44" d="M1413.94,2096.47l-30.206,20.167q-.268-9.587-.534-19.175Z" transform="translate(-730.179 -1407.964)" fill="#f2dad5"/>
    <path id="Path_45" data-name="Path 45" d="M1055.03,1359.02c2.9.2,7.3.483,12.664.78,12.5.688,24.216,1.313,38.628,1.212,4.453-.031,10.821-.144,18.535-.52q.863,15.237,1.526,30.485,2.058,47.268,2.2,94.622a41.683,41.683,0,0,1-17.7-1.015,12.163,12.163,0,0,1-2.863-.844l0-.007a65.44,65.44,0,0,1-24.517-15.205c-21.893-21.287-24.564-54.111-27.48-89.947C1055.344,1370.312,1055.117,1363.5,1055.03,1359.02Z" transform="translate(-458.854 -798.256)" fill="#f2dad5"/>
    <path id="Path_46" data-name="Path 46" d="M1021.868,1352.77c7.819,1.013,16.168,1.841,25,2.382,8.391.514,16.376.717,23.9.693a133.221,133.221,0,0,1-51.407,18.568Q1020.617,1363.59,1021.868,1352.77Z" transform="translate(-429.371 -793.088)" fill="#ffcf78"/>
    <path id="Path_47" data-name="Path 47" d="M1418.32,1980.91a16.96,16.96,0,0,0,13.482.2,6.163,6.163,0,0,1-2.824,3.127,8.323,8.323,0,0,1-6.766.558C1420.262,1984.142,1418.691,1982.931,1418.32,1980.91Z" transform="translate(-759.215 -1312.422)" fill="#fff"/>
    <path id="Path_48" data-name="Path 48" d="M1369.29,1796.7a59.39,59.39,0,0,1-48.36,2.628c7.816-.984,16.21-1.767,25.127-2.226C1354.233,1796.687,1362,1796.583,1369.29,1796.7Z" transform="translate(-678.695 -1160.085)" fill="#fff"/>
    <path id="Path_49" data-name="Path 49" d="M1406.3,1904.823a34.683,34.683,0,0,1-27.778.184c.341-.475,5.857-7.859,15.082-7.255A17.762,17.762,0,0,1,1406.3,1904.823Z" transform="translate(-726.309 -1243.639)" fill="#cf7679"/>
    <g id="Group_5" data-name="Group 5" transform="translate(570.863 492.083)">
      <path id="Path_50" data-name="Path 50" d="M946.657,963.52c-.269.788-.523,1.883,0,2.425.769.8,2.344-.509,3.811.173,1.916.89,2.027,4.415,2.079,6.063.066,2.108.123,3.927-1.039,4.85-1.656,1.315-4.422-.274-5.2.866-.411.6,0,1.594.347,2.252h106.53V963.52" transform="translate(-939.688 -963.347)" fill="#fdb141"/>
      <path id="Path_51" data-name="Path 51" d="M1261.13,962.52v9.354h16.629a9,9,0,0,0-1.906-6.063,9.249,9.249,0,0,0-6.929-3.291Z" transform="translate(-1200.116 -962.52)" fill="#f9a326"/>
      <path id="Path_52" data-name="Path 52" d="M965.13,978.52a23.905,23.905,0,0,1,0,11.432h53.525V978.52Z" transform="translate(-955.39 -975.748)" fill="#fff"/>
      <path id="Path_53" data-name="Path 53" d="M951.13,970.52h53.338a10.449,10.449,0,0,1,0,14.2H951.13" transform="translate(-943.815 -969.134)" fill="none" stroke="#f5712e" stroke-linecap="round" stroke-miterlimit="10" stroke-width="15"/>
      <path id="Path_54" data-name="Path 54" d="M1298.13,1219.52" transform="translate(-1230.707 -1175.002)" fill="#fdb141"/>
      <path id="Path_55" data-name="Path 55" d="M909.417,1059.8c-.268,1.124-.523,2.681,0,3.454.769,1.135,2.344-.724,3.811.246,1.916,1.268,2.027,6.288,2.079,8.635.066,3,.123,5.593-1.039,6.908-1.656,1.872-4.422-.39-5.2,1.233-.411.861,0,2.269.346,3.206h106.531V1059.8" transform="translate(-908.899 -1042.949)" fill="#005d72"/>
      <rect id="Rectangle_5" data-name="Rectangle 5" width="63.745" height="15.243" transform="translate(43.345 16.802)" fill="#242277"/>
      <path id="Path_56" data-name="Path 56" d="M927.89,1074.8a67.286,67.286,0,0,1,0,19.006H979.9V1074.8Z" transform="translate(-924.6 -1055.351)" fill="#fff"/>
      <path id="Path_57" data-name="Path 57" d="M913.89,1068.8h53.338A19.8,19.8,0,0,1,970,1079.836a19.281,19.281,0,0,1-2.768,9.356H913.89" transform="translate(-913.025 -1050.39)" fill="none" stroke="#4c6db2" stroke-linecap="round" stroke-miterlimit="10" stroke-width="19"/>
      <path id="Path_58" data-name="Path 58" d="M1298.13,1025.52h106.842a48.091,48.091,0,0,1,2.273,13.865,49.34,49.34,0,0,1-2.273,16.276H1298.13v-6.631l39.944.3h9.418v-19.29l-49.363.6Z" transform="translate(-1230.707 -1014.607)" fill="#f9a326"/>
      <path id="Path_59" data-name="Path 59" d="M1309.13,1041.52a97.457,97.457,0,0,1,0,23.211h53.525V1041.52Z" transform="translate(-1239.802 -1027.836)" fill="#fff"/>
      <path id="Path_60" data-name="Path 60" d="M1677.5,1153.52l-51.793.173a5.855,5.855,0,0,1,1.386,4.157,5.739,5.739,0,0,1-1.386,3.291h50.061c.371-1.159.728-2.432,1.039-3.811C1677.116,1155.98,1677.34,1154.7,1677.5,1153.52Z" transform="translate(-1501.544 -1120.435)" fill="#fa9126"/>
      <path id="Path_61" data-name="Path 61" d="M1677.923,1032.142l-51.793-.173a5.858,5.858,0,0,0,1.386-4.157,5.74,5.74,0,0,0-1.386-3.291h50.061c.371,1.159.728,2.432,1.039,3.811C1677.537,1029.682,1677.76,1030.959,1677.923,1032.142Z" transform="translate(-1501.891 -1013.78)" fill="#fcbc4b"/>
      <path id="Path_62" data-name="Path 62" d="M1298.3,1067.732h55.257a24.343,24.343,0,0,0,0-23.212H1298.13" transform="translate(-1230.707 -1030.316)" fill="none" stroke="#f5712e" stroke-linecap="round" stroke-miterlimit="10" stroke-width="37"/>
      <path id="Path_63" data-name="Path 63" d="M1148.839,1219.385H1013.1a4.97,4.97,0,0,1-4.97-4.97V1201.49a4.97,4.97,0,0,1,4.97-4.97h135.739a4.97,4.97,0,0,1,4.97,4.97v12.926A4.969,4.969,0,0,1,1148.839,1219.385Z" transform="translate(-990.941 -1155.986)" fill="#242277"/>
      <path id="Path_64" data-name="Path 64" d="M1014.191,1311.939a4.472,4.472,0,0,1-2.685-.606,4.563,4.563,0,0,1-2.016-2.763l91.658.078,1.516,3.291Z" transform="translate(-992.065 -1248.627)" fill="#4c6db2"/>
      <path id="Path_65" data-name="Path 65" d="M1101.539,1196.52h-88.386a5.023,5.023,0,0,0-5.023,5.023v10.768l24.944-.028q-.26-2.164-.52-4.33h66.69Q1100.393,1202.236,1101.539,1196.52Z" transform="translate(-990.941 -1155.986)" fill="#25289b"/>
      <path id="Path_66" data-name="Path 66" d="M1606.94,1207.93a67.285,67.285,0,0,0,0,19.006H1554.93V1207.93Z" transform="translate(-1443.024 -1165.42)" fill="#fff"/>
      <path id="Path_67" data-name="Path 67" d="M1594.679,1226.574h-51.966a18.746,18.746,0,0,1,0-19.054h51.966" transform="translate(-1430.772 -1165.081)" fill="#fff" stroke="#4c6db2" stroke-linecap="round" stroke-miterlimit="10" stroke-width="22"/>
      <path id="Path_68" data-name="Path 68" d="M1381.13,1243.906v6.409l5.543-3.291,5.37,3.291v-7.795Z" transform="translate(-1299.33 -1194.018)" fill="#25289b"/>
      <path id="Path_69" data-name="Path 69" d="M1381.13,1123.52h10.913v16.629l-5.543-8.314-5.37,7.1Z" transform="translate(-1299.33 -1095.631)" fill="#fcba1b"/>
      <line id="Line_1" data-name="Line 1" x2="14.204" transform="translate(79.895 27.889)" fill="none" stroke="#bfbfbf" stroke-linecap="round" stroke-linejoin="round" stroke-miterlimit="10" stroke-width="8"/>
      <path id="Path_70" data-name="Path 70" d="M962.13,1136.52h10.913v14.724l-5.543-2.252-5.37,2.945Z" transform="translate(-952.909 -1106.38)" fill="#f9a326"/>
      <line id="Line_2" data-name="Line 2" x2="14.204" transform="translate(7.315 30.14)" fill="none" stroke="#bfbfbf" stroke-linecap="round" stroke-linejoin="round" stroke-miterlimit="10" stroke-width="8"/>
      <path id="Path_71" data-name="Path 71" d="M1133.38,1020.04h7.907v6.532q-2.009-.5-4.017-1l-3.89,1.306Z" transform="translate(-1094.495 -1010.076)" fill="#242277"/>
      <line id="Line_3" data-name="Line 3" x2="10.291" transform="translate(37.504 9.964)" fill="none" stroke="#bfbfbf" stroke-linecap="round" stroke-linejoin="round" stroke-miterlimit="10" stroke-width="8"/>
    </g>
    <path id="Path_72" data-name="Path 72" d="M1308.23,1374.28" transform="translate(-668.195 -810.872)" fill="#fcd1df"/>
    <path id="Path_73" data-name="Path 73" d="M1268.076,1307.36a5.223,5.223,0,0,1-.459,1.99q-.135,1.055-.27,2.11a7.9,7.9,0,0,1-.627-3.868Z" transform="translate(-633.849 -755.544)" fill="#278b5a"/>
    <g id="Group_9" data-name="Group 9" transform="translate(503.723 399.931)">
      <path id="Path_74" data-name="Path 74" d="M962.907,509.863H854.358a7.218,7.218,0,0,1-7.218-7.218v-64.9a7.218,7.218,0,0,1,7.218-7.218H962.907a7.218,7.218,0,0,1,7.218,7.218v64.9A7.219,7.219,0,0,1,962.907,509.863Z" transform="translate(-790.698 -430.53)" fill="#797979"/>
      <rect id="Rectangle_6" data-name="Rectangle 6" width="102.547" height="57.509" transform="translate(68.046 11.777)" fill="#fff"/>
      <path id="Path_75" data-name="Path 75" d="M526.831,885.52l176.685.173q.174,6.5.346,12.992l-172.354.52a11.923,11.923,0,0,1-5.023-6.929A11.69,11.69,0,0,1,526.831,885.52Z" transform="translate(-525.301 -806.706)" fill="#bfbfbf"/>
      <path id="Path_76" data-name="Path 76" d="M526.13,513.835l176.858.52c0-.286-.012-1.556,0-3.139.107-14.824,2.018-56.778,1.039-68.4a7.257,7.257,0,0,0-1.472-4.071c-2.049-2.524-5.767-2.849-8.315-2.771" transform="translate(-525.293 -435.021)" fill="none" stroke="#606060" stroke-linecap="round" stroke-linejoin="round" stroke-miterlimit="10" stroke-width="13"/>
      <path id="Path_77" data-name="Path 77" d="M522.484,897.169a8.516,8.516,0,0,1-1.039-5.889l178.331-.26q.044,3.334.087,6.669Z" transform="translate(-521.301 -811.254)" fill="#919191"/>
      <path id="Path_78" data-name="Path 78" d="M530.346,929.736c-.277-.386-.556-.811-.83-1.271a17.467,17.467,0,0,1-1.386-2.945l68.85.374-.081,3.783Z" transform="translate(-526.947 -839.778)" fill="#606060"/>
      <path id="Path_79" data-name="Path 79" d="M1060.395,585.077h-64A10.268,10.268,0,0,1,986.13,574.81V549.787A10.268,10.268,0,0,1,996.4,539.52h64a10.268,10.268,0,0,1,10.267,10.267V574.81A10.265,10.265,0,0,1,1060.395,585.077Z" transform="translate(-905.612 -520.641)" fill="#eaeaea"/>
      <rect id="Rectangle_7" data-name="Rectangle 7" width="70.109" height="31.89" transform="translate(86.234 28.138)" fill="#fff"/>
      <rect id="Rectangle_8" data-name="Rectangle 8" width="59.129" height="4.408" transform="translate(97.147 21.748)" fill="#fff"/>
      <circle id="Ellipse_3" data-name="Ellipse 3" cx="1.732" cy="1.732" r="1.732" transform="translate(86.234 22.344)" fill="#fdb141"/>
      <circle id="Ellipse_4" data-name="Ellipse 4" cx="1.732" cy="1.732" r="1.732" transform="translate(91.951 22.344)" fill="#242277"/>
      <rect id="Rectangle_9" data-name="Rectangle 9" width="23.904" height="23.904" transform="translate(89.699 33.603)" fill="#fcbc4b" opacity="0.5"/>
      <line id="Line_4" data-name="Line 4" x2="17.703" y2="0.173" transform="translate(116.243 35.075)" fill="none" stroke="#a8a8a8" stroke-miterlimit="10" stroke-width="12"/>
      <line id="Line_5" data-name="Line 5" x2="28.853" y2="0.173" transform="translate(116.276 38.152)" fill="none" stroke="#a8a8a8" stroke-miterlimit="10" stroke-width="12"/>
      <line id="Line_6" data-name="Line 6" x2="28.853" y2="0.173" transform="translate(116.245 41.616)" fill="none" stroke="#a8a8a8" stroke-miterlimit="10" stroke-width="12"/>
      <line id="Line_7" data-name="Line 7" x2="28.853" y2="0.173" transform="translate(116.245 52.356)" fill="none" stroke="#a8a8a8" stroke-miterlimit="10" stroke-width="12"/>
      <line id="Line_8" data-name="Line 8" x2="17.705" y2="0.173" transform="translate(116.276 45.427)" fill="none" stroke="#a8a8a8" stroke-miterlimit="10" stroke-width="12"/>
      <line id="Line_9" data-name="Line 9" x2="14.476" y2="0.173" transform="translate(116.276 49.238)" fill="none" stroke="#a8a8a8" stroke-miterlimit="10" stroke-width="12"/>
      <line id="Line_10" data-name="Line 10" x2="14.476" y2="0.173" transform="translate(116.331 54.954)" fill="none" stroke="#a8a8a8" stroke-miterlimit="10" stroke-width="12"/>
      <g id="Group_7" data-name="Group 7" transform="translate(93.164 42.882)">
        <g id="Group_6" data-name="Group 6">
          <path id="Path_80" data-name="Path 80" d="M1061.653,678.532a2.485,2.485,0,0,0-1.237-.442,1.248,1.248,0,0,0-.592.074,1.432,1.432,0,0,0-.686,1.329,4.036,4.036,0,0,0,.632,2.311,1.725,1.725,0,0,0,.864.76.822.822,0,0,0,1-.381,7.145,7.145,0,0,1-.263-2.668A1.938,1.938,0,0,1,1061.653,678.532Z" transform="translate(-1059.135 -678.085)" fill="#f6e4d5" stroke="#f6e4d5" stroke-miterlimit="10" stroke-width="1"/>
          <path id="Path_81" data-name="Path 81" d="M1064.313,683.818a.779.779,0,0,0-.572-.783.789.789,0,0,0-.922.63,1.306,1.306,0,0,1,1.493.152Z" transform="translate(-1062.182 -682.163)" fill="#ecc8c3"/>
        </g>
        <path id="Path_82" data-name="Path 82" d="M1068.7,690.3a.652.652,0,0,0,.109,1.29Q1068.756,690.943,1068.7,690.3Z" transform="translate(-1066.611 -688.184)" fill="#ecc8c3"/>
      </g>
      <path id="Path_83" data-name="Path 83" d="M1083.157,637.909c-.2,1.161-.334,2.084-.414,2.633-.547,3.764-.722,6.019-2.051,8.06-.045.068-.085.125-.119.173a8.373,8.373,0,0,1-3.48,2.718h-2.919a8.072,8.072,0,0,1-1.831-.954,8.55,8.55,0,0,1-1.088-.948c-1.491-1.575-2.146-5.051-2.468-7.189-.168-1.117-.364-2.649-.487-4.492a8.528,8.528,0,0,1,14.857,0Z" transform="translate(-973.549 -598.399)" fill="#f6e4d5"/>
      <path id="Path_84" data-name="Path 84" d="M1075.785,651.44q-.018-8.943-.038-17.89a8.585,8.585,0,0,0-7.447,4.341,31.632,31.632,0,0,0,.561,5.689c.566,2.952.972,4.916,2.619,6.4a6.792,6.792,0,0,0,2.7,1.46Z" transform="translate(-973.549 -598.383)" fill="#ecc8c3"/>
      <path id="Path_85" data-name="Path 85" d="M1105.078,697.61a.59.59,0,0,1-.3.714,1.737,1.737,0,0,1-.828.152l-.431.007a1.587,1.587,0,0,1-.76-.114.543.543,0,0,1-.3-.641" transform="translate(-1001.769 -651.346)" fill="none" stroke="#fff" stroke-miterlimit="10" stroke-width="1"/>
      <path id="Path_86" data-name="Path 86" d="M1105.178,737.03v3.444l-.783.449h-1.006l-1.119-.636V737.03Z" transform="translate(-1001.634 -683.938)" fill="#f6e4d5"/>
      <path id="Path_87" data-name="Path 87" d="M1105.237,736.93l-2.927,1.821c0-.606.005-1.214.009-1.821Z" transform="translate(-1001.667 -683.855)" fill="#ecc8c3"/>
      <g id="Group_8" data-name="Group 8" transform="translate(108.249 42.777)">
        <path id="Path_88" data-name="Path 88" d="M1146.527,677.808a2.5,2.5,0,0,1,1.271-.329,1.273,1.273,0,0,1,.584.126,1.43,1.43,0,0,1,.563,1.384,4.039,4.039,0,0,1-.837,2.245,1.725,1.725,0,0,1-.928.679.817.817,0,0,1-.96-.469,7.221,7.221,0,0,0,.5-2.633A1.955,1.955,0,0,0,1146.527,677.808Z" transform="translate(-1146.22 -677.478)" fill="#f6e4d5" stroke="#f6e4d5" stroke-miterlimit="10" stroke-width="1"/>
        <path id="Path_89" data-name="Path 89" d="M1149.59,683.007a.78.78,0,0,1,.641-.729.788.788,0,0,1,.861.712,1.353,1.353,0,0,0-.823-.225A1.321,1.321,0,0,0,1149.59,683.007Z" transform="translate(-1149.006 -681.441)" fill="#ecc8c3"/>
      </g>
      <path id="Path_90" data-name="Path 90" d="M1148.515,689.19a.652.652,0,0,1-.225,1.275Q1148.4,689.826,1148.515,689.19Z" transform="translate(-1039.682 -644.385)" fill="#ecc8c3"/>
      <path id="Path_91" data-name="Path 91" d="M1067.87,640a23.622,23.622,0,0,0,7.5-2.863,9.051,9.051,0,0,0,1.441.656,9.163,9.163,0,0,0,2.99.52,3.468,3.468,0,0,0,.594.537,3.512,3.512,0,0,0,.974.487q.283,2.05.565,4.1a7.712,7.712,0,0,0,1.045-4.66,6.608,6.608,0,0,0-.187-.974,8.421,8.421,0,0,0-7.4-4.351,7.546,7.546,0,0,0-7.447,4.341Q1067.906,638.9,1067.87,640Z" transform="translate(-973.193 -598.285)" fill="#278b5a"/>
      <path id="Path_92" data-name="Path 92" d="M1105.7,730.66a1.945,1.945,0,0,0,1.543.073.709.709,0,0,1-.334.348.947.947,0,0,1-.776.038A.594.594,0,0,1,1105.7,730.66Z" transform="translate(-1004.47 -678.671)" fill="#fff"/>
      <path id="Path_93" data-name="Path 93" d="M1098.915,710.336a3.127,3.127,0,0,1-.611,1.795,3.466,3.466,0,0,1-2.936,1.183,3.245,3.245,0,0,1-2.406-1.142,3.011,3.011,0,0,1-.612-1.713c1.038-.109,2.171-.185,3.385-.2C1096.869,710.235,1097.933,710.268,1098.915,710.336Z" transform="translate(-993.432 -661.796)" fill="#cf506c"/>
      <path id="Path_94" data-name="Path 94" d="M1100.717,710.053a6.8,6.8,0,0,1-5.547.123c.9-.083,1.862-.142,2.884-.163C1098.993,709.994,1099.882,710.011,1100.717,710.053Z" transform="translate(-995.764 -661.595)" fill="#fff"/>
      <path id="Path_95" data-name="Path 95" d="M1104.48,722.153a3.98,3.98,0,0,1-3.18-.081,2.091,2.091,0,0,1,1.753-.774A2.041,2.041,0,0,1,1104.48,722.153Z" transform="translate(-1000.832 -670.923)" fill="#b64a53"/>
    </g>
    <line id="Line_11" data-name="Line 11" x1="45.557" transform="translate(682.803 501.436)" fill="none" stroke="#885e2f" stroke-linecap="round" stroke-miterlimit="10" stroke-width="25"/>
    <path id="Path_96" data-name="Path 96" d="M1609.705,923.483a19.229,19.229,0,0,0-38.115,0Z" transform="translate(-885.936 -424.385)" fill="#bfbfbf"/>
    <path id="Path_97" data-name="Path 97" d="M1669.13,872.528l.173-9.007h5.37v8.271Z" transform="translate(-966.58 -388.586)" fill="#bfbfbf"/>
    <line id="Line_12" data-name="Line 12" y1="50.234" x2="45.384" transform="translate(680.032 411.708)" fill="#bfbfbf" stroke="#000" stroke-linecap="round" stroke-miterlimit="10" stroke-width="10"/>
    <path id="Path_98" data-name="Path 98" d="M1574.246,485.52c18.225,13.383,20.951,38.251,9.527,52.659-12.319,15.54-39.99,17.52-56.643-.52" transform="translate(-849.177 -76.064)" fill="none" stroke="#000" stroke-linecap="round" stroke-linejoin="round" stroke-miterlimit="10" stroke-width="16"/>
    <circle id="Ellipse_5" data-name="Ellipse 5" cx="30.227" cy="30.227" r="30.227" transform="translate(675.182 406.338)" fill="#fff" stroke="#fdb141" stroke-miterlimit="10" stroke-width="2"/>
    <path id="Path_99" data-name="Path 99" d="M1629.438,594.9a7.668,7.668,0,1,1-.341-10.6,7.506,7.506,0,0,1,.341,10.6" transform="translate(-923.03 -155.868)" fill="#fbaf41"/>
    <path id="Path_100" data-name="Path 100" d="M1641.578,639.013l-.016-.291a7.862,7.862,0,0,0-7.7-7.54l-8.54-.1a7.076,7.076,0,0,0-7,5.3,4.853,4.853,0,0,0-.173.916c0,.017-.005.035-.007.052l-.012.121a7.756,7.756,0,0,0-.029.982l.01.3a7.653,7.653,0,0,0,.068.793l.213,6.634,6.731.071a6.642,6.642,0,0,0,.693.042l8.542.1a7.089,7.089,0,0,0,7.229-6.943c0-.147,0-.293-.007-.438" transform="translate(-924.386 -196.411)" fill="#3c57a2"/>
    <path id="Path_101" data-name="Path 101" d="M1530.01,518.851a43.294,43.294,0,0,1,8.422-25.64c10.158-13.62,25-16.241,28.126-16.721" transform="translate(-851.558 -68.598)" fill="none" stroke="#fdb141" stroke-linecap="round" stroke-miterlimit="10" stroke-width="2"/>
    <path id="Path_102" data-name="Path 102" d="M1550.01,542.4A80.874,80.874,0,0,1,1590.7,498.52" transform="translate(-868.094 -86.812)" fill="none" stroke="#3c57a2" stroke-linecap="round" stroke-miterlimit="10" stroke-width="2"/>
    <path id="Path_103" data-name="Path 103" d="M1600.12,591.92a92.112,92.112,0,0,0,40.449-42.37" transform="translate(-909.524 -129.002)" fill="none" stroke="#fdb141" stroke-linecap="round" stroke-miterlimit="10" stroke-width="2"/>
    <path id="Path_104" data-name="Path 104" d="M1676.17,651.805a68.561,68.561,0,0,0,31.566-34.455" transform="translate(-972.4 -185.058)" fill="none" stroke="#3c57a2" stroke-linecap="round" stroke-miterlimit="10" stroke-width="2"/>
    <path id="Path_105" data-name="Path 105" d="M1625.21,478.27a73.5,73.5,0,0,0,39.922,35.179" transform="translate(-930.267 -70.07)" fill="none" stroke="#3c57a2" stroke-linecap="round" stroke-miterlimit="10" stroke-width="2"/>
    <path id="Path_106" data-name="Path 106" d="M1564.13,516.78a62.55,62.55,0,0,0,43.825,41.564" transform="translate(-879.768 -101.909)" fill="none" stroke="#fdb141" stroke-linecap="round" stroke-miterlimit="10" stroke-width="2"/>
    <path id="Path_107" data-name="Path 107" d="M1527.13,568.93a51.971,51.971,0,0,0,40.416,39.974" transform="translate(-849.177 -145.025)" fill="none" stroke="#3c57a2" stroke-linecap="round" stroke-miterlimit="10" stroke-width="2"/>
  </g>
</svg>
