<?xml version="1.0" encoding="utf-8"?>
<!-- Generator: Adobe Illustrator 23.1.1, SVG Export Plug-In . SVG Version: 6.00 Build 0)  -->
<svg version="1.1" id="Layer_1" xmlns="http://www.w3.org/2000/svg" xmlns:xlink="http://www.w3.org/1999/xlink" x="0px" y="0px"
	 viewBox="0 0 2732 2732" style="enable-background:new 0 0 2732 2732;" xml:space="preserve">
<style type="text/css">
	.st0{opacity:0.15;fill:#FFBD53;}
	.st1{fill:#F8ECE2;stroke:#F8ECE2;stroke-miterlimit:10;}
	.st2{fill:#F2DAD5;}
	.st3{fill:#FFCF78;}
	.st4{fill:#E17F90;stroke:#E17F90;stroke-width:3;stroke-miterlimit:10;}
	.st5{fill:#F8ECE2;}
	.st6{fill:#FFFFFF;}
	.st7{fill:#CF7679;}
	.st8{fill:#FDB141;}
	.st9{fill:#F9A326;}
	.st10{fill:none;stroke:#F5712E;stroke-width:15;stroke-linecap:round;stroke-miterlimit:10;}
	.st11{fill:#005D72;}
	.st12{fill:#242277;}
	.st13{fill:none;stroke:#4C6DB2;stroke-width:19;stroke-linecap:round;stroke-miterlimit:10;}
	.st14{fill:#FA9126;}
	.st15{fill:#FCBC4B;}
	.st16{fill:none;stroke:#F5712E;stroke-width:37;stroke-linecap:round;stroke-miterlimit:10;}
	.st17{fill:#4C6DB2;}
	.st18{fill:#25289B;}
	.st19{fill:#FFFFFF;stroke:#4C6DB2;stroke-width:22;stroke-linecap:round;stroke-miterlimit:10;}
	.st20{fill:#FCBA1B;}
	.st21{fill:none;stroke:#BFBFBF;stroke-width:8;stroke-linecap:round;stroke-linejoin:round;stroke-miterlimit:10;}
	.st22{fill:#FCD1DF;}
	.st23{fill:#278B5A;}
	.st24{fill:#797979;}
	.st25{fill:#BFBFBF;}
	.st26{fill:none;stroke:#606060;stroke-width:13;stroke-linecap:round;stroke-linejoin:round;stroke-miterlimit:10;}
	.st27{fill:#919191;}
	.st28{fill:#606060;}
	.st29{fill:#EAEAEA;}
	.st30{opacity:0.5;fill:#FCBC4B;}
	.st31{fill:none;stroke:#A8A8A8;stroke-width:12;stroke-miterlimit:10;}
	.st32{fill:#F6E4D5;stroke:#F6E4D5;stroke-miterlimit:10;}
	.st33{fill:#ECC8C3;}
	.st34{fill:#F6E4D5;}
	.st35{fill:none;stroke:#FFFFFF;stroke-miterlimit:10;}
	.st36{fill:#CF506C;}
	.st37{fill:#B64A53;}
	.st38{fill:none;stroke:#885E2F;stroke-width:25;stroke-linecap:round;stroke-miterlimit:10;}
	.st39{fill:#BFBFBF;stroke:#000000;stroke-width:10;stroke-linecap:round;stroke-miterlimit:10;}
	.st40{fill:none;stroke:#000000;stroke-width:16;stroke-linecap:round;stroke-linejoin:round;stroke-miterlimit:10;}
	.st41{fill:#FFFFFF;stroke:#FDB141;stroke-width:2;stroke-miterlimit:10;}
	.st42{fill:#FBAF41;}
	.st43{fill:#3C57A2;}
	.st44{fill:none;stroke:#FDB141;stroke-width:2;stroke-linecap:round;stroke-miterlimit:10;}
	.st45{fill:none;stroke:#3C57A2;stroke-width:2;stroke-linecap:round;stroke-miterlimit:10;}
</style>
<path class="st0" d="M1996.89,2338.48H735.11c-129.83,0-235.07-105.24-235.07-235.07V628.59c0-129.83,105.24-235.07,235.07-235.07
	h1261.79c129.83,0,235.07,105.24,235.07,235.07v1474.82C2231.96,2233.24,2126.72,2338.48,1996.89,2338.48z"/>
<g>
	<g>
		<path class="st1" d="M1089.85,1567.47c-21.47-11.43-46.05-16.95-70.34-15.81c-11.03,0.52-22.27,2.48-31.83,8.02
			c-25.02,14.5-30.96,48.17-28.49,76.99c3.8,44.37,21.47,87.46,49.92,121.73c13.73,16.54,31.06,31.65,52.19,35.65
			s46.11-6.75,51.89-27.46c-20.82-45.92-29.31-93.33-32.2-143.67C1080.05,1606.54,1081.12,1581.37,1089.85,1567.47z"/>
		<path class="st2" d="M1076.91,1635.86c-2.1-20.73-17.9-36.82-36.42-38.85c-21.99-2.42-44.02,15.38-45.99,40.55
			c5.19-3.74,21.59-14.54,44.8-13.78C1057.93,1624.38,1071.29,1632.13,1076.91,1635.86z"/>
	</g>
	<path class="st2" d="M1077.73,1661.18c-17.63,6.08-27.77,24.64-23.52,42.32c4.07,16.95,20.3,28.72,38.09,27.27
		C1087.44,1707.57,1082.58,1684.37,1077.73,1661.18z"/>
</g>
<path class="st2" d="M1052.36,1631.85c-17.63,6.08-27.77,24.64-23.52,42.32c4.07,16.95,20.3,28.72,38.09,27.27
	C1062.07,1678.25,1057.22,1655.05,1052.36,1631.85z"/>
<path class="st3" d="M1689,1357.35c8.17,8.72,19.21,18.9,33.56,28.46c20.48,13.65,40,20.94,54.27,24.98
	c12.76,74.66,25.51,149.31,38.27,223.97c55.1-115.88,54.88-206.48,49.07-257.63c-0.96-8.45-5.92-52.14-11.44-52.01
	c-12.15,0.27-28.08,213.14-9.01,421.85c13.2,144.49,40.96,262.79,64.61,345.44c-299.17,11.71-598.34,23.42-897.51,35.12
	c22.72-120.42,40.78-263.58,43.87-425.03c2.48-130.1-5.22-248.05-17.49-351.08"/>
<ellipse transform="matrix(0.9995 -0.0322 0.0322 0.9995 -42.3811 47.2682)" class="st4" cx="1444.43" cy="1337.72" rx="407.98" ry="35.45"/>
<path class="st5" d="M1852.18,1324.05c-3.2,37.42-8.64,95.81-17.23,167.12c-41.11,341.35-86.22,412.5-105.1,439.34
	c-27.82,39.55-81.78,101.03-186.41,149.96c-53.41,1.72-106.82,3.45-160.23,5.17c-83.51-27.04-134.3-67.11-163.48-95.49
	c-126.39-122.89-141.81-312.38-158.64-519.26c-3.88-47.73-5.2-87.08-5.7-112.92c109.75,9.95,233.37,15.09,368.44,10.73
	C1584.01,1363.56,1727.9,1346.1,1852.18,1324.05z"/>
<g>
	<g>
		<path class="st1" d="M1800.87,1523.46c20.69-12.79,44.86-19.88,69.18-20.31c11.05-0.19,22.38,1.04,32.28,5.95
			c25.9,12.86,34.01,46.08,33.4,74.99c-0.94,44.53-15.79,88.66-41.97,124.69c-12.64,17.39-28.96,33.59-49.78,38.94
			s-46.44-3.77-53.55-24.06c17.82-47.17,23.24-95.02,22.87-145.44C1813.17,1561.81,1810.47,1536.77,1800.87,1523.46z"/>
		<path class="st2" d="M1818.19,1590.87c0.76-20.82,15.49-37.89,33.84-41.12c21.79-3.83,44.92,12.51,48.51,37.51
			c-5.42-3.39-22.49-13.12-45.59-10.87C1836.39,1578.2,1823.56,1586.79,1818.19,1590.87z"/>
	</g>
	<path class="st2" d="M1819.01,1616.19c17.98,4.93,29.3,22.8,26.2,40.72c-2.97,17.17-18.4,29.97-36.25,29.67
		C1812.31,1663.11,1815.66,1639.65,1819.01,1616.19z"/>
</g>
<polygon class="st5" points="1560.84,2097.6 1564.66,2215.91 1567.59,2306.91 1520.7,2335.76 1459.27,2337.74 1389.77,2301.26 
	1383.38,2103.32 "/>
<path class="st2" d="M1560.66,2096.47c-58.13,38.81-116.25,77.62-174.38,116.43c-1.03-36.9-2.05-73.8-3.08-110.7L1560.66,2096.47z"
	/>
<path class="st2" d="M1055.03,1359.02c16.75,1.14,42.15,2.79,73.11,4.5c72.16,3.97,139.8,7.58,223,7c25.71-0.18,62.47-0.83,107-3
	c3.32,58.64,6.26,117.3,8.81,175.99c7.92,181.92,12.15,364,12.7,546.25c-34.16,5.79-68.78,3.02-102.21-5.86
	c-3.91-0.33-9.13-2.08-16.53-4.87l0.01-0.04c-53.28-17.54-102.77-50.08-141.54-87.78c-126.39-122.89-141.81-312.38-158.64-519.26
	C1056.84,1424.21,1055.53,1384.87,1055.03,1359.02z"/>
<path class="st3" d="M1033.79,1352.77c45.14,5.85,93.34,10.63,144.35,13.75c48.44,2.97,94.54,4.14,138,4
	c-39.03,24.09-90.28,50.92-153.2,72.64c-53.76,18.55-102.8,28.8-143.57,34.55C1024.17,1436.06,1028.98,1394.41,1033.79,1352.77z"/>
<path class="st6" d="M1418.32,1980.91c24.28,11.11,53.24,11.53,77.83,1.13c-3.29,8.22-8.67,13.55-16.3,18.05
	c-11.6,6.85-26.28,7.45-39.06,3.22C1429.53,1999.57,1420.46,1992.58,1418.32,1980.91z"/>
<path class="st6" d="M1600.11,1796.93c-26.24,13.47-74.6,34.02-138.63,37.37c-63.32,3.32-113.09-11.69-140.55-22.2
	c45.12-5.68,93.58-10.2,145.06-12.85C1513.19,1796.83,1558,1796.23,1600.11,1796.93z"/>
<path class="st7" d="M1538.88,1938.74c-16.45,7.29-46.97,18.2-86.34,17.23c-32.74-0.81-58.45-9.51-74.02-16.17
	c1.97-2.74,33.81-45.37,87.07-41.88C1510.27,1900.84,1535.37,1933.95,1538.88,1938.74z"/>
<g>
	<path class="st8" d="M949.13,963.52c-1.55,4.55-3.02,10.87,0,14c4.44,4.6,13.53-2.94,22,1c11.06,5.14,11.7,25.49,12,35
		c0.38,12.17,0.71,22.67-6,28c-9.56,7.59-25.53-1.58-30,5c-2.37,3.49,0,9.2,2,13h615v-96"/>
	<path class="st9" d="M1261.13,962.52v54h96c0.24-4.12,0.7-20.42-11-35c-14.82-18.47-36.98-18.98-40-19
		C1291.13,962.52,1276.13,962.52,1261.13,962.52z"/>
	<path class="st6" d="M965.13,978.52c2.13,8.66,4.1,20.26,4,34c-0.09,12.82-1.96,23.71-4,32c103,0,206,0,309,0v-66H965.13z"/>
	<path class="st10" d="M951.13,970.52h307.92c3.61,4.07,17.34,20.55,15.98,44.38c-1.12,19.69-11.91,33.05-15.98,37.62
		c-102.64,0-205.28,0-307.92,0"/>
	<path class="st8" d="M1298.13,1219.52"/>
	<path class="st11" d="M911.89,1059.8c-1.55,6.49-3.02,15.48,0,19.94c4.44,6.55,13.53-4.18,22,1.42c11.06,7.32,11.7,36.3,12,49.85
		c0.38,17.34,0.71,32.29-6,39.88c-9.56,10.81-25.53-2.25-30,7.12c-2.37,4.97,0,13.1,2,18.51h615V1059.8"/>
	<rect x="1159.13" y="1059.52" class="st12" width="368" height="88"/>
	<path class="st6" d="M927.89,1074.8c2.07,14.4,3.98,33.69,3.89,56.52c-0.09,21.31-1.9,39.41-3.89,53.2c100.08,0,200.17,0,300.25,0
		V1074.8H927.89z"/>
	<path class="st13" d="M913.89,1068.8h307.92c3.61,5.85,17.34,29.51,15.98,63.71c-1.12,28.27-11.91,47.44-15.98,54.01
		c-102.64,0-205.28,0-307.92,0"/>
	<path class="st9" d="M1298.13,1025.52h616.8c4.33,13.21,12.26,41.42,13.12,80.04c1.04,46.64-8.83,80.83-13.12,93.96
		c-205.6,0-411.2,0-616.8,0v-38.28l230.6,1.74c54.37,0,54.37,0,54.37,0v-111.36l-284.97,3.48V1025.52z"/>
	<path class="st6" d="M1309.13,1041.52c2.13,17.58,4.1,41.14,4,69.03c-0.09,26.02-1.96,48.13-4,64.97c103,0,206,0,309,0v-134
		H1309.13z"/>
	<path class="st14" d="M1924.71,1153.52c-99.67,0.33-199.33,0.67-299,1c1.56,1.82,9,10.88,8,24c-0.76,10.05-6.04,16.74-8,19
		c96.33,0,192.67,0,289,0c2.14-6.69,4.2-14.04,6-22C1922.48,1167.72,1923.77,1160.35,1924.71,1153.52z"/>
	<path class="st15" d="M1925.13,1068.52c-99.67-0.33-199.33-0.67-299-1c1.56-1.82,9-10.88,8-24c-0.76-10.05-6.04-16.74-8-19
		c96.33,0,192.67,0,289,0c2.14,6.69,4.2,14.04,6,22C1922.9,1054.32,1924.19,1061.69,1925.13,1068.52z"/>
	<path class="st16" d="M1299.13,1178.52h319c5.97-11,17-34.85,17-67c0-12.52-1.67-38.74-17-67c-106.67,0-213.33,0-320,0"/>
	<path class="st12" d="M1820.44,1328.52h-783.62c-15.85,0-28.69-12.85-28.69-28.69v-74.62c0-15.85,12.85-28.69,28.69-28.69h783.62
		c15.85,0,28.69,12.85,28.69,28.69v74.62C1849.13,1315.68,1836.29,1328.52,1820.44,1328.52z"/>
	<path class="st17" d="M1036.63,1328.02c-2.34,0.21-8.87,0.49-15.5-3.5c-8.8-5.29-11.19-14.14-11.64-15.95
		c176.38,0.15,352.76,0.3,529.14,0.45l8.75,19H1036.63z"/>
	<path class="st18" d="M1547.38,1196.52h-510.25c-1.87,0.01-12.64,0.22-21,9c-7.74,8.12-7.99,17.88-8,20c0,20.72,0,41.44,0,62.16
		l144-0.16c-1-8.33-2-16.67-3-25c128.33,0,256.67,0,385,0C1538.55,1240.52,1542.96,1218.52,1547.38,1196.52z"/>
	<path class="st6" d="M1855.18,1207.93c-2.07,14.4-3.98,33.69-3.89,56.52c0.09,21.31,1.9,39.41,3.89,53.2
		c-100.08,0-200.17,0-300.25,0v-109.72H1855.18z"/>
	<path class="st19" d="M1855.13,1317.52h-300c-4.98-8.47-15.52-28.99-15-57c0.47-25.71,10.01-44.52,15-53c100,0,200,0,300,0"/>
	<polygon class="st18" points="1381.13,1250.52 1381.13,1287.52 1413.13,1268.52 1444.13,1287.52 1444.13,1242.52 	"/>
	<polygon class="st20" points="1381.13,1123.52 1444.13,1123.52 1444.13,1219.52 1412.13,1171.52 1381.13,1212.52 	"/>
	<line class="st21" x1="1370.13" y1="1123.52" x2="1452.13" y2="1123.52"/>
	<path class="st9" d="M962.13,1136.52h63c0,28.33,0,56.67,0,85c-10.67-4.33-21.33-8.67-32-13c-10.33,5.67-20.67,11.33-31,17
		C962.13,1195.85,962.13,1166.19,962.13,1136.52z"/>
	<line class="st21" x1="951.13" y1="1136.52" x2="1033.13" y2="1136.52"/>
	<path class="st12" d="M1133.38,1020.04h45.65c0,12.57,0,25.14,0,37.71c-7.73-1.92-15.46-3.84-23.19-5.77
		c-7.49,2.51-14.97,5.03-22.46,7.54C1133.38,1046.36,1133.38,1033.2,1133.38,1020.04z"/>
	<line class="st21" x1="1125.41" y1="1020.04" x2="1184.82" y2="1020.04"/>
</g>
<path class="st22" d="M1308.23,1374.28"/>
<path class="st23" d="M1274.7,1307.36c-0.05,1.59-0.23,3.52-0.71,5.66c-0.52,2.34-1.25,4.3-1.94,5.83
	c-0.52,4.06-1.04,8.12-1.56,12.18c-1.29-2.96-2.72-7.1-3.4-12.18c-0.53-3.94-0.46-7.41-0.22-10.15
	C1269.47,1308.26,1272.08,1307.81,1274.7,1307.36z"/>
<g>
	<path class="st24" d="M1515.46,888.52H888.81c-23.02,0-41.67-18.66-41.67-41.67V472.2c0-23.02,18.66-41.67,41.67-41.67h626.65
		c23.02,0,41.67,18.66,41.67,41.67v374.65C1557.13,869.86,1538.47,888.52,1515.46,888.52z"/>
	<rect x="914.13" y="498.52" class="st6" width="592" height="332"/>
	<path class="st25" d="M530.13,885.52c340,0.33,680,0.67,1020,1c0.67,25,1.33,50,2,75c-331.67,1-663.33,2-995,3
		c-4.49-2.91-22.8-15.49-29-40C523.56,906.44,528,891.48,530.13,885.52z"/>
	<path class="st26" d="M526.13,885.52l1021,3c-0.01-1.65-0.07-8.98,0-18.12c0.62-85.58,11.65-327.78,6-394.88
		c-0.39-4.63-1.39-14.74-8.5-23.5c-11.83-14.57-33.29-16.45-48-16"/>
	<path class="st27" d="M528.13,926.52c-1.99-3.38-4.66-8.82-6-16c-1.42-7.64-0.74-14.04,0-18c343.17-0.5,686.33-1,1029.5-1.5
		c0.17,12.83,0.33,25.67,0.5,38.5C1210.8,928.52,869.47,927.52,528.13,926.52z"/>
	<path class="st28" d="M540.92,949.86c-1.6-2.23-3.21-4.68-4.79-7.34c-3.58-6.06-6.14-11.86-8-17
		c132.49,0.72,264.98,1.44,397.47,2.16l-0.47,21.84L540.92,949.86z"/>
	<path class="st29" d="M1414.86,802.52H1045.4c-32.73,0-59.27-26.54-59.27-59.27V598.79c0-32.73,26.54-59.27,59.27-59.27h369.46
		c32.73,0,59.27,26.54,59.27,59.27v144.46C1474.13,775.99,1447.6,802.52,1414.86,802.52z"/>
	<rect x="1019.13" y="592.97" class="st6" width="404.74" height="184.1"/>
	<rect x="1082.13" y="556.08" class="st6" width="341.35" height="25.45"/>
	<circle class="st8" cx="1029.13" cy="569.52" r="10"/>
	<circle class="st12" cx="1062.13" cy="569.52" r="10"/>
	<rect x="1039.13" y="624.52" class="st30" width="138" height="138"/>
	<line class="st31" x1="1192.37" y1="633.02" x2="1294.57" y2="634.02"/>
	<line class="st31" x1="1192.56" y1="650.78" x2="1359.13" y2="651.78"/>
	<line class="st31" x1="1192.38" y1="670.78" x2="1358.95" y2="671.78"/>
	<line class="st31" x1="1192.38" y1="732.78" x2="1358.95" y2="733.78"/>
	<line class="st31" x1="1192.56" y1="692.78" x2="1294.77" y2="693.78"/>
	<line class="st31" x1="1192.56" y1="714.78" x2="1276.13" y2="715.78"/>
	<line class="st31" x1="1192.88" y1="747.78" x2="1276.45" y2="748.78"/>
	<g>
		<g>
			<path class="st32" d="M1073.67,680.67c-2.09-1.47-4.59-2.36-7.14-2.55c-1.16-0.09-2.36-0.03-3.42,0.43
				c-2.8,1.19-3.85,4.63-3.96,7.67c-0.17,4.68,1.12,9.4,3.65,13.34c1.22,1.9,2.84,3.7,4.99,4.39c2.15,0.69,4.9-0.12,5.77-2.2
				c-1.59-5.06-1.87-10.11-1.52-15.4C1072.14,684.62,1072.58,682.01,1073.67,680.67z"/>
			<path class="st33" d="M1071.44,687.64c0.05-2.19-1.4-4.07-3.3-4.52c-2.26-0.53-4.79,1.04-5.32,3.64
				c0.59-0.32,2.44-1.24,4.85-0.87C1069.61,686.2,1070.9,687.18,1071.44,687.64z"/>
		</g>
		<path class="st33" d="M1071.2,690.3c-1.92,0.41-3.21,2.22-3,4.12c0.21,1.82,1.75,3.26,3.63,3.33
			C1071.62,695.26,1071.41,692.78,1071.2,690.3z"/>
	</g>
	<path class="st34" d="M1154.07,658.62c-1.13,6.7-1.93,12.03-2.39,15.2c-3.16,21.73-4.17,34.75-11.84,46.53
		c-0.26,0.39-0.49,0.72-0.69,1c-3.06,4.21-8.94,10.72-20.09,15.69c-5.62,0-11.23,0-16.85,0c-4.34-1.62-7.81-3.57-10.57-5.51
		c0,0-3.38-2.41-6.28-5.47c-8.61-9.09-12.39-29.16-14.25-41.5c-0.97-6.45-2.1-15.29-2.81-25.93c8.7-15.43,25.08-25.02,42.78-25.06
		C1128.86,633.52,1145.33,643.12,1154.07,658.62z"/>
	<path class="st33" d="M1111.51,736.83c-0.07-34.42-0.14-68.85-0.22-103.28c-4.47,0.01-14.14,0.64-24.41,6.48
		c-10.8,6.14-16.37,14.69-18.58,18.58c0.12,13.57,1.69,24.76,3.24,32.84c3.27,17.04,5.61,28.38,15.12,36.95
		c5.45,4.91,11.4,7.24,15.56,8.43C1105.32,736.83,1108.41,736.83,1111.51,736.83z"/>
	<path class="st35" d="M1117.7,697.61c0.7,1.48-0.29,3.32-1.71,4.12s-3.14,0.85-4.78,0.88c-0.83,0.01-1.66,0.03-2.49,0.04
		c-1.5,0.02-3.06,0.03-4.39-0.66c-1.33-0.69-2.3-2.31-1.73-3.7"/>
	<polygon class="st34" points="1119.06,737.03 1119.06,748.27 1119.06,756.91 1114.54,759.5 1108.73,759.5 1102.27,755.83 
		1102.27,737.03 	"/>
	<path class="st33" d="M1119.21,736.93c-5.63,3.5-11.27,7.01-16.9,10.51c0.02-3.5,0.03-7.01,0.05-10.51H1119.21z"/>
	<g>
		<path class="st32" d="M1147.99,679.38c2.22-1.27,4.78-1.94,7.34-1.9c1.16,0.02,2.35,0.18,3.37,0.73c2.68,1.44,3.42,4.96,3.25,7.99
			c-0.25,4.68-1.96,9.26-4.83,12.96c-1.39,1.78-3.16,3.43-5.36,3.92c-2.21,0.49-4.87-0.55-5.54-2.71c2.03-4.9,2.76-9.9,2.9-15.2
			C1149.16,683.45,1148.96,680.81,1147.99,679.38z"/>
		<path class="st33" d="M1149.59,686.52c0.15-2.19,1.76-3.93,3.7-4.21c2.3-0.33,4.68,1.47,4.97,4.11c-0.56-0.37-2.32-1.45-4.75-1.3
			C1151.54,685.25,1150.16,686.11,1149.59,686.52z"/>
	</g>
	<path class="st33" d="M1149.59,689.19c1.87,0.58,3,2.49,2.61,4.37c-0.37,1.79-2.04,3.09-3.91,2.99
		C1148.72,694.09,1149.15,691.64,1149.59,689.19z"/>
	<path class="st23" d="M1067.87,671.37c7.27-1.43,15.91-3.74,25.28-7.56c6.94-2.83,12.96-5.96,18.04-8.97
		c2.33,1.32,5.1,2.65,8.32,3.79c6.74,2.38,12.82,2.97,17.26,3c0.83,0.94,1.95,2.05,3.43,3.1c2.11,1.5,4.13,2.34,5.62,2.81
		c1.09,7.89,2.17,15.77,3.26,23.66c3.08-5.43,7.4-15.17,6.03-26.9c-0.23-2.01-0.61-3.88-1.08-5.62
		c-2.12-3.83-7.56-12.45-18.31-18.64c-10.3-5.93-20.03-6.49-24.41-6.48c-3.83-0.3-15.13-0.67-26.57,6.48
		c-10.09,6.3-14.74,14.98-16.42,18.58C1068.16,662.87,1068.01,667.12,1067.87,671.37z"/>
	<path class="st6" d="M1105.7,730.66c2.74,1.36,6.05,1.52,8.91,0.42c-0.41,0.93-1.04,1.52-1.93,2.01c-1.35,0.74-3.04,0.76-4.48,0.22
		C1106.91,732.84,1105.9,732.01,1105.7,730.66z"/>
	<path class="st36" d="M1130.25,710.75c-0.06,1.94-0.46,6.33-3.53,10.36c-5.52,7.24-14.85,6.96-16.95,6.83
		c-2-0.13-9.21-0.59-13.89-6.59c-3.01-3.86-3.45-8.07-3.53-9.89c5.99-0.63,12.53-1.07,19.54-1.18
		C1118.44,710.17,1124.58,710.36,1130.25,710.75z"/>
	<path class="st6" d="M1127.19,710.28c-3.05,1.44-8.67,3.62-16.01,3.77c-7.26,0.15-12.9-1.76-16.01-3.06
		c5.19-0.48,10.75-0.82,16.65-0.94C1117.24,709.94,1122.37,710.04,1127.19,710.28z"/>
	<path class="st37" d="M1119.66,726.28c-1.91,0.77-5.44,1.91-9.95,1.65c-3.74-0.21-6.66-1.3-8.41-2.12
		c0.24-0.31,4.04-5.07,10.12-4.47C1116.52,721.84,1119.27,725.72,1119.66,726.28z"/>
</g>
<line class="st38" x1="1818.13" y1="1016.52" x2="1555.13" y2="1016.52"/>
<path class="st25" d="M1791.63,1003.02c-9.36-58.19-61.14-99.45-117-96c-51.07,3.16-94.73,43.03-103.04,96
	C1644.94,1003.02,1718.29,1003.02,1791.63,1003.02z"/>
<polygon class="st25" points="1669.13,915.52 1670.13,863.52 1701.13,863.52 1701.13,911.27 "/>
<line class="st39" x1="1539.13" y1="788.52" x2="1801.13" y2="498.52"/>
<path class="st40" d="M1799.13,485.52c105.21,77.26,120.95,220.82,55,304c-71.12,89.71-230.86,101.14-327-3"/>
<circle class="st41" cx="1685.63" cy="642.02" r="174.5"/>
<path class="st42" d="M1691.4,656.27c-16.37,16.73-43.79,16.43-61.25-0.65c-17.46-17.09-18.34-44.49-1.97-61.22
	c16.37-16.73,43.79-16.43,61.25,0.65C1706.89,612.14,1707.76,639.55,1691.4,656.27"/>
<path class="st43" d="M1753.66,676.87l-0.09-1.68c-0.98-23.99-20.47-43.07-44.48-43.53l-49.3-0.57
	c-18.93-0.39-35.65,12.28-40.39,30.61c-0.5,1.73-0.84,3.5-1,5.29c-0.02,0.1-0.03,0.2-0.04,0.3l-0.07,0.7
	c-0.18,1.88-0.23,3.78-0.17,5.67l0.06,1.72c0.05,1.53,0.18,3.06,0.39,4.58l1.23,38.3l38.86,0.41c1.32,0.14,2.68,0.24,4,0.24
	l49.31,0.57c22.59,0.45,41.27-17.49,41.73-40.08C1753.7,678.55,1753.69,677.71,1753.66,676.87"/>
<path class="st44" d="M1530.01,721.04c0.01-22.41,2.99-86.83,48.62-148.02c58.64-78.63,144.34-93.76,162.37-96.53"/>
<path class="st45" d="M1550.01,751.82c14.09-36.42,41.88-94.74,95.62-151.8c51.17-54.34,104.68-85.02,139.3-101.5"/>
<path class="st44" d="M1600.12,794.15c36.21-19.09,88.04-51.74,138.51-105.13c48.69-51.5,77.91-103.05,95-139.47"/>
<path class="st45" d="M1676.17,816.26c27.64-14.45,68.3-39.85,107.47-82.24c40.3-43.63,62.63-87.51,74.76-116.67"/>
<path class="st45" d="M1625.21,478.27c15.83,30.52,44.23,76.25,92.42,119.75c52.09,47.02,104.77,71.11,138.05,83.34"/>
<path class="st44" d="M1564.13,516.78c9.9,31.06,35.45,96.74,98.5,155.24c59.75,55.44,123.08,76.5,154.5,84.71"/>
<path class="st45" d="M1527.13,568.93c5.91,27.12,22.83,87.04,74.5,142.09c60.67,64.63,132.27,83.17,158.82,88.68"/>
</svg>
