<svg id="Layer_1" data-name="Layer 1" xmlns="http://www.w3.org/2000/svg" viewBox="0 0 3234.6 3539.65"><defs><style>.cls-1,.cls-6{fill:#31b1dc;}.cls-1{opacity:0.14;isolation:isolate;}.cls-11,.cls-2{fill:#f4e2d3;}.cls-3{fill:#084b5f;}.cls-4{fill:#fff;}.cls-5{fill:#eac6c1;}.cls-7{fill:#3c57a4;}.cls-8{fill:#f6e4d5;}.cls-13,.cls-9{fill:#fdb141;}.cls-10{fill:#fdbb53;}.cls-11{stroke:#f4e2d3;}.cls-11,.cls-12{stroke-miterlimit:10;}.cls-12{fill:none;stroke:#fff;stroke-width:3px;}.cls-13{stroke:#fdb141;stroke-linecap:round;stroke-linejoin:round;stroke-width:8px;}</style></defs><title>pantalla1.2</title><path class="cls-1" d="M3483.29,4202H1115.43c-239.35,0-433.38-194-433.38-433.38V1095.73c0-239.35,194-433.38,433.38-433.38H3483.27c239.35,0,433.38,194,433.38,433.38V3768.62C3916.67,4008,3722.64,4202,3483.29,4202Z" transform="translate(-682.05 -662.35)"/><path class="cls-2" d="M1887.73,3460V3314c-192.83-121.8-263.36-266.87-287.78-326.64-69-168.94-64.58-378.52-62-502,1.1-52,4.86-94.94-18.9-146-42.1-90.43-126.12-110.75-128.14-184.85-.74-27.16,9.68-56.4,28.36-74.57,48-46.67,162.16-31.65,275.18,51.47L2814.14,2304l-50.47,832.49a119.44,119.44,0,0,1-71.42,71.42L2697.5,3460Z" transform="translate(-682.05 -662.35)"/><path class="cls-3" d="M2840.64,1362.64v-149.5a27,27,0,0,0-26.5-27V1095c0-110.14-89.3-199.44-199.44-199.44h-689c-110.14,0-199.43,89.3-199.43,199.44V2865.48c0,110.15,89.29,199.44,199.43,199.44h689c110.14,0,199.44-89.29,199.44-199.44V1624.42a27,27,0,0,0,21.2-26.4v-149.5a27,27,0,0,0-21.2-26.4v-32.46A27,27,0,0,0,2840.64,1362.64Z" transform="translate(-682.05 -662.35)"/><rect class="cls-4" x="1082.4" y="453.77" width="1021.05" height="1727.2"/><polygon class="cls-2" points="1535.05 932.99 1535.05 1014.36 1535.05 1076.95 1567.91 1095.73 1610.16 1095.73 1657.11 1069.13 1657.11 932.99 1535.05 932.99"/><path class="cls-5" d="M2217.55,1594.56l122.39,76.12-.33-76.12Z" transform="translate(-682.05 -662.35)"/><path class="cls-6" d="M2184.21,1708.51h253.12l-43.06,893.79a380.5,380.5,0,0,1-330.84,0Z" transform="translate(-682.05 -662.35)"/><path class="cls-7" d="M2671.55,1918.57a1040.83,1040.83,0,0,0-101.88-193.26l-132.34-16.8a2902.92,2902.92,0,0,0-91.22,532.08c-10.61.18-20.49.32-29.56.41q-8.4,67.23-16.81,134.44c7.59,3.06,21,8.24,38.8,13.5a2905.35,2905.35,0,0,0,32.62,513.75h198.51V2388.14a324,324,0,0,0,35.71-14.8c29.45-14.34,76.11-37.05,107.13-87.17C2776.76,2182.34,2722,2044.93,2671.55,1918.57Zm-83,296.18c-4.44,5-9.62,8.82-18.9,11.83V2054.05C2577.74,2069.91,2627.73,2170.58,2588.57,2214.75Z" transform="translate(-682.05 -662.35)"/><rect class="cls-7" x="1425.94" y="365.77" width="335.05" height="38.17" rx="19.09"/><path class="cls-8" d="M1555.92,1918.69l48.75,53.92L1543,2028.36l-43.77-48.42c-21,4.26-42.74-1.61-57.19-17.59-22.69-25.1-18.8-65.58,8.68-90.43s68.16-24.64,90.84.45C1553.15,1885.18,1557.79,1902,1555.92,1918.69Z" transform="translate(-682.05 -662.35)"/><polygon class="cls-7" points="1502.16 1046.16 1376.13 2224.58 1187.07 2224.58 1381.38 1057.71 1502.16 1046.16"/><path class="cls-7" d="M1890.13,1914.36c-62,98.56-76.7,171.33-122.88,177.5-28.44,3.81-74.67-16.84-146-149.14l-105,83c12.54,25.26,148.81,294.84,260.47,272,26.87-5.49,57.14-38.4,116.58-104,50-55.17,88.25-104.14,114.53-139.69l55.62-334C2017.4,1757.31,1949.38,1820.23,1890.13,1914.36Z" transform="translate(-682.05 -662.35)"/><polygon class="cls-9" points="1163.97 1278.27 1487.57 1278.27 1596.69 1769.81 1281.6 1769.81 1163.97 1278.27"/><path class="cls-8" d="M2250.17,2256.74l72.44,6-6.88,82.84-65-5.41c-12.41,17.46-32.29,28-53.77,26.27-33.71-2.8-58.55-35-55.48-71.93s32.88-64.58,66.59-61.78C2225.24,2234.18,2240.12,2243.27,2250.17,2256.74Z" transform="translate(-682.05 -662.35)"/><path class="cls-10" d="M2458.18,1221.27c7.34-2.6,40.17-13.32,73.68,3,32.38,15.83,43.69,46.35,48.31,58.82,19.32,52.14,7.67,131.2-44.11,155.44-8.13,3.81-32,13.19-69.06,1.58" transform="translate(-682.05 -662.35)"/><path class="cls-11" d="M2458.18,1358a69.36,69.36,0,0,1,34.38-12.27c5.57-.42,11.34-.12,16.48,2.07,13.47,5.75,18.53,22.3,19.06,36.93a112.17,112.17,0,0,1-17.6,64.24c-5.88,9.16-13.66,17.81-24,21.12s-23.58-.55-27.76-10.6c7.64-24.36,9-48.7,7.34-74.17C2465.51,1377,2463.42,1364.41,2458.18,1358Z" transform="translate(-682.05 -662.35)"/><path class="cls-5" d="M2468.89,1391.53c-.22-10.55,6.73-19.6,15.91-21.77,10.9-2.56,23.07,5,25.61,17.55a37.24,37.24,0,0,0-23.36-4.17A36.82,36.82,0,0,0,2468.89,1391.53Z" transform="translate(-682.05 -662.35)"/><path class="cls-5" d="M2470,1404.3a18.11,18.11,0,0,1-3,35.86Q2468.52,1422.24,2470,1404.3Z" transform="translate(-682.05 -662.35)"/><path class="cls-2" d="M2062.63,1251.76c5.44,32.28,9.29,57.94,11.51,73.2,15.24,104.66,20.08,167.34,57,224.06,1.23,1.88,2.34,3.45,3.32,4.79,14.72,20.29,43,51.65,96.76,75.56h81.16a223.51,223.51,0,0,0,50.89-26.53,237,237,0,0,0,30.26-26.36c41.49-43.79,59.67-140.44,68.61-199.87,4.68-31.08,10.1-73.65,13.53-124.85a237.05,237.05,0,0,0-413.07,0Z" transform="translate(-682.05 -662.35)"/><path class="cls-5" d="M2267.6,1631.53l1.05-497.34a238.7,238.7,0,0,1,207,120.69A878.35,878.35,0,0,1,2460.09,1413c-15.75,82.08-27,136.66-72.83,177.92-26.25,23.64-54.92,34.85-74.92,40.58Z" transform="translate(-682.05 -662.35)"/><path class="cls-12" d="M2237.81,1410.38c-3.38,7.14,1.37,16,8.24,19.87s15.13,4.1,23,4.22l12,.19c7.2.11,14.74.15,21.14-3.16s11.07-11.15,8.34-17.82" transform="translate(-682.05 -662.35)"/><path class="cls-10" d="M2440.08,1303.49a145.49,145.49,0,0,0,12.79,55.36l-25,195.27c22.59-50.77,43.77-116.85,48.92-195.27,1.12-17,1.4-33.32,1-48.9Z" transform="translate(-682.05 -662.35)"/><path class="cls-10" d="M2477.78,1313.15a656.19,656.19,0,0,1-208.61-79.64,251.71,251.71,0,0,1-40.06,18.25,255,255,0,0,1-83.13,14.45,96.85,96.85,0,0,1-43.57,28.47q-7.85,57-15.71,114c-14.82-26.16-35.62-73.06-29-129.55a188.51,188.51,0,0,1,5.2-27.06,234.28,234.28,0,0,1,205.78-121c18.42-1.42,72.85-3.22,128,31.22a211.85,211.85,0,0,1,79.08,89.48Q2476.73,1282.45,2477.78,1313.15Z" transform="translate(-682.05 -662.35)"/><rect class="cls-3" x="1137.71" y="2180.47" width="966.27" height="142.84" rx="71.42"/><path class="cls-4" d="M2246.25,1582.28a56.31,56.31,0,0,0,44.7,2.09c-2,4.66-5.23,7.62-9.7,10.07-6.79,3.71-15.23,3.79-22.5,1.12C2252.34,1593.21,2247.26,1589,2246.25,1582.28Z" transform="translate(-682.05 -662.35)"/><path class="cls-10" d="M2063.77,1321.15c.37,5.73.12,16.56-6.64,26.06-11.05,15.51-35.05,21.28-58.82,12.6,4.65,5.27,23.7,25.65,54.62,28.36a80.38,80.38,0,0,0,38-6.09Q2077.35,1351.62,2063.77,1321.15Z" transform="translate(-682.05 -662.35)"/><path class="cls-13" d="M1888,1429.13,1846,1321l-5.74.22a47.47,47.47,0,0,0,5.74-22.7V1083a47.69,47.69,0,0,0-47.69-47.69H1304.49a47.69,47.69,0,0,0-47.68,47.69v215.51a47.69,47.69,0,0,0,47.68,47.69h339.92Z" transform="translate(-682.05 -662.35)"/><circle class="cls-7" cx="1593.03" cy="2300.2" r="89.59"/><path class="cls-2" d="M2707,2140.79c-67.44,11.41-127.81-31.75-137.58-87.17-7.45-42.23,15.09-88,56.71-113.44l398.06-159.64c59.41-16.15,120.76,10.94,146,60.92,29.34,58.09,4.2,135.83-60.91,168Z" transform="translate(-682.05 -662.35)"/><path class="cls-5" d="M2741.61,2103.13c-59.91,21.36-116.37-1.77-129.18-33.76-14.14-35.3,17.41-100,89.58-118.25Z" transform="translate(-682.05 -662.35)"/><path class="cls-2" d="M2717.56,2347.26c-59.68,10.09-113.09-28.1-121.74-77.14-6.59-37.36,13.36-77.88,50.18-100.36l352.22-141.26c52.56-14.29,106.84,9.68,129.17,53.9,26,51.4,3.72,120.19-53.9,148.69Z" transform="translate(-682.05 -662.35)"/><path class="cls-5" d="M2748.23,2313.93c-53,18.91-103-1.56-114.31-29.87-12.51-31.23,15.41-88.48,79.27-104.62Z" transform="translate(-682.05 -662.35)"/><path class="cls-2" d="M2746.37,2541.07c-60.08,7.35-111.69-33.23-118.09-82.62-4.88-37.62,16.9-77.19,54.72-98l358.3-125c53.16-11.88,106.29,14.55,126.58,59.74,23.58,52.53-1.78,120.23-60.64,146.08Z" transform="translate(-682.05 -662.35)"/><path class="cls-5" d="M2778.53,2509.18c-53.82,16.46-102.79-6.27-112.82-35.06-11.07-31.77,19.43-87.69,84-100.9Z" transform="translate(-682.05 -662.35)"/><path class="cls-2" d="M2773.63,2691.16c-51.77,1.7-92.67-36.83-94.36-79.4-1.3-32.44,20.27-64.51,54.09-79.34l314.9-79.29c46.22-6.07,89.49,20.5,103.34,60.56,16.1,46.57-10.67,102.34-62.8,119.89Z" transform="translate(-682.05 -662.35)"/><path class="cls-5" d="M2803.47,2666.43c-47.13,9.93-87.14-13.17-93.5-38.47-7-27.92,23.24-73.26,79.24-79.61Q2796.34,2607.39,2803.47,2666.43Z" transform="translate(-682.05 -662.35)"/><rect class="cls-7" x="1163.67" y="2797.6" width="895.9" height="544.05"/></svg>