<?xml version="1.0" encoding="utf-8"?>
<!-- Generator: Adobe Illustrator 23.1.1, SVG Export Plug-In . SVG Version: 6.00 Build 0)  -->
<svg version="1.1" id="Layer_1" xmlns="http://www.w3.org/2000/svg" xmlns:xlink="http://www.w3.org/1999/xlink" x="0px" y="0px"
	 viewBox="0 0 2732 2732" style="enable-background:new 0 0 2732 2732;" xml:space="preserve">
<style type="text/css">
	.st0{opacity:0.15;fill:#FFBD53;}
	.st1{fill:#FBAF41;}
	.st2{fill:#FFFFFF;}
	.st3{fill:#FFFFFF;stroke:#3C57A2;stroke-width:46;stroke-linecap:round;stroke-linejoin:round;stroke-miterlimit:10;}
	.st4{opacity:0.55;fill:none;stroke:#FABA4B;stroke-width:100;stroke-miterlimit:10;}
	.st5{fill:#3C57A2;}
	.st6{fill:#3D2FA3;}
	.st7{fill:#FABA4B;}
	.st8{fill:none;stroke:#4C6DB2;stroke-width:70;stroke-linecap:round;stroke-linejoin:round;stroke-miterlimit:10;}
	.st9{fill:none;stroke:#4C6DB2;stroke-width:70;stroke-linecap:round;stroke-miterlimit:10;}
	.st10{fill:none;stroke:#4C6DB2;stroke-width:70;stroke-linecap:square;stroke-miterlimit:10;}
	.st11{fill:none;stroke:#4C6DB2;stroke-width:50;stroke-linecap:round;stroke-miterlimit:10;}
	.st12{fill:none;stroke:#4C6DB2;stroke-width:50;stroke-linecap:round;stroke-linejoin:round;stroke-miterlimit:10;}
</style>
<path class="st0" d="M2029.85,2358.38H702.15c-134.21,0-243-108.8-243-243V616.63c0-134.21,108.8-243,243-243h1327.71
	c134.21,0,243,108.8,243,243v1498.75C2272.86,2249.58,2164.06,2358.38,2029.85,2358.38z"/>
<circle class="st1" cx="1394.95" cy="1574.48" r="521.88"/>
<circle class="st2" cx="1390.19" cy="1561.64" r="450.16"/>
<line class="st3" x1="1394.27" y1="1161.03" x2="1394.27" y2="1244.8"/>
<line class="st3" x1="1398.4" y1="1874.69" x2="1398.4" y2="1958.53"/>
<line class="st3" x1="1696.93" y1="1291.81" x2="1633.71" y2="1346.76"/>
<line class="st3" x1="1785.51" y1="1583.5" x2="1701.78" y2="1581.09"/>
<line class="st3" x1="1594.98" y1="1808.46" x2="1658.2" y2="1863.41"/>
<line class="st3" x1="1083.66" y1="1291.69" x2="1146.89" y2="1346.64"/>
<line class="st3" x1="994.26" y1="1583.37" x2="1077.99" y2="1580.96"/>
<line class="st3" x1="1210.44" y1="1822.68" x2="1147.22" y2="1877.63"/>
<circle class="st4" cx="1390.33" cy="1561.5" r="450.16"/>
<path class="st1" d="M1413.33,1536.17c0,53.45-45.21,96.76-100.99,96.76s-100.99-43.31-100.99-96.76
	c0-53.45,45.21-96.76,100.99-96.76S1413.33,1482.74,1413.33,1536.17"/>
<path class="st5" d="M1547.83,1470.34l-2.83-2.59c-39.91-37.59-102.2-37.59-142.11,0l-81.36,77.81
	c-31.52,29.59-38.57,76.97-17.04,114.46c1.94,3.62,4.22,7.05,6.81,10.23c0.12,0.19,0.26,0.37,0.4,0.55l1,1.26
	c2.72,3.36,5.65,6.54,8.78,9.52l2.86,2.71c2.53,2.42,5.18,4.71,7.95,6.85l63.18,60.54l64.08-61.4c2.38-1.88,4.76-3.88,6.9-6
	l81.38-77.82c37.59-35.34,39.42-94.47,4.08-132.06C1550.59,1473.02,1549.23,1471.66,1547.83,1470.34"/>
<path class="st5" d="M1504.92,1062.03c-29.61-6.32-67.14-11.68-110.66-11.66c-40.2,0.02-75.16,4.62-103.28,10.23
	c0-34.35,0-68.7,0-103.04h213.94C1504.92,992.39,1504.92,1027.21,1504.92,1062.03z"/>
<path class="st6" d="M1504.92,1006.5c-71.35-0.64-142.7-1.29-214.04-1.93c-0.01-15.67-0.02-31.34-0.03-47h213.94
	C1504.83,973.87,1504.87,990.18,1504.92,1006.5z"/>
<path class="st1" d="M1514.23,957.56h-231.57c-11.16,0-20.2-9.04-20.2-20.2v-52.56c0-11.16,9.04-20.2,20.2-20.2h231.57
	c11.16,0,20.2,9.04,20.2,20.2v52.56C1534.43,948.52,1525.39,957.56,1514.23,957.56z"/>
<path class="st7" d="M1282.66,957.56c-11.16,0-20.2-9.04-20.2-20.2v-52.56c0-11.16,9.04-20.2,20.2-20.2
	C1282.66,895.59,1282.66,926.58,1282.66,957.56z"/>
<ellipse class="st7" cx="1324.51" cy="911.14" rx="18.75" ry="65.73"/>
<ellipse class="st7" cx="1376.84" cy="910.92" rx="18.75" ry="65.73"/>
<ellipse class="st7" cx="1429.52" cy="910.92" rx="18.75" ry="65.73"/>
<ellipse class="st7" cx="1478.62" cy="910.92" rx="18.75" ry="65.73"/>
<path class="st7" d="M1514.31,957.67c11.16,0,20.2-9.04,20.2-20.2v-52.56c0-11.16-9.04-20.2-20.2-20.2
	C1514.31,895.7,1514.31,926.69,1514.31,957.67z"/>
<path class="st5" d="M916.36,1143.98l78.42-78.42c29.58,29.62,59.16,59.25,88.75,88.87c-14.01,10.13-29.18,22.25-44.74,36.65
	c-14.06,13.01-26.22,25.82-36.65,37.84C973.55,1200.61,944.96,1172.3,916.36,1143.98z"/>
<path class="st6" d="M912.65,1139.64l78.42-78.42c12.42,12.51,24.83,25.01,37.25,37.52c-26.73,25.62-53.47,51.24-80.2,76.87
	C936.3,1163.63,924.48,1151.63,912.65,1139.64z"/>
<path class="st1" d="M907.34,1151.19l92.26-92.26c12.86-12.86,12.86-33.71,0-46.56l-17.21-17.21c-12.86-12.86-33.71-12.86-46.56,0
	l-92.26,92.26c-12.86,12.86-12.86,33.71,0,46.56l17.21,17.21C873.64,1164.04,894.48,1164.04,907.34,1151.19z"/>
<path class="st5" d="M1878.8,1149.02l-78.42-78.42c-29.58,29.62-59.16,59.25-88.75,88.87c14.01,10.13,29.18,22.25,44.74,36.65
	c14.06,13.01,26.22,25.82,36.65,37.84C1821.62,1205.65,1850.21,1177.33,1878.8,1149.02z"/>
<path class="st6" d="M1882.52,1144.68l-78.42-78.42c-12.42,12.51-24.83,25.01-37.25,37.52c26.73,25.62,53.47,51.24,80.2,76.87
	C1858.87,1168.66,1870.69,1156.67,1882.52,1144.68z"/>
<path class="st1" d="M1887.83,1156.22l-92.26-92.26c-12.86-12.86-12.86-33.71,0-46.56l17.21-17.21c12.86-12.86,33.71-12.86,46.56,0
	l92.26,92.26c12.86,12.86,12.86,33.71,0,46.56l-17.21,17.21C1921.53,1169.08,1900.69,1169.08,1887.83,1156.22z"/>
<line class="st8" x1="921.57" y1="890.54" x2="895.04" y2="740.82"/>
<line class="st8" x1="757.7" y1="1019.19" x2="610.72" y2="980.22"/>
<line class="st8" x1="1885.52" y1="921.46" x2="1912.06" y2="771.74"/>
<line class="st8" x1="2049.4" y1="1050.11" x2="2196.38" y2="1011.14"/>
<line class="st9" x1="2088.67" y1="864.15" x2="2156.9" y2="793.55"/>
<line class="st10" x1="2076.47" y1="876.79" x2="2144.69" y2="806.19"/>
<g>
	<line class="st9" x1="2035.93" y1="915.7" x2="2011.18" y2="940.62"/>
	<line class="st10" x1="2040.36" y1="911.23" x2="2023.77" y2="928.1"/>
</g>
<line class="st10" x1="742.58" y1="862.27" x2="807.32" y2="936.08"/>
<g>
	<line class="st9" x1="707.13" y1="818.67" x2="684.33" y2="791.96"/>
	<line class="st10" x1="711.22" y1="823.46" x2="695.78" y2="805.53"/>
</g>
<path class="st11" d="M1705.24,2096.37c26.8-4.97,71.58-17.31,115.13-51.17c29.06-22.59,46.59-46.23,54.49-57.8
	c29.78-43.66,38.91-86.37,42.17-109.92"/>
<path class="st12" d="M1824.64,2118.63c14.39-3.99,57.5-17.96,88.6-60.65c20.29-27.84,26.62-55.76,28.9-71.07"/>
</svg>
