<?xml version="1.0" encoding="utf-8"?>
<!-- Generator: Adobe Illustrator 24.1.3, SVG Export Plug-In . SVG Version: 6.00 Build 0)  -->
<svg version="1.1" id="Layer_1" xmlns="http://www.w3.org/2000/svg" xmlns:xlink="http://www.w3.org/1999/xlink" x="0px" y="0px"
	 viewBox="0 0 6800 5600" style="enable-background:new 0 0 6800 5600;" xml:space="preserve">
<style type="text/css">
	.st0{opacity:0.31;fill:#32C4EB;}
	.st1{fill:#F6E4D5;stroke:#F6E4D5;stroke-miterlimit:10;}
	.st2{fill:#ECC8C3;}
	.st3{fill:#FFBD53;}
	.st4{fill:#F6E4D5;}
	.st5{fill:none;stroke:#FFFFFF;stroke-width:3;stroke-miterlimit:10;}
	.st6{fill:#29ABE2;}
	.st7{fill:#0C3A4C;}
	.st8{fill:#FFFFFF;}
	.st9{fill:#666666;}
	.st10{fill:#2BA3D5;}
	.st11{fill:#F4DFCD;stroke:#F4DFCD;stroke-miterlimit:10;}
	.st12{fill:#E8BCB7;}
	.st13{fill:#FDB142;}
	.st14{fill:#F4DFCD;}
	.st15{fill:#C33959;stroke:#C33959;stroke-width:3;stroke-miterlimit:10;}
	.st16{fill:#C33959;}
	.st17{fill:#A63542;}
	.st18{fill:#2E4294;stroke:#FFFFFF;stroke-width:2;stroke-miterlimit:10;}
	.st19{fill:none;stroke:#FFFFFF;stroke-width:2;stroke-miterlimit:10;}
	.st20{fill:#2E4294;}
	.st21{fill:#242277;}
	.st22{fill:#FFFFFF;stroke:#F7931E;stroke-width:14;stroke-miterlimit:10;}
	.st23{fill:#FFFFFF;stroke:#FBB03B;stroke-width:16;stroke-miterlimit:10;}
	.st24{fill:#FFFFFF;stroke:#F15A24;stroke-width:15;stroke-miterlimit:10;}
	.st25{fill:#FFFFFF;stroke:#1B1464;stroke-width:15;stroke-miterlimit:10;}
	.st26{fill:#F15A24;stroke:#F15A24;stroke-width:15;stroke-miterlimit:10;}
	.st27{fill:none;stroke:#F15A24;stroke-width:15;stroke-miterlimit:10;}
	.st28{fill:#FFFFFF;stroke:#FCEE21;stroke-width:15;stroke-miterlimit:10;}
	.st29{fill:#F7931E;stroke:#F7931E;stroke-width:4;stroke-miterlimit:10;}
	.st30{fill:#FFFFFF;stroke:#1B1464;stroke-width:25;stroke-miterlimit:10;}
	.st31{fill:none;stroke:#1B1464;stroke-width:25;stroke-miterlimit:10;}
	.st32{fill:none;stroke:#666666;stroke-width:10;stroke-linecap:round;stroke-linejoin:round;stroke-miterlimit:10;}
	.st33{fill:#FBB03B;stroke:#F15A24;stroke-width:25;stroke-miterlimit:10;}
	.st34{fill:#FFFFFF;stroke:#1B1464;stroke-width:34;stroke-linecap:round;stroke-linejoin:round;stroke-miterlimit:10;}
	.st35{fill:#FBB03B;stroke:#FFFFFF;stroke-width:2;stroke-miterlimit:10;}
	.st36{fill:#999999;}
</style>
<path class="st0" d="M5906.89,5242.84H1263.97c-268.46,0-486.09-217.63-486.09-486.09V789.44c0-268.46,217.63-486.09,486.09-486.09
	h4642.92c268.46,0,486.09,217.63,486.09,486.09v3967.31C6392.98,5025.21,6175.35,5242.84,5906.89,5242.84z"/>
<g>
	<g>
		<path class="st1" d="M4901.42,1999.14c29.31-4.29,59.76-0.58,87.17,10.63c12.45,5.09,24.53,11.91,33.23,22.14
			c22.77,26.77,15.82,67.65,1.2,99.55c-22.51,49.13-60.41,91.13-107.06,118.67c-22.52,13.29-48.58,23.48-74.45,19.43
			c-25.87-4.05-50.13-26.52-48.3-52.53c42.67-43.96,71.8-94.64,95.7-150.96C4896.69,2047.75,4905.75,2018.57,4901.42,1999.14z"/>
		<path class="st2" d="M4888.3,2082.52c10.89-22.82,35.6-34.75,57.68-29.52c26.22,6.21,44.21,35.52,36.17,65.08
			c-4.42-6.38-18.83-25.41-45.76-34.01C4914.77,2077.15,4896.28,2080.55,4888.3,2082.52z"/>
	</g>
	<path class="st2" d="M4877,2111.1c17.74,14.14,21.78,39.46,9.68,57.93c-11.6,17.7-35.03,24.52-54.85,15.61
		C4846.89,2160.12,4861.95,2135.61,4877,2111.1z"/>
</g>
<path class="st3" d="M4328.62,1466.44c-13.48,5.45-30.89,11.04-51.64,14.28c-29.62,4.62-54.92,2.72-72.77-0.09
	c-52.19,75.71-104.37,151.43-156.56,227.14c-1.84-155.6,44.6-255.25,77.12-308.61c5.37-8.81,33.14-54.39,39.18-51.45
	c11.34,5.52-127.95,246.48-205.19,469.06c-58.34,168.11-109.58,407.14-84.17,724.76c359.31,60.62,718.63,121.24,1077.94,181.85
	c-27.09-41-177.82-277.39-98.37-554.41c32.82-114.42,93.47-195.89,137.69-244.76"/>
<path class="st4" d="M4164.89,1346.91c-23.08,74.98-42.45,134.05-54.11,169.12c-79.98,240.49-137.09,379.92-118.71,541.06
	c0.61,5.37,1.31,9.9,1.96,13.82c9.81,59.27,36.92,156.81,126.76,265.74c58.2,29.05,116.4,58.1,174.59,87.16
	c53.38,5.74,99.44,3.61,138.07-2.16c0,0,47.56-7.38,93.51-23.96c136.43-49.23,279.66-236.67,362.93-354.33
	c43.56-61.54,101.07-146.89,163.62-252.85c-10.11-204.14-129.96-387.75-313.16-479.71
	C4556.37,1218.45,4335.86,1232.3,4164.89,1346.91z"/>
<path class="st2" d="M4200.04,2373.62c179.36-354.65,358.72-709.29,538.09-1063.94c46.27,23.24,143.17,79.69,219.31,193.11
	c80.04,119.24,93.32,236.18,96.09,287.72c-71.62,139.33-145.98,246.6-203.97,321.92c-122.31,158.85-205.32,263.66-348.38,302.8
	c-81.94,22.42-155.7,15.66-204.88,6.45C4264.21,2405.65,4232.13,2389.64,4200.04,2373.62z"/>
<path class="st5" d="M4339.45,1937.12c-14.95,11.64-14.25,35.69-3.67,51.39c10.59,15.7,28.14,25.05,44.98,33.78
	c8.52,4.42,17.03,8.83,25.55,13.25c15.37,7.97,31.56,16.15,48.88,15.92c17.33-0.23,35.82-11.99,37.15-29.19"/>
<polygon class="st4" points="4120.8,2336.65 4062.5,2452.51 4017.66,2541.64 4051.22,2591.84 4111.65,2622.01 4197.86,2617.65 
	4295.39,2423.81 "/>
<path class="st2" d="M4119.76,2334.74c40.18,65.26,80.36,130.53,120.54,195.79c18.02-36.21,36.04-72.43,54.06-108.64
	L4119.76,2334.74z"/>
<g>
	<path class="st1" d="M4120.16,1592.46c-16.36-24.6-39.48-44.7-66.16-57.53c-12.12-5.83-25.29-10.24-38.74-9.86
		c-35.21,0.99-61.11,33.44-75.19,65.59c-21.67,49.5-27.75,105.65-17.17,158.63c5.11,25.58,14.9,51.7,35.2,68.19
		s53.29,19.46,71.51,0.74c4.35-61,22.76-116.44,48.89-171.77C4087,1628.44,4102.75,1602.23,4120.16,1592.46z"/>
	<path class="st2" d="M4066.62,1657.88c9.78-23.31,2.19-49.6-16.46-62.48c-22.15-15.3-56.06-9.06-72.78,16.63
		c7.72-0.98,31.56-3.01,55.97,11.21C4052.95,1634.67,4062.76,1650.65,4066.62,1657.88z"/>
</g>
<path class="st2" d="M4052.81,1685.34c-22.41-3.71-44.03,10.21-49.75,31.51c-5.48,20.42,5.07,42.35,24.97,51.1
	C4036.29,1740.41,4044.55,1712.87,4052.81,1685.34z"/>
<path class="st3" d="M4991.87,1924.21c-67.88-52.31-145.43-120.81-222.65-208.72c-57.19-65.1-103.33-128.47-140.34-185.86
	c-30.95,1.54-66.64,0.97-105.84-3.94c-82.17-10.29-148.18-35.68-194.4-58.33c-13.48,5.45-30.89,11.04-51.64,14.28
	c-29.62,4.62-54.92,2.72-72.77-0.09c-52.19,75.71-104.37,151.43-156.56,227.14c-3.72-71.94,2.07-194.71,77.12-308.61
	c12.83-19.47,26.47-36.85,40.34-52.34c41.85-28.55,142.91-89.26,286.44-97.47c137.49-7.86,241.21,36.63,286.57,59.42
	c41.18,16.74,160.2,71.34,241.69,204.28c71.83,117.18,74.95,230.73,73.71,276.54C5032.97,1835.08,5012.42,1879.64,4991.87,1924.21z"
	/>
<path class="st6" d="M3882.88,4057.34l-355.06,233.08c10.09,254.14,20.18,508.29,30.28,762.43c73.17,0,146.34,0,219.51,0
	C3812.69,4721.01,3847.79,4389.17,3882.88,4057.34z"/>
<path class="st6" d="M2950.38,4057.34l355.06,233.08c-10.09,254.14-20.18,508.29-30.28,762.43c-73.17,0-146.34,0-219.51,0
	C3020.56,4721.01,2985.47,4389.17,2950.38,4057.34z"/>
<path class="st7" d="M3278.3,4869.97c-46.96,2.9-109.72,11.66-179.93,35.98c-57.1,19.79-103.39,44.42-138.4,66.43
	c-11.05-3-98.7-25.27-168.85,30.45c-33.28,26.43-48.59,59.28-55.36,77.51c183.62,2.77,367.23,5.54,550.85,8.3
	C3283.84,5015.76,3281.07,4942.86,3278.3,4869.97z"/>
<path class="st7" d="M3552.24,4869.97c46.96,2.9,109.72,11.66,179.93,35.98c57.1,19.79,103.39,44.42,138.4,66.43
	c11.05-3,98.7-25.27,168.85,30.45c33.28,26.43,48.59,59.28,55.36,77.51c-183.62,2.77-367.23,5.54-550.85,8.3
	C3546.7,5015.76,3549.47,4942.86,3552.24,4869.97z"/>
<path class="st8" d="M4186.11,2005.26c-26.97,78.56,6.28,165.66,77.91,205.78c73.29,41.05,167.28,22.02,219.42-45.12
	C4384.33,2112.36,4285.22,2058.81,4186.11,2005.26z"/>
<path class="st9" d="M4228.54,4428.96H2571.5c-14.43,0-26.13-11.7-26.13-26.13V1976.51c0-14.43,11.7-26.13,26.13-26.13h1657.04
	c14.43,0,26.13,11.7,26.13,26.13v2426.31C4254.67,4417.26,4242.97,4428.96,4228.54,4428.96z"/>
<path class="st7" d="M2724.58,3569.77c-7.78-2.52-24.59-6.87-45.32-3.48c-14.11,2.3-24.64,7.31-30.97,10.93
	c-13.72,8.78-20.89,23.53-18.58,38.27c2.37,15.18,14.41,27.92,30.97,32.8c35.01,11.74,63.31,12.12,80.52,10.93
	c28.03-1.93,50.92-9.71,86.72-21.87c18.25-6.2,33.08-12.1,43.36-16.4C2822.38,3603.9,2773.48,3586.83,2724.58,3569.77z"/>
<path class="st7" d="M3107.35,3289.34c5.81,0.24,93.98,2.71,133.53-53.32c22.29-31.58,18.6-66.8,13.78-84.19
	c-19.99-72.11-138.98-124.37-295.6-130.09c-15.54,27.44-31.09,54.88-46.63,82.31c-33.21-27.44-66.41-54.88-99.62-82.31
	c-103.85-28.19-203.85-5.37-247.55,52.3c-3.05,4.02-39.39,53.45-19.89,99.49c27.11,64.02,145.78,82.84,197.44,91.04
	c10.3,1.63,18.81,2.65,24.31,3.25c1.47-21.24,2.95-42.49,4.42-63.73c-77.42,15.11-140.95-8.96-154.71-44.87
	c-7.07-18.44-0.99-39.9,11.05-54.62c24.64-30.14,80.77-39.99,135.12-17.38c-9.71,23.17-19.49,52.48-25.43,86.99
	c-6.73,39.08-6.55,73.31-4.24,100.09c0.19,0,0.37-0.01,0.56-0.01l8.36,136.11c87.64,1.51,175.27,3.02,262.91,4.53
	c6.36,0.36,12.71,0.72,19.07,1.09c3.85-49.44,7.7-98.87,11.55-148.31c4.04-18.31,7.23-41.85,5.93-69.17
	c-1.66-35.02-10.08-63.81-18.02-84.19c65.18-9.26,121.65,5.47,141.94,38.42c2.09,3.4,18.68,31.14,2.12,54.25
	c-11.47,16.01-34.98,24.37-60.27,21.79C3107.44,3248.99,3107.4,3269.17,3107.35,3289.34z M3033.99,3270.74
	c0.03-0.02,0.07-0.04,0.1-0.05c-0.05,0.11-0.09,0.22-0.14,0.34C3033.96,3270.93,3033.97,3270.84,3033.99,3270.74z"/>
<path class="st10" d="M3342.04,3353.06c-12.86-25.86-46.04-32.19-49.55-32.8c-35.13-3.62-93.2-5.66-161.05,10.93
	c-62.36,15.25-108.94,40.36-139.02,60.14c-80.04,0-160.08,0-240.12,0c-22.31-13.14-48.67-26.47-79.22-38.27
	c-84.35-32.57-161.38-38.34-210.6-38.27c-42.15,17.92-53.31,36.04-55.75,49.21c-13.58,73.35,209.39,169.46,291.13,196.83
	c59.88,20.05,119.75,40.09,179.63,60.14c-0.64-5.61-1.09-11.43-1.3-17.45c0-0.04,0-0.08,0-0.11c-0.06-1.94-0.1-3.9-0.11-5.88
	c0-0.25,0-0.51,0-0.76c0-1.78,0.01-3.57,0.05-5.38c0.01-0.52,0.04-1.06,0.06-1.59c0.05-1.57,0.1-3.15,0.18-4.74
	c0.05-0.89,0.12-1.81,0.18-2.72c0.08-1.27,0.16-2.53,0.26-3.82c0.19-2.22,0.41-4.47,0.67-6.75c0.29-2.49,0.63-4.92,0.99-7.32
	c-0.37,2.42-0.71,4.85-0.99,7.32c8.34-8.37,19.89-10.37,24.78-10.93c13.24,4.04,32.32,8.79,55.75,10.93
	c19.41,1.78,46.54,3.18,86.72-5.47c41.35-8.9,99.5-25.9,161.05-60.14c45.98-25.59,80.6-53.42,105.3-76.54
	C3342.64,3411.36,3354.54,3378.19,3342.04,3353.06z M2878.86,3562.05c0.27-1.64,0.55-3.26,0.84-4.85
	C2879.4,3558.81,2879.12,3560.43,2878.86,3562.05z M2887.31,3527.97c-0.51,1.52-1.01,3.05-1.49,4.59
	C2886.32,3530.98,2886.81,3529.46,2887.31,3527.97z M2885.22,3534.54c-0.6,1.99-1.18,3.99-1.73,6.02
	C2884.05,3538.49,2884.63,3536.49,2885.22,3534.54z M2883.35,3541.05c-0.59,2.21-1.14,4.44-1.67,6.69
	C2882.22,3545.45,2882.77,3543.21,2883.35,3541.05z M2881.21,3549.84c-0.36,1.6-0.7,3.2-1.02,4.82
	C2880.52,3553.03,2880.86,3551.42,2881.21,3549.84z"/>
<path class="st7" d="M2871.28,3620.96c-9.17-17.86-6.66-37.37,6.19-49.21c8.59-7.92,19.42-10.19,24.78-10.93
	c19.33,5.22,46.97,10.7,80.52,10.93c35.77,0.26,65.09-5.53,85.09-10.93c35.24,2.89,59.76,28.98,57.37,54.67
	c-1.82,19.6-19.14,37.3-43.36,43.74c-37.37-1.55-81.53-6.04-130.08-16.4C2922.02,3636.47,2895.12,3628.87,2871.28,3620.96z"/>
<path class="st8" d="M2815.99,3011.46l33.91-12.16v37.42l22.25,11.22h28.61l31.79-15.9l-1.11-32.74l24.43,12.16
	c8.39,23.24,16.78,46.48,25.16,69.71c-62.17,0-124.34,0-186.51,0C2801.68,3057.94,2808.83,3034.7,2815.99,3011.46z"/>
<polygon class="st7" points="3147.27,3230.77 3107.49,3230.77 3107.49,3280.62 3153.9,3280.84 "/>
<g>
	<g>
		<path class="st11" d="M2741.64,2763.31c-8.77-4.44-18.9-6.76-29.01-6.63c-4.59,0.06-9.28,0.65-13.33,2.56
			c-10.59,5.02-13.51,17.3-12.87,27.89c0.99,16.32,7.75,32.32,19.11,45.23c5.48,6.23,12.48,11.97,21.2,13.69
			c8.72,1.72,19.24-1.93,21.92-9.46c-8.03-17.09-10.93-34.57-11.45-53.06C2737.05,2777.52,2737.83,2768.3,2741.64,2763.31z"/>
		<path class="st12" d="M2735.35,2788.23c-0.6-7.63-6.94-13.71-14.61-14.68c-9.1-1.15-18.49,5.12-19.65,14.33
			c2.21-1.31,9.17-5.08,18.79-4.52C2727.62,2783.8,2733.06,2786.8,2735.35,2788.23z"/>
	</g>
	<path class="st12" d="M2735.35,2797.52c-7.4,2.02-11.86,8.71-10.34,15.24c1.46,6.26,8.05,10.77,15.46,10.45
		C2738.76,2814.65,2737.06,2806.09,2735.35,2797.52z"/>
</g>
<path class="st12" d="M2725.21,2786.47c-7.4,2.02-11.86,8.71-10.34,15.24c1.46,6.26,8.05,10.77,15.46,10.45
	C2728.62,2803.6,2726.91,2795.04,2725.21,2786.47z"/>
<path class="st13" d="M2993.36,2693.35c3.28,3.29,7.73,7.16,13.56,10.83c8.32,5.25,16.33,8.15,22.21,9.8
	c4.3,27.53,8.6,55.05,12.9,82.58c24.44-41.84,25.57-75.06,23.84-93.89c-0.29-3.11-1.76-19.19-4.05-19.21
	c-5.05-0.04-14.52,77.82-9.4,154.58c3.55,53.14,13.5,96.84,22.21,127.43c-124.44,0.75-248.88,1.51-373.31,2.26
	c11.05-43.89,20.47-96.17,23.92-155.33c2.78-47.68,1.16-91.02-2.56-128.94"/>
<path class="st14" d="M3061.59,2683.07c-1.83,13.68-4.87,35.03-9.4,61.08c-21.65,124.68-41.34,150.23-49.55,159.85
	c-12.09,14.17-35.33,36.08-79.45,52.78c-22.21,0-44.42,0-66.63,0c-34.33-10.9-54.89-26.2-66.63-36.95
	c-50.86-46.55-54.72-116.22-58.94-192.28c-0.97-17.55-0.99-31.99-0.85-41.47c45.46,4.95,96.75,8.29,152.91,8.29
	C2949.66,2694.38,3009.67,2689.68,3061.59,2683.07z"/>
<path class="st12" d="M2729.97,2686.46c22.37,2.43,90.39,3.34,159.92,2.85c12.03-0.09,12.49,31.69,8.73,69.67
	c-0.53,66.69-1.52,133.77-2.04,200.45c-14.27,1.72-28.61,0.3-42.38-3.36c-1.62-0.17-3.76-0.87-6.8-1.98l0-0.01
	c-21.9-7.06-42.02-19.58-57.62-33.86c-50.86-46.55-54.72-116.22-58.94-192.28C2729.85,2710.39,2729.83,2695.95,2729.97,2686.46z"/>
<path class="st13" d="M2721.23,2683.92c1.86,0.69,4.55,1.65,7.85,2.67c12.64,3.9,26.56,6.31,52.56,6.73
	c14.68,0.24,33.54-0.15,55.59-2.38c-15.01,8.94-36.29,19.62-63.56,27.64c-23.07,6.79-43.82,9.73-60.11,10.97
	C2716.12,2714.35,2718.67,2699.13,2721.23,2683.92z"/>
<path class="st8" d="M2872.56,2918.79c9.94,4.36,21.96,4.86,32.32,1.33c-1.48,2.97-3.78,4.86-7.01,6.42
	c-4.91,2.37-11.02,2.42-16.27,0.72C2876.96,2925.77,2873.29,2923.1,2872.56,2918.79z"/>
<path class="st5" d="M2917.82,2819.2c2.77,5.17-1.13,11.58-6.77,14.39s-12.43,2.98-18.9,3.06c-3.28,0.04-6.55,0.09-9.83,0.13
	c-5.91,0.08-12.1,0.11-17.35-2.29c-5.25-2.4-9.09-8.08-6.85-12.91"/>
<ellipse class="st15" cx="2892.02" cy="2683.26" rx="169.57" ry="13.01"/>
<path class="st16" d="M2961.64,2854.99c-0.21,6.21-1.67,20.29-12.81,33.18c-20.04,23.19-53.89,22.3-61.51,21.87
	c-7.26-0.41-33.44-1.89-50.4-21.11c-10.92-12.37-12.52-25.85-12.81-31.67c21.75-2.01,45.47-3.41,70.9-3.77
	C2918.78,2853.15,2941.06,2853.77,2961.64,2854.99z"/>
<path class="st8" d="M2950.54,2853.48c-11.08,4.63-31.45,11.59-58.09,12.06c-26.35,0.47-46.82-5.62-58.09-9.8
	c18.82-1.55,39.01-2.63,60.43-3C2914.43,2852.42,2933.06,2852.73,2950.54,2853.48z"/>
<path class="st17" d="M2923.2,2904.76c-6.93,2.48-19.76,6.12-36.1,5.3c-13.59-0.68-24.15-4.18-30.53-6.81
	c0.86-0.98,14.65-16.23,36.73-14.33C2911.83,2890.52,2921.81,2902.96,2923.2,2904.76z"/>
<path class="st13" d="M2752.6,2722.87c-0.19,5.55-0.92,12.27-2.81,19.77c-2.06,8.15-4.95,15-7.69,20.36
	c-2.06,14.17-4.12,28.34-6.19,42.51c-5.11-10.34-10.77-24.77-13.46-42.51c-2.09-13.77-1.84-25.86-0.85-35.44
	C2731.93,2726,2742.26,2724.44,2752.6,2722.87z"/>
<g>
	<path class="st18" d="M2969.24,2586.31c7.32,1.21,15.12-1.13,20.59-5.33c5.47-4.2,8.78-10.06,10.32-16.1
		c1.05-4.12,1.28-8.61-1.07-12.35c-3.08-4.91-10.04-7.47-16.72-7.8c-10.96-0.55-22.08,4.26-27.77,12.02
		c2.63-3.91,5.3-7.92,6.27-12.32c2.49-11.26-10.19-20.43-23.23-20.32c-8.55,0.07-14.36,3.92-20.14,8.53
		c-8.38-6.11-13.64-12.82-26.4-12.64c-11.04,0.16-21.72,5.69-26.69,13.83c-2.35-7.39-12.06-12.62-21.19-11.42
		c-2.51,0.33-4.93,1.08-7.15,2.11c-13.57,6.28-13.91,19.06-9.24,29.54c-3.61-1.51-6.4-5.05-10.16-6.87
		c-4.31-2.09-9.21-3.37-14.2-3.63c-7.62-0.39-16.18,2.13-19.22,7.91c-1.21,2.3-1.42,4.87-1.62,7.37
		c-0.52,6.73-1.58,15.86,8.75,18.12c-4.72-4.01-12.6-5.03-18.8-2.79c-6.21,2.24-10.55,7.44-11.43,12.99
		c-0.94,5.93,3.88,13.19,11.09,12.64c-8.57-0.91-17.39,4.6-18.67,11.65c-1.28,7.06,5.2,14.45,13.72,15.66
		c-5.27-2.12-11.97,0.57-14.88,4.77c-2.91,4.2-2.84,9.37-1.91,14.15c0.68,3.51,1.99,7.24,5.44,9.37c3.37,2.08,8.11,2.1,12.07,0.92
		c3.87-1.15,7.03-3.38,10.38-5.19c-0.9,3.84-3.6,7.5-4.51,11.53c-1.94,8.53,4.38,14.57,14.87,14.54c5.67-0.01,11.49-1.08,16.05-3.86
		s7.63-7.47,6.9-12.12c2.09,7.72,12.98,12.94,22.14,10.62c9.16-2.33,14.61-11.69,11.09-19.06c0.14,6.83,7.63,12.98,15.9,13.05
		c8.63,0.08,15.07-5.82,16.32-12.47c1.38,2.74,0.59,6.45,0.93,9.4c0.11,0.95,0.25,1.91,0.69,2.79c2.89,5.84,11.74,5.82,17.71,4
		c6.33-1.93,11.77-6.11,13.95-11.45c-1.44,2.75,0.64,6.97,3.26,9.04c2.62,2.07,6.25,3.04,9.84,3.46c4.3,0.51,8.86,0.31,12.74-1.32
		c2.57-1.08,7.5-4.52,6.37-7.08c-2.6,1.86,0.46,8.23,1.95,10.36c2.5,3.58,6.46,6.37,10.87,8.32c6.44,2.84,14.34,3.95,21.1,1.69
		c10.49-3.51,12.51-13.85,8.29-21.63c-1.53-2.83-3.28-5.58-5.21-8.24c-1.5-2.05-3.58-5.95-6.34-6.92c2.36,0.82,3.7,3.82,4.94,5.53
		c1.81,2.5,3.55,5.03,5,7.68c0.92,1.69,1.73,3.43,2.34,5.21c0.5,1.49,0.53,3.16,1.53,4.44c3.75,4.81,12.95,7.8,19.4,5.47
		c8.22-2.98,9.87-11.97,9.25-19.36c-0.27-3.23-1.75-7.3-5.66-7.54c6.09,0.09,12.49,0.82,18.03-1.27c7.87-2.97,11.33-11.6,8.1-18.23
		c-3.23-6.63-12.06-10.8-20.71-10.68c6.69,0.59,11.81-6.43,9.2-11.55c-2.6-5.12-10.51-7.4-17.01-5.99
		c6.96-3.14,10.44-10.7,7.78-16.87c-2.66-6.17-11.15-10.21-18.95-9.01"/>
	<path class="st19" d="M2893.55,2641.53c-1.43,4.19-5.26,7.77-10.12,9.45c-4.86,1.69-10.63,1.44-15.26-0.64
		c-4.19-1.89-7.32-5.15-9.25-8.76s-2.77-7.56-3.17-11.49"/>
	<path class="st19" d="M2844.41,2650.25c-1.83,2.57-5.46,4.03-9.06,4.19c-3.6,0.16-7.16-0.83-10.33-2.25"/>
</g>
<g>
	<g>
		<path class="st11" d="M3037.61,2755.58c8.77-4.44,18.9-6.76,29.01-6.63c4.59,0.06,9.28,0.65,13.33,2.56
			c10.59,5.02,13.51,17.3,12.87,27.89c-0.99,16.32-7.75,32.32-19.11,45.23c-5.48,6.23-12.48,11.97-21.2,13.69
			c-8.72,1.72-19.24-1.93-21.92-9.46c8.03-17.09,10.93-34.57,11.45-53.06C3042.2,2769.79,3041.42,2760.58,3037.61,2755.58z"/>
		<path class="st12" d="M3043.9,2780.51c0.6-7.63,6.94-13.71,14.61-14.68c9.1-1.15,18.49,5.12,19.65,14.33
			c-2.21-1.31-9.17-5.08-18.79-4.52C3051.63,2776.07,3046.18,2779.07,3043.9,2780.51z"/>
	</g>
	<path class="st12" d="M3043.9,2789.8c7.4,2.02,11.86,8.71,10.34,15.24c-1.46,6.26-8.05,10.77-15.46,10.45
		C3040.48,2806.92,3042.19,2798.36,3043.9,2789.8z"/>
</g>
<polygon class="st14" points="2930.2,2963.27 2930.2,3006.69 2930.2,3040.1 2910.33,3050.12 2884.78,3050.12 2856.4,3035.92 
	2856.4,2963.27 "/>
<path class="st12" d="M2930.14,2962.85c-24.67,13.54-49.33,27.09-74,40.63c0.07-13.54,0.14-27.09,0.2-40.63H2930.14z"/>
<g>
	<path class="st20" d="M2761.32,3257.84c2.41,3.76,6.05,8.52,11.41,13.28c4.09,3.62,8.13,6.32,11.57,8.29
		c-1.56,9.27-1.74,17.06-1.55,22.74c0.46,14.35,3.32,17.86,5.38,19.68c0.89,0.78,5.52,4.68,12.32,4.38
		c7.07-0.31,11.28-4.93,11.79-5.51c4.49-5.08,3.39-11.48,2.03-19.35c-0.74-4.3-2.38-10.71-6.45-18.04
		c4.82-1.68,9.64-3.36,14.46-5.03c1.01,3.52,8.63,28.72,29.01,33.53c2.78,0.66,11.82,2.79,17.55-1.55
		c5.07-3.84,4.79-10.63,4.7-12.76c-0.81-19.21-35.81-32.56-39.46-33.91c2.19-3.94,4.38-7.88,6.57-11.82
		c0.86,0.36,2.13,0.89,3.68,1.51c13.16,5.24,22,8.76,30.78,9.24c11.71,0.64,27.52-3.91,29.88-12.47c1.36-4.92-2.22-9.42-2.72-10.03
		c-3.58-4.37-9.84-6.37-28.32-7.21c-9.23-0.42-21.44-0.55-35.9,0.51c-3.77-5.2-7.54-10.39-11.3-15.59
		c20.55-10.76,30.39-25.2,26.36-34.27c-2.46-5.55-10.67-10.36-16.43-8.9c-6.69,1.69-5.82,10.78-14.89,20.38
		c-5.58,5.91-12.25,9.2-17.07,11.06c-2.16-0.54-8.8-1.93-16.38,0.66c-6.79,2.31-10.51,6.51-11.85,8.19
		c-0.09-0.93-0.48-3.69-2.99-5.79c-3.04-2.55-7.93-3.1-12.32-1.32c-3.34,4.42-7.14,10.42-10.03,17.94
		c-4.65,12.06-4.95,22.71-4.49,29.57c0.98,0.77,3.33,2.43,6.93,3.06C2754.87,3258.54,2757.85,3258.91,2761.32,3257.84z"/>
	
		<ellipse transform="matrix(0.6916 -0.7223 0.7223 0.6916 -1487.9569 3020.5659)" class="st20" cx="2793.32" cy="3252.79" rx="3.44" ry="9.27"/>
	
		<ellipse transform="matrix(0.9948 -0.102 0.102 0.9948 -315.457 301.8226)" class="st20" cx="2794.74" cy="3236.76" rx="7.3" ry="3.23"/>
</g>
<g>
	<path class="st20" d="M3110.49,3282.28c-2.53,3.94-6.34,8.95-11.98,13.94c-4.29,3.8-8.54,6.63-12.15,8.7
		c1.63,9.73,1.82,17.9,1.63,23.87c-0.48,15.06-3.48,18.75-5.65,20.66c-0.93,0.82-5.79,4.92-12.93,4.6
		c-7.42-0.33-11.84-5.17-12.37-5.78c-4.71-5.34-3.56-12.05-2.13-20.31c0.78-4.52,2.5-11.24,6.77-18.93
		c-5.06-1.76-10.12-3.52-15.17-5.28c-1.06,3.7-9.06,30.14-30.44,35.19c-2.91,0.69-12.4,2.93-18.42-1.63
		c-5.32-4.03-5.03-11.15-4.93-13.39c0.85-20.16,37.58-34.17,41.42-35.59c-2.3-4.13-4.59-8.27-6.89-12.4
		c-0.9,0.38-2.24,0.94-3.86,1.58c-13.81,5.5-23.09,9.19-32.3,9.69c-12.29,0.67-28.88-4.11-31.35-13.09
		c-1.42-5.17,2.33-9.89,2.85-10.53c3.75-4.58,10.33-6.69,29.72-7.57c9.69-0.44,22.51-0.57,37.68,0.53
		c3.95-5.45,7.91-10.91,11.86-16.36c-21.57-11.29-31.89-26.44-27.67-35.97c2.58-5.82,11.2-10.87,17.24-9.34
		c7.02,1.78,6.11,11.31,15.63,21.39c5.85,6.2,12.86,9.65,17.92,11.61c2.27-0.57,9.23-2.02,17.19,0.69
		c7.12,2.43,11.03,6.83,12.43,8.59c0.09-0.97,0.51-3.87,3.13-6.08c3.19-2.68,8.33-3.25,12.93-1.39c3.51,4.64,7.49,10.93,10.53,18.82
		c4.88,12.66,5.19,23.84,4.71,31.03c-1.03,0.81-3.5,2.55-7.28,3.21C3117.25,3283.01,3114.13,3283.4,3110.49,3282.28z"/>
	
		<ellipse transform="matrix(0.7223 -0.6916 0.6916 0.7223 -1411.8503 3038.2283)" class="st20" cx="3076.9" cy="3276.97" rx="9.73" ry="3.61"/>
	
		<ellipse transform="matrix(0.102 -0.9948 0.9948 0.102 -481.3202 5987.124)" class="st20" cx="3075.41" cy="3260.15" rx="3.39" ry="7.66"/>
</g>
<g>
	<path class="st4" d="M4041.6,2973.03l232.37-23.89c17.42-1.79,29.86-16.82,27.8-33.57l-5.31-43.05
		c-2.07-16.75-17.86-28.88-35.28-27.09l-232.37,23.89c-6.82,1.65-14.74,4.83-21.21,11.18c-22.08,21.66-16.2,69.31,10.6,85.94
		C4026.05,2971.31,4034.55,2972.81,4041.6,2973.03z"/>
	<path class="st4" d="M4017.78,2868.36l244.72-25.71c18.34-1.93,31.5-17.06,29.39-33.81l-5.42-43.04
		c-2.11-16.75-18.69-28.76-37.04-26.83l-244.72,25.71c-7.19,1.71-15.54,4.95-22.37,11.35c-23.32,21.84-17.32,69.48,10.83,85.92
		C4001.41,2866.76,4010.35,2868.19,4017.78,2868.36z"/>
	<path class="st4" d="M4049.15,3079.59l232.47-23.06c17.43-1.73,29.94-16.71,27.94-33.47l-5.13-43.07
		c-1.99-16.76-17.74-28.94-35.16-27.21l-232.47,23.06c-6.83,1.63-14.76,4.78-21.25,11.1c-22.17,21.58-16.5,69.25,10.23,85.98
		C4033.61,3077.82,4042.09,3079.34,4049.15,3079.59z"/>
	<path class="st4" d="M4085.62,3156.25l203.66-16.92c15.27-1.27,26.62-12.53,25.36-25.15l-3.23-32.43
		c-1.26-12.62-14.65-21.82-29.92-20.55l-203.66,16.92c-6.01,1.21-13.03,3.57-18.88,8.32c-19.98,16.2-16.4,52.1,6.45,64.75
		C4072.11,3154.88,4079.47,3156.05,4085.62,3156.25z"/>
</g>
<path class="st21" d="M2193.11,2647.86"/>
<circle class="st22" cx="4248.67" cy="4020.77" r="85.36"/>
<polygon class="st23" points="3948.69,3507.09 4138.01,3544.4 4087.44,3800.97 3974.89,3873.09 3896.65,3771.13 "/>
<polygon class="st22" points="4123.05,3818.66 4114.53,3664.74 4342.68,3652.1 4351.2,3806.02 4242.21,3904.2 "/>
<line class="st23" x1="3974.89" y1="3873.09" x2="3962.35" y2="3936.76"/>
<g>
	<ellipse class="st24" cx="3343.48" cy="3670.11" rx="288.56" ry="299.12"/>
	<ellipse class="st25" cx="3343.48" cy="3670.11" rx="243.32" ry="252.23"/>
	<ellipse class="st24" cx="3343.48" cy="3670.11" rx="206.17" ry="213.71"/>
	<ellipse class="st25" cx="3343.48" cy="3670.11" rx="125.44" ry="130.03"/>
	<ellipse class="st26" cx="3343.48" cy="3670.11" rx="52.53" ry="54.45"/>
	<line class="st27" x1="3343.48" y1="3281.55" x2="3343.48" y2="4064.57"/>
	<line class="st27" x1="2939.44" y1="3670.11" x2="3718.73" y2="3670.11"/>
	<g>
		<polyline class="st27" points="3004.66,3252.27 2913.36,3252.27 2913.36,3352.9 		"/>
	</g>
	<g>
		<polyline class="st27" points="3618.93,3252.27 3739.93,3252.27 3739.93,3352.9 		"/>
	</g>
	<g>
		<polyline class="st27" points="3061.48,3922.34 2934.6,3922.34 2934.6,3816.83 		"/>
	</g>
	<g>
		<polyline class="st27" points="3618.93,3922.25 3754.66,3922.25 3754.66,3816.93 		"/>
	</g>
</g>
<line class="st22" x1="4228.6" y1="3658.42" x2="4245.21" y2="3958.34"/>
<g>
	<polygon class="st28" points="3858.38,3616.13 3713.68,3618.93 3717.88,3836.11 3791.04,3876.74 3862.58,3833.31 	"/>
	<line class="st28" x1="3791.04" y1="3876.74" x2="3791.79" y2="3915.67"/>
	
		<ellipse transform="matrix(0.9998 -0.0193 0.0193 0.9998 -75.737 74.0409)" class="st28" cx="3792.56" cy="3955.19" rx="66.34" ry="58.99"/>
</g>
<circle class="st29" cx="4247.83" cy="4005.6" r="51.73"/>
<polygon class="st23" points="4006.92,4025.79 3958.49,4011.39 3919.16,4043.12 3917.9,3992.6 3875.57,3965.01 3923.22,3948.2 
	3936.38,3899.41 3967.1,3939.53 4017.56,3936.98 3988.89,3978.59 "/>
<g>
	
		<ellipse transform="matrix(0.9885 -0.1515 0.1515 0.9885 -395.847 567.6135)" class="st30" cx="3525.99" cy="2880.82" rx="214.21" ry="206.14"/>
	
		<ellipse transform="matrix(0.9885 -0.1515 0.1515 0.9885 -395.847 567.6135)" class="st31" cx="3525.99" cy="2880.82" rx="151.22" ry="145.52"/>
	<path class="st32" d="M3445.89,2907.35c3.08,3.27,38.15,39.26,90.52,31.49c52.99-7.86,76.05-53.46,77.92-57.32"/>
	<line class="st33" x1="3557.76" y1="3162.56" x2="3568.59" y2="3242.49"/>
	<line class="st33" x1="3448.14" y1="3157.06" x2="3427.04" y2="3234.2"/>
	<line class="st33" x1="3348.21" y1="3110.44" x2="3298.26" y2="3177.37"/>
	<line class="st33" x1="3277.27" y1="3022.49" x2="3204.26" y2="3061.89"/>
	<line class="st33" x1="3470.84" y1="2521.08" x2="3482.21" y2="2605.01"/>
	<line class="st33" x1="3378.68" y1="2644.48" x2="3336.74" y2="2567.74"/>
	<line class="st33" x1="3294.74" y1="2715.88" x2="3228.8" y2="2664.78"/>
	<line class="st33" x1="3248.98" y1="2813.66" x2="3167.3" y2="2789.12"/>
	<line class="st33" x1="3242.59" y1="2916.73" x2="3155.66" y2="2928.51"/>
	<line class="st33" x1="3585.43" y1="2619.28" x2="3607.87" y2="2542.52"/>
	<line class="st33" x1="3684.53" y1="2667.63" x2="3735.64" y2="2601.59"/>
	<line class="st33" x1="3753.92" y1="2756.8" x2="3827.61" y2="2718.68"/>
	<line class="st33" x1="3645.93" y1="3132.99" x2="3686.52" y2="3210.45"/>
	<line class="st33" x1="3731.1" y1="3063.06" x2="3796.14" y2="3115.3"/>
	<line class="st33" x1="3778.57" y1="2966.1" x2="3859.8" y2="2992.06"/>
	<line class="st33" x1="3786.75" y1="2863.16" x2="3873.87" y2="2852.9"/>
</g>
<g>
	<line class="st33" x1="3944.7" y1="3347.04" x2="3966.24" y2="3428.96"/>
	<line class="st33" x1="3868.31" y1="3480.77" x2="3817.31" y2="3409.73"/>
	<line class="st33" x1="4070.43" y1="3430.51" x2="4083.32" y2="3351.59"/>
	<line class="st33" x1="4174.69" y1="3466.39" x2="4217.35" y2="3394.61"/>
</g>
<path class="st34" d="M3742.57,889.37c4.11,38.59,10.25,76.93,27.69,115.83c24.63,54.95,126.68,308.77,179.89,327.15
	c-101.27-34.99-265.4-95.98-373.79-76.01c-101.24,18.65-176.26,91.23-291.74,91.23c-253.07,0-458.23-205.16-458.23-458.23
	s205.16-458.23,458.23-458.23c192,0,368.08,124.27,432.13,305.37C3735.34,789.07,3737.26,839.43,3742.57,889.37z"/>
<circle class="st9" cx="3073.43" cy="848.62" r="80.34"/>
<circle class="st9" cx="3317.45" cy="848.62" r="80.34"/>
<circle class="st9" cx="3548.95" cy="848.62" r="80.34"/>
<path class="st34" d="M5349.13,1128.58c-3.97,38.59-9.9,76.93-26.76,115.83c-23.81,54.95-122.43,308.77-173.85,327.15
	c97.87-34.99,256.5-95.98,361.25-76.01c97.85,18.65,170.34,91.23,281.96,91.23c244.58,0,442.86-205.16,442.86-458.23
	s-198.27-458.23-442.86-458.23c-185.56,0-355.73,124.27-417.63,305.37C5356.12,1028.28,5354.27,1078.64,5349.13,1128.58z"/>
<g>
	<path class="st35" d="M6005.46,1069.45c19.89,3.29,41.07-3.07,55.93-14.48c14.86-11.41,23.84-27.33,28.03-43.72
		c2.86-11.19,3.47-23.39-2.9-33.54c-8.37-13.34-27.26-20.28-45.42-21.19c-29.78-1.5-59.98,11.58-75.42,32.66
		c7.14-10.63,14.39-21.51,17.04-33.47c6.76-30.59-27.67-55.48-63.11-55.18c-23.22,0.2-39,10.66-54.71,23.17
		c-22.76-16.59-37.05-34.84-71.72-34.34c-29.98,0.43-59,15.47-72.5,37.58c-6.38-20.06-32.76-34.27-57.56-31.02
		c-6.83,0.9-13.4,2.93-19.43,5.72c-36.87,17.06-37.77,51.77-25.09,80.24c-9.79-4.11-17.37-13.71-27.61-18.66
		c-11.72-5.67-25.01-9.17-38.58-9.86c-20.68-1.06-43.95,5.79-52.2,21.49c-3.29,6.26-3.86,13.22-4.39,20.03
		c-1.42,18.29-4.29,43.07,23.76,49.22c-12.83-10.89-34.22-13.67-51.08-7.57c-16.86,6.1-28.66,20.21-31.04,35.28
		c-2.55,16.11,10.54,35.84,30.13,34.32c-23.27-2.47-47.23,12.49-50.7,31.65c-3.47,19.16,14.13,39.26,37.25,42.53
		c-14.31-5.76-32.52,1.54-40.43,12.95c-7.91,11.41-7.71,25.45-5.2,38.43c1.85,9.53,5.41,19.67,14.77,25.45
		c9.16,5.66,22.03,5.71,32.8,2.51c10.5-3.13,19.1-9.18,28.2-14.09c-2.44,10.44-9.77,20.38-12.26,31.32
		c-5.26,23.17,11.89,39.57,40.38,39.5c15.4-0.04,31.22-2.94,43.61-10.49s20.72-20.3,18.75-32.91c5.69,20.98,35.25,35.16,60.13,28.84
		c24.88-6.32,39.7-31.77,30.13-51.76c0.38,18.55,20.74,35.26,43.2,35.46c23.44,0.21,40.93-15.82,44.33-33.88
		c3.76,7.43,1.6,17.53,2.52,25.52c0.3,2.57,0.68,5.18,1.86,7.57c7.85,15.87,31.9,15.8,48.1,10.85c17.2-5.25,31.98-16.6,37.89-31.1
		c-3.91,7.46,1.74,18.93,8.86,24.55c7.12,5.62,16.99,8.25,26.73,9.41c11.69,1.39,24.08,0.83,34.6-3.6
		c6.98-2.94,20.38-12.27,17.29-19.23c-7.06,5.05,1.26,22.36,5.3,28.15c6.79,9.72,17.54,17.3,29.53,22.59
		c17.49,7.72,38.94,10.72,57.32,4.58c28.48-9.52,33.97-37.63,22.52-58.76c-4.17-7.68-8.9-15.16-14.16-22.37
		c-4.07-5.58-9.71-16.17-17.22-18.79c6.41,2.24,10.06,10.37,13.43,15.03c4.91,6.78,9.65,13.66,13.59,20.87
		c2.51,4.59,4.7,9.3,6.35,14.15c1.37,4.04,1.45,8.57,4.17,12.05c10.19,13.07,35.17,21.2,52.69,14.84
		c22.32-8.1,26.81-32.51,25.13-52.59c-0.73-8.78-4.75-19.84-15.37-20.49c16.53,0.25,33.94,2.23,48.97-3.44
		c21.37-8.07,30.78-31.51,22-49.51c-8.78-18-32.75-29.33-56.24-29c18.17,1.59,32.07-17.47,25-31.38
		c-7.07-13.91-28.55-20.1-46.22-16.26c18.9-8.54,28.37-29.08,21.14-45.84c-7.23-16.76-30.29-27.72-51.47-24.48"/>
	<path class="st35" d="M5799.85,1219.43c-3.89,11.37-14.3,21.1-27.49,25.68c-13.19,4.58-28.89,3.92-41.45-1.74
		c-11.39-5.14-19.88-14-25.14-23.8c-5.26-9.8-7.51-20.52-8.61-31.2"/>
	<path class="st35" d="M5666.39,1243.11c-4.96,6.98-14.84,10.94-24.62,11.38c-9.78,0.44-19.45-2.25-28.06-6.11"/>
</g>
<path class="st36" d="M4136.68,2270.46H2685.69c-44.56,0-80.68-36.12-80.68-80.68v-103.85c0-44.56,36.12-80.68,80.68-80.68h1450.99
	c44.56,0,80.68,36.12,80.68,80.68v103.85C4217.35,2234.34,4181.23,2270.46,4136.68,2270.46z"/>
<path class="st36" d="M3667.85,2400.32H3225c-23.33,0-42.23-18.91-42.23-42.23l0,0c0-23.33,18.91-42.23,42.23-42.23h442.85
	c23.32,0,42.23,18.91,42.23,42.23l0,0C3710.09,2381.41,3691.18,2400.32,3667.85,2400.32z"/>
</svg>
