<?xml version="1.0" encoding="utf-8"?>
<!-- Generator: Adobe Illustrator 24.1.3, SVG Export Plug-In . SVG Version: 6.00 Build 0)  -->
<svg version="1.1" id="Layer_1" xmlns="http://www.w3.org/2000/svg" xmlns:xlink="http://www.w3.org/1999/xlink" x="0px" y="0px"
	 viewBox="0 0 6800 5600" style="enable-background:new 0 0 6800 5600;" xml:space="preserve">
<style type="text/css">
	.st0{opacity:0.31;fill:#2DB9E7;}
	.st1{fill:#FDB142;}
	.st2{fill:#0C3A4C;}
	.st3{fill:#F4DFCD;stroke:#F4DFCD;stroke-miterlimit:10;}
	.st4{fill:#E8BCB7;}
	.st5{fill:#F4DFCD;}
	.st6{fill:none;stroke:#FFFFFF;stroke-width:3;stroke-miterlimit:10;}
	.st7{fill:#FBC6D9;}
	.st8{fill:#FFFFFF;}
	.st9{opacity:0.6;fill:none;stroke:#999999;stroke-width:14;stroke-linecap:round;stroke-linejoin:round;stroke-miterlimit:10;}
	.st10{opacity:0.5;fill:none;stroke:#999999;stroke-width:14;stroke-linecap:round;stroke-linejoin:round;stroke-miterlimit:10;}
	.st11{fill:#1B1464;}
	.st12{fill:#FCA333;}
	.st13{fill:#227C48;}
	.st14{fill:#1B1464;stroke:#1B1464;stroke-miterlimit:10;}
	.st15{fill:none;stroke:#1B1464;stroke-width:30;stroke-miterlimit:10;}
	.st16{fill:none;stroke:#4D4D4D;stroke-width:15;stroke-linecap:round;stroke-linejoin:round;stroke-miterlimit:10;}
	.st17{fill:#FFFFFF;stroke:#1B1464;stroke-width:23;stroke-linecap:round;stroke-linejoin:round;stroke-miterlimit:10;}
	.st18{fill:#FFFFFF;stroke:#1B1464;stroke-width:34;stroke-linecap:round;stroke-linejoin:round;stroke-miterlimit:10;}
	.st19{fill:#666666;}
	.st20{fill:#999999;stroke:#999999;stroke-width:12;stroke-linecap:round;stroke-linejoin:round;stroke-miterlimit:10;}
	.st21{fill:#4D4D4D;stroke:#4D4D4D;stroke-width:12;stroke-linecap:round;stroke-linejoin:round;stroke-miterlimit:10;}
</style>
<path class="st0" d="M5615.1,5124.06H972.18c-268.46,0-486.09-217.63-486.09-486.09V670.66c0-268.46,217.63-486.09,486.09-486.09
	H5615.1c268.46,0,486.09,217.63,486.09,486.09v3967.31C6101.19,4906.43,5883.56,5124.06,5615.1,5124.06z"/>
<path class="st1" d="M1560.99,3508.54c37.26-51.01,93.99-142.69,121.63-270.3c34.29-158.26,5.8-288.53-12.73-352.22
	c352.55-16.04,705.11-32.09,1057.66-48.13c-39.45,78.83-98.69,225.67-92.14,413.86c3.07,88.25,19.84,163.36,38.07,221.45
	c-225.59-40.39-513.82-63.41-840.67-17.61C1735.82,3469.18,1645.07,3487.48,1560.99,3508.54z"/>
<path class="st2" d="M3902.44,4201.05c-507.59-208.8-727.41-347.46-832.3-437.99c-49.03-42.32-94.25-76.26-184.7-144.16
	c-143.95-108.05-203.65-143.05-278.94-163.33c-68.35-18.41-127.83-18.84-166.44-16.51c-57.8,29.86-115.6,59.73-173.41,89.59
	c-89.39-29.86-178.77-59.73-268.16-89.59c-37.8-3.6-98.29-4.84-165.67,16.53c-280.21,88.88-479.12,505.31-345.93,771.99
	c75.11,150.38,230.7,202.83,238.7,205.39c166.69,53.42,309.34-23.63,335.28-38.24c-5.41-65.56-10.81-131.11-16.22-196.67
	c-6.34,4.62-126.72,89.29-256.13,33.56c-92.21-39.71-127.78-124.33-138.43-155.21c-43.84-127.07,27.11-233.94,33.56-243.3
	c49.19-71.39,118.48-97.58,142.78-105.54c-5.69,17.24-13.17,41.07-20.98,69.72c0,0-21.23,78.45-34.13,163.33
	c-20.32,133.68-19.77,250.78-12.8,342.37c0.56-0.01,1.12-0.02,1.69-0.03l25.25,465.59c264.61,5.16,529.21,10.32,793.82,15.49
	c19.19,1.24,38.39,2.48,57.58,3.71c11.63-169.1,23.25-338.21,34.88-507.31c10.75-55.12,18.91-121.11,18.8-195.66
	c-0.21-136.77-28.21-249.72-55.28-328.94c19.75,18.66,48.75,45.62,84.52,77.27c125.98,111.48,239.59,212.02,390.93,290.36
	c35.84,18.55,119.57,61.31,229.75,90.1C3437.25,4238.85,3638.24,4275.24,3902.44,4201.05z M2666.31,4290.79
	c0.1-0.06,0.2-0.12,0.3-0.19c-0.14,0.38-0.28,0.77-0.42,1.15C2666.23,4291.44,2666.27,4291.11,2666.31,4290.79z"/>
<g>
	<g>
		<path class="st3" d="M1749.11,2572.12c-28.24-19.78-61.87-31.79-96.26-34.37c-15.62-1.17-31.76-0.35-46.16,5.8
			c-37.71,16.1-51.87,62.45-53.36,103.42c-2.29,63.1,15.15,126.77,49.27,179.89c16.48,25.65,38.25,49.89,67.29,59.16
			s66.04-1.56,77.75-29.7c-21.38-68.21-25.17-136.38-20.55-207.71C1728.6,2625.4,1734.44,2590.18,1749.11,2572.12z"/>
		<path class="st4" d="M1719.13,2666.12c0.61-29.53-18.85-54.89-44.56-60.95c-30.53-7.19-64.59,14.06-71.7,49.14
			c7.94-4.36,32.89-16.74,65.41-11.68C1694.39,2646.7,1711.85,2659.9,1719.13,2666.12z"/>
	</g>
	<path class="st4" d="M1715.92,2701.88c-25.85,5.52-43.32,29.88-40.39,55.5c2.8,24.55,23.61,43.91,48.9,44.94
		C1721.59,2768.84,1718.75,2735.36,1715.92,2701.88z"/>
</g>
<path class="st5" d="M2833.51,2274.71c-15.24,90.41-26.01,162.26-32.23,204.99c-42.67,293.09-56.24,468.62-159.72,627.45
	c-3.45,5.29-6.55,9.66-9.28,13.42c-41.23,56.83-120.5,144.64-270.98,211.61c-75.76,0-151.51,0-227.27,0
	c-58.55-21.85-105.35-48.11-142.53-74.29c0,0-45.61-32.52-84.75-73.83c-116.17-122.63-167.08-393.27-192.13-559.7
	c-13.1-87.05-28.27-206.26-37.88-349.65c117.37-208.09,338.18-337.47,576.92-337.99
	C2493.45,1936.19,2715.63,2065.72,2833.51,2274.71z"/>
<path class="st4" d="M2259.5,3329.48c-0.97-464.26-1.94-928.51-2.91-1392.77c-60.31,0.15-190.68,8.59-329.25,87.41
	c-145.69,82.86-220.72,198.17-250.58,250.58c1.58,182.99,22.79,333.91,43.71,442.89c44.11,229.85,75.61,382.7,203.96,498.25
	c73.52,66.19,153.79,97.6,209.79,113.64C2175.98,3329.48,2217.74,3329.48,2259.5,3329.48z"/>
<path class="st6" d="M2342.95,2800.51c9.46,19.97-3.85,44.74-23.08,55.62c-19.23,10.88-42.38,11.5-64.48,11.84
	c-11.17,0.17-22.35,0.35-33.52,0.52c-20.17,0.31-41.28,0.41-59.19-8.86c-17.91-9.28-30.99-31.22-23.37-49.89"/>
<polygon class="st5" points="2342.65,3332.91 2342.65,3484.43 2342.65,3600.98 2281.69,3635.94 2203.32,3635.94 2116.25,3586.41 
	2116.25,3332.91 "/>
<path class="st7" d="M2228.73,3321.99"/>
<path class="st4" d="M2344.73,3331.45c-75.97,47.25-151.93,94.5-227.9,141.75c0.21-47.25,0.42-94.5,0.63-141.75H2344.73z"/>
<g>
	<path class="st3" d="M2751.52,2554.7c29.9-17.17,64.47-26.12,98.95-25.62c15.66,0.23,31.67,2.49,45.46,9.91
		c36.12,19.41,46.08,66.84,43.89,107.78c-3.36,63.05-26.43,124.91-65.17,174.76c-18.7,24.07-42.56,46.27-72.31,52.9
		c-29.75,6.64-65.64-7.46-74.78-36.54c27.4-66.02,37.27-133.58,39.05-205.04C2767.19,2609.6,2764.52,2573.99,2751.52,2554.7z"/>
	<path class="st4" d="M2772.98,2651c2.03-29.47,23.68-52.98,49.83-56.72c31.05-4.43,63.07,19.79,67.02,55.36
		c-7.52-5.06-31.26-19.61-64.1-17.48C2799.35,2633.88,2780.78,2645.46,2772.98,2651z"/>
</g>
<path class="st4" d="M2772.98,2686.91c25.25,7.81,40.47,33.64,35.26,58.89c-4.99,24.2-27.45,41.62-52.72,40.38
	C2761.34,2753.09,2767.16,2720,2772.98,2686.91z"/>
<path class="st8" d="M2010.67,3403.87l102.39-41.6v127.99l67.19,38.4h86.39l95.99-54.4l-3.36-111.99l73.75,41.6
	c25.33,79.49,50.65,158.98,75.98,238.47c-187.72,0-375.44,0-563.16,0C1967.46,3562.84,1989.07,3483.35,2010.67,3403.87z"/>
<path class="st9" d="M1752.8,4211.99c48.32,27.08,107.8,31.78,161.06,16.52c53.25-15.26,100.17-49.56,134.32-93.18"/>
<path class="st10" d="M1770.34,4443.67c104.45-1.31,207.83-43.86,282.94-116.45"/>
<g>
	<path class="st11" d="M3815.97,4754.31H3146.6c-14.43,0-26.13-11.7-26.13-26.13V3707.77c0-14.43,11.7-26.13,26.13-26.13h669.37
		c14.43,0,26.13,11.7,26.13,26.13v1020.41C3842.11,4742.61,3830.41,4754.31,3815.97,4754.31z"/>
	<g>
		<path class="st5" d="M3671.19,4323.76l174.69-22.5c13.09-1.69,22.45-15.84,20.9-31.62l-3.99-40.54
			c-1.55-15.77-13.43-27.2-26.52-25.51l-174.69,22.5c-5.13,1.56-11.08,4.55-15.94,10.52c-16.6,20.39-12.18,65.27,7.97,80.94
			C3659.5,4322.14,3665.88,4323.54,3671.19,4323.76z"/>
		<path class="st5" d="M3653.28,4225.18l183.97-24.21c13.79-1.81,23.68-16.07,22.1-31.84l-4.08-40.53
			c-1.59-15.77-14.05-27.08-27.84-25.27l-183.97,24.21c-5.41,1.61-11.68,4.66-16.81,10.69c-17.53,20.57-13.02,65.44,8.14,80.91
			C3640.98,4223.67,3647.69,4225.02,3653.28,4225.18z"/>
		<path class="st5" d="M3676.86,4424.11l174.77-21.71c13.1-1.63,22.5-15.74,21-31.52l-3.85-40.56
			c-1.5-15.78-13.33-27.26-26.43-25.63l-174.77,21.71c-5.14,1.53-11.1,4.5-15.98,10.45c-16.67,20.32-12.4,65.22,7.69,80.97
			C3665.18,4422.43,3671.56,4423.87,3676.86,4424.11z"/>
		<path class="st5" d="M3704.28,4496.29l153.11-15.93c11.48-1.19,20.01-11.8,19.07-23.68l-2.43-30.54
			c-0.95-11.88-11.02-20.55-22.49-19.36l-153.11,15.93c-4.52,1.14-9.79,3.36-14.19,7.83c-15.02,15.26-12.33,49.07,4.85,60.98
			C3694.12,4495.01,3699.66,4496.1,3704.28,4496.29z"/>
	</g>
</g>
<circle class="st5" cx="2126.4" cy="4206.5" r="133.1"/>
<path class="st5" d="M2277.65,4295.19h-88.93c-16.03,0-29.02-12.99-29.02-29.02l0,0c0-16.03,12.99-29.02,29.02-29.02h88.93
	c16.03,0,29.02,12.99,29.02,29.02l0,0C2306.67,4282.2,2293.68,4295.19,2277.65,4295.19z"/>
<path class="st1" d="M1993.3,2190.84c116.41,14.53,266.46,44.47,432.64,108.12c182.31,69.83,324.06,157.25,424.53,230.12
	c3.69-39.77,22.58-285.75-154.23-466.63c-173.54-177.54-464.22-219.34-716.29-94.6c-58.99,28.12-173.61,92.91-263.54,223
	c-136.16,196.94-120.07,405.15-113.54,463.47c37.26-9.99,74.51-19.97,111.77-29.96c33.12-11.87,144.09-56.25,218.01-176.73
	C2000.88,2336.41,1996.4,2227.41,1993.3,2190.84z"/>
<g>
	<path class="st12" d="M4291.02,2781.3c18.95,5.98,229.33,68.92,389.6-50.82c93.25-69.67,119.37-163.7,129.4-202.07
		c54.72-209.24-92.4-380.44-120.16-412.74c-33.2-38.64-106.06-121.11-235.7-159.08c-75.61-22.14-142.14-20.83-183.38-16.92
		c-51.7,96.2-103.41,192.4-155.11,288.6c-110.46-96.2-220.92-192.4-331.37-288.6c-41.64-3.69-108.29-4.96-182.52,16.94
		c-308.72,91.09-527.86,517.91-381.12,791.23c82.75,154.13,254.17,207.88,262.98,210.51c183.65,54.75,340.81-24.22,369.39-39.19
		c-5.96-67.19-11.92-134.38-17.87-201.57c-6.99,4.74-139.61,91.51-282.19,34.4c-101.59-40.7-140.77-127.43-152.51-159.08
		c-48.3-130.24,29.87-239.77,36.97-249.37c54.19-73.17,130.53-100.01,157.31-108.17c-6.27,17.67-14.51,42.1-23.11,71.46
		c0,0-23.39,80.4-37.6,167.4c-22.38,137.01-21.78,257.03-14.1,350.91c0.62-0.01,1.24-0.02,1.86-0.03l27.82,477.2
		c291.52,5.29,583.05,10.58,874.57,15.87c21.15,1.27,42.29,2.54,63.44,3.81c12.81-173.32,25.62-346.64,38.43-519.96
		c11.85-56.49,20.84-124.13,20.71-200.54c-0.24-140.18-31.08-255.94-60.9-337.14c16.89,6.74,65.64,28.64,93.12,79.2
		c37.13,68.31,15.67,152.58-34.24,197.36c-28.69,25.75-61.04,33.29-122.9,47.71c-53.83,12.55-100.09,15.42-132.11,15.68
		C4290.15,2663.29,4290.59,2722.3,4291.02,2781.3z M4520.06,2812.63c0.12-0.06,0.23-0.13,0.33-0.19c-0.15,0.39-0.31,0.79-0.46,1.18
		C4519.97,2813.29,4520.02,2812.96,4520.06,2812.63z"/>
	<g>
		<g>
			<path class="st3" d="M3509.56,1051.11c-31.12-20.27-68.17-32.58-106.05-35.22c-17.21-1.2-34.99-0.36-50.86,5.94
				c-41.54,16.5-57.15,64.01-58.79,106c-2.53,64.67,16.69,129.93,54.29,184.37c18.15,26.28,42.14,51.13,74.14,60.64
				s72.76-1.6,85.66-30.44c-23.56-69.91-27.73-139.77-22.64-212.89C3486.96,1105.72,3493.4,1069.62,3509.56,1051.11z"/>
			<path class="st4" d="M3476.53,1147.45c0.68-30.27-20.77-56.26-49.09-62.47c-33.63-7.37-71.16,14.41-78.99,50.37
				c8.75-4.47,36.24-17.15,72.06-11.97C3449.28,1127.55,3468.51,1141.08,3476.53,1147.45z"/>
		</g>
		<path class="st4" d="M3472.99,1184.11c-28.48,5.66-47.72,30.63-44.5,56.88c3.09,25.16,26.01,45,53.87,46.06
			C3479.24,1252.73,3476.11,1218.42,3472.99,1184.11z"/>
	</g>
	<path class="st5" d="M4704.27,746.28c-16.79,92.66-28.65,166.31-35.51,210.1c-47.01,300.4-61.96,480.3-175.96,643.09
		c-3.8,5.42-7.22,9.9-10.22,13.76c-45.42,58.24-132.75,148.24-298.54,216.89c-83.46,0-166.93,0-250.39,0
		c-64.5-22.4-116.07-49.31-157.02-76.15c0,0-50.25-33.34-93.37-75.67c-127.99-125.69-184.07-403.08-211.68-573.66
		c-14.44-89.22-31.14-211.4-41.73-358.37c129.31-213.28,372.58-345.88,635.61-346.42C4329.62,399.32,4574.4,532.08,4704.27,746.28z"
		/>
	<path class="st4" d="M4071.87,1827.35c-1.07-475.83-2.14-951.66-3.21-1427.49c-66.44,0.15-210.07,8.81-362.75,89.59
		c-160.51,84.93-243.17,203.11-276.07,256.83c1.74,187.56,25.11,342.24,48.15,453.93c48.59,235.58,83.3,392.24,224.71,510.67
		c81,67.84,169.44,100.04,231.13,116.47C3979.85,1827.35,4025.86,1827.35,4071.87,1827.35z"/>
	<path class="st6" d="M4163.81,1285.2c10.42,20.47-4.24,45.86-25.43,57.01c-21.19,11.15-46.7,11.78-71.04,12.14
		c-12.31,0.18-24.62,0.36-36.93,0.53c-22.22,0.32-45.48,0.42-65.21-9.08c-19.73-9.51-34.15-32-25.75-51.14"/>
	<polygon class="st5" points="4163.47,1830.87 4163.47,1986.16 4163.47,2105.62 4096.32,2141.45 4009.98,2141.45 3914.04,2090.69 
		3914.04,1830.87 	"/>
	<path class="st7" d="M4037.97,1819.67"/>
	<path class="st4" d="M4165.77,1829.38c-83.69,48.43-167.39,96.86-251.08,145.29c0.23-48.43,0.46-96.86,0.69-145.29H4165.77z"/>
	<path class="st13" d="M3539.73,894.75c-0.71,21.96-3.45,48.61-10.57,78.28c-7.75,32.29-18.59,59.39-28.89,80.63
		c-7.75,56.12-15.5,112.25-23.25,168.37c-19.21-40.97-40.47-98.09-50.58-168.37c-7.85-54.52-6.9-102.41-3.21-140.36
		C3462.07,907.12,3500.9,900.94,3539.73,894.75z"/>
	<g>
		<path class="st3" d="M4613.94,1033.25c32.94-17.6,71.03-26.77,109.01-26.25c17.25,0.24,34.89,2.56,50.08,10.15
			c39.79,19.89,50.76,68.51,48.36,110.47c-3.7,64.62-29.12,128.02-71.8,179.12c-20.61,24.67-46.89,47.42-79.67,54.22
			c-32.78,6.8-72.31-7.65-82.39-37.45c30.19-67.67,41.06-136.91,43.02-210.15C4631.21,1089.52,4628.26,1053.03,4613.94,1033.25z"/>
		<path class="st4" d="M4637.58,1131.96c2.24-30.2,26.09-54.31,54.9-58.13c34.21-4.54,69.49,20.28,73.83,56.74
			c-8.29-5.18-34.44-20.1-70.62-17.92C4666.64,1114.41,4646.18,1126.28,4637.58,1131.96z"/>
	</g>
	<path class="st4" d="M4637.58,1168.76c27.82,8.01,44.59,34.48,38.85,60.36c-5.5,24.8-30.24,42.66-58.09,41.39
		C4624.76,1236.59,4631.17,1202.68,4637.58,1168.76z"/>
	<path class="st13" d="M3423.43,922.48c107.98-19.73,236.37-51.65,375.59-104.52c103.1-39.16,192.53-82.36,268.05-124.05
		c34.59,18.2,75.82,36.67,123.59,52.38c100.12,32.92,190.43,41.02,256.48,41.47c12.31,13.05,29.04,28.34,50.96,42.91
		c31.28,20.79,61.38,32.29,83.46,38.82c16.15,109.02,32.31,218.03,48.46,327.05c45.75-75.08,109.91-209.7,89.58-371.84
		c-3.48-27.72-9.09-53.63-16.05-77.65c-31.51-52.96-112.33-172.05-272.12-257.59c-153.07-81.94-297.61-89.75-362.75-89.59
		c-56.86-4.08-224.77-9.25-394.85,89.59c-149.91,87.12-218.97,207.09-243.97,256.83C3427.71,805.01,3425.57,863.75,3423.43,922.48z"
		/>
	<path class="st8" d="M3797.73,1903.59l112.81-42.63v131.18l74.03,39.35h95.18l105.76-55.75l-3.7-114.78l81.26,42.63
		c27.9,81.47,55.81,162.94,83.71,244.41c-206.81,0-413.63,0-620.44,0C3750.13,2066.54,3773.93,1985.06,3797.73,1903.59z"/>
	<polygon class="st8" points="3798.43,1908.67 3911.23,1866.03 3911.23,1997.21 3985.26,2036.57 4080.45,2036.57 4186.2,1980.81 
		4182.5,1866.03 4263.76,1908.67 4351.89,2164.47 4217.93,2253.01 4320.16,2253.01 4052.24,2600.64 3752.6,2262.85 3837.2,2253.01 
		3727.92,2154.63 	"/>
	<polygon class="st14" points="4052.24,2600.64 4165.77,2453.35 4115.68,2228.27 3955.98,2228.27 3914.69,2445.58 	"/>
	<polygon class="st14" points="3955.98,2228.27 3914.04,2141.45 3985.26,2036.57 4080.45,2036.57 4163.47,2105.62 4115.68,2228.27 	
		"/>
	<g>
		<path class="st15" d="M4128.66,952.93h381.18c5.24,32.03,10.78,95.84-19.67,165.87c-11.11,25.54-59.65,137.13-147.55,142.99
			c-53.86,3.59-96.2-34.27-119.27-54.91C4125.91,1119.75,4126.84,991.31,4128.66,952.93z"/>
		<path class="st15" d="M4005.69,978.1l-370.12-12.58c-4.23,31.92-10.11,113.25,41.81,192.18c8.95,13.6,84.7,128.76,175.83,115.53
			c60.04-8.71,94.41-68.44,115.58-105.24C4013.8,1089.81,4010.01,1013.42,4005.69,978.1z"/>
		<path class="st15" d="M4133.04,1033.08c-6.13-4.01-35.55-22.34-74.47-16.09c-26.95,4.33-44.43,18.18-51.29,24.28"/>
	</g>
	<path class="st16" d="M4212.83,1093.9c14.6-9.86,43.48-26.4,83.75-31.17c67.14-7.94,117.22,22.63,130.28,31.17"/>
	<path class="st16" d="M3713.51,1099.79c14.6-9.86,43.48-26.4,83.75-31.17c67.14-7.94,117.22,22.63,130.28,31.17"/>
</g>
<path class="st12" d="M3549.59,3299.31c5.32,40.16,8.03,90.91,1.46,148.79c-11.65,102.67-47.26,181.67-74.51,230.54
	c151.44-34.21,318.65-80.22,496.85-142.69c193.71-67.91,365.44-143.01,514.2-216.96
	C4174.93,3312.43,3862.26,3305.87,3549.59,3299.31z"/>
<path class="st17" d="M5763.88,519.12h-364.81c-102.67,0-188.29,64.84-207.79,150.93l-369.56,167.75l366.27,210.7
	c9.73,95.96,100.51,171.17,211.08,171.17h364.81c117.06,0,211.96-84.29,211.96-188.26V707.38
	C5975.84,603.41,5880.94,519.12,5763.88,519.12z"/>
<path class="st18" d="M1516.85,1578.37c4.11,38.59,10.25,76.93,27.69,115.83c24.63,54.95,126.68,308.77,179.89,327.15
	c-101.27-34.99-265.4-95.98-373.79-76.01c-101.24,18.65-176.26,91.23-291.74,91.23c-253.07,0-458.23-205.16-458.23-458.23
	s205.16-458.23,458.23-458.23c192,0,368.08,124.27,432.13,305.37C1509.62,1478.06,1511.54,1528.43,1516.85,1578.37z"/>
<circle class="st19" cx="847.71" cy="1537.62" r="80.34"/>
<circle class="st19" cx="1091.72" cy="1537.62" r="80.34"/>
<circle class="st19" cx="1323.23" cy="1537.62" r="80.34"/>
<rect x="5366.8" y="822.59" class="st20" width="556.14" height="40.12"/>
<rect x="5366.8" y="925.62" class="st20" width="556.14" height="40.12"/>
<rect x="5366.8" y="1013.46" class="st20" width="556.14" height="40.12"/>
<rect x="5227.15" y="685.21" class="st21" width="695.79" height="40.12"/>
</svg>
