<?xml version="1.0" encoding="utf-8"?>
<!-- Generator: Adobe Illustrator 24.1.3, SVG Export Plug-In . SVG Version: 6.00 Build 0)  -->
<svg version="1.1" id="Layer_1" xmlns="http://www.w3.org/2000/svg" xmlns:xlink="http://www.w3.org/1999/xlink" x="0px" y="0px"
	 viewBox="0 0 6800 5600" style="enable-background:new 0 0 6800 5600;" xml:space="preserve">
<style type="text/css">
	.st0{opacity:0.31;fill:#29ABE2;}
	.st1{fill:#FFFFFF;}
	.st2{fill:#1B1464;}
	.st3{fill:#FCA333;}
	.st4{fill:#FFFFFF;stroke:#000000;stroke-width:19;stroke-linecap:round;stroke-linejoin:round;stroke-miterlimit:10;}
	.st5{fill:#4D4D4D;stroke:#4D4D4D;stroke-width:12;stroke-linecap:round;stroke-linejoin:round;stroke-miterlimit:10;}
	.st6{fill:#FBC6D9;}
	.st7{fill:#FDB142;}
	.st8{fill:#F4DFCD;stroke:#F4DFCD;stroke-miterlimit:10;}
	.st9{fill:#E8BCB7;}
	.st10{fill:#F4DFCD;}
	.st11{fill:none;stroke:#FFFFFF;stroke-width:3;stroke-miterlimit:10;}
	.st12{fill:#29ABE2;}
	.st13{fill:#1B1464;stroke:#1B1464;stroke-width:26;stroke-linecap:round;stroke-linejoin:round;stroke-miterlimit:10;}
	.st14{fill:#FFFFFF;stroke:#FFFFFF;stroke-width:26;stroke-linecap:round;stroke-linejoin:round;stroke-miterlimit:10;}
	.st15{fill:#1B1464;stroke:#1B1464;stroke-width:0.75;stroke-linecap:round;stroke-linejoin:round;stroke-miterlimit:10;}
	.st16{fill:#C1272D;}
	.st17{fill:#C1272D;stroke:#FFFFFF;stroke-width:65;stroke-linecap:round;stroke-linejoin:round;stroke-miterlimit:10;}
	.st18{fill:none;stroke:#FFFFFF;stroke-width:88;stroke-linecap:round;stroke-linejoin:round;stroke-miterlimit:10;}
	.st19{fill:#0C3A4C;}
	.st20{fill:#F18F2B;}
	.st21{fill:#223081;}
	.st22{fill:#FFFFFF;stroke:#1B1464;stroke-width:23;stroke-linecap:round;stroke-linejoin:round;stroke-miterlimit:10;}
</style>
<path class="st0" d="M5669.78,5246.75H1026.86c-268.46,0-486.09-217.63-486.09-486.09V793.35c0-268.46,217.63-486.09,486.09-486.09
	h4642.92c268.46,0,486.09,217.63,486.09,486.09v3967.31C6155.87,5029.12,5938.24,5246.75,5669.78,5246.75z"/>
<rect x="3657.98" y="2503.54" class="st1" width="1206.03" height="1705.6"/>
<ellipse class="st2" cx="4598.69" cy="2761.24" rx="146.75" ry="151.04"/>
<polygon class="st3" points="4864.02,3048.52 4864.02,3886.19 4626.85,3260.46 4273.62,3260.46 4213.06,3326.06 3663.03,3326.06 
	3663.03,3114.12 3383.68,3114.12 3383.68,3326.06 3037.31,3326.06 3388.73,4279.79 5015.4,4279.79 5015.4,3048.52 "/>
<circle class="st1" cx="4598.69" cy="2741.1" r="45.75"/>
<path class="st1" d="M4604.56,2800.84c41.92,2.58,84.83,34.91,81.16,58.45c-3.74,23.98-55.39,36.18-92.09,34.06
	c-31.88-1.84-78.92-16.02-81.16-38.69C4510.09,2830.51,4558.73,2798.02,4604.56,2800.84z"/>
<polyline class="st4" points="3843.43,3022.21 3949.4,3136.83 4070.51,3000.58 4168.91,3068.71 4706.33,3069.82 "/>
<rect x="3943.72" y="2624.01" class="st5" width="439.02" height="35.95"/>
<rect x="3943.72" y="2705.14" class="st5" width="439.02" height="35.95"/>
<rect x="4142.8" y="2782.69" class="st5" width="236.4" height="35.95"/>
<path class="st6" d="M2753.27,1646.05"/>
<path class="st7" d="M3338.3,1151.87c-5.93,15.11-11.94,33.95-16.04,56.02c-4.46,24.02-5.46,45.35-5.1,62.55
	c-11.39,40.21-22.78,80.42-34.17,120.63c24.1-22.66,54.19-55.74,81.04-100.76c20.83-34.92,34.14-67.71,42.82-94.48
	C3384,1181.18,3361.15,1166.52,3338.3,1151.87z"/>
<g>
	<g>
		<g>
			<path class="st8" d="M3328.31,1273.12c25.64-5.39,52.73-3.78,77.55,4.62c11.27,3.82,22.31,9.18,30.55,17.73
				c21.57,22.39,17.67,58.86,6.51,87.83c-17.19,44.61-48.35,83.77-88.04,110.63c-19.16,12.97-41.61,23.39-64.68,21.23
				c-23.07-2.16-45.72-20.67-45.52-43.74c35.27-41.15,58.22-87.49,76.24-138.52C3326.78,1316.3,3333.19,1290.04,3328.31,1273.12z"/>
			<path class="st9" d="M3321.28,1347.46c8.37-20.74,29.53-32.63,49.31-29.22c23.49,4.04,40.98,28.95,35.5,55.48
				c-4.26-5.39-18.01-21.41-42.26-27.53C3344.36,1341.27,3328.22,1345.29,3321.28,1347.46z"/>
		</g>
		<path class="st9" d="M3312.87,1373.31c16.43,11.51,21.39,33.65,11.71,50.62c-9.27,16.26-29.59,23.57-47.58,16.78
			C3288.96,1418.25,3300.92,1395.78,3312.87,1373.31z"/>
	</g>
	<path class="st7" d="M2793.41,834.12c-11.6,5.55-26.67,11.44-44.81,15.43c-25.9,5.7-48.34,5.41-64.26,3.91
		c-41.93,69.71-83.87,139.41-125.8,209.12c-10.14-137.28,25.42-227.81,51.21-276.71c4.26-8.07,26.29-49.84,31.78-47.57
		c12.1,4.99-54.94,224.06-155.5,425.38c-69.62,139.37-143.66,246.9-199.65,320.38c295.93,127.9,591.85,255.8,887.78,383.71
		c24.15-129.26,61.85-279.43,121.73-442.1c48.25-131.08,102-246.04,154.52-344.31"/>
	<path class="st10" d="M2642.31,737.54c-16.27,67.47-30.15,120.68-38.52,152.28c-57.46,216.72-100.26,342.95-75.21,484.22
		c0.83,4.7,1.7,8.67,2.49,12.1c11.9,51.79,41.18,136.44,126.46,227.69c52.97,22.47,105.95,44.93,158.92,67.4
		c47.45,2.15,88-2.25,121.79-9.46c0,0,41.58-9.12,81.25-26.27c117.76-50.93,233.97-224.26,301.06-332.71
		c35.09-56.72,81.2-135.22,130.63-232.2c-20.09-179.69-135.96-335.25-302.75-406.42C2980.93,602.7,2786.99,626.99,2642.31,737.54z"
		/>
	<path class="st9" d="M2729.52,1642.14c138.96-322.94,277.92-645.89,416.89-968.83c42.13,17.99,130.78,62.53,204.2,158.51
		c77.19,100.9,95.32,203.43,100.59,248.78c-55.61,126.94-115.4,225.72-162.48,295.39c-99.3,146.95-166.86,244.03-291.03,286.41
		c-71.12,24.28-136.61,22.35-180.55,16.9C2787.93,1666.92,2758.72,1654.53,2729.52,1642.14z"/>
	<path class="st11" d="M2828.72,1249.11c-12.56,11.1-10.63,32.29-0.43,45.57c10.21,13.28,26.21,20.57,41.56,27.37
		c7.76,3.43,15.52,6.87,23.28,10.3c14.01,6.2,28.75,12.53,44.03,11.38c15.29-1.15,30.97-12.54,31.2-27.8"/>
	<polygon class="st10" points="2657.53,1613.83 2612.4,1719.33 2577.68,1800.47 2610.05,1842.96 2665.07,1866.29 2740.94,1857.73 
		2816.45,1681.24 	"/>
	<path class="st9" d="M2656.5,1612.2c39.05,55.43,78.09,110.85,117.14,166.28c13.93-32.96,27.86-65.92,41.78-98.88L2656.5,1612.2z"
		/>
	<g>
		<path class="st8" d="M2616.24,956.8c-15.79-20.82-37.3-37.31-61.56-47.18c-11.02-4.48-22.89-7.65-34.74-6.58
			c-31.03,2.8-52.13,32.87-62.8,62.02c-16.43,44.89-18.72,94.8-6.48,141c5.91,22.3,15.98,44.83,34.81,58.28
			c18.83,13.44,48.12,14.27,63.18-3.26c0.5-54.09,13.73-104.05,33.76-154.34C2588.93,990.37,2601.41,966.38,2616.24,956.8z"/>
		<path class="st9" d="M2572.55,1017.48c7.36-21.12-0.78-43.91-17.95-54.27c-20.39-12.29-50-4.93-63.35,18.67
			c6.77-1.29,27.7-4.38,50.03,6.84C2559.22,997.74,2568.75,1011.31,2572.55,1017.48z"/>
	</g>
	<path class="st9" d="M2561.86,1042.48c-19.99-2.05-38.32,11.42-42.2,30.54c-3.72,18.33,6.8,37.12,24.84,43.75
		C2550.29,1092.01,2556.07,1067.25,2561.86,1042.48z"/>
	<path class="st7" d="M3404.06,1202.01c-62.8-42.47-135.02-98.71-208.01-172.11c-54.06-54.35-98.26-107.78-134.08-156.42
		c-27.24,3.05-58.78,4.5-93.67,2.31c-73.11-4.59-132.79-23.39-174.84-40.87c-11.6,5.55-26.67,11.44-44.81,15.43
		c-25.9,5.7-48.34,5.41-64.26,3.91c-41.93,69.71-83.87,139.41-125.8,209.12c-7.22-63.32-8.82-172.03,51.21-276.71
		c10.26-17.89,21.36-33.99,32.75-48.42c35.39-27.5,121.3-86.63,247.57-101.73c120.97-14.46,214.97,19.15,256.27,36.79
		c37.28,12.53,145.35,54.22,224.57,167.15c69.83,99.54,78.8,199.62,80.21,240.14C3435.48,1121.07,3419.77,1161.54,3404.06,1202.01z"
		/>
	<path class="st1" d="M2697.07,1317.66c-19.52,70.84,14.61,145.92,80.05,177.43c66.95,32.23,148.91,10.29,191.26-51.85
		C2877.94,1401.38,2787.5,1359.52,2697.07,1317.66z"/>
</g>
<path class="st12" d="M2820.92,2984.18l-355.06,233.08c10.09,254.14,20.18,508.29,30.28,762.43c73.17,0,146.34,0,219.51,0
	C2750.74,3647.86,2785.83,3316.02,2820.92,2984.18z"/>
<path class="st12" d="M1888.43,2984.18l355.06,233.08c-10.09,254.14-20.18,508.29-30.28,762.43c-73.17,0-146.34,0-219.51,0
	C1958.61,3647.86,1923.52,3316.02,1888.43,2984.18z"/>
<path class="st13" d="M1678.34,1832.4l666.09-185.45l673.66,185.45c20.75,112.21,139.35,813.41-314.12,1298.13
	c-114.88,122.8-241.71,205.22-355.75,261.14c-112.45-64.01-240.17-156.78-355.75-291.42
	C1572.94,2611.57,1656.85,1971.52,1678.34,1832.4z"/>
<path class="st14" d="M2630.02,2915.44h-544.68c-27.61,0-49.98-22.38-49.98-49.98v-497.38c0-27.6,22.38-49.98,49.98-49.98h544.68
	c27.6,0,49.98,22.38,49.98,49.98v497.38C2680,2893.06,2657.62,2915.44,2630.02,2915.44z"/>
<rect x="2306.58" y="2608.24" class="st15" width="80.66" height="134.98"/>
<circle class="st15" cx="2346.91" cy="2571.28" r="86.1"/>
<path class="st10" d="M2861.33,2468.87l155.53,33.04c11.66,2.48,23.22-5.47,25.83-17.75l6.71-31.56
	c2.61-12.28-4.73-24.25-16.39-26.72l-155.53-33.04c-4.79-0.3-10.65,0.25-16.31,3.34c-19.34,10.56-26.76,45.5-13.39,63.01
	C2851.7,2464.31,2856.83,2467.2,2861.33,2468.87z"/>
<path class="st10" d="M2870.59,2389.78l163.93,34.41c12.29,2.58,24.34-5.29,26.92-17.58l6.63-31.58
	c2.58-12.29-5.29-24.34-17.58-26.92l-163.93-34.41c-5.04-0.34-11.19,0.16-17.1,3.21c-20.19,10.42-27.53,45.38-13.23,63.05
	C2860.41,2385.13,2865.84,2388.06,2870.59,2389.78z"/>
<path class="st10" d="M2841.12,2545.8l155.4,33.65c11.65,2.52,23.25-5.38,25.9-17.65l6.83-31.54c2.66-12.27-4.63-24.26-16.28-26.79
	l-155.4-33.65c-4.79-0.32-10.65,0.21-16.32,3.28c-19.38,10.49-26.94,45.4-13.63,62.96C2831.51,2541.2,2836.62,2544.1,2841.12,2545.8
	z"/>
<path class="st10" d="M2846.61,2607.81l135.37,31.8c10.15,2.38,20.12-3.13,22.28-12.32l5.55-23.61c2.16-9.19-4.32-18.57-14.47-20.95
	l-135.37-31.8c-4.16-0.44-9.24-0.27-14.14,1.82c-16.7,7.16-22.85,33.3-11.07,47.14C2838.21,2603.94,2842.69,2606.34,2846.61,2607.81
	z"/>
<circle class="st16" cx="2974.81" cy="2863.2" r="405.66"/>
<path class="st17" d="M2794.8,2915.44l140.03,112.9c13.73-45.95,38.19-108.64,83.26-174.09c64.59-93.81,141.13-149.2,189.23-178.51"
	/>
<path class="st18" d="M2181.69,2318.09c-19.26-150.28,90.1-263.17,181.66-262.4c90.84,0.77,197.46,113.69,177.88,262.4"/>
<g>
	<path class="st10" d="M1845.53,2459.64l-155.53,33.04c-11.66,2.48-23.23-5.47-25.83-17.75l-6.71-31.56
		c-2.61-12.28,4.73-24.25,16.39-26.72l155.53-33.04c4.79-0.3,10.65,0.25,16.31,3.34c19.34,10.56,26.76,45.5,13.39,63.01
		C1855.16,2455.08,1850.03,2457.96,1845.53,2459.64z"/>
	<path class="st10" d="M1836.27,2380.54l-163.93,34.41c-12.29,2.58-24.34-5.29-26.92-17.58l-6.63-31.58
		c-2.58-12.29,5.29-24.34,17.58-26.92l163.93-34.41c5.04-0.34,11.19,0.16,17.1,3.21c20.19,10.42,27.53,45.38,13.23,63.05
		C1846.45,2375.9,1841.02,2378.83,1836.27,2380.54z"/>
	<path class="st10" d="M1865.74,2536.56l-155.4,33.65c-11.65,2.52-23.25-5.38-25.9-17.65l-6.83-31.54
		c-2.66-12.27,4.63-24.26,16.28-26.79l155.4-33.65c4.79-0.32,10.65,0.21,16.32,3.28c19.38,10.49,26.94,45.4,13.63,62.96
		C1875.35,2531.97,1870.23,2534.87,1865.74,2536.56z"/>
	<path class="st10" d="M1860.25,2598.57l-135.37,31.8c-10.15,2.38-20.12-3.13-22.28-12.32l-5.55-23.61
		c-2.16-9.19,4.32-18.57,14.47-20.95l135.37-31.8c4.16-0.44,9.24-0.28,14.14,1.82c16.7,7.16,22.85,33.3,11.07,47.14
		C1868.65,2594.7,1864.17,2597.11,1860.25,2598.57z"/>
</g>
<path class="st19" d="M2216.34,3796.82c-46.96,2.9-109.72,11.66-179.93,35.99c-57.1,19.79-103.39,44.42-138.4,66.43
	c-11.05-3-98.7-25.27-168.85,30.45c-33.28,26.43-48.59,59.28-55.36,77.51c183.62,2.77,367.23,5.54,550.85,8.3
	C2221.88,3942.6,2219.11,3869.71,2216.34,3796.82z"/>
<path class="st19" d="M2490.28,3796.82c46.96,2.9,109.72,11.66,179.93,35.99c57.1,19.79,103.39,44.42,138.4,66.43
	c11.05-3,98.7-25.27,168.85,30.45c33.28,26.43,48.59,59.28,55.36,77.51c-183.62,2.77-367.23,5.54-550.85,8.3
	C2484.75,3942.6,2487.51,3869.71,2490.28,3796.82z"/>
<g>
	<circle class="st20" cx="4305.55" cy="1378.14" r="142.32"/>
</g>
<g>
	<path class="st21" d="M4637.43,1281.3l-4-4c-55.3-55.3-144.97-55.3-200.27,0l-114.64,114.64
		c-45.61,45.61-53.57,114.58-23.95,168.38c2.67,5.25,5.88,10.29,9.57,15.08c0.2,0.27,0.39,0.54,0.59,0.8
		c0.48,0.61,0.93,1.23,1.42,1.84c3.77,4.92,7.87,9.67,12.37,14.17l4,4c3.6,3.6,7.35,6.95,11.22,10.08l89.04,89.04l90.31-90.31
		c3.33-2.77,6.58-5.69,9.7-8.82l114.64-114.64C4692.73,1426.27,4692.73,1336.61,4637.43,1281.3z"/>
</g>
<path class="st22" d="M4663.1,917.51h-455c-128.06,0-234.84,91.05-259.16,211.94L3488,1365.02l456.82,295.87
	c12.13,134.75,125.36,240.36,263.27,240.36h455c146.01,0,264.37-118.36,264.37-264.37v-455.01
	C4927.46,1035.87,4809.1,917.51,4663.1,917.51z"/>
<g>
	<circle class="st20" cx="4282.91" cy="1325.78" r="161.4"/>
</g>
<g>
	<path class="st21" d="M4659.29,1215.96l-4.54-4.54c-62.72-62.72-164.4-62.72-227.12,0l-130.01,130.01
		c-51.73,51.72-60.75,129.94-27.16,190.95c3.02,5.96,6.67,11.67,10.85,17.11c0.22,0.3,0.45,0.61,0.67,0.91
		c0.54,0.69,1.05,1.4,1.61,2.08c4.27,5.58,8.92,10.97,14.03,16.07l4.54,4.54c4.08,4.08,8.34,7.89,12.73,11.44l100.98,100.98
		l102.41-102.41c3.78-3.14,7.46-6.46,11.01-10l130.01-130.01C4722,1380.36,4722,1278.68,4659.29,1215.96z"/>
</g>
</svg>
