<?xml version="1.0" encoding="utf-8"?>
<!-- Generator: Adobe Illustrator 24.1.3, SVG Export Plug-In . SVG Version: 6.00 Build 0)  -->
<svg version="1.1" id="Layer_1" xmlns="http://www.w3.org/2000/svg" xmlns:xlink="http://www.w3.org/1999/xlink" x="0px" y="0px"
	 viewBox="0 0 6800 5600" style="enable-background:new 0 0 6800 5600;" xml:space="preserve">
<style type="text/css">
	.st0{opacity:0.31;fill:#29ABE2;enable-background:new    ;}
	.st1{fill:#B3B3B3;}
	.st2{fill:#FFFFFF;}
	.st3{fill:#FBB03B;}
	.st4{fill:#FCD200;}
	.st5{fill:#F7931E;stroke:#F7931E;stroke-width:10;stroke-linecap:round;stroke-linejoin:round;stroke-miterlimit:10;}
	.st6{fill:#F15A24;stroke:#F15A24;stroke-width:27;stroke-linecap:round;stroke-linejoin:round;stroke-miterlimit:10;}
	.st7{font-family:'Recoleta-Light';}
	.st8{font-size:194.4416px;}
	.st9{fill:#1B1464;}
	.st10{fill:#F7931E;}
	.st11{fill:#F15A24;}
	.st12{fill:#1B1464;stroke:#F7931E;stroke-width:10;stroke-miterlimit:10;}
	.st13{fill:#FFFFFF;stroke:#FFFFFF;stroke-width:5;stroke-miterlimit:10;}
	.st14{font-family:'AndaleMono';}
	.st15{font-size:102.6115px;}
	.st16{font-size:78.3295px;}
	.st17{opacity:0.86;fill:#1B1464;}
	.st18{opacity:0.58;fill:#0071BC;}
	.st19{opacity:0.2;fill:#FFFFFF;}
	.st20{fill:#F4DFCD;}
	.st21{fill:#FFFFFF;stroke:#140A51;stroke-width:23;stroke-linecap:round;stroke-linejoin:round;stroke-miterlimit:10;}
	.st22{fill:none;stroke:#F7931E;stroke-width:65;stroke-linecap:round;stroke-linejoin:round;stroke-miterlimit:10;}
</style>
<path class="st0" d="M5721.46,5269.75H1078.54c-268.46,0-486.09-217.63-486.09-486.09V816.34c0-268.46,217.63-486.09,486.09-486.09
	h4642.92c268.46,0,486.09,217.63,486.09,486.09v3967.31C6207.55,5052.12,5989.92,5269.75,5721.46,5269.75z"/>
<path class="st1" d="M4101.8,4422.84H2023.97c-39.9,0-72.24-32.34-72.24-72.24V678.31c0-39.9,32.34-72.24,72.24-72.24H4101.8
	c39.9,0,72.24,32.34,72.24,72.24v3672.28C4174.04,4390.49,4141.7,4422.84,4101.8,4422.84z"/>
<path class="st2" d="M3849.81,4175.83H2275.96c-94.29,0-170.72-76.44-170.72-170.72V1014.77c0-94.29,76.44-170.72,170.72-170.72
	h1573.85c94.29,0,170.72,76.44,170.72,170.72v2990.34C4020.53,4099.4,3944.1,4175.83,3849.81,4175.83z"/>
<g>
	<path class="st3" d="M2809.77,3946.92c-8.31-162.12,113.91-295.26,253.82-304.34c154.12-10,302.86,132.26,290.45,311.91
		C3172.62,3951.97,2991.19,3949.44,2809.77,3946.92z"/>
	<path class="st4" d="M2872.43,3948.72c-6.33-123.48,86.76-224.88,193.32-231.8c117.39-7.62,230.67,100.73,221.22,237.57
		C3148.79,3952.57,3010.61,3950.65,2872.43,3948.72z"/>
	<path class="st5" d="M3090.77,3717.04c14.59,1.91,103.3,15.03,158.26,95.5c39.6,57.99,39.05,117.83,37.94,138.33
		c-9.97-31.43-29.2-78.7-67.18-126.88C3173.92,3765.79,3122.1,3733.44,3090.77,3717.04z"/>
	<text transform="matrix(-0.9238 -0.0118 0.0128 -0.9999 3126.1294 3786.0464)" class="st6 st7 st8">$</text>
	<path class="st9" d="M3363.53,4001.36h-601.28c-13.94,0-25.25-11.3-25.25-25.25l0,0c0-13.94,11.3-25.25,25.25-25.25h524.73h76.56
		c13.94,0,25.25,11.3,25.25,25.25l0,0C3388.77,3990.05,3377.47,4001.36,3363.53,4001.36z"/>
</g>
<g>
	<path class="st3" d="M3699.15,2509.94H2492.9c-93.29,0-168.91-75.62-168.91-168.91v-675.37c0-93.29,75.62-168.91,168.91-168.91
		h1206.25c93.29,0,168.91,75.62,168.91,168.91v675.37C3868.06,2434.32,3792.44,2509.94,3699.15,2509.94z"/>
	<path class="st10" d="M2323.99,2341.03v-675.37c0-93.29,75.62-168.91,168.91-168.91h922.42h283.84
		c93.29,0,168.91,75.62,168.91,168.91C3868.06,1665.67,2323.99,2377.24,2323.99,2341.03z"/>
	<path class="st11" d="M2492.9,1500.05c100.21,0,200.42,0,300.63,0c127.93,0,138.04-0.48,185.93,0
		c129.2,1.3,159.04,4.38,260.15,3.89c75.17-0.36,134.42-2.42,175.7-3.89c207.68-7.4,230.47,0,283.84,0
		c93.29,0,168.91,75.62,168.91,168.91C3409.67,1612.65,2951.28,1556.35,2492.9,1500.05z"/>
	<g>
		<path class="st9" d="M2514.62,1891.16v-28.71c-0.2-0.76-2.11-8.65,3.38-15.2c5.82-6.95,14.6-5.99,15.2-5.91
			c32.38,0,64.76,0,97.14,0v49.82H2514.62z"/>
		<path class="st9" d="M2751.71,1892.16v-28.71c0.2-0.76,2.11-8.65-3.38-15.2c-5.82-6.95-14.6-5.99-15.2-5.91
			c-32.38,0-64.76,0-97.14,0v49.82H2751.71z"/>
		<path class="st9" d="M2751.71,1943.14v28.71c0.2,0.76,2.11,8.65-3.38,15.2c-5.82,6.95-14.6,5.99-15.2,5.91
			c-32.38,0-64.76,0-97.14,0v-49.82H2751.71z"/>
		<path class="st9" d="M2514.62,1943.14v28.71c-0.2,0.76-2.11,8.65,3.38,15.2c5.82,6.95,14.6,5.99,15.2,5.91
			c32.38,0,64.76,0,97.14,0v-49.82H2514.62z"/>
		<rect x="2514.14" y="1918.2" class="st9" width="238.05" height="17.74"/>
		<rect x="2514.14" y="1897.09" class="st9" width="238.05" height="14.36"/>
		<rect x="2605.71" y="1874.7" class="st12" width="54.9" height="73.49"/>
	</g>
	<text transform="matrix(0.7636 0 0 1 2477.7444 1755.6093)" class="st13 st14 st15">MIMENTO USER</text>
	<text transform="matrix(0.8515 0 0 1 2514.1428 2342.3699)" class="st2 st14 st16">XXXX-XXXX-XXXX-123</text>
	<circle class="st17" cx="3542.04" cy="2276.95" r="81.09"/>
	<circle class="st18" cx="3638.39" cy="2276.95" r="81.09"/>
</g>
<path class="st19" d="M3857.6,4163.17H2283.75c-94.29,0-170.72-76.44-170.72-170.72V1002.11c0-94.29,76.44-170.72,170.72-170.72
	H3857.6c94.29,0,170.72,76.44,170.72,170.72v2990.34C4028.32,4086.74,3951.89,4163.17,3857.6,4163.17z"/>
<path class="st20" d="M844.7,5096.54l446.12-673.7l74.35-1321.83c24.77-73.56,77.66-199.42,190.01-322.2
	c109.7-119.87,227.09-183.27,297.41-214.8c6.33-4.92,19.97-14.1,39.47-16.52c31.36-3.9,54.41,12.56,59.67,16.52
	c17.69,115.81,30.88,248.99,33.05,396.55c1.92,130.48-5.12,249.67-16.52,355.24c2.87,12.29,9.62,33.49,26.62,54.16
	c26.35,32.03,60.22,41.99,72.52,44.98c-2.22-108.88-0.22-227.14,8.26-353.4c8.85-131.68,23.54-253.86,41.31-365.34
	c36.66-88.34,127.06-133.33,202.86-111.99c83.01,23.37,109.73,115.36,111.07,120.25c0,228.56,0,457.13,0,685.7
	c12.12,56.81,22.48,116.83,30.29,179.92c33.63,271.39,9.47,512.01-30.29,704.06c-32.62,73.15-87.29,180.4-175.33,296.49
	c-67.29,88.73-107.6,121.35-176.24,209.29c-54.1,69.32-126.08,173.37-193.68,316.62C1538.66,5096.54,1191.68,5096.54,844.7,5096.54z
	"/>
<path class="st20" d="M4008.82,5096.54h1206.17c-30.96-56.33-63.04-124.07-90.88-202.8c-37.54-106.18-56.95-202.91-67.11-282.15
	c10.37-171.36,11.23-317.02,9.28-428.33c-6.54-373.74-46.4-456.15-107.4-495.68c-52.89-34.29-116.4-32.91-165.23-24.78
	c-12.45-32.54-47.68-111.59-132.18-173.49c-93.06-68.17-189.02-73.9-223.06-74.35c-66.09,0-132.18,0-198.27,0
	c-14.02-11.45-86.53-68.3-190.01-57.83c-118.89,12.03-181.67,103.11-190.01,115.66c-104.64-236.83-209.29-473.65-313.93-710.48
	c-44.98-53.8-114.62-76.69-173.49-57.83c-77.7,24.9-128.06,119.82-99.14,214.8c23.59,115.94,61.13,253.87,122.34,403.65
	c72.86,178.28,158.45,322.46,234.51,432.17c-19.51,59.24-37.33,125-51.18,196.85c-37.88,196.53-32.86,370.32-16.52,503.95
	c28.13,90.92,79.02,219.64,173.49,355.24C3830.48,4946.45,3933.38,5038.67,4008.82,5096.54z"/>
<path class="st21" d="M5496.1,1004.89h-455c-128.06,0-234.84,91.05-259.16,211.94L4321,1452.4l456.82,295.87
	c12.13,134.75,125.36,240.36,263.27,240.36h455c146.01,0,264.37-118.36,264.37-264.37v-455.01
	C5760.46,1123.25,5642.1,1004.89,5496.1,1004.89z"/>
<path class="st22" d="M5040.73,1560.16l140.03,112.9c13.73-45.95,38.19-108.64,83.26-174.09c64.59-93.81,141.13-149.2,189.23-178.51
	"/>
</svg>
