<?xml version="1.0" encoding="utf-8"?>
<!-- Generator: Adobe Illustrator 24.1.3, SVG Export Plug-In . SVG Version: 6.00 Build 0)  -->
<svg version="1.1" id="Layer_1" xmlns="http://www.w3.org/2000/svg" xmlns:xlink="http://www.w3.org/1999/xlink" x="0px" y="0px"
	 viewBox="0 0 6800 5600" style="enable-background:new 0 0 6800 5600;" xml:space="preserve">
<style type="text/css">
	.st0{opacity:0.31;fill:#2DB9E7;}
	.st1{fill:#0C3A4C;}
	.st2{fill:#F4DFCD;stroke:#F4DFCD;stroke-miterlimit:10;}
	.st3{fill:#E8BCB7;}
	.st4{fill:#F4DFCD;}
	.st5{fill:none;stroke:#FFFFFF;stroke-width:3;stroke-miterlimit:10;}
	.st6{fill:#FBC6D9;}
	.st7{fill:#227C48;}
	.st8{fill:#FFFFFF;}
	.st9{opacity:0.33;fill:none;stroke:#808080;stroke-width:18;stroke-miterlimit:10;}
	.st10{opacity:0.59;fill:none;stroke:#999999;stroke-width:8;stroke-miterlimit:10;}
	.st11{opacity:0.6;fill:none;stroke:#999999;stroke-width:14;stroke-linecap:round;stroke-linejoin:round;stroke-miterlimit:10;}
	.st12{opacity:0.5;fill:none;stroke:#999999;stroke-width:14;stroke-linecap:round;stroke-linejoin:round;stroke-miterlimit:10;}
	.st13{fill:#1B1464;}
	.st14{fill:#FFFFFF;stroke:#1B1464;stroke-width:23;stroke-linecap:round;stroke-linejoin:round;stroke-miterlimit:10;}
	.st15{fill:#FFFFFF;stroke:#1B1464;stroke-width:25;stroke-linecap:round;stroke-linejoin:round;stroke-miterlimit:10;}
	.st16{fill:#FFFFFF;stroke:#1B1464;stroke-width:55;stroke-linejoin:round;stroke-miterlimit:10;stroke-dasharray:29,30;}
	.st17{fill:#FFFFFF;stroke:#1B1464;stroke-width:40;stroke-miterlimit:10;stroke-dasharray:40,30;}
	.st18{fill:#FDB142;}
	.st19{fill:#4D4D4D;stroke:#4D4D4D;stroke-width:12;stroke-linecap:round;stroke-linejoin:round;stroke-miterlimit:10;}
	.st20{fill:#999999;stroke:#999999;stroke-width:12;stroke-linecap:round;stroke-linejoin:round;stroke-miterlimit:10;}
</style>
<path class="st0" d="M5497.09,5194.3H854.17c-268.46,0-486.09-217.63-486.09-486.09V740.9c0-268.46,217.63-486.09,486.09-486.09
	h4642.92c268.46,0,486.09,217.63,486.09,486.09v3967.31C5983.17,4976.67,5765.55,5194.3,5497.09,5194.3z"/>
<g>
	<path class="st1" d="M3665.91,4660.27c17.2,5.84,208.16,67.24,353.63-49.58c84.64-67.97,108.35-159.71,117.46-197.16
		c49.67-204.15-83.87-371.19-109.07-402.7c-30.14-37.7-96.27-118.17-213.94-155.21c-68.63-21.61-129.01-20.32-166.44-16.51
		c-46.93,93.86-93.86,187.72-140.79,281.58c-100.26-93.86-200.52-187.72-300.78-281.58c-37.8-3.6-98.29-4.84-165.67,16.53
		c-280.21,88.88-479.12,505.31-345.93,771.99c75.11,150.38,230.7,202.83,238.7,205.39c166.69,53.42,309.34-23.63,335.28-38.24
		c-5.41-65.56-10.81-131.11-16.22-196.67c-6.34,4.62-126.72,89.29-256.13,33.56c-92.21-39.71-127.78-124.33-138.43-155.21
		c-43.84-127.07,27.11-233.94,33.56-243.3c49.19-71.39,118.48-97.58,142.78-105.54c-5.69,17.24-13.17,41.07-20.98,69.72
		c0,0-21.23,78.45-34.13,163.33c-20.32,133.68-19.77,250.78-12.8,342.37c0.56-0.01,1.12-0.02,1.68-0.03l25.25,465.59
		c264.61,5.16,529.21,10.32,793.82,15.49c19.19,1.24,38.39,2.48,57.58,3.71c11.63-169.1,23.25-338.21,34.88-507.31
		c10.75-55.12,18.91-121.11,18.8-195.66c-0.21-136.77-28.21-249.72-55.28-328.94c15.33,6.58,59.58,27.95,84.52,77.27
		c33.7,66.65,14.22,148.87-31.08,192.56c-26.04,25.12-55.41,32.48-111.55,46.55c-48.86,12.24-90.85,15.04-119.91,15.3
		C3665.12,4545.13,3665.52,4602.7,3665.91,4660.27z M3873.8,4690.84c0.1-0.06,0.2-0.12,0.3-0.19c-0.14,0.38-0.28,0.77-0.42,1.15
		C3873.72,4691.48,3873.76,4691.16,3873.8,4690.84z"/>
	<g>
		<g>
			<path class="st2" d="M2956.61,2972.16c-28.24-19.78-61.87-31.79-96.26-34.37c-15.62-1.17-31.76-0.35-46.16,5.8
				c-37.71,16.1-51.87,62.45-53.36,103.42c-2.29,63.1,15.15,126.77,49.27,179.89c16.48,25.65,38.25,49.89,67.29,59.16
				c29.04,9.27,66.04-1.56,77.75-29.7c-21.38-68.21-25.17-136.37-20.55-207.71C2936.09,3025.44,2941.94,2990.22,2956.61,2972.16z"/>
			<path class="st3" d="M2926.62,3066.16c0.61-29.53-18.85-54.89-44.56-60.95c-30.53-7.19-64.59,14.06-71.7,49.14
				c7.94-4.36,32.89-16.74,65.41-11.68C2901.89,3046.74,2919.35,3059.95,2926.62,3066.16z"/>
		</g>
		<path class="st3" d="M2923.41,3101.93c-25.85,5.52-43.32,29.88-40.39,55.5c2.8,24.55,23.61,43.91,48.9,44.94
			C2929.08,3168.88,2926.25,3135.4,2923.41,3101.93z"/>
	</g>
	<path class="st4" d="M4041.01,2674.75c-15.24,90.41-26.01,162.26-32.23,204.99c-42.67,293.09-56.24,468.62-159.72,627.45
		c-3.45,5.29-6.55,9.66-9.28,13.42c-41.23,56.83-120.5,144.64-270.98,211.61c-75.76,0-151.51,0-227.27,0
		c-58.55-21.85-105.35-48.11-142.53-74.29c0,0-45.61-32.52-84.75-73.83c-116.17-122.63-167.08-393.27-192.13-559.7
		c-13.1-87.05-28.27-206.26-37.88-349.65c117.37-208.09,338.18-337.47,576.92-337.99
		C3700.95,2336.23,3923.13,2465.76,4041.01,2674.75z"/>
	<path class="st3" d="M3467,3729.52c-0.97-464.26-1.94-928.51-2.91-1392.77c-60.31,0.15-190.68,8.59-329.25,87.41
		c-145.69,82.86-220.72,198.17-250.58,250.58c1.58,182.99,22.79,333.91,43.71,442.89c44.11,229.85,75.61,382.7,203.96,498.25
		c73.52,66.19,153.79,97.6,209.79,113.64C3383.47,3729.52,3425.24,3729.52,3467,3729.52z"/>
	<path class="st5" d="M3550.45,3200.55c9.46,19.97-3.85,44.74-23.08,55.62c-19.23,10.88-42.38,11.5-64.48,11.84
		c-11.17,0.17-22.35,0.35-33.52,0.52c-20.17,0.31-41.28,0.41-59.19-8.86c-17.91-9.28-30.99-31.22-23.37-49.89"/>
	<polygon class="st4" points="3550.14,3732.96 3550.14,3884.47 3550.14,4001.02 3489.19,4035.98 3410.82,4035.98 3323.74,3986.45 
		3323.74,3732.96 	"/>
	<path class="st6" d="M3436.23,3722.03"/>
	<path class="st3" d="M3552.22,3731.5c-75.97,47.25-151.93,94.5-227.9,141.75c0.21-47.25,0.42-94.5,0.63-141.75H3552.22z"/>
	<path class="st7" d="M2983.99,2819.61c-0.65,21.43-3.13,47.43-9.59,76.38c-7.03,31.5-16.88,57.95-26.22,78.67
		c-7.03,54.76-14.07,109.52-21.1,164.28c-17.44-39.97-36.73-95.7-45.91-164.28c-7.12-53.2-6.26-99.92-2.91-136.95
		C2913.5,2831.68,2948.75,2825.64,2983.99,2819.61z"/>
	<g>
		<path class="st2" d="M3959.02,2954.74c29.9-17.17,64.47-26.12,98.95-25.62c15.66,0.23,31.67,2.49,45.46,9.91
			c36.12,19.41,46.08,66.84,43.89,107.78c-3.36,63.05-26.43,124.91-65.17,174.76c-18.7,24.07-42.56,46.27-72.31,52.9
			s-65.64-7.46-74.78-36.54c27.4-66.02,37.27-133.58,39.05-205.04C3974.69,3009.64,3972.01,2974.04,3959.02,2954.74z"/>
		<path class="st3" d="M3980.47,3051.05c2.03-29.47,23.68-52.98,49.83-56.72c31.05-4.43,63.07,19.79,67.02,55.36
			c-7.52-5.06-31.26-19.61-64.1-17.48C4006.84,3033.92,3988.27,3045.51,3980.47,3051.05z"/>
	</g>
	<path class="st3" d="M3980.47,3086.95c25.25,7.81,40.47,33.64,35.26,58.89c-4.99,24.2-27.45,41.62-52.72,40.38
		C3968.83,3153.13,3974.65,3120.04,3980.47,3086.95z"/>
	<path class="st7" d="M2878.43,2846.66c98.01-19.25,214.55-50.39,340.91-101.98c93.58-38.21,174.75-80.36,243.3-121.04
		c31.39,17.76,68.82,35.78,112.18,51.11c90.88,32.12,172.84,40.03,232.79,40.46c11.17,12.73,26.36,27.66,46.25,41.87
		c28.39,20.28,55.71,31.5,75.76,37.88c14.66,106.36,29.32,212.73,43.98,319.09c41.53-73.25,99.77-204.6,81.31-362.8
		c-3.16-27.04-8.25-52.33-14.57-75.76c-28.6-51.68-101.96-167.86-246.99-251.32c-138.94-79.95-270.13-87.56-329.25-87.41
		c-51.61-3.98-204.02-9.02-358.39,87.41c-136.07,85-198.75,202.05-221.44,250.58C2882.31,2732.05,2880.37,2789.36,2878.43,2846.66z"
		/>
	<path class="st8" d="M3218.16,3803.91l102.39-41.6v127.99l67.19,38.4h86.39l95.99-54.4l-3.36-111.99l73.75,41.6
		c25.33,79.49,50.65,158.98,75.98,238.47c-187.72,0-375.44,0-563.16,0C3174.96,3962.89,3196.56,3883.4,3218.16,3803.91z"/>
	<polygon class="st8" points="3218.8,3808.86 3321.19,3767.26 3321.19,3895.25 3388.39,3933.65 3474.78,3933.65 3570.77,3879.25 
		3567.41,3767.26 3641.17,3808.86 3721.16,4058.44 3599.57,4144.83 3692.36,4144.83 3449.18,4484 3177.2,4154.43 3254,4144.83 
		3154.81,4048.84 	"/>
	<path class="st9" d="M3663.5,4647.25c33.36,17.07,72.35,17.97,109.81,18.51c35.93,0.52,71.86,1.04,107.78,1.56"/>
	<path class="st10" d="M3656.87,4479.91c80.28,9.62,163.45-6.46,234.35-45.32"/>
	<path class="st11" d="M2960.3,4612.03c48.32,27.08,107.8,31.78,161.06,16.52c53.25-15.26,100.17-49.56,134.32-93.18"/>
	<path class="st12" d="M2977.84,4843.71c104.45-1.31,207.83-43.86,282.94-116.45"/>
	<g>
		<path class="st13" d="M3631.2,4794.77h-352.93c-14.43,0-26.13-11.7-26.13-26.13v-474.41c0-14.43,11.7-26.13,26.13-26.13h352.93
			c14.43,0,26.13,11.7,26.13,26.13v474.41C3657.33,4783.07,3645.63,4794.77,3631.2,4794.77z"/>
		<g>
			<path class="st4" d="M3561.36,4583.38l98.09-11.05c7.35-0.83,12.61-7.78,11.73-15.52l-2.24-19.91
				c-0.87-7.75-7.54-13.35-14.89-12.52l-98.09,11.05c-2.88,0.76-6.22,2.24-8.95,5.17c-9.32,10.01-6.84,32.05,4.48,39.74
				C3554.8,4582.58,3558.39,4583.27,3561.36,4583.38z"/>
			<path class="st4" d="M3551.31,4534.98l103.3-11.89c7.74-0.89,13.3-7.89,12.41-15.63l-2.29-19.9c-0.89-7.74-7.89-13.3-15.63-12.41
				l-103.3,11.89c-3.04,0.79-6.56,2.29-9.44,5.25c-9.85,10.1-7.31,32.13,4.57,39.73C3544.4,4534.24,3548.17,4534.9,3551.31,4534.98z
				"/>
			<path class="st4" d="M3564.55,4632.65l98.13-10.66c7.36-0.8,12.64-7.73,11.79-15.48l-2.16-19.91
				c-0.84-7.75-7.49-13.38-14.84-12.58l-98.13,10.66c-2.88,0.75-6.23,2.21-8.97,5.13c-9.36,9.98-6.96,32.02,4.32,39.76
				C3557.99,4631.83,3561.57,4632.53,3564.55,4632.65z"/>
			<path class="st4" d="M3579.95,4668.09l85.97-7.82c6.44-0.59,11.24-5.79,10.71-11.63l-1.36-15c-0.53-5.84-6.19-10.09-12.63-9.5
				l-85.97,7.82c-2.54,0.56-5.5,1.65-7.97,3.85c-8.43,7.49-6.92,24.09,2.72,29.94C3574.24,4667.46,3577.35,4668,3579.95,4668.09z"/>
		</g>
	</g>
</g>
<path class="st14" d="M5443.1,2622.18h-455c-128.06,0-234.84,91.05-259.16,211.94L4268,3069.69l456.82,295.87
	c12.13,134.75,125.36,240.36,263.27,240.36h455c146.01,0,264.37-118.36,264.37-264.37v-455.01
	C5707.47,2740.54,5589.11,2622.18,5443.1,2622.18z"/>
<path class="st15" d="M2850.58,2532.37l-288.97-508.4V1851.6c0-103.82-84.17-187.99-187.99-187.99H799.34
	c-103.82,0-187.99,84.17-187.99,187.99v545.41c0,103.82,84.17,187.99,187.99,187.99h1574.27c49.64,0,94.79-19.25,128.39-50.69
	l278.88,85.12C2832.79,2635.27,2877.39,2579.55,2850.58,2532.37z"/>
<line class="st16" x1="3467" y1="2307.33" x2="3467" y2="1680.65"/>
<circle class="st17" cx="3475.82" cy="1108.6" r="543.9"/>
<g>
	<g>
		<path class="st2" d="M3730.2,993.47c13.7-9.6,30.02-15.42,46.71-16.68c7.58-0.57,15.41-0.17,22.4,2.81
			c18.3,7.81,25.17,30.3,25.89,50.18c1.11,30.62-7.35,61.51-23.91,87.29c-7.99,12.44-18.56,24.21-32.65,28.71
			c-14.09,4.5-32.04-0.76-37.73-14.41c10.38-33.1,12.21-66.17,9.97-100.79C3740.15,1019.32,3737.32,1002.23,3730.2,993.47z"/>
		<path class="st3" d="M3744.75,1039.08c-0.3-14.33,9.15-26.63,21.62-29.57c14.81-3.49,31.34,6.82,34.79,23.85
			c-3.85-2.12-15.96-8.12-31.74-5.67C3756.75,1029.66,3748.28,1036.06,3744.75,1039.08z"/>
	</g>
	<path class="st3" d="M3746.31,1056.43c12.54,2.68,21.02,14.5,19.6,26.93c-1.36,11.91-11.46,21.31-23.73,21.8
		C3743.56,1088.92,3744.93,1072.68,3746.31,1056.43z"/>
</g>
<path class="st18" d="M3305.72,868.33c-5.42,6.18-12.79,13.42-22.44,20.31c-13.78,9.84-27.03,15.28-36.76,18.38
	c-7.11,51.61-14.23,103.22-21.34,154.83c-40.45-78.45-42.31-140.74-39.45-176.04c0.47-5.83,2.92-35.98,6.71-36.01
	c8.36-0.08,24.03,145.92,15.55,289.83c-5.87,99.63-22.33,181.59-36.76,238.94c205.95,1.41,411.89,2.83,617.84,4.24
	c-18.29-82.29-33.89-180.31-39.59-291.25c-4.59-89.39-1.92-170.65,4.24-241.76"/>
<path class="st4" d="M3192.71,849.16c7.39,43.87,12.62,78.73,15.64,99.47c20.7,142.22,27.29,227.39,77.5,304.46
	c1.67,2.57,3.18,4.69,4.5,6.51c20,27.57,58.47,70.18,131.49,102.68c36.76,0,73.52,0,110.28,0c28.41-10.6,51.12-23.35,69.16-36.05
	c0,0,22.13-15.78,41.12-35.83c56.37-59.5,81.07-190.83,93.23-271.58c6.36-42.24,13.72-100.08,18.38-169.66
	c-56.95-100.97-164.09-163.75-279.94-164C3357.72,684.9,3249.91,747.75,3192.71,849.16z"/>
<path class="st3" d="M3471.23,1360.96c0.47-225.27,0.94-450.54,1.41-675.81c29.26,0.07,92.52,4.17,159.76,42.41
	c70.69,40.21,107.1,96.16,121.59,121.59c-0.77,88.79-11.06,162.02-21.21,214.9c-21.4,111.53-36.69,185.69-98.97,241.76
	c-35.67,32.12-74.62,47.36-101.79,55.14C3511.76,1360.96,3491.5,1360.96,3471.23,1360.96z"/>
<path class="st5" d="M3430.74,1104.29c-4.59,9.69,1.87,21.71,11.2,26.99s20.57,5.58,31.29,5.75c5.42,0.08,10.84,0.17,16.26,0.25
	c9.79,0.15,20.03,0.2,28.72-4.3c8.69-4.5,15.04-15.15,11.34-24.21"/>
<polygon class="st4" points="3421.83,1362.27 3421.83,1435.79 3421.83,1492.34 3451.53,1509.31 3489.7,1509.31 3532.11,1485.27 
	3532.11,1362.27 "/>
<path class="st6" d="M3486.16,1357.32"/>
<path class="st3" d="M3420.82,1361.57c36.86,22.93,73.72,45.85,110.58,68.78c-0.1-22.93-0.2-45.85-0.3-68.78H3420.82z"/>
<path class="st18" d="M3705.6,919.45c0.31,10.4,1.52,23.01,4.65,37.06c3.41,15.29,8.19,28.12,12.72,38.17
	c3.41,26.57,6.83,53.14,10.24,79.71c8.46-19.39,17.82-46.44,22.28-79.71c3.46-25.81,3.04-48.48,1.41-66.45
	C3739.81,925.3,3722.7,922.37,3705.6,919.45z"/>
<g>
	<path class="st2" d="M3232.49,985.02c-14.51-8.33-31.28-12.68-48.01-12.43c-7.6,0.11-15.36,1.21-22.06,4.81
		c-17.52,9.42-22.36,32.43-21.3,52.3c1.63,30.59,12.82,60.61,31.62,84.8c9.08,11.68,20.65,22.45,35.09,25.67
		c14.44,3.22,31.85-3.62,36.28-17.73c-13.3-32.04-18.08-64.81-18.95-99.49C3224.89,1011.66,3226.19,994.38,3232.49,985.02z"/>
	<path class="st3" d="M3222.08,1031.75c-0.99-14.3-11.49-25.71-24.18-27.52c-15.06-2.15-30.6,9.6-32.52,26.86
		c3.65-2.45,15.17-9.52,31.1-8.48C3209.29,1023.43,3218.3,1029.06,3222.08,1031.75z"/>
</g>
<path class="st3" d="M3222.08,1049.17c-12.25,3.79-19.64,16.32-17.11,28.57c2.42,11.74,13.32,20.2,25.58,19.59
	C3227.73,1081.28,3224.91,1065.23,3222.08,1049.17z"/>
<path class="st8" d="M3376.59,1454.17l45.24-18.38v56.55l29.69,16.97h38.17l42.41-24.03l-1.48-49.48l32.59,18.38
	c11.19,35.12,22.38,70.25,33.57,105.37c-82.94,0-165.89,0-248.83,0C3357.5,1524.42,3367.05,1489.29,3376.59,1454.17z"/>
<path class="st18" d="M3756.82,932.57c-47.56-9.34-104.1-24.45-165.42-49.48c-45.41-18.54-84.79-38.99-118.05-58.73
	c-15.23,8.62-33.39,17.36-54.43,24.8c-44.09,15.59-83.87,19.42-112.96,19.63c-5.42,6.18-12.79,13.42-22.44,20.31
	c-13.78,9.84-27.03,15.28-36.76,18.38c-7.11,51.61-14.23,103.22-21.34,154.83c-20.15-35.55-48.41-99.28-39.45-176.04
	c1.53-13.12,4.01-25.39,7.07-36.76c13.88-25.07,49.47-81.45,119.85-121.95c67.41-38.79,131.07-42.49,159.76-42.41
	c25.04-1.93,98.99-4.38,173.9,42.41c66.03,41.25,96.44,98.04,107.45,121.59C3754.94,876.96,3755.88,904.77,3756.82,932.57z"/>
<rect x="740.07" y="1799.36" class="st19" width="1682.86" height="35.95"/>
<rect x="740.07" y="1928.21" class="st20" width="1507.56" height="35.95"/>
<rect x="740.07" y="2086.2" class="st20" width="1507.56" height="35.95"/>
<rect x="740.07" y="2243.64" class="st20" width="1507.56" height="35.95"/>
<rect x="4926.19" y="2795.75" class="st19" width="695.79" height="40.12"/>
<rect x="5065.84" y="3010.93" class="st20" width="556.14" height="40.12"/>
<rect x="5065.84" y="3113.95" class="st20" width="556.14" height="40.12"/>
<rect x="5065.84" y="3201.79" class="st20" width="556.14" height="40.12"/>
<rect x="4926.19" y="2873.54" class="st19" width="695.79" height="40.12"/>
</svg>
