<?xml version="1.0" encoding="utf-8"?>
<!-- Generator: Adobe Illustrator 24.1.2, SVG Export Plug-In . SVG Version: 6.00 Build 0)  -->
<svg version="1.1" id="Layer_1" xmlns="http://www.w3.org/2000/svg" xmlns:xlink="http://www.w3.org/1999/xlink" x="0px" y="0px"
	 viewBox="0 0 300 280" style="enable-background:new 0 0 300 280;" xml:space="preserve">
<style type="text/css">
	.st0{fill:#F7E8DC;stroke:#F7E8DC;stroke-miterlimit:10;}
	.st1{fill:#EFD2CD;}
	.st2{fill:#FFC765;}
	.st3{fill:#D9687F;stroke:#D9687F;stroke-width:2.9998;stroke-miterlimit:9.9996;}
	.st4{fill:#3C57A4;stroke:#3C57A4;stroke-width:3;stroke-miterlimit:10;}
	.st5{fill:#F7E8DC;}
	.st6{fill:#2DB9E7;stroke:#2DB9E7;stroke-width:3;stroke-miterlimit:10;}
	.st7{fill:none;stroke:#FFFFFF;stroke-width:2;stroke-miterlimit:10;}
	.st8{fill:#FDB142;stroke:#FDB142;stroke-width:3;stroke-miterlimit:10;}
	.st9{fill:#FD9E01;stroke:#FD9E01;stroke-width:3;stroke-miterlimit:10;}
	.st10{fill:#FFFFFF;}
	.st11{fill:none;stroke:#FFFFFF;stroke-miterlimit:10;}
	.st12{fill:#D9687F;}
	.st13{fill:#C46066;}
	.st14{fill:#38BDE2;}
	.st15{fill:#FD9E01;}
	.st16{fill:#3C57A4;}
	.st17{fill:#FDB142;}
</style>
<g>
	<g>
		<path class="st0" d="M95.98,122.15c-1.37-3.08-3.58-5.78-6.33-7.73c-1.25-0.88-2.65-1.63-4.16-1.84c-3.97-0.55-7.5,2.62-9.69,5.98
			c-3.37,5.17-5.12,11.39-4.94,17.56c0.09,2.98,0.69,6.11,2.66,8.35c1.97,2.24,5.61,3.2,8.01,1.43c1.65-6.8,4.77-12.7,8.75-18.44
			C91.58,125.58,93.84,122.93,95.98,122.15z"/>
		<path class="st1" d="M88.73,128.51c1.54-2.45,1.19-5.55-0.66-7.36c-2.19-2.14-6.12-2.08-8.48,0.5c0.88,0.04,3.6,0.26,6.07,2.32
			C87.63,125.64,88.43,127.63,88.73,128.51z"/>
	</g>
	<path class="st1" d="M86.66,131.35c-2.45-0.84-5.14,0.32-6.18,2.61c-1,2.2-0.24,4.87,1.83,6.23
		C83.75,137.25,85.21,134.3,86.66,131.35z"/>
</g>
<path class="st1" d="M86.39,125.98c-2.45-0.84-5.14,0.32-6.18,2.61c-1,2.2-0.24,4.87,1.83,6.23
	C83.49,131.88,84.94,128.93,86.39,125.98z"/>
<path class="st2" d="M179.38,150.35c0.15,1.65,0.48,3.71,1.24,5.98c1.07,3.24,2.58,5.7,3.79,7.36c-4.98,9.24-9.96,18.49-14.94,27.73
	c15.91-7.96,23.63-17.87,27.36-23.95c0.61-1,3.81-6.2,3.19-6.66c-1.35-1.01-21.27,20.89-37.01,45.32
	c-10.9,16.91-17.96,32.21-22.44,43.26c-33.69-24.27-67.37-48.53-101.06-72.8c12.77-11.22,26.96-25.31,41.08-42.69
	c11.38-14,20.61-27.55,28.07-39.85"/>
<ellipse transform="matrix(0.5901 -0.8073 0.8073 0.5901 -39.5436 176.7869)" class="st3" cx="154.33" cy="127.34" rx="4.92" ry="56.57"/>
<path class="st4" d="M238.15,142.62c-5.57,2.13-15.38,5.03-27.77,4.39c-10.38-0.53-18.55-3.35-23.68-5.59
	c0.36,1.29,1.52,4.79,4.87,6.98c4.35,2.83,10.59,2.32,15.5-1.44c4.26,0.12,8.52,0.24,12.79,0.36
	c-7.04,12.11-21.94,16.26-32.78,10.48c-8.88-4.74-13.87-15.53-11.81-26.47c0.25-1.56,0.87-3.76,2.65-5.17
	c5.5-4.34,15.68,3.91,29.17,6.15c6.15,1.02,15.04,1.12,26.57-3.29c-0.03,1.79,0.14,4.58,1.28,7.73
	C235.89,139.36,237.15,141.32,238.15,142.62z"/>
<path class="st5" d="M200.05,160.65c-3.54,3.81-9.12,9.73-16.15,16.79c-33.64,33.78-44.64,37.7-49,39.02
	c-6.41,1.94-17.56,4.05-33.17,0.46c-5.98-4.37-11.96-8.75-17.95-13.12c-6.82-10.08-8.94-18.8-9.71-24.39
	c-3.32-24.22,11.18-46.24,27.01-70.27c3.65-5.54,6.87-9.96,9.02-12.82c11.14,10.46,24.21,21.58,39.33,32.63
	C167.38,142.07,184.6,152.45,200.05,160.65z"/>
<path class="st6" d="M209.82,133.42l11.87-1.41c-0.45-6.67-4.46-12.29-9.81-13.95c-7.32-2.28-16.81,2.95-19.14,12.81
	c-0.4,2.31-1.74,8.16-6.75,13.34c-6.26,6.46-13.96,7.42-16.06,7.61c-1.79,2.31-1.97,5.46-0.47,7.86c1.34,2.16,3.84,3.39,6.43,3.17
	c2.6-0.24,11.21-1.38,18.54-8.5c8.57-8.32,9.18-18.78,9.26-21.03c0.63-1.4,2.07-2.23,3.49-2.03
	C208.37,131.45,209.38,132.28,209.82,133.42z"/>
<path class="st2" d="M107.95,111.97c-1.29,1.66-2.98,3.56-5.17,5.48c-2.38,2.08-4.68,3.6-6.61,4.7c-3.72,3.92-7.43,7.84-11.15,11.75
	c0.93-4.16,2.62-9.68,5.86-15.62c2.51-4.62,5.27-8.25,7.68-10.98C101.69,108.86,104.82,110.41,107.95,111.97z"/>
<path class="st7" d="M164.06,114.89c-1.32,1-3.15,1.34-4.83,0.89c-1.69-0.45-3.19-1.66-3.97-3.2c-0.71-1.4-0.82-3.02-0.54-4.5
	c0.28-1.48,0.94-2.85,1.71-4.13"/>
<path class="st7" d="M148.88,107.88c-1.07,0.43-2.37,0.15-3.37-0.51c-1.01-0.66-1.74-1.66-2.28-2.72"/>
<g>
	<g>
		<path class="st0" d="M177.42,178.06c3.35,0.37,6.6,1.66,9.29,3.69c1.22,0.92,2.36,2.03,3.02,3.4c1.73,3.62-0.22,7.94-2.75,11.04
			c-3.91,4.78-9.3,8.34-15.23,10.04c-2.87,0.82-6.03,1.2-8.77,0.01c-2.73-1.19-4.75-4.38-3.79-7.2c5.98-3.63,10.65-8.4,14.92-13.94
			C175.49,183.3,177.33,180.33,177.42,178.06z"/>
		<path class="st1" d="M173.55,186.9c1.86-2.21,4.93-2.82,7.21-1.61c2.71,1.44,3.84,5.2,2.09,8.24c-0.3-0.83-1.34-3.35-4.05-5.08
			C176.63,187.07,174.49,186.91,173.55,186.9z"/>
	</g>
	<path class="st1" d="M171.48,189.73c1.54,2.08,1.25,4.99-0.61,6.68c-1.79,1.62-4.57,1.7-6.5,0.14
		C166.74,194.29,169.11,192.02,171.48,189.73z"/>
</g>
<polygon class="st5" points="102.17,220.28 92.49,233.54 85.03,243.73 77.45,242.88 70.57,237.85 66.09,227.93 82.29,205.76 "/>
<path class="st1" d="M102.24,220.14c-9.66-0.72-19.33-1.45-28.99-2.17c3.04-4.12,6.08-8.24,9.12-12.36L102.24,220.14z"/>
<path class="st8" d="M145.8,65.88c2.13,5.57,5.03,15.38,4.39,27.77c-0.53,10.38-3.35,18.55-5.59,23.67
	c1.29-0.36,4.79-1.52,6.98-4.87c2.83-4.35,2.32-10.59-1.44-15.5c0.12-4.26,0.24-8.52,0.36-12.79c12.11,7.04,16.26,21.94,10.48,32.78
	c-4.74,8.88-15.53,13.87-26.47,11.81c-1.56-0.25-3.76-0.87-5.17-2.65c-4.34-5.5,3.91-15.68,6.15-29.17
	c1.02-6.15,1.12-15.04-3.29-26.57c1.79,0.03,4.58-0.14,7.73-1.28C142.54,68.15,144.5,66.87,145.8,65.88z"/>
<path class="st9" d="M136.6,94.21l-1.41-11.87c-6.67,0.45-12.29,4.46-13.95,9.81c-2.28,7.32,2.95,16.82,12.81,19.14
	c2.31,0.4,8.16,1.74,13.34,6.75c6.46,6.26,7.42,13.96,7.61,16.06c2.31,1.79,5.46,1.97,7.86,0.47c2.16-1.34,3.39-3.84,3.17-6.43
	c-0.24-2.6-1.38-11.21-8.5-18.54c-8.32-8.57-18.78-9.18-21.03-9.26c-1.4-0.63-2.23-2.07-2.03-3.49
	C134.63,95.66,135.45,94.66,136.6,94.21z"/>
<path class="st1" d="M109.98,96.4c5.48,5.15,23.6,18.82,42.44,32.35c3.26,2.35-3.71,12.13-13.19,22.98
	c-15.02,20.24-30.24,40.52-45.25,60.76c-4.23-2.28-7.77-5.54-10.67-9.37c-0.4-0.37-0.82-1.01-1.39-1.94l0.01-0.01
	c-4.32-6.46-6.95-14.25-7.97-21.68c-3.32-24.22,11.18-46.24,27.01-70.27C104.61,103.68,107.83,99.27,109.98,96.4z"/>
<path class="st2" d="M108.19,93.91c0.34,0.58,0.86,1.4,1.52,2.36c2.53,3.68,5.74,7.15,12.65,12.4c3.9,2.96,9.07,6.56,15.5,10.21
	c-6.04-0.23-14.15-1.15-23.28-4.08c-7.73-2.47-13.97-5.66-18.64-8.48C100.03,102.18,104.11,98.05,108.19,93.91z"/>
<path class="st10" d="M96.56,195.37c1.71,3.29,4.83,5.81,8.41,6.77c-1.06,0.61-2.11,0.74-3.32,0.58c-1.85-0.24-3.51-1.43-4.54-2.98
	C96.19,198.36,95.8,196.82,96.56,195.37z"/>
<path class="st11" d="M130.97,173.89c-0.41,2.13-2.88,3.31-5.04,3.06c-2.15-0.25-4.01-1.54-5.78-2.78
	c-0.89-0.63-1.79-1.26-2.68-1.89c-1.61-1.14-3.29-2.35-4.16-4.11c-0.88-1.76-0.65-4.25,1.03-5.29"/>
<path class="st12" d="M134.79,193.44c-1.44,1.86-4.97,5.86-10.85,7.6c-10.57,3.13-19.49-3.81-21.45-5.44
	c-1.86-1.56-8.58-7.16-8.87-16.37c-0.18-5.93,2.4-10.35,3.61-12.18c6.31,3.67,13.01,7.91,19.94,12.81
	C123.65,184.43,129.52,189.01,134.79,193.44z"/>
<path class="st10" d="M132.14,190.79c-4.02-0.77-11.05-2.65-18.33-7.76c-7.2-5.04-11.36-10.94-13.46-14.43
	c5.41,3.23,11.09,6.87,16.94,10.98C122.65,183.36,127.6,187.12,132.14,190.79z"/>
<path class="st13" d="M113.34,201.06c-2.42-0.61-6.68-2.02-10.9-5.49c-3.51-2.88-5.57-6.03-6.7-8.09c0.45-0.13,7.57-2.07,13.09,2.86
	C113.44,194.47,113.36,200.23,113.34,201.06z"/>
<circle class="st14" cx="246.77" cy="132.74" r="8.67"/>
<circle class="st15" cx="135.57" cy="59.53" r="8.67"/>
<path class="st16" d="M255.44,124.07c0.49,0.35,3.77,2.78,4.16,7.21c0.32,3.71-1.61,6.33-2.08,6.94c3.83-1.91,10.25-4.51,18.58-5.13
	c6.6-0.49,12.08,0.45,15.81,1.39c-0.48-0.78-1.61-2.84-1.52-5.69c0.08-2.62,1.16-4.5,1.66-5.27c-3.31-1.59-10.03-4.26-18.86-4.02
	C264.9,119.72,258.66,122.41,255.44,124.07z"/>
<path class="st17" d="M139.88,48.41c-0.54-0.28-4.2-2.08-8.31-0.4c-3.45,1.42-4.89,4.34-5.21,5.03c-0.05-4.28-0.68-11.17-3.96-18.87
	c-2.59-6.08-5.93-10.53-8.48-13.41c0.91,0.07,3.27,0.13,5.75-1.25c2.3-1.27,3.47-3.09,3.92-3.89c2.93,2.22,8.38,6.96,12.21,14.92
	C139.41,38.01,139.88,44.78,139.88,48.41z"/>
</svg>
