<?xml version="1.0" encoding="utf-8"?>
<!-- Generator: Adobe Illustrator 24.1.2, SVG Export Plug-In . SVG Version: 6.00 Build 0)  -->
<svg version="1.1" id="Layer_1" xmlns="http://www.w3.org/2000/svg" xmlns:xlink="http://www.w3.org/1999/xlink" x="0px" y="0px"
	 viewBox="0 0 300 280" style="enable-background:new 0 0 300 280;" xml:space="preserve">
<style type="text/css">
	.st0{fill:#F7E8DC;stroke:#F7E8DC;stroke-miterlimit:10;}
	.st1{fill:#EFD2CD;}
	.st2{fill:#D9687F;stroke:#D9687F;stroke-width:3;stroke-miterlimit:9.9997;}
	.st3{fill:#3C57A4;}
	.st4{fill:#FDB142;}
	.st5{fill:#005D72;}
	.st6{fill:#F7E8DC;}
	.st7{fill:#FCBC4B;}
	.st8{fill:#2D996D;}
	.st9{fill:#34A680;}
	.st10{fill:none;stroke:#FFFFFF;stroke-width:2;stroke-miterlimit:10;}
</style>
<g>
	<g>
		<path class="st0" d="M214.91,91.65c1.34-4.95,4.03-9.53,7.72-13.1c1.68-1.62,3.59-3.07,5.83-3.74c5.84-1.76,11.88,2.19,15.96,6.72
			c6.28,6.99,10.36,15.92,11.53,25.24c0.57,4.5,0.39,9.35-2.04,13.18c-2.43,3.83-7.69,6.12-11.72,4.03
			c-4.06-9.83-10.13-17.98-17.46-25.69C222.33,95.79,218.31,92.32,214.91,91.65z"/>
		<path class="st1" d="M227.31,99.53c-2.89-3.31-3.08-8.07-0.72-11.21c2.8-3.73,8.72-4.56,12.88-1.22
			c-1.32,0.26-5.35,1.22-8.58,4.91C228.28,94.96,227.54,98.13,227.31,99.53z"/>
	</g>
	<path class="st1" d="M231.08,103.32c3.48-1.84,7.8-0.72,9.91,2.49c2.02,3.07,1.5,7.27-1.3,9.8
		C236.82,111.5,233.95,107.4,231.08,103.32z"/>
</g>
<ellipse transform="matrix(0.7071 -0.7071 0.7071 0.7071 -42.3573 123.8981)" class="st2" cx="128.38" cy="113.08" rx="86.06" ry="7.47"/>
<g>
	<polygon class="st3" points="84.34,130.93 106.06,92.11 127.77,113.83 106.91,153.5 	"/>
	<polygon class="st3" points="48.78,145.29 84.34,130.93 106.91,153.5 71.01,167.52 	"/>
	<polygon class="st4" points="49.06,145.25 69.57,107.63 106.34,92.08 84.62,130.88 	"/>
	<path class="st3" d="M71.52,126.65l4.45,4.45c1.43-0.33,4.51-1.25,7.35-3.94c3.25-3.06,4.29-6.62,4.62-8.03
		c-1.48-1.48-2.96-2.96-4.45-4.45c-1.09,1.99-2.86,4.7-5.64,7.35C75.56,124.21,73.3,125.68,71.52,126.65z"/>
	<path class="st3" d="M53.32,134.44l4.45,4.45c1.43-0.33,4.51-1.25,7.35-3.94c3.25-3.06,4.29-6.62,4.62-8.03
		c-1.48-1.48-2.96-2.96-4.45-4.45c-1.09,1.99-2.86,4.7-5.64,7.35C57.36,132,55.1,133.47,53.32,134.44z"/>
	<path class="st3" d="M82.56,107.59l4.45,4.45c1.43-0.33,4.51-1.25,7.35-3.94c3.25-3.06,4.29-6.62,4.62-8.03
		c-1.48-1.48-2.96-2.96-4.45-4.45c-1.09,1.99-2.86,4.7-5.64,7.35C86.6,105.15,84.34,106.62,82.56,107.59z"/>
	
		<ellipse transform="matrix(0.7071 -0.7071 0.7071 0.7071 -62.574 90.1125)" class="st5" cx="77.49" cy="120.59" rx="8.47" ry="3.03"/>
	<path class="st3" d="M64.43,114.44l4.45,4.45c1.43-0.33,4.51-1.25,7.35-3.94c3.25-3.06,4.29-6.62,4.62-8.03
		c-1.48-1.48-2.96-2.96-4.45-4.45c-1.09,1.99-2.86,4.7-5.64,7.35C68.48,112,66.22,113.46,64.43,114.44z"/>
	
		<ellipse transform="matrix(0.7071 -0.7071 0.7071 0.7071 -73.3865 79.3674)" class="st5" cx="59.11" cy="128.27" rx="8.47" ry="3.03"/>
	
		<ellipse transform="matrix(0.7071 -0.7071 0.7071 0.7071 -45.847 92.1822)" class="st5" cx="88.35" cy="101.43" rx="8.47" ry="3.03"/>
	
		<ellipse transform="matrix(0.7071 -0.7071 0.7071 0.7071 -56.0952 81.5564)" class="st5" cx="70.4" cy="108.49" rx="8.47" ry="3.03"/>
</g>
<path class="st6" d="M67.46,173.86c6.22,4.91,15.99,12.49,28.21,21.46c58.47,42.92,75.92,46.25,82.78,47.22
	c10.1,1.42,27.35,1.99,49.97-7.05c7.97-7.97,15.94-15.94,23.91-23.91c7.89-16.75,9.05-30.35,8.89-38.93
	c-0.68-37.19-27.61-66.9-57.03-99.34c-6.78-7.48-12.65-13.36-16.55-17.17c-14.3,18.33-31.35,38.1-51.51,58.25
	C112.23,138.29,88.78,157.91,67.46,173.86z"/>
<g>
	<polygon class="st4" points="144,77.83 186.93,66.19 186.6,96.89 143.67,109.75 	"/>
	<polygon class="st4" points="108.86,62.45 144,77.83 143.67,109.75 108.53,93.89 	"/>
	<polygon class="st3" points="109.08,62.63 150.32,50.98 187.16,66.36 144.23,78 	"/>
	<path class="st4" d="M138.08,65.67l-0.06,6.29c1.24,0.79,4.05,2.34,7.95,2.5c4.47,0.18,7.73-1.57,8.97-2.32
		c0.02-2.1,0.05-4.19,0.06-6.29c-2.19,0.61-5.36,1.24-9.2,1.11C142.67,66.85,140.03,66.26,138.08,65.67z"/>
	<path class="st4" d="M119.79,58.11l-0.06,6.29c1.24,0.79,4.05,2.34,7.95,2.5c4.47,0.18,7.73-1.57,8.97-2.32
		c0.02-2.1,0.05-4.19,0.06-6.29c-2.19,0.61-5.36,1.24-9.2,1.11C124.37,59.29,121.73,58.71,119.79,58.11z"/>
	<path class="st4" d="M159.43,60.23l-0.06,6.29c1.24,0.79,4.05,2.34,7.95,2.5c4.47,0.18,7.73-1.57,8.97-2.32
		c0.02-2.1,0.05-4.19,0.06-6.29c-2.19,0.61-5.36,1.24-9.2,1.11C164,61.41,161.36,60.82,159.43,60.23z"/>
	
		<ellipse transform="matrix(0.0106 -0.9999 0.9999 0.0106 79.2878 211.5984)" class="st7" cx="146.57" cy="65.73" rx="3.03" ry="8.47"/>
	<path class="st4" d="M141.86,52.06l-0.06,6.29c1.24,0.79,4.05,2.34,7.95,2.5c4.47,0.18,7.73-1.57,8.97-2.32
		c0.02-2.1,0.05-4.19,0.06-6.29c-2.19,0.61-5.36,1.24-9.2,1.11C146.43,53.24,143.8,52.66,141.86,52.06z"/>
	
		<ellipse transform="matrix(0.0106 -0.9999 0.9999 0.0106 68.8853 185.5693)" class="st7" cx="128.22" cy="57.97" rx="3.03" ry="8.47"/>
	
		<ellipse transform="matrix(0.0106 -0.9999 0.9999 0.0106 105.9875 227.3037)" class="st7" cx="167.86" cy="60.09" rx="3.03" ry="8.47"/>
	
		<ellipse transform="matrix(0.0106 -0.9999 0.9999 0.0106 96.4605 201.8957)" class="st7" cx="150.25" cy="52.2" rx="3.03" ry="8.47"/>
</g>
<path class="st8" d="M193.31,80.38c2.32,2.19,5.32,4.67,9.04,7.02c4.05,2.58,7.87,4.32,11.04,5.52c6.5,5.03,13,10.04,19.51,15.07
	c-2.37-6.04-6.21-13.93-12.46-22.12c-4.85-6.35-9.85-11.18-14.1-14.72C202,74.23,197.66,77.3,193.31,80.38z"/>
<polygon class="st6" points="228.41,235.49 244.36,251.43 256.62,263.69 266.74,260.93 275.02,252.65 279,238.24 252.33,211.57 "/>
<path class="st1" d="M228.04,235.55c12.97-3.03,25.93-6.04,38.9-9.06c-5-4.95-9.99-9.9-14.99-14.85L228.04,235.55z"/>
<g>
	<g>
		<path class="st0" d="M105.54,194.74c-4.95,1.34-9.53,4.03-13.1,7.72c-1.62,1.68-3.07,3.59-3.74,5.83
			c-1.76,5.84,2.19,11.88,6.72,15.96c6.99,6.28,15.92,10.36,25.24,11.53c4.5,0.57,9.35,0.39,13.18-2.04
			c3.83-2.43,6.12-7.69,4.03-11.72c-9.83-4.06-17.98-10.13-25.69-17.46C109.68,202.16,106.21,198.13,105.54,194.74z"/>
		<path class="st1" d="M113.42,207.13c-3.31-2.89-8.07-3.08-11.21-0.72c-3.73,2.8-4.56,8.72-1.22,12.88
			c0.26-1.32,1.22-5.35,4.91-8.58C108.85,208.1,112.02,207.36,113.42,207.13z"/>
	</g>
	<path class="st1" d="M117.21,210.9c-1.84,3.48-0.72,7.8,2.49,9.91c3.07,2.02,7.27,1.49,9.8-1.3
		C125.39,216.65,121.3,213.77,117.21,210.9z"/>
</g>
<path class="st8" d="M94.38,152.7c0.31,2.5,0.45,5.66,0.05,9.29c-0.58,5.16-2.04,9.3-3.32,12.16c10.33,12.19,20.66,24.37,31,36.56
	c-12.24-2.67-32.58-9.26-48.28-27.02c-2.68-3.04-4.98-6.12-6.95-9.14"/>
<path class="st1" d="M189.03,51c-6.88,11.79-16.25,25.6-28.86,39.79c-10.28,11.55-20.51,20.88-29.67,28.28
	c36.41,34.84,72.82,69.68,109.23,104.52l13.96-12.01c5.37-12.1,13.64-35.85,7.11-62.82c-3.97-16.44-11.83-27.41-26.23-47.07
	C224.77,88.3,210,70.2,189.03,51z"/>
<path class="st8" d="M129.39,120.73l15.31-15.31l16.42,0.14c-3.05,2.89-7.71,6.66-14.1,9.81
	C140.06,118.79,133.73,120.15,129.39,120.73z"/>
<path class="st9" d="M189.52,50.64c-0.23,0.35-3.76,5.62-4.01,5.98c-7.55,11.27-11.33,16.9-11.85,17.67
	c-3.78,5.57-10.08,13.56-21,23.81c9.07-2.31,21.07-6.34,33.95-13.73c10.91-6.25,19.34-13.1,25.48-18.89
	C204.57,60.54,197.05,55.59,189.52,50.64z"/>
<path class="st10" d="M174.4,177.61c1.11,3.1,5.12,4.3,8.28,3.42c3.17-0.88,5.66-3.25,8.03-5.54c1.2-1.16,2.39-2.31,3.58-3.48
	c2.15-2.09,4.39-4.3,5.3-7.16c0.91-2.85-0.03-6.55-2.79-7.71"/>
<path class="st9" d="M194.56,79.24c2.49,2.09,5.67,4.43,9.6,6.63c4.27,2.39,8.25,3.94,11.54,4.97c6.9,4.73,13.8,9.47,20.7,14.19
	c-2.76-6.01-7.11-13.81-13.93-21.77c-5.3-6.18-10.66-10.79-15.18-14.15C203.03,72.5,198.8,75.87,194.56,79.24z"/>
</svg>
