<?xml version="1.0" encoding="utf-8"?>
<!-- Generator: Adobe Illustrator 24.1.2, SVG Export Plug-In . SVG Version: 6.00 Build 0)  -->
<svg version="1.1" id="Layer_1" xmlns="http://www.w3.org/2000/svg" xmlns:xlink="http://www.w3.org/1999/xlink" x="0px" y="0px"
	 viewBox="0 0 300 280" style="enable-background:new 0 0 300 280;" xml:space="preserve">
<style type="text/css">
	.st0{fill:#FDB141;}
	.st1{fill:#31B1DC;}
	.st2{fill:#3C57A4;}
</style>
<g>
	
		<ellipse transform="matrix(0.0825 -0.9966 0.9966 0.0825 -0.2446 205.4216)" class="st0" cx="111.44" cy="102.84" rx="42.15" ry="42.15"/>
	<path class="st0" d="M61.28,104.28L61.28,104.28c-0.01,1.95-1.6,3.53-3.55,3.52l-7.06-0.03c-1.95-0.01-3.53-1.6-3.52-3.55l0,0
		c0.01-1.95,1.6-3.53,3.55-3.52l7.06,0.03C59.71,100.74,61.29,102.33,61.28,104.28z"/>
	<path class="st0" d="M61.28,104.28L61.28,104.28c0.01-1.95-1.57-3.54-3.52-3.55l-7.06-0.03c-1.95-0.01-3.54,1.57-3.55,3.52l0,0
		c-0.01,1.95,1.57,3.54,3.52,3.55l7.06,0.03C59.68,107.8,61.27,106.23,61.28,104.28z"/>
	<path class="st0" d="M73.9,139.61L73.9,139.61c-1.44-1.32-3.67-1.23-4.99,0.21l-4.78,5.2c-1.32,1.44-1.23,3.67,0.21,4.99l0,0
		c1.44,1.32,3.67,1.23,4.99-0.21l4.78-5.2C75.42,143.17,75.33,140.93,73.9,139.61z"/>
	<path class="st0" d="M65.24,122.81L65.24,122.81c-0.67-1.83-2.69-2.78-4.52-2.12l-6.64,2.41c-1.83,0.67-2.78,2.69-2.12,4.52l0,0
		c0.67,1.83,2.69,2.78,4.52,2.12l6.64-2.41C64.96,126.67,65.91,124.65,65.24,122.81z"/>
	<path class="st0" d="M88.95,149.02L88.95,149.02c-1.89-0.48-3.81,0.66-4.3,2.55l-1.75,6.84c-0.48,1.89,0.66,3.81,2.55,4.3l0,0
		c1.89,0.48,3.81-0.66,4.3-2.55l1.75-6.84C91.98,151.43,90.84,149.5,88.95,149.02z"/>
	<path class="st0" d="M108.22,151.38L108.22,151.38c-1.95-0.11-3.61,1.38-3.72,3.33l-0.39,7.05c-0.11,1.95,1.38,3.61,3.33,3.72l0,0
		c1.95,0.11,3.61-1.38,3.72-3.33l0.39-7.05C111.66,153.15,110.17,151.49,108.22,151.38z"/>
	<path class="st0" d="M74.63,66.84L74.63,66.84c-1.45,1.31-3.68,1.2-4.99-0.25l-4.74-5.24c-1.31-1.45-1.2-3.68,0.25-4.99l0,0
		c1.45-1.31,3.68-1.2,4.99,0.25l4.74,5.24C76.19,63.3,76.08,65.53,74.63,66.84z"/>
	<path class="st0" d="M65.83,83.57L65.83,83.57c-0.68,1.83-2.71,2.76-4.54,2.08l-6.62-2.47c-1.83-0.68-2.76-2.71-2.08-4.54l0,0
		c0.68-1.83,2.71-2.76,4.54-2.08l6.62,2.47C65.58,79.71,66.51,81.74,65.83,83.57z"/>
	<path class="st0" d="M89.76,57.56L89.76,57.56c-1.89,0.47-3.81-0.69-4.27-2.58l-1.69-6.86c-0.47-1.89,0.69-3.81,2.58-4.27l0,0
		c1.89-0.47,3.81,0.69,4.27,2.58l1.69,6.86C92.81,55.18,91.66,57.1,89.76,57.56z"/>
	<path class="st0" d="M109.06,55.37L109.06,55.37c-1.95,0.09-3.6-1.41-3.69-3.36l-0.33-7.06c-0.09-1.95,1.41-3.6,3.36-3.69l0,0
		c1.95-0.09,3.6,1.41,3.69,3.36l0.33,7.06C112.51,53.63,111.01,55.28,109.06,55.37z"/>
	<path class="st0" d="M154.52,104.21L154.52,104.21c0.01-1.95,1.6-3.53,3.55-3.52l7.06,0.03c1.95,0.01,3.53,1.6,3.52,3.55l0,0
		c-0.01,1.95-1.6,3.53-3.55,3.52l-7.06-0.03C156.09,107.74,154.52,106.16,154.52,104.21z"/>
	<path class="st0" d="M141.61,139.43L141.61,139.43c1.45-1.31,3.68-1.2,4.99,0.25l4.74,5.24c1.31,1.45,1.2,3.68-0.25,4.99l0,0
		c-1.45,1.31-3.68,1.2-4.99-0.25l-4.74-5.24C140.05,142.97,140.16,140.74,141.61,139.43z"/>
	<path class="st0" d="M150.41,122.71L150.41,122.71c0.68-1.83,2.71-2.76,4.54-2.08l6.62,2.47c1.83,0.68,2.76,2.71,2.08,4.54l0,0
		c-0.68,1.83-2.71,2.76-4.54,2.08l-6.62-2.47C150.65,126.57,149.72,124.54,150.41,122.71z"/>
	<path class="st0" d="M126.47,148.71L126.47,148.71c1.89-0.47,3.81,0.69,4.27,2.58l1.69,6.86c0.47,1.89-0.69,3.81-2.58,4.27l0,0
		c-1.89,0.47-3.81-0.69-4.27-2.58l-1.69-6.86C123.42,151.09,124.58,149.18,126.47,148.71z"/>
	<path class="st0" d="M141.49,66.66L141.49,66.66c1.44,1.32,3.67,1.23,4.99-0.21l4.78-5.2c1.32-1.44,1.23-3.67-0.21-4.99l0,0
		c-1.44-1.32-3.67-1.23-4.99,0.21l-4.78,5.2C139.97,63.1,140.06,65.34,141.49,66.66z"/>
	<path class="st0" d="M150.15,83.46L150.15,83.46c0.67,1.83,2.69,2.78,4.52,2.12l6.64-2.41c1.83-0.67,2.78-2.69,2.12-4.52l0,0
		c-0.67-1.83-2.69-2.78-4.52-2.12l-6.64,2.41C150.43,79.6,149.48,81.62,150.15,83.46z"/>
	<path class="st0" d="M126.44,57.25L126.44,57.25c1.89,0.48,3.81-0.66,4.3-2.55l1.75-6.84c0.48-1.89-0.66-3.81-2.55-4.3l0,0
		c-1.89-0.48-3.81,0.66-4.3,2.55l-1.75,6.84C123.41,54.84,124.55,56.77,126.44,57.25z"/>
</g>
<path class="st1" d="M284.41,192.7c0-0.01,0-0.01,0-0.01c-13.22,25.93-40.18,37.85-61.25,30.78c-18.72-6.28-26.38-25.38-27.67-28.75
	c5.71-4.43,11.43-8.85,17.14-13.28c1.1,4.5,3.79,11.99,10.52,16.29c11.43,7.3,30.81,3,44.7-13.16c5.56-6.36,11.12-12.73,16.69-19.09
	L284.41,192.7z"/>
<path class="st1" d="M285.2,63.93c0,0,0,0.01,0,0.01c-13-26.04-39.85-38.19-60.99-31.3c-18.77,6.12-26.6,25.15-27.92,28.52
	c5.68,4.48,11.35,8.95,17.03,13.43c1.14-4.49,3.89-11.96,10.66-16.2c11.5-7.2,30.83-2.74,44.58,13.55
	c5.51,6.41,11.01,12.82,16.52,19.23L285.2,63.93z"/>
<path class="st2" d="M212.33,72.12c0.6,1.66,1.21,3.92,1.42,6.65c0.16,2.08,0.04,3.9-0.16,5.37c3.23,2.04,5.68,4.07,7.4,5.63
	c4.33,3.95,4.74,5.66,4.82,6.71c0.03,0.45,0.15,2.75-1.54,4.53c-1.76,1.85-4.17,1.77-4.47,1.75c-2.63-0.13-4.35-2.13-6.46-4.6
	c-1.16-1.35-2.75-3.5-4.06-6.56c-1.65,0.87-3.3,1.74-4.95,2.61c0.85,1.21,6.85,10,3.55,16.85c-0.45,0.93-1.91,3.97-4.6,4.38
	c-2.38,0.36-4.41-1.52-5.05-2.12c-5.75-5.33-1.65-18.44-1.21-19.8c-1.73-0.45-3.46-0.9-5.2-1.35c-0.09,0.33-0.23,0.82-0.4,1.41
	c-1.47,4.99-2.46,8.34-4.38,10.86c-2.56,3.37-7.68,6.47-10.88,4.83c-1.84-0.94-2.39-3.12-2.46-3.41c-0.51-2.14,0.34-4.38,4.43-9.65
	c2.04-2.63,4.87-6,8.59-9.66c-0.72-2.41-1.44-4.82-2.16-7.24c-8.16,2.74-14.93,1.58-16.79-1.93c-1.14-2.15-0.7-5.67,1.11-6.85
	c2.1-1.37,4.7,1.28,9.8,1.36c3.14,0.05,5.72-0.89,7.43-1.71c0.34-0.73,1.47-2.91,4.05-4.3c2.31-1.24,4.48-1.13,5.32-1.05
	c-0.27-0.27-1.03-1.11-1.09-2.36c-0.08-1.51,0.91-2.99,2.49-3.71c2.15,0.27,4.9,0.83,7.9,2.04c4.82,1.94,8.19,4.7,10.2,6.65
	c0.01,0.47-0.03,1.56-0.68,2.71C214.06,70.55,213.48,71.46,212.33,72.12z"/>
<path class="st2" d="M194.34,193.59c-1.76,0.1-4.1,0.06-6.78-0.51c-2.04-0.43-3.76-1.06-5.1-1.66c-2.87,2.53-5.5,4.31-7.49,5.51
	c-5,3.04-6.77,2.96-7.8,2.74c-0.44-0.09-2.68-0.63-3.91-2.75c-1.28-2.21-0.52-4.5-0.42-4.79c0.86-2.48,3.27-3.57,6.23-4.91
	c1.62-0.73,4.14-1.65,7.44-2.05c-0.37-1.83-0.74-3.66-1.1-5.49c-1.41,0.48-11.53,3.76-17.16-1.34c-0.77-0.69-3.27-2.95-2.9-5.65
	c0.32-2.39,2.7-3.8,3.45-4.25c6.74-4.01,18.16,3.61,19.34,4.41c0.92-1.53,1.84-3.07,2.76-4.6c-0.29-0.18-0.72-0.45-1.24-0.78
	c-4.37-2.82-7.31-4.71-9.19-7.26c-2.51-3.4-4.05-9.19-1.58-11.8c1.42-1.5,3.66-1.42,3.97-1.4c2.2,0.11,4.11,1.56,8.01,6.96
	c1.95,2.7,4.38,6.36,6.85,10.97c2.52-0.01,5.03-0.03,7.55-0.04c-0.34-8.6,2.68-14.77,6.58-15.57c2.38-0.49,5.64,0.93,6.26,2.99
	c0.73,2.4-2.55,4.15-4.07,9.02c-0.93,3-0.75,5.74-0.45,7.61c0.61,0.53,2.38,2.23,2.98,5.1c0.54,2.57-0.17,4.62-0.49,5.4
	c0.33-0.18,1.36-0.67,2.57-0.38c1.47,0.35,2.61,1.71,2.86,3.43c-0.86,1.99-2.17,4.47-4.18,7.01c-3.22,4.08-6.81,6.53-9.25,7.91
	c-0.46-0.12-1.48-0.47-2.41-1.42C195.36,195.7,194.65,194.88,194.34,193.59z"/>
</svg>
