<?xml version="1.0" encoding="utf-8"?>
<!-- Generator: Adobe Illustrator 24.1.2, SVG Export Plug-In . SVG Version: 6.00 Build 0)  -->
<svg version="1.1" id="Layer_1" xmlns="http://www.w3.org/2000/svg" xmlns:xlink="http://www.w3.org/1999/xlink" x="0px" y="0px"
	 viewBox="0 0 300 280" style="enable-background:new 0 0 300 280;" xml:space="preserve">
<style type="text/css">
	.st0{fill:#E17F90;stroke:#E17F90;stroke-width:2.9999;stroke-miterlimit:9.9998;}
	.st1{fill:#FABA4B;stroke:#FABA4B;stroke-width:15;stroke-linecap:round;stroke-linejoin:round;stroke-miterlimit:9.9998;}
	.st2{fill:none;stroke:#FABA4B;stroke-width:8;stroke-linecap:round;stroke-linejoin:round;stroke-miterlimit:10;}
	.st3{fill:#FFCF78;}
	.st4{fill:none;stroke:#3C57A4;stroke-width:8;stroke-linecap:round;stroke-linejoin:round;stroke-miterlimit:10;}
	.st5{fill:#F8ECE2;stroke:#F8ECE2;stroke-miterlimit:10;}
	.st6{fill:#F2DAD5;}
	.st7{fill:#F8ECE2;}
	.st8{fill:#FFFFFF;}
	.st9{fill:none;stroke:#FFFFFF;stroke-width:5;stroke-miterlimit:10;}
	.st10{fill:#E17F90;}
	.st11{fill:#CF7679;}
</style>
<ellipse transform="matrix(1.078896e-03 -1 1 1.078896e-03 -1.4796 296.2602)" class="st0" cx="147.55" cy="148.87" rx="4.65" ry="53.55"/>
<path class="st1" d="M171.02,139.82c-0.17-0.01-0.35-0.01-0.51,0.05c-0.21,0.07-0.37,0.24-0.51,0.42c-0.66,0.82-0.97,1.92-0.85,2.97
	c0.02,0.24,0.07,0.47,0.17,0.69c0.24,0.55,0.77,0.92,1.31,1.15c0.93,0.38,2,0.41,2.95,0.07c0.95-0.34,1.75-1.05,2.21-1.95
	c0.55-1.07,0-1.84-0.95-2.21C173.57,140.51,172.42,139.89,171.02,139.82z"/>
<line class="st2" x1="198.09" y1="158.06" x2="198.12" y2="267.47"/>
<path class="st3" d="M93.62,148.59c0.59-0.24,1.44-0.59,2.48-0.95c3.99-1.4,8.39-2.25,16.61-2.39c4.63-0.08,10.59,0.07,17.55,0.87
	c-4.74-3.21-11.46-7.03-20.07-9.91c-7.29-2.44-13.84-3.49-18.98-3.94C92.01,137.69,92.81,143.14,93.62,148.59z"/>
<path class="st4" d="M112.17,148.67c7.65,6.67,11.82,17.13,10.84,27.22c-0.64,6.69-3.75,13.5-9.55,16.91
	c-3.58,2.11-8.76,2.46-11.43-0.71c-2.66-3.16-1.31-8.41,2.02-10.84s7.89-2.51,11.87-1.44c11.42,3.09,19.32,15.79,17.05,27.4
	c-0.36,1.82-0.93,3.7-0.44,5.5c0.33,1.19,1.1,2.21,1.96,3.11c4.76,4.99,12.59,6.78,19.04,4.33c6.45-2.45,11.14-8.98,11.38-15.86
	l1.2,38.7"/>
<path class="st4" d="M159.43,146.34c-2.37,9.73,5.57,20.64,15.57,21.35c5.08,0.36,10.07-1.53,15.17-1.62
	c11.84-0.24,22.67,10.82,22.19,22.64c-0.17,4.24-2.09,8.92-6.1,10.31c-3.11,1.08-6.72-0.24-8.94-2.66
	c-2.22-2.43-3.21-5.78-3.39-9.07c-0.51-9.08,5.4-18.37,14.1-21.04c8.7-2.68,19.23,2.16,22.24,10.75"/>
<path class="st2" d="M137.5,148.06c4.68,2.62,5.67,9.54,2.87,14.11c-0.7,1.14-1.57,2.15-2.57,3.01c-2.99,2.59-7.12,3.93-11.15,4.1
	c-5.35,0.22-10.62-1.34-15.72-2.97c-5.11-1.63-10.27-3.38-15.63-3.54c-5.36-0.17-11.06,1.49-14.48,5.61
	c-1.67,2.01-2.74,4.68-2.27,7.25c0.47,2.57,2.79,4.86,5.4,4.75c2.2-0.1,4.06-1.76,5.14-3.68c2.28-4.01,1.78-9.42-1.21-12.94
	c-4.38-5.17-12.34-5.39-18.91-3.75L68.94,262.5"/>
<line class="st4" x1="110.73" y1="179.15" x2="110.73" y2="272.45"/>
<path class="st2" d="M148.32,147.68c2.2,6.04,1.55,12.69,2.02,19.1c0.41,5.59,1.69,11.11,3.8,16.3c0.76,1.87,1.88,3.91,3.84,4.35
	c3.38,0.75,5.71-3.65,9.09-4.41c2.6-0.59,5.35,1.35,6.14,3.89s-0.12,5.41-1.87,7.42c-0.73,0.85-1.64,1.59-2.72,1.88
	c-1.8,0.5-3.82-0.39-4.95-1.88c-1.13-1.49-1.49-3.47-1.33-5.34c0.29-3.3,2.15-6.43,4.93-8.25c2.77-1.82,6.62-2.82,9.53-1.23
	c3.55,1.93,5.83,3.73,5.83,3.73v89.19"/>
<path class="st2" d="M176.44,146.2c-0.12,7.87-0.08,15.75,0.13,23.62c0.03,1.25,0.13,2.64,1.04,3.5c0.56,0.53,1.35,0.76,2.1,0.96
	c3.49,0.95,7.74,1.73,10.29-0.84c1.73-1.75,1.97-4.41,2.63-6.77c1.97-7.19,8.83-12.76,16.28-13.21c2.08-0.12,4.48,0.29,5.59,2.06
	c1.13,1.82,0.2,4.48-1.69,5.5c-1.89,1.01-4.37,0.51-6-0.9c-1.62-1.41-2.46-3.57-2.62-5.71c-0.41-5.33,3.26-10.55,8.23-12.5
	c4.98-1.95,10.89-0.8,15.16,2.41"/>
<line class="st4" x1="221.18" y1="167.35" x2="221.21" y2="259.8"/>
<path class="st4" d="M131.84,210.46c-0.91,6.55-5.84,12.37-12.16,14.35c-6.32,1.97-13.68-0.01-18.16-4.88
	c-1.31-1.43-2.4-3.08-3.92-4.29c-1.28-1.01-2.82-1.66-4.38-2.14c-6.45-1.94-13.76-0.82-19.33,2.97c-2.9,1.97-5.47,5.92-3.41,8.76
	c0.82,1.13,2.22,1.74,3.61,1.92c5.76,0.75,10.69-5.5,10.17-11.29c-0.52-5.79-5.01-10.55-10.1-13.35c-6.85-3.76-15.17-4.75-22.7-2.68
	l0.02,59.98"/>
<g>
	<g>
		<path class="st5" d="M100.09,120.18c-2.77,1.58-5.97,2.42-9.16,2.36c-1.45-0.02-2.93-0.24-4.21-0.92
			c-3.34-1.8-4.26-6.19-4.06-9.99c0.32-5.83,2.46-11.56,6.05-16.17c1.74-2.23,3.95-4.28,6.7-4.89c2.76-0.61,6.08,0.7,6.92,3.39
			c-2.55,6.11-3.47,12.36-3.64,18.98C98.64,115.1,98.89,118.4,100.09,120.18z"/>
		<path class="st6" d="M98.11,111.26c-0.19,2.73-2.2,4.9-4.62,5.25c-2.87,0.41-5.83-1.84-6.2-5.13c0.69,0.47,2.89,1.82,5.93,1.62
			C95.67,112.85,97.39,111.78,98.11,111.26z"/>
	</g>
	<path class="st6" d="M98.12,107.94c-2.34-0.73-3.75-3.12-3.26-5.46c0.47-2.24,2.55-3.85,4.89-3.74
		C99.21,101.81,98.66,104.88,98.12,107.94z"/>
</g>
<path class="st6" d="M94.91,111.89c-2.34-0.73-3.75-3.12-3.26-5.46c0.47-2.24,2.55-3.85,4.89-3.74
	C95.99,105.76,95.45,108.83,94.91,111.89z"/>
<path class="st3" d="M175.5,145.43c2.24-1.91,4.59-3.74,7.17-5.14c1.34-0.73,2.75-1.34,4.22-1.78c0.92-0.28,3.44-0.28,4.01-0.93
	c0.66-0.76,0.54-3.77,0.69-4.8c0.22-1.58,0.44-3.17,0.66-4.75c0.91-6.54,1.82-13.09,2.73-19.64c7.7,14.98,8.05,26.86,7.49,33.6
	c-0.09,1.11-0.56,6.86-1.29,6.87c-1.59,0.02-4.55-27.85-2.9-55.31c1.14-19.01,4.3-34.65,7.07-45.59
	c-39.3-0.31-78.6-0.63-117.89-0.94c3.48,15.71,6.43,34.42,7.49,55.59c0.86,17.06,0.33,32.57-0.86,46.13"/>
<path class="st3" d="M103.53,134.66c-0.06-1.98-0.29-4.39-0.88-7.07c-0.64-2.92-1.56-5.37-2.42-7.29
	c-0.64-5.07-1.29-10.14-1.93-15.21c-1.62,3.7-3.41,8.86-4.27,15.2c-0.67,4.92-0.59,9.25-0.29,12.68
	C97.01,133.53,100.27,134.1,103.53,134.66z"/>
<g>
	<g>
		<path class="st5" d="M193.56,123.05c2.77,1.59,5.96,2.42,9.16,2.38c1.45-0.02,2.93-0.23,4.21-0.91c3.35-1.8,4.28-6.19,4.07-9.97
			c-0.3-5.83-2.43-11.57-6.01-16.19c-1.73-2.23-3.93-4.29-6.69-4.9c-2.76-0.62-6.08,0.69-6.93,3.38c2.53,6.11,3.44,12.37,3.6,18.99
			C195.01,117.97,194.77,121.27,193.56,123.05z"/>
		<path class="st6" d="M195.55,114.14c0.19,2.73,2.19,4.91,4.61,5.25c2.87,0.42,5.84-1.83,6.21-5.12c-0.69,0.47-2.9,1.81-5.94,1.62
			C197.99,115.73,196.28,114.65,195.55,114.14z"/>
	</g>
	<path class="st6" d="M195.56,110.81c2.34-0.72,3.75-3.11,3.27-5.45c-0.46-2.24-2.54-3.86-4.88-3.75
		C194.49,104.69,195.02,107.75,195.56,110.81z"/>
</g>
<polygon class="st7" points="159.72,48.71 159.74,33.17 159.74,21.22 153.48,17.63 145.41,17.62 136.44,22.69 136.41,48.69 "/>
<path class="st6" d="M159.69,48.86c-7.78-4.86-15.57-9.71-23.35-14.57c0.02,4.85,0.03,9.69,0.05,14.53L159.69,48.86z"/>
<path class="st7" d="M201.11,149c-0.57-4.9-1.53-12.53-2.95-21.85c-6.79-44.62-13-53.77-15.59-57.21
	c-3.81-5.08-11.15-12.92-25.07-18.91c-7.02-0.01-14.03-0.02-21.04-0.02c-10.84,3.89-17.35,9.35-21.06,13.19
	c-16.08,16.64-17.33,41.57-18.69,68.77c-0.31,6.27-0.33,11.45-0.29,14.83c14.36-1.75,30.56-2.93,48.3-2.91
	C165.76,144.92,184.7,146.62,201.11,149z"/>
<path class="st6" d="M96.37,147.67c7.07-0.86,28.55-1.17,50.5-0.96c3.8,0.03,3.96-11.33,2.78-24.92
	c-0.14-23.86-0.42-47.86-0.56-71.72c-4.5-0.62-9.03-0.11-13.39,1.18c-0.51,0.06-1.19,0.31-2.15,0.71v0.01
	c-6.92,2.52-13.28,6.99-18.21,12.09c-16.08,16.64-17.33,41.57-18.69,68.77C96.35,139.11,96.33,144.29,96.37,147.67z"/>
<path class="st8" d="M141.5,64.6c3.14-1.56,6.94-1.73,10.21-0.47c-0.47-1.06-1.19-1.74-2.21-2.3c-1.55-0.85-3.48-0.87-5.14-0.26
	C142.89,62.11,141.73,63.06,141.5,64.6z"/>
<path class="st9" d="M155.75,100.25c0.88-1.85-0.35-4.15-2.13-5.15c-1.78-1-3.92-1.07-5.96-1.1c-1.04-0.02-2.07-0.03-3.1-0.05
	c-1.87-0.03-3.82-0.04-5.48,0.82c-1.66,0.86-2.87,2.89-2.17,4.62"/>
<path class="st10" d="M169.61,87.46c-0.07-2.22-0.52-7.26-4.03-11.87c-6.32-8.31-17.01-8-19.41-7.84
	c-2.29,0.15-10.56,0.66-15.93,7.54c-3.45,4.42-3.97,9.25-4.06,11.33c6.87,0.73,14.36,1.24,22.39,1.37
	C156.06,88.11,163.11,87.89,169.61,87.46z"/>
<path class="st8" d="M166.1,88c-3.5-1.66-9.92-4.16-18.34-4.34c-8.32-0.18-14.79,1.99-18.35,3.48c5.94,0.56,12.32,0.95,19.09,1.09
	C154.69,88.37,160.58,88.26,166.1,88z"/>
<path class="st11" d="M157.48,69.64c-2.19-0.89-6.23-2.2-11.4-1.91c-4.29,0.24-7.63,1.49-9.64,2.42c0.27,0.35,4.62,5.81,11.6,5.14
	C153.88,74.73,157.04,70.28,157.48,69.64z"/>
<path class="st2" d="M212.96,195.6c-0.38,4.23,1.71,8.45,4.87,11.29c3.16,2.85,7.25,4.47,11.41,5.38c2.11,0.46,4.42,0.72,6.32-0.3
	c1.16-0.63,2.03-1.67,2.68-2.82c1.41-2.48,1.8-5.72,0.31-8.15c-1.49-2.43-5.16-3.48-7.38-1.68c-0.9,0.73-1.45,1.79-1.94,2.83
	c-1.16,2.48-2.06,5.15-2.06,7.89c-0.01,2.74,0.97,5.58,3.06,7.35c1.48,1.26,3.39,1.89,5.3,2.25c2.62,0.49,5.43,0.47,7.83-0.69
	c2.4-1.17,4.27-3.66,4.13-6.32l0.02,34.12"/>
<line class="st4" x1="151.69" y1="221.2" x2="151.69" y2="264.69"/>
</svg>
