<?xml version="1.0" encoding="utf-8"?>
<!-- Generator: Adobe Illustrator 24.1.2, SVG Export Plug-In . SVG Version: 6.00 Build 0)  -->
<svg version="1.1" id="Layer_1" xmlns="http://www.w3.org/2000/svg" xmlns:xlink="http://www.w3.org/1999/xlink" x="0px" y="0px"
	 viewBox="0 0 300 280" style="enable-background:new 0 0 300 280;" xml:space="preserve">
<style type="text/css">
	.st0{fill:#F4DFCD;}
	.st1{fill:#2BA3D5;}
	.st2{fill:#FFFFFF;}
	.st3{fill:#F5712E;stroke:#F5712E;stroke-width:0.5;stroke-miterlimit:10;}
	.st4{fill:#FCA334;}
	.st5{fill:#F5712E;}
	.st6{fill:#2E4294;stroke:#2BA3D5;stroke-width:6;stroke-miterlimit:10;}
	.st7{fill:#8C6239;stroke:#A67C52;stroke-width:4;stroke-miterlimit:10;}
	.st8{fill:#2E4294;stroke:#29ABE2;stroke-width:5;stroke-miterlimit:10;}
	.st9{fill:#2BA3D5;stroke:#2BA3D5;stroke-width:0.75;stroke-miterlimit:10;}
</style>
<polygon class="st0" points="175.79,33.08 175.79,55.12 175.79,72.08 166.92,77.17 155.52,77.17 142.85,69.96 142.85,33.08 "/>
<path class="st1" d="M72.8,186.57c-2.32,0.11-37.59,1.23-53.41-24.16c-8.92-14.31-7.44-30.27-5.51-38.15
	c8-32.68,55.6-56.36,118.25-58.96c6.22,12.44,12.44,24.87,18.65,37.31c13.28-12.44,26.57-24.87,39.85-37.31
	c41.09-12.2,79.62,3.27,92.02,30.55c6.72,14.8,7.62,37.16-3.82,50.45c-12.92,15.01-38.37,14.67-88.6,13.99
	c-5.89-0.08-10.84-0.26-14.41-0.42c-0.99-9.19-1.98-18.37-2.97-27.56c12.5-0.19,24.12-0.49,34.76-0.85
	c29.46-0.98,37.65-1.94,43.24-8.48c4.34-5.08,6.7-13.04,4.24-19.08c-4.14-10.15-22.33-15.81-44.54-8.93
	c3.88,10.5,7.8,23.78,10.17,39.42c2.69,17.71,2.62,33.23,1.7,45.36c-0.07,0-0.15,0-0.22,0l-3.34,61.68
	c-35.06,0.68-70.11,1.37-105.17,2.05c-2.54,0.16-5.09,0.33-7.63,0.49c-1.54-22.4-3.08-44.81-4.62-67.21
	c-1.62-8.3-2.89-18.97-2.37-31.35c0.66-15.87,4.03-28.92,7.21-38.15c-26.08-4.2-48.67,2.48-56.78,17.41
	c-0.72,1.32-7.83,14.87-0.85,24.59c5.31,7.39,17.03,10.12,28.83,5.94C75.91,165.66,74.35,176.11,72.8,186.57z M102.15,178.14
	c-0.01-0.01-0.03-0.02-0.04-0.02c0.02,0.05,0.04,0.1,0.06,0.15C102.16,178.23,102.15,178.18,102.15,178.14z"/>
<polygon class="st2" points="129.28,53.86 142.85,48.35 142.85,65.3 151.75,70.39 163.2,70.39 175.91,63.18 175.47,48.35 
	185.24,53.86 195.84,86.92 179.73,98.37 192.02,98.37 159.8,143.3 123.77,99.64 133.94,98.37 120.8,85.65 "/>
<path class="st0" d="M79.11,162.21l-17.95-0.36l-0.41,20.52l16.11,0.32c2.61,4.6,7.22,7.71,12.54,7.81
	c8.35,0.17,15.27-7.11,15.45-16.26c0.18-9.15-6.44-16.7-14.79-16.86C85.81,157.3,81.92,159.16,79.11,162.21z"/>
<polygon class="st2" points="137.66,118.74 166.49,108.14 152.07,139.94 173.69,164.1 137.66,157.74 123.25,200.14 115.61,156.9 
	73.22,152.66 104.17,130.19 98.66,112.81 123.25,118.74 131.72,97.55 "/>
<path class="st0" d="M200.12,134.99l19.55-0.39l0.48,24.16l-17.55,0.35c-2.83,5.41-7.85,9.06-13.65,9.18
	c-9.1,0.18-16.64-8.4-16.86-19.17c-0.21-10.77,6.99-19.64,16.08-19.82C192.82,129.2,197.05,131.39,200.12,134.99z"/>
<path class="st3" d="M109.81,108.11c1.11-0.35,8.37-2.49,14.77,1.79c2.92,1.95,4.52,4.48,5.32,6.02c2.46,1.48,4.93,2.97,7.39,4.45
	l8.88-9.29c7.97,0.97,11.66,4.59,12.96,6.07c7.23,8.26,5.72,24.86-6.26,39.02c-1.47,1.73-3.16,3.52-5.1,5.28
	c-6.89,6.25-14.15,9.68-19.69,11.63c-1.49-0.36-2.98-0.72-4.48-1.07C119,150.71,114.4,129.41,109.81,108.11z"/>
<path class="st4" d="M158.67,126.18c0,0-0.01,0-0.01,0c-0.91-8.81-8.03-15.66-16.68-15.66c-5.99,0-11.25,3.29-14.22,8.25
	c-2.42-6.41-8.22-10.93-15-10.93c-0.87,0-1.73,0.08-2.57,0.22c-0.13,0.01-0.26,0.03-0.39,0.05c-7.3,1.01-13.48,7.62-14.95,16.47
	c-0.63,2.63-1.39,7.31-0.36,12.98c1.1,6.01,3.69,10.29,5.28,12.53c2.35,3.59,5.82,8.12,10.74,12.62c4.74,4.33,9.38,7.3,13.07,9.31
	c5.22-1.6,11.79-4.41,18.26-9.49c4.28-3.36,10.69-8.4,14.41-17.54C159.44,137.16,159.14,130.04,158.67,126.18z"/>
<path class="st1" d="M77.89,155.2l-4.67,29.68l-13.55-2.01v-23.26c2.22,0.08,5.32-0.01,8.88-0.8
	C72.73,157.88,75.88,156.35,77.89,155.2z"/>
<path class="st5" d="M145.1,145.31c1.78,0.94,20.18,10.82,18.25,19.24c-0.14,0.6-0.38,1.21-0.76,1.82c-0.17,0.21-2,2.37-4.56,2.18
	c-2.62-0.2-5.01-2.79-4.94-6.17c0.09-1.71-0.01-3.99-0.76-6.54C150.68,150.21,146.9,146.76,145.1,145.31z"/>
<path class="st5" d="M99.79,118.46c-0.46-1.96-5.35-22.26-13.99-22.53c-0.61-0.02-1.26,0.06-1.95,0.27
	c-0.24,0.11-2.8,1.33-3.26,3.86c-0.47,2.58,1.43,5.56,4.72,6.35c1.67,0.35,3.85,1.02,6.13,2.39
	C96.47,111.82,98.85,116.35,99.79,118.46z"/>
<path class="st5" d="M94.28,132.87c-1.14-0.02-12.96-0.08-14.28,4.63c-0.09,0.33-0.14,0.7-0.11,1.11c0.03,0.15,0.35,1.72,1.68,2.32
	c1.36,0.61,3.25-0.03,4.13-1.73c0.42-0.87,1.09-1.98,2.15-3.04C90.18,133.79,93,133.1,94.28,132.87z"/>
<path class="st6" d="M133.17,110.48c-0.71-0.53-1.52-1.25-1.36-2.12c0.09-0.51,0.51-0.9,0.92-1.22c2.7-2.05,6.22-2.61,9.57-3.09
	c1.11-0.16,2.28-0.32,3.34,0.04c1.08,0.37,1.91,1.22,2.69,2.04c5.83,6.1,11.87,12.6,13.93,20.78c0.12,0.47,0.22,0.99,0.02,1.44
	c-0.26,0.58-0.94,0.84-1.55,1.03c-2.17,0.67-7.58,3.07-9.73,2.11c-1.73-0.78-3.57-5.82-4.71-7.45
	C142.67,118.86,138.23,114.26,133.17,110.48z"/>
<path class="st7" d="M136.85,119.48c0.69,0.32,1.23,0.88,1.74,1.45c1.57,1.77,2.96,3.71,4.12,5.78"/>
<path class="st7" d="M148.15,115.82c0.69,0.32,1.23,0.88,1.74,1.45c1.57,1.77,2.96,3.71,4.12,5.78"/>
<path class="st8" d="M158.47,106.67c1.39-0.26,2.89-0.47,4.18,0.11c1.97,0.88,2.76,3.21,3.34,5.29c0.26,0.94,0.53,1.88,0.79,2.82
	c0.17,0.61,0.33,1.32-0.05,1.83c-0.24,0.33-0.65,0.49-1.04,0.63c-4.63,1.69-9.23,3.46-13.79,5.32c-4.84,1.97-9.98,4.34-12.5,8.91
	c-0.23,0.42-0.46,0.88-0.88,1.13c-0.57,0.34-1.3,0.17-1.93-0.04c-3.31-1.13-7.9-3.94-9.29-7.38c-1.46-3.6,4.41-6.65,7.08-8.5
	C141.59,111.79,149.85,108.3,158.47,106.67z"/>
<path class="st9" d="M151.66,109.69c0.86,0.4,1.54,1.1,2.17,1.81c1.97,2.22,3.7,4.65,5.15,7.23"/>
<path class="st9" d="M137.5,115.19c0.86,0.4,1.54,1.1,2.17,1.81c1.97,2.22,3.7,4.65,5.15,7.23"/>
<circle class="st2" cx="149.75" cy="112.97" r="2.11"/>
<circle class="st2" cx="144.89" cy="115.09" r="2.11"/>
<circle class="st2" cx="147.64" cy="119.52" r="2.11"/>
<circle class="st2" cx="153.77" cy="117.41" r="2.11"/>
<path class="st5" d="M169.3,122.65c0.49-1.03,5.66-11.66,10.47-10.76c0.34,0.06,0.69,0.19,1.04,0.39c0.12,0.09,1.39,1.08,1.34,2.53
	c-0.05,1.49-1.47,2.9-3.38,2.94c-0.97-0.01-2.25,0.1-3.68,0.58C171.95,119.39,170.08,121.6,169.3,122.65z"/>
</svg>
