<?xml version="1.0" encoding="utf-8"?>
<!-- Generator: Adobe Illustrator 24.1.2, SVG Export Plug-In . SVG Version: 6.00 Build 0)  -->
<svg version="1.1" id="Layer_1" xmlns="http://www.w3.org/2000/svg" xmlns:xlink="http://www.w3.org/1999/xlink" x="0px" y="0px"
	 viewBox="0 0 300 280" style="enable-background:new 0 0 300 280;" xml:space="preserve">
<style type="text/css">
	.st0{fill:#1B1464;}
	.st1{fill:#2690CA;}
	.st2{fill:#F0D7C1;}
	.st3{fill:#2E4294;}
	.st4{fill:#0071BC;}
	.st5{fill:#EF5B24;stroke:#EF5B24;stroke-width:0.5;stroke-miterlimit:10;}
	.st6{fill:#F89129;}
	.st7{stroke:#FFFFFF;stroke-width:54;stroke-miterlimit:10;}
	.st8{font-family:'ArialMT';}
	.st9{font-size:0.7453px;}
</style>
<ellipse class="st0" cx="211.52" cy="198.58" rx="3.94" ry="16.46"/>
<ellipse class="st0" cx="95.93" cy="196.93" rx="3.94" ry="17.05"/>
<path class="st1" d="M117.59,249.57c-0.01-0.01-0.02-0.01-0.02-0.01c0.01,0.03,0.02,0.06,0.03,0.09
	C117.6,249.62,117.59,249.59,117.59,249.57z"/>
<path class="st2" d="M160.75,183.8c24.14,0.01,48.28,0.01,72.41,0.01c5.17-10.91,10.35-21.82,15.53-32.73
	c1.08,1.14,3.47,3.32,7.14,4.16c7.43,1.71,13.29-3.63,13.85-4.16c-4.09,15.31-9.57,27-13.85,34.84
	c-10.33,18.94-17.37,22.29-20.56,23.48c-6.58,2.46-33.58,0.87-41.99,0.87l-2.92,42.36h-68.82L160.75,183.8z"/>
<polygon class="st2" points="160.75,164.55 160.75,185.01 160.75,200.76 155.55,205.48 148.87,205.48 141.44,198.79 141.44,164.55 
	"/>
<path class="st3" d="M296.97,107.11c-0.02-1.01-0.1-2.06-0.55-2.97c-0.54-1.11-1.56-1.89-2.61-2.52c-5.37-3.2-13.06-2.7-17.11,2.06
	c-1.91,2.24-2.87,5.12-3.71,7.95c-1.41,4.71-2.63,9.47-3.65,14.27c1.06-4.82-0.93-10.04-4.56-13.38c-3.63-3.34-8.7-4.89-13.63-4.78
	c-3.98,0.09-8.21,1.4-10.55,4.61c-2.34,3.22-1.81,8.56,1.75,10.33c4.92,2.45,10.92-3.04,16.07-1.1c2.11,0.79,3.6,2.71,4.7,4.67
	c1.14,2.04,2.01,4.32,1.87,6.65c-0.14,2.33-1.5,4.7-3.7,5.48c-1.6,0.58-3.4,0.25-4.99-0.34c-3.36-1.26-6.24-3.77-7.94-6.93
	c-0.76-1.41-1.3-2.95-2.27-4.23c-0.97-1.28-2.53-2.27-4.11-1.99c-1.83,0.34-2.92,2.18-3.73,3.86c-0.35,0.73-0.71,1.5-0.72,2.3
	c-0.01,0.78,0.29,1.53,0.62,2.23c2.06,4.43,5.33,8.29,9.32,11.1c-0.48,0.5-0.85,1.12-1.11,1.78c-0.86,1.52-1.16,3.4-0.56,5.32
	c0.74,2.39,3.4,3.53,5.78,4.28c4.5,1.42,9.32,2.5,13.92,1.45c2.89-0.66,5.72-2.3,7.03-4.96c0.79-1.6,0.86-3.58,0.22-5.22
	c0.04-0.03,0.08-0.06,0.12-0.09c6.01-4.73,11.71-10.16,16.14-16.42C293.87,123.69,297.15,115.5,296.97,107.11z"/>
<path class="st2" d="M141.33,183.8c-24.14,0.01-48.28,0.01-72.41,0.01c-5.17-10.91-10.35-21.82-15.53-32.73
	c-1.08,1.14-3.47,3.32-7.14,4.16c-7.43,1.71-13.29-3.63-13.85-4.16c4.09,15.31,9.57,27,13.85,34.84
	c10.33,18.94,17.37,22.29,20.56,23.48c6.58,2.46,33.58,0.87,41.99,0.87l2.92,42.36h68.82L141.33,183.8z"/>
<path class="st4" d="M160.75,183.8c17.14-0.55,34.28-1.11,51.42-1.67c-1.45,3.04-3.47,8.29-3.73,15.09
	c-0.32,8.41,2.2,14.86,3.73,18.07c-6.29-1.68-12.59-3.35-18.88-5.03l-2.92,42.36h-78.63l-2.92-42.36l-12.86,3.73
	c1.48-2.11,5.34-8.14,5.4-16.77c0.07-8.89-3.93-15.12-5.4-17.2c15.15,1.26,30.31,2.53,45.46,3.79c0.14,1.48,0.66,4.57,2.92,7.52
	c1.01,1.32,3.4,4.43,6.77,4.66c3.79,0.26,7.89-3.17,9.63-8.57"/>
<path class="st3" d="M6.55,107.11c0.02-1.01,0.1-2.06,0.55-2.97c0.54-1.11,1.56-1.89,2.61-2.52c5.37-3.2,13.06-2.7,17.11,2.06
	c1.91,2.24,2.87,5.12,3.71,7.95c1.41,4.71,2.63,9.47,3.65,14.27c-1.06-4.82,0.93-10.04,4.56-13.38c3.63-3.34,8.7-4.89,13.63-4.78
	c3.97,0.09,8.21,1.4,10.55,4.61c2.34,3.22,1.81,8.56-1.75,10.33c-4.92,2.45-10.92-3.04-16.07-1.1c-2.11,0.79-3.59,2.71-4.7,4.67
	c-1.14,2.04-2.01,4.32-1.87,6.65c0.14,2.33,1.5,4.7,3.7,5.48c1.6,0.58,3.4,0.25,4.99-0.34c3.36-1.26,6.24-3.77,7.94-6.93
	c0.76-1.41,1.3-2.95,2.27-4.23c0.97-1.28,2.53-2.27,4.11-1.99c1.83,0.34,2.92,2.18,3.73,3.86c0.35,0.73,0.71,1.5,0.72,2.3
	c0.01,0.78-0.29,1.53-0.62,2.23c-2.06,4.43-5.33,8.29-9.32,11.1c0.48,0.5,0.85,1.12,1.11,1.78c0.87,1.52,1.16,3.4,0.56,5.32
	c-0.74,2.39-3.4,3.53-5.78,4.28c-4.5,1.42-9.32,2.5-13.92,1.45c-2.89-0.66-5.72-2.3-7.03-4.96c-0.79-1.6-0.86-3.58-0.22-5.22
	c-0.04-0.03-0.08-0.06-0.12-0.09c-6.01-4.73-11.71-10.16-16.14-16.42C9.66,123.7,6.38,115.5,6.55,107.11z"/>
<g>
	<path class="st5" d="M137.03,197c0.85-0.37,6.42-2.7,11.88,0.13c2.49,1.29,3.97,3.16,4.75,4.31c2.09,0.96,4.17,1.93,6.25,2.89
		l6.24-8.15c6.42,0.07,9.66,2.62,10.81,3.69c6.46,5.93,6.71,19.23-1.57,31.51c-1.01,1.5-2.2,3.07-3.59,4.63
		c-4.92,5.56-10.38,8.92-14.61,10.96c-1.22-0.16-2.43-0.31-3.65-0.46C148.05,230,142.54,213.5,137.03,197z"/>
	<path class="st6" d="M177.4,207.08C177.39,207.08,177.39,207.08,177.4,207.08c-1.5-6.91-7.75-11.73-14.61-10.97
		c-4.76,0.52-8.65,3.6-10.56,7.79c-2.48-4.88-7.48-7.96-12.86-7.37c-0.7,0.07-1.37,0.21-2.02,0.4c-0.1,0.02-0.2,0.05-0.3,0.07
		c-5.7,1.44-10.04,7.22-10.42,14.37c-0.27,2.14-0.47,5.92,0.85,10.33c1.4,4.67,3.83,7.84,5.29,9.48c2.18,2.65,5.33,5.94,9.63,9.07
		c4.14,3.02,8.08,4.97,11.19,6.24c4.01-1.73,8.97-4.53,13.66-9.12c3.11-3.04,7.75-7.6,9.9-15.18
		C178.96,215.72,178.1,210.1,177.4,207.08z"/>
</g>
</svg>
