<?xml version="1.0" encoding="utf-8"?>
<!-- Generator: Adobe Illustrator 24.1.0, SVG Export Plug-In . SVG Version: 6.00 Build 0)  -->
<svg version="1.1" id="Layer_1" 
	xmlns="http://www.w3.org/2000/svg" 
	xmlns:xlink="http://www.w3.org/1999/xlink" x="0px" y="0px" viewBox="0 0 100 100" style="enable-background:new 0 0 100 100;" xml:space="preserve">
	<style type="text/css">
	
		.st0{opacity:0.69;fill:#006837;stroke:#006837;stroke-width:2;stroke-linecap:round;stroke-linejoin:round;stroke-miterlimit:8.192;}
	.st1{fill:none;stroke:#FFFFFF;stroke-linecap:round;stroke-linejoin:round;stroke-miterlimit:8.192;}
	.st2{fill:#FFFFFF;}
	</style>
	<path class="st0" d="M49.72,86.05h-0.2c-19.9,0-36.04-16.14-36.04-36.04v0c0-19.9,16.14-36.04,36.04-36.04h0.2
	c19.9,0,36.04,16.14,36.04,36.04v0C85.76,69.91,69.62,86.05,49.72,86.05z"/>
	<path class="st1" d="M32.8,34.02c0.84-0.25,3.47-0.91,6.84,0.3c2.89,1.03,4.74,2.87,5.45,3.65"/>
	<path class="st1" d="M57.85,40.94c0.78-0.41,3.23-1.57,6.77-1.05c3.04,0.45,5.21,1.89,6.06,2.51"/>
	<circle class="st2" cx="43.99" cy="46.73" r="2"/>
	<circle class="st2" cx="62.26" cy="46.73" r="2"/>
	<path class="st2" d="M27.12,69.21C26.72,68.02,49.56,55.27,56.4,62c2.04,2.01,2.78,5.86,1.45,7.21c-1.51,1.54-5.14-0.76-10.09-1.95
	C36.31,64.5,27.37,69.95,27.12,69.21z"/>
</svg>
