<?xml version="1.0" encoding="utf-8"?>
<!-- Generator: Adobe Illustrator 24.1.0, SVG Export Plug-In . SVG Version: 6.00 Build 0)  -->
<svg version="1.1" id="Layer_1" xmlns="http://www.w3.org/2000/svg" xmlns:xlink="http://www.w3.org/1999/xlink" x="0px" y="0px"
	 viewBox="0 0 100 100" style="enable-background:new 0 0 100 100;" xml:space="preserve">
<style type="text/css">
	
		.st0{opacity:0.69;fill:#FCD033;stroke:#FCD033;stroke-width:2;stroke-linecap:round;stroke-linejoin:round;stroke-miterlimit:8.192;}
	.st1{fill:#FFFFFF;}
	.st2{fill:#FFFFFF;stroke:#FFFFFF;stroke-width:2;stroke-linecap:round;stroke-linejoin:round;stroke-miterlimit:10;}
	.st3{fill:#FCA333;}
</style>
<path class="st0" d="M49.72,89.38h-0.2c-19.9,0-36.04-16.14-36.04-36.04v0c0-19.9,16.14-36.04,36.04-36.04h0.2
	c19.9,0,36.04,16.14,36.04,36.04v0C85.76,73.24,69.62,89.38,49.72,89.38z"/>
<circle class="st1" cx="37.92" cy="42.46" r="2"/>
<circle class="st1" cx="56.19" cy="42.46" r="2"/>
<line class="st2" x1="35.91" y1="62.21" x2="60.96" y2="61.7"/>
<line class="st2" x1="27.78" y1="36.63" x2="44.05" y2="36.12"/>
<line class="st2" x1="52.82" y1="36.12" x2="69.1" y2="35.61"/>
<polygon class="st3" points="77.16,9.64 68.89,31.34 77.16,27.58 77.16,47.51 84.8,21.08 76.9,23.83 "/>
</svg>
