<?xml version="1.0" encoding="utf-8"?>
<!-- Generator: Adobe Illustrator 24.1.0, SVG Export Plug-In . SVG Version: 6.00 Build 0)  -->
<svg version="1.1" id="Layer_1" xmlns="http://www.w3.org/2000/svg" xmlns:xlink="http://www.w3.org/1999/xlink" x="0px" y="0px"
	 viewBox="0 0 100 100" style="enable-background:new 0 0 100 100;" xml:space="preserve">
<style type="text/css">
	
		.st0{opacity:0.69;fill:#29ABE2;stroke:#29ABE2;stroke-width:2;stroke-linecap:round;stroke-linejoin:round;stroke-miterlimit:8.192;}
	.st1{fill:#FFFFFF;}
	.st2{fill:none;stroke:#FFFFFF;stroke-linecap:round;stroke-linejoin:round;stroke-miterlimit:8.192;}
</style>
<path class="st0" d="M49.72,86.05h-0.2c-19.9,0-36.04-16.14-36.04-36.04v0c0-19.9,16.14-36.04,36.04-36.04h0.2
	c19.9,0,36.04,16.14,36.04,36.04v0C85.76,69.91,69.62,86.05,49.72,86.05z"/>
<circle class="st1" cx="39.66" cy="48.01" r="2"/>
<circle class="st1" cx="57.93" cy="48.01" r="2"/>
<path class="st1" d="M30.25,72.7c4.41-8.33,13.26-13.1,22.07-12.01c11.03,1.36,16.23,11.17,16.66,12.01"/>
<path class="st2" d="M30.25,36.12c0.74-0.47,3.1-1.81,6.67-1.57c3.07,0.21,5.34,1.48,6.24,2.03"/>
<path class="st2" d="M56.24,36c0.64-0.6,2.68-2.39,6.23-2.84c3.05-0.39,5.53,0.41,6.52,0.78"/>
</svg>
