<?xml version="1.0" encoding="utf-8"?>
<!-- Generator: Adobe Illustrator 24.1.0, SVG Export Plug-In . SVG Version: 6.00 Build 0)  -->
<svg version="1.1" id="Layer_1" xmlns="http://www.w3.org/2000/svg" xmlns:xlink="http://www.w3.org/1999/xlink" x="0px" y="0px"
	 viewBox="0 0 100 100" style="enable-background:new 0 0 100 100;" xml:space="preserve">
<style type="text/css">
	
		.st0{opacity:0.69;fill:#00275B;stroke:#00275B;stroke-width:2;stroke-linecap:round;stroke-linejoin:round;stroke-miterlimit:8.192;}
	.st1{fill:#FFFFFF;}
	.st2{fill:none;stroke:#FFFFFF;stroke-width:2;stroke-linecap:round;stroke-linejoin:round;stroke-miterlimit:10;}
	.st3{fill:none;stroke:#FFFFFF;stroke-linecap:round;stroke-linejoin:round;stroke-miterlimit:8.192;}
	.st4{fill:#29ABE2;}
</style>
<path class="st0" d="M47.38,86.05h-0.2c-19.9,0-36.04-16.14-36.04-36.04v0c0-19.9,16.14-36.04,36.04-36.04h0.2
	c19.9,0,36.04,16.14,36.04,36.04v0C83.42,69.91,67.29,86.05,47.38,86.05z"/>
<circle class="st1" cx="36.82" cy="41.13" r="2"/>
<circle class="st1" cx="55.09" cy="41.13" r="2"/>
<path class="st2" d="M27.92,77.33c4.41-8.33,13.26-13.1,22.07-12.01c11.03,1.36,16.23,11.17,16.66,12.01"/>
<path class="st3" d="M27.42,26.64c0.74,0.47,3.1,1.81,6.67,1.57c3.07-0.21,5.34-1.48,6.24-2.03"/>
<path class="st3" d="M53.4,26.77c0.64,0.6,2.68,2.39,6.23,2.84c3.05,0.39,5.53-0.41,6.52-0.78"/>
<path class="st4" d="M87.77,47.12c0.96,1.66,1.33,4.56-0.35,6.06c-1.68,1.5-4.51,0.81-6.06-0.35c-0.45-0.33-1.01-0.87-2.72-5.52
	c-1.64-4.43-1.5-4.96-1.24-5.2c0.27-0.25,0.8-0.29,4.46,1.42C85.37,45.17,87.13,46.01,87.77,47.12z"/>
<path class="st4" d="M72.68,55.1c-0.27,1.9-1.76,4.41-4,4.56c-2.24,0.15-4.05-2.14-4.56-4c-0.15-0.54-0.26-1.3,1.25-6.03
	c1.44-4.5,1.87-4.83,2.22-4.86c0.37-0.03,0.81,0.26,2.65,3.86C71.99,52.09,72.86,53.83,72.68,55.1z"/>
</svg>
