<?xml version="1.0" encoding="utf-8"?>
<!-- Generator: Adobe Illustrator 24.1.0, SVG Export Plug-In . SVG Version: 6.00 Build 0)  -->
<svg version="1.1" id="Layer_1" xmlns="http://www.w3.org/2000/svg" xmlns:xlink="http://www.w3.org/1999/xlink" x="0px" y="0px"
	 viewBox="0 0 100 100" style="enable-background:new 0 0 100 100;" xml:space="preserve">
<style type="text/css">
	
		.st0{opacity:0.69;fill:#CF506C;stroke:#CF506C;stroke-width:2;stroke-linecap:round;stroke-linejoin:round;stroke-miterlimit:8.192;}
	.st1{fill:none;stroke:#FFFFFF;stroke-linecap:round;stroke-linejoin:round;stroke-miterlimit:8.192;}
	.st2{fill:#FFFFFF;}
</style>
<path class="st0" d="M49.72,86.05h-0.2c-19.9,0-36.04-16.14-36.04-36.04v0c0-19.9,16.14-36.04,36.04-36.04h0.2
	c19.9,0,36.04,16.14,36.04,36.04v0C85.76,69.91,69.62,86.05,49.72,86.05z"/>
<path class="st1" d="M32.29,38.13c0.74-0.47,3.1-1.81,6.67-1.57c3.07,0.21,5.34,1.48,6.24,2.03"/>
<path class="st2" d="M30.25,63.12c4.41,8.33,13.26,13.1,22.07,12.01c11.03-1.36,16.23-11.17,16.66-12.01"/>
<polyline class="st1" points="61.24,41.35 57.3,44.03 61.24,45.43 "/>
<polyline class="st1" points="40.27,41.35 44.21,44.03 40.27,45.43 "/>
<path class="st1" d="M68.99,38.13c-0.74-0.47-3.1-1.81-6.67-1.57c-3.07,0.21-5.34,1.48-6.24,2.03"/>
</svg>
