<svg id="Layer_1" data-name="Layer 1" xmlns="http://www.w3.org/2000/svg" viewBox="0 0 261.19 260.47"><defs><style>.cls-1{fill:#fbc300;stroke:#fbc300;stroke-width:2px;opacity:0.69;isolation:isolate;}.cls-1,.cls-2,.cls-3{stroke-linecap:round;stroke-linejoin:round;}.cls-2{fill:none;}.cls-2,.cls-3{stroke:#fff;stroke-width:3px;}.cls-3{font-size:157px;fill:#fff;font-family:Recoleta-Light, Recoleta;font-weight:300;}</style></defs><path class="cls-1" d="M148.52,268.53h-.72A129.26,129.26,0,0,1,18.56,139.29h0A129.26,129.26,0,0,1,147.8,10.05h.72A129.25,129.25,0,0,1,277.75,139.29h0A129.25,129.25,0,0,1,148.52,268.53Z" transform="translate(-17.56 -9.05)"/><path class="cls-2" d="M175.5,74.07A39.45,39.45,0,0,1,198,83.79,49.8,49.8,0,0,1,211.67,103" transform="translate(-17.56 -9.05)"/><path class="cls-2" d="M125.35,75.73A39.45,39.45,0,0,0,102,83.41a49.66,49.66,0,0,0-15.27,17.93" transform="translate(-17.56 -9.05)"/><text class="cls-3" transform="translate(93.71 195.28)">?</text><path class="cls-2" d="M168.2,214.53a39.44,39.44,0,0,1-23.49,7.17,49.82,49.82,0,0,1-22.81-5.84" transform="translate(-17.56 -9.05)"/></svg>