<svg xmlns="http://www.w3.org/2000/svg" width="194.446" height="40.317" viewBox="0 0 194.446 40.317">
  <g id="mimento-logo-horizontal" transform="translate(-3 -5.53)">
    <path id="Path_156" data-name="Path 156" d="M215.356,65.545a1.882,1.882,0,0,0,.611,1.278c.389.382.582.654.582.859v.131c0,.3-.232.444-.7.444h-4.869c-.464,0-.7-.147-.7-.444v-.131q0-.284.6-.843a1.592,1.592,0,0,0,.565-1.261l-.327-6.029a8.147,8.147,0,0,0-1.013-4.147,2.856,2.856,0,0,0-2.5-1.278,2.967,2.967,0,0,0-2.307,1.069,4.2,4.2,0,0,0-1.013,2.7,7.654,7.654,0,0,1,.134,1.533v6.157A1.709,1.709,0,0,0,205,66.839q.578.559.578.843v.131c0,.3-.232.444-.7.444h-4.827c-.487,0-.729-.147-.729-.444v-.131q0-.284.578-.843a1.709,1.709,0,0,0,.582-1.261V59.195a6.218,6.218,0,0,0-.98-3.732A2.99,2.99,0,0,0,197,54.123a3.15,3.15,0,0,0-2.454,1.069,4.163,4.163,0,0,0-1.029,2.729l.033,7.657a1.634,1.634,0,0,0,.654,1.261c.441.373.654.654.654.843v.131c0,.3-.232.444-.7.444h-5.121c-.487,0-.729-.147-.729-.444v-.131c0-.19.219-.471.654-.843a1.634,1.634,0,0,0,.654-1.261V57.025a1.307,1.307,0,0,0-.366-.954,4.739,4.739,0,0,0-.729-.654.69.69,0,0,1-.366-.542V54.78c0-.212.2-.405.6-.575l3.405-1.474a.853.853,0,0,1,.794-.046.69.69,0,0,1,.265.621v1.882a5.389,5.389,0,0,1,1.961-1.882,5.533,5.533,0,0,1,2.768-.7,6.64,6.64,0,0,1,3.3.83,5.882,5.882,0,0,1,2.3,2.33,4.827,4.827,0,0,1,2.026-2.33,6.039,6.039,0,0,1,3.15-.83A5.778,5.778,0,0,1,213,54.28q1.676,1.676,1.941,5.376Z" transform="translate(-124.651 -31.688)" fill="#2e4294"/>
    <path id="Path_157" data-name="Path 157" d="M281.616,53.515c-.464,0-.7-.157-.7-.477V52.91c0-.193.206-.467.614-.83a1.634,1.634,0,0,0,.614-1.245V42.476a1.961,1.961,0,0,0-.614-1.373c-.409-.425-.614-.7-.614-.827v-.1c0-.17.2-.359.6-.572l3.317-1.585a1.036,1.036,0,0,1,.879-.046.624.624,0,0,1,.327.588V50.835a1.569,1.569,0,0,0,.67,1.239c.451.363.68.654.68.83v.15c0,.327-.245.477-.729.477Zm2.457-17.974a2.941,2.941,0,0,1-1.993-.67,2.333,2.333,0,0,1,0-3.448,2.908,2.908,0,0,1,1.993-.67,2.8,2.8,0,0,1,1.941.67,2.367,2.367,0,0,1,0,3.448,2.814,2.814,0,0,1-1.941.683Z" transform="translate(-187.097 -16.979)" fill="#2e4294"/>
    <path id="Path_158" data-name="Path 158" d="M334.353,65.545a1.886,1.886,0,0,0,.614,1.278c.386.382.582.654.582.859v.131c0,.3-.232.444-.7.444h-4.866c-.464,0-.7-.147-.7-.444v-.131c0-.19.2-.471.595-.843a1.582,1.582,0,0,0,.565-1.261l-.327-6.029a8.237,8.237,0,0,0-1.013-4.147,2.863,2.863,0,0,0-2.507-1.278,2.964,2.964,0,0,0-2.3,1.069,4.18,4.18,0,0,0-1.013,2.7,7.651,7.651,0,0,1,.134,1.533v6.157A1.716,1.716,0,0,0,324,66.839c.389.373.582.654.582.843v.131c0,.3-.232.444-.7.444h-4.823c-.487,0-.732-.147-.732-.444v-.131c0-.19.193-.471.582-.843a1.719,1.719,0,0,0,.582-1.261V59.2a6.219,6.219,0,0,0-.98-3.732A2.984,2.984,0,0,0,316,54.124a3.157,3.157,0,0,0-2.454,1.069,4.2,4.2,0,0,0-1.029,2.729l.036,7.657a1.634,1.634,0,0,0,.654,1.261c.441.373.654.654.654.843v.131c0,.3-.232.444-.7.444h-5.121c-.487,0-.732-.147-.732-.444v-.131c0-.19.222-.471.654-.843a1.634,1.634,0,0,0,.654-1.261V57.026a1.33,1.33,0,0,0-.363-.954,4.752,4.752,0,0,0-.732-.654.693.693,0,0,1-.363-.542v-.095c0-.212.2-.405.595-.575l3.405-1.474a.859.859,0,0,1,.8-.046.69.69,0,0,1,.265.621v1.882a5.379,5.379,0,0,1,1.961-1.882,5.556,5.556,0,0,1,2.771-.7,6.627,6.627,0,0,1,3.3.83,5.925,5.925,0,0,1,2.307,2.33,4.82,4.82,0,0,1,2.023-2.33,6.052,6.052,0,0,1,3.154-.83,5.771,5.771,0,0,1,4.248,1.676q1.676,1.676,1.941,5.376Z" transform="translate(-204.762 -31.689)" fill="#2e4294"/>
    <path id="Path_159" data-name="Path 159" d="M412.77,63.466a.627.627,0,0,1,.683-.255.48.48,0,0,1,.379.562,5.4,5.4,0,0,1-1.961,3.206,6.588,6.588,0,0,1-4.513,1.484,8.193,8.193,0,0,1-5.971-2.232,7.831,7.831,0,0,1-2.288-5.882,7.436,7.436,0,0,1,2.288-5.631,8.112,8.112,0,0,1,5.738-2.219,7.58,7.58,0,0,1,4.4,1.118,3.781,3.781,0,0,1,.232,6.157,8.928,8.928,0,0,1-3.866,1.748,16.493,16.493,0,0,1-4.81.157,6.173,6.173,0,0,0,2.023,3.016,5.131,5.131,0,0,0,3.268,1.1,5.356,5.356,0,0,0,2.722-.654A4.144,4.144,0,0,0,412.77,63.466ZM406.584,53.8a3.409,3.409,0,0,0-2.82,1.418,5.6,5.6,0,0,0-1.1,3.526,11.578,11.578,0,0,0,.1,1.533,16.34,16.34,0,0,0,4.412-.193,3.193,3.193,0,0,0,1.761-.98,3.753,3.753,0,0,0-.252-4.418A2.709,2.709,0,0,0,406.584,53.8Z" transform="translate(-266.657 -31.619)" fill="#2e4294"/>
    <path id="Path_160" data-name="Path 160" d="M466.472,65.548a1.846,1.846,0,0,0,.614,1.261c.386.373.582.654.582.846v.127c0,.327-.245.477-.732.477h-4.843c-.487,0-.729-.16-.729-.477v-.127c0-.193.2-.474.614-.846a1.562,1.562,0,0,0,.578-1.261l-.327-6.157q-.239-5.265-3.48-5.265a3.183,3.183,0,0,0-2.523,1.1,4.183,4.183,0,0,0-.961,2.856v7.5a1.572,1.572,0,0,0,.68,1.245c.451.363.68.637.68.83v.127c0,.327-.245.477-.732.477h-5.147c-.464,0-.7-.16-.7-.477v-.127c0-.193.219-.467.654-.83a1.592,1.592,0,0,0,.654-1.245V57.028a1.337,1.337,0,0,0-.382-.98,4.758,4.758,0,0,0-.722-.631.654.654,0,0,1-.363-.526V54.8c0-.212.2-.405.595-.575l3.212-1.487c.356-.147.614-.163.781-.046a.706.706,0,0,1,.248.621v2.075a4.97,4.97,0,0,1,2.023-2.042,6.131,6.131,0,0,1,3.02-.735,5.99,5.99,0,0,1,4.314,1.693,7.679,7.679,0,0,1,1.99,5.229Z" transform="translate(-300.849 -31.691)" fill="#2e4294"/>
    <path id="Path_161" data-name="Path 161" d="M514.221,61.354a4.475,4.475,0,0,1-3.4-1.307,5.375,5.375,0,0,1-1.245-3.846V47.283h-1.889c-.376,0-.565-.18-.565-.542V46.3a.507.507,0,0,1,.565-.575h1.026a2.673,2.673,0,0,0,2.042-.833,4,4,0,0,0,.98-2.265c.069-.467.288-.7.654-.7h.5c.418,0,.631.235.631.7l.033,3.095h4.18a.591.591,0,0,1,.431.16.546.546,0,0,1,.167.415v.444c0,.363-.2.542-.6.542h-4.173v8.938a2.614,2.614,0,0,0,.529,1.742,1.709,1.709,0,0,0,1.363.624,2.088,2.088,0,0,0,2.353-1.66.592.592,0,0,1,.4-.327.634.634,0,0,1,.484.065.448.448,0,0,1,.212.415,4.1,4.1,0,0,1-1.275,3A4.574,4.574,0,0,1,514.221,61.354Z" transform="translate(-339.372 -24.498)" fill="#2e4294"/>
    <path id="Path_162" data-name="Path 162" d="M554.993,68.519a8.969,8.969,0,0,1-6.536-2.392A7.732,7.732,0,0,1,546,60.382a7.323,7.323,0,0,1,2.389-5.582,8.229,8.229,0,0,1,5.84-2.235,8.756,8.756,0,0,1,6.3,2.346,7.615,7.615,0,0,1,2.461,5.725,7.676,7.676,0,0,1-8,7.882Zm.5-1.212a3.036,3.036,0,0,0,2.595-1.418,6.864,6.864,0,0,0,.98-3.941,10.6,10.6,0,0,0-1.51-5.774,4.4,4.4,0,0,0-3.765-2.4,3.363,3.363,0,0,0-2.837,1.389,6.54,6.54,0,0,0-1.039,3.974,10.458,10.458,0,0,0,1.575,5.657A4.637,4.637,0,0,0,555.493,67.307Z" transform="translate(-365.546 -31.663)" fill="#2e4294"/>
    <path id="Path_163" data-name="Path 163" d="M28.964,18.014A12.741,12.741,0,0,1,15.98,30.5,12.738,12.738,0,0,1,3,18.014,12.74,12.74,0,0,1,15.98,5.53,12.743,12.743,0,0,1,28.964,18.014" transform="translate(0 0)" fill="#fca333"/>
    <path id="Path_164" data-name="Path 164" d="M67.646,9.52l-.366-.353a13.287,13.287,0,0,0-18.268,0L38.555,19.223a12.072,12.072,0,0,0-2.183,14.771,8.336,8.336,0,0,0,.873,1.324l.052.069.131.163a12.52,12.52,0,0,0,1.127,1.242l.366.35a12.418,12.418,0,0,0,1.023.9l8.121,7.81L56.3,37.925c.3-.242.6-.5.886-.775L67.646,27.1a12.091,12.091,0,0,0,0-17.565" transform="translate(-21.391 0)" fill="#2e4294"/>
  </g>
</svg>
