<svg xmlns="http://www.w3.org/2000/svg" width="135.259" height="28.045" viewBox="0 0 135.259 28.045">
  <g id="mimento-logo-blano-horizontal" transform="translate(-3 -5.53)">
    <path id="Path_156" data-name="Path 156" d="M207.078,61.6a1.309,1.309,0,0,0,.425.889c.271.266.4.455.4.6v.091c0,.207-.161.309-.484.309h-3.387c-.323,0-.484-.1-.484-.309v-.091q0-.2.416-.586a1.107,1.107,0,0,0,.393-.877l-.227-4.194a5.667,5.667,0,0,0-.7-2.885,1.987,1.987,0,0,0-1.741-.889,2.064,2.064,0,0,0-1.6.743,2.919,2.919,0,0,0-.7,1.875,5.325,5.325,0,0,1,.093,1.066v4.283a1.189,1.189,0,0,0,.4.877q.4.389.4.586v.091c0,.207-.161.309-.484.309h-3.358c-.339,0-.507-.1-.507-.309v-.091q0-.2.4-.586a1.189,1.189,0,0,0,.4-.877v-4.44a4.326,4.326,0,0,0-.682-2.6,2.08,2.08,0,0,0-1.744-.932,2.191,2.191,0,0,0-1.707.743,2.9,2.9,0,0,0-.716,1.9l.023,5.326a1.136,1.136,0,0,0,.455.877c.307.259.455.455.455.586v.091c0,.207-.161.309-.484.309h-3.562c-.339,0-.507-.1-.507-.309v-.091c0-.132.152-.327.455-.586a1.137,1.137,0,0,0,.455-.877V55.678a.909.909,0,0,0-.255-.664,3.3,3.3,0,0,0-.507-.455.48.48,0,0,1-.255-.377v-.066c0-.148.139-.282.416-.4l2.369-1.025a.593.593,0,0,1,.552-.032.48.48,0,0,1,.184.432V54.4a3.749,3.749,0,0,1,1.364-1.309,3.849,3.849,0,0,1,1.925-.489,4.619,4.619,0,0,1,2.3.577,4.092,4.092,0,0,1,1.6,1.621,3.358,3.358,0,0,1,1.409-1.621,4.2,4.2,0,0,1,2.191-.577,4.019,4.019,0,0,1,2.967,1.166,5.732,5.732,0,0,1,1.35,3.739Z" transform="translate(-143.069 -36.37)" fill="#ebf5fa"/>
    <path id="Path_157" data-name="Path 157" d="M281.4,46.586c-.323,0-.484-.109-.484-.332v-.089c0-.134.143-.325.427-.577a1.137,1.137,0,0,0,.427-.866V38.907a1.364,1.364,0,0,0-.427-.955c-.284-.3-.427-.486-.427-.575v-.068c0-.118.139-.25.416-.4l2.307-1.1a.721.721,0,0,1,.612-.032.434.434,0,0,1,.227.409v8.536a1.091,1.091,0,0,0,.466.862c.314.252.473.455.473.577v.1c0,.227-.171.332-.507.332Zm1.709-12.5a2.046,2.046,0,0,1-1.387-.466,1.623,1.623,0,0,1,0-2.4,2.023,2.023,0,0,1,1.387-.466,1.946,1.946,0,0,1,1.35.466,1.646,1.646,0,0,1,0,2.4,1.957,1.957,0,0,1-1.35.475Z" transform="translate(-214.742 -19.487)" fill="#ebf5fa"/>
    <path id="Path_158" data-name="Path 158" d="M326.076,61.605a1.312,1.312,0,0,0,.427.889c.268.266.4.455.4.6v.091c0,.207-.161.309-.486.309h-3.385c-.323,0-.484-.1-.484-.309v-.091c0-.132.139-.327.414-.586a1.1,1.1,0,0,0,.393-.877l-.227-4.194a5.73,5.73,0,0,0-.7-2.885,1.991,1.991,0,0,0-1.744-.889,2.062,2.062,0,0,0-1.6.743,2.907,2.907,0,0,0-.7,1.875,5.321,5.321,0,0,1,.093,1.066v4.283a1.193,1.193,0,0,0,.4.877c.271.259.4.455.4.586v.091c0,.207-.161.309-.484.309h-3.355c-.339,0-.509-.1-.509-.309v-.091c0-.132.134-.327.4-.586a1.2,1.2,0,0,0,.4-.877v-4.44a4.326,4.326,0,0,0-.682-2.6,2.076,2.076,0,0,0-1.744-.932,2.2,2.2,0,0,0-1.707.743,2.919,2.919,0,0,0-.716,1.9l.025,5.326a1.137,1.137,0,0,0,.455.877c.307.259.455.455.455.587v.091c0,.207-.161.309-.487.309h-3.562c-.339,0-.509-.1-.509-.309v-.091c0-.132.155-.327.455-.587a1.137,1.137,0,0,0,.455-.877V55.679a.925.925,0,0,0-.252-.664,3.3,3.3,0,0,0-.509-.455.482.482,0,0,1-.252-.377v-.066c0-.148.139-.282.414-.4l2.369-1.025a.6.6,0,0,1,.555-.032.48.48,0,0,1,.184.432V54.4a3.742,3.742,0,0,1,1.364-1.309,3.865,3.865,0,0,1,1.928-.489,4.61,4.61,0,0,1,2.3.577,4.121,4.121,0,0,1,1.6,1.621,3.353,3.353,0,0,1,1.407-1.621,4.21,4.21,0,0,1,2.194-.577,4.014,4.014,0,0,1,2.955,1.166,5.732,5.732,0,0,1,1.35,3.739Z" transform="translate(-235.018 -36.371)" fill="#ebf5fa"/>
    <path id="Path_159" data-name="Path 159" d="M408.609,60.127a.436.436,0,0,1,.475-.177.334.334,0,0,1,.264.391,3.758,3.758,0,0,1-1.364,2.23,4.583,4.583,0,0,1-3.139,1.032,5.7,5.7,0,0,1-4.153-1.553,5.447,5.447,0,0,1-1.591-4.092,5.173,5.173,0,0,1,1.591-3.917,5.643,5.643,0,0,1,3.992-1.544,5.273,5.273,0,0,1,3.06.777,2.63,2.63,0,0,1,.161,4.283,6.211,6.211,0,0,1-2.689,1.216,11.473,11.473,0,0,1-3.346.109,4.294,4.294,0,0,0,1.407,2.1,3.569,3.569,0,0,0,2.273.766,3.726,3.726,0,0,0,1.894-.455A2.883,2.883,0,0,0,408.609,60.127Zm-4.3-6.724a2.371,2.371,0,0,0-1.962.987,3.892,3.892,0,0,0-.766,2.453,8.051,8.051,0,0,0,.068,1.066,11.366,11.366,0,0,0,3.069-.134,2.221,2.221,0,0,0,1.225-.682,2.611,2.611,0,0,0-.175-3.073A1.884,1.884,0,0,0,404.306,53.4Z" transform="translate(-306.057 -36.291)" fill="#ebf5fa"/>
    <path id="Path_160" data-name="Path 160" d="M461.424,61.608a1.284,1.284,0,0,0,.427.877c.268.259.4.455.4.589v.089c0,.227-.17.332-.509.332h-3.369c-.339,0-.507-.111-.507-.332v-.089c0-.134.141-.33.427-.589a1.087,1.087,0,0,0,.4-.877l-.227-4.283q-.166-3.662-2.421-3.662a2.214,2.214,0,0,0-1.755.766,2.91,2.91,0,0,0-.668,1.987v5.215a1.093,1.093,0,0,0,.473.866c.314.252.473.443.473.577v.089c0,.227-.17.332-.509.332h-3.58c-.323,0-.484-.111-.484-.332v-.089c0-.134.152-.325.455-.577a1.107,1.107,0,0,0,.455-.866V55.682a.93.93,0,0,0-.266-.682,3.313,3.313,0,0,0-.5-.439.455.455,0,0,1-.252-.366v-.066c0-.148.139-.282.414-.4l2.235-1.034c.248-.1.427-.114.543-.032a.491.491,0,0,1,.173.432v1.443a3.457,3.457,0,0,1,1.407-1.421,4.265,4.265,0,0,1,2.1-.511,4.167,4.167,0,0,1,3,1.178,5.341,5.341,0,0,1,1.384,3.637Z" transform="translate(-345.302 -36.374)" fill="#ebf5fa"/>
    <path id="Path_161" data-name="Path 161" d="M512.057,55.439a3.113,3.113,0,0,1-2.366-.909,3.738,3.738,0,0,1-.866-2.676v-6.2h-1.314c-.261,0-.393-.125-.393-.377v-.309a.352.352,0,0,1,.393-.4h.714a1.86,1.86,0,0,0,1.421-.58,2.783,2.783,0,0,0,.682-1.575c.048-.325.2-.489.455-.489h.348c.291,0,.439.164.439.489l.023,2.153H514.5a.411.411,0,0,1,.3.111.379.379,0,0,1,.116.289v.309c0,.252-.139.377-.416.377h-2.9v6.217a1.819,1.819,0,0,0,.368,1.212,1.189,1.189,0,0,0,.948.434,1.453,1.453,0,0,0,1.637-1.155.411.411,0,0,1,.277-.227.441.441,0,0,1,.336.045.312.312,0,0,1,.148.289,2.855,2.855,0,0,1-.887,2.085A3.182,3.182,0,0,1,512.057,55.439Z" transform="translate(-389.517 -28.118)" fill="#ebf5fa"/>
    <path id="Path_162" data-name="Path 162" d="M552.254,63.662A6.239,6.239,0,0,1,547.707,62,5.379,5.379,0,0,1,546,58a5.094,5.094,0,0,1,1.662-3.883,5.724,5.724,0,0,1,4.062-1.555A6.091,6.091,0,0,1,556.1,54.2a5.3,5.3,0,0,1,1.712,3.983,5.34,5.34,0,0,1-5.563,5.483Zm.348-.843a2.112,2.112,0,0,0,1.8-.987,4.775,4.775,0,0,0,.682-2.742,7.374,7.374,0,0,0-1.05-4.017,3.064,3.064,0,0,0-2.619-1.666,2.339,2.339,0,0,0-1.973.966,4.549,4.549,0,0,0-.723,2.764,7.275,7.275,0,0,0,1.1,3.935A3.226,3.226,0,0,0,552.6,62.819Z" transform="translate(-419.559 -36.341)" fill="#ebf5fa"/>
    <path id="Path_163" data-name="Path 163" d="M21.061,14.214A8.863,8.863,0,0,1,12.029,22.9,8.861,8.861,0,0,1,3,14.214,8.862,8.862,0,0,1,12.029,5.53a8.864,8.864,0,0,1,9.032,8.684" transform="translate(0 0)" fill="#ebf5fa"/>
    <path id="Path_164" data-name="Path 164" d="M57.641,8.306l-.255-.246a9.243,9.243,0,0,0-12.707,0L37.4,15.055A8.4,8.4,0,0,0,35.886,25.33a5.8,5.8,0,0,0,.607.921l.036.048.091.114a8.709,8.709,0,0,0,.784.864l.255.243a8.638,8.638,0,0,0,.712.623l5.649,5.433,5.731-5.51c.211-.168.418-.348.616-.539l7.274-6.995a8.411,8.411,0,0,0,0-12.219" transform="translate(-24.552 0)" fill="#b2bbd7"/>
  </g>
</svg>
