<svg xmlns="http://www.w3.org/2000/svg" width="96.75" height="82.569" viewBox="0 0 96.75 82.569">
  <g id="mimento-isotipo" transform="translate(-58.843 -23.09)">
    <path id="Path_172" data-name="Path 172" d="M139.266,48.673c0,14.132-11.955,25.583-26.7,25.583S85.86,62.8,85.86,48.673s11.955-25.583,26.7-25.583,26.7,11.458,26.7,25.583" transform="translate(-27.017)" fill="#fca333"/>
    <path id="Path_173" data-name="Path 173" d="M187.409,31.292l-.749-.686a27.4,27.4,0,0,0-37.575,0L127.574,51.181a24.664,24.664,0,0,0-4.5,30.264,16.988,16.988,0,0,0,1.8,2.706,1.258,1.258,0,0,0,.107.145l.264.333a26.7,26.7,0,0,0,2.322,2.517l.755.717a27.09,27.09,0,0,0,2.1,1.812l16.7,16.007,16.944-16.233a21.956,21.956,0,0,0,1.825-1.586l21.518-20.575a24.7,24.7,0,0,0,0-36" transform="translate(-39.599 -0.023)" fill="#2e4294"/>
  </g>
</svg>
