<svg xmlns="http://www.w3.org/2000/svg" width="188.955" height="140.392" viewBox="0 0 188.955 140.392">
  <g id="mimento-logo-vertical" transform="translate(-13 -23.09)">
    <path id="Path_165" data-name="Path 165" d="M51.248,228.812a2.674,2.674,0,0,0,.862,1.793c.547.535.818.938.818,1.208v.176c0,.422-.327.629-.982.629H45.089c-.629,0-.975-.208-.975-.629v-.176c0-.271.277-.667.837-1.189a2.208,2.208,0,0,0,.768-1.768l-.466-8.45q-.189-4.033-1.422-5.82A4.039,4.039,0,0,0,40.3,212.8a4.178,4.178,0,0,0-3.247,1.5,5.864,5.864,0,0,0-1.422,3.775,10.532,10.532,0,0,1,.189,2.146v8.632a2.378,2.378,0,0,0,.818,1.768c.541.522.818.919.818,1.189v.176c0,.422-.327.629-.982.629H29.718c-.68,0-1.026-.208-1.026-.629v-.176c0-.271.271-.667.818-1.189a2.378,2.378,0,0,0,.818-1.768v-8.941a8.715,8.715,0,0,0-1.378-5.235,4.2,4.2,0,0,0-3.523-1.888,4.455,4.455,0,0,0-3.461,1.5,5.87,5.87,0,0,0-1.447,3.825l.031,10.747a2.271,2.271,0,0,0,.931,1.768c.629.522.937.919.937,1.189v.176c0,.422-.327.629-.982.629H14.214c-.686,0-1.026-.208-1.026-.629v-.176c0-.271.308-.667.931-1.189a2.278,2.278,0,0,0,.937-1.768V216.87a1.888,1.888,0,0,0-.516-1.346,7.224,7.224,0,0,0-1.026-.881.969.969,0,0,1-.516-.761v-.132c0-.3.283-.566.843-.805l4.763-2.1a1.214,1.214,0,0,1,1.12-.069.956.956,0,0,1,.371.875v2.636a7.55,7.55,0,0,1,2.781-2.636,7.846,7.846,0,0,1,3.9-.988,9.35,9.35,0,0,1,4.643,1.164,8.349,8.349,0,0,1,3.247,3.266,6.8,6.8,0,0,1,2.869-3.278,8.551,8.551,0,0,1,4.4-1.164,8.18,8.18,0,0,1,6,2.353q2.359,2.353,2.731,7.55Z" transform="translate(0 -69.547)" fill="#2e4294"/>
    <path id="Path_166" data-name="Path 166" d="M81.752,226.708c-.629,0-.982-.227-.982-.673v-.176c0-.271.283-.661.862-1.164a2.271,2.271,0,0,0,.862-1.749V211.224a2.706,2.706,0,0,0-.862-1.888c-.579-.629-.862-.988-.862-1.164v-.138c0-.239.277-.5.837-.805l4.675-2.234a1.46,1.46,0,0,1,1.258-.069.875.875,0,0,1,.447.831v17.221a2.215,2.215,0,0,0,.956,1.749c.629.5.956.893.956,1.164v.176c0,.447-.34.673-1.026.673Zm3.454-25.168a4.071,4.071,0,0,1-2.8-.944,3.253,3.253,0,0,1,0-4.832,4.071,4.071,0,0,1,2.8-.937,3.926,3.926,0,0,1,2.731.938,3.3,3.3,0,0,1,0,4.832,3.926,3.926,0,0,1-2.731.919Z" transform="translate(-25.13 -63.68)" fill="#2e4294"/>
    <path id="Path_167" data-name="Path 167" d="M138.238,228.812a2.674,2.674,0,0,0,.862,1.793c.547.535.818.938.818,1.208v.176c0,.422-.327.629-.982.629h-6.852c-.629,0-.982-.208-.982-.629v-.176c0-.271.283-.667.843-1.189a2.209,2.209,0,0,0,.793-1.768l-.466-8.45q-.189-4.033-1.422-5.82a4.039,4.039,0,0,0-3.53-1.787,4.178,4.178,0,0,0-3.247,1.5,5.864,5.864,0,0,0-1.422,3.775,10.531,10.531,0,0,1,.189,2.146v8.632a2.378,2.378,0,0,0,.818,1.768c.541.522.818.919.818,1.189v.176c0,.422-.327.629-.982.629h-6.789c-.68,0-1.026-.208-1.026-.629v-.176c0-.271.271-.667.818-1.189a2.378,2.378,0,0,0,.818-1.768v-8.941a8.715,8.715,0,0,0-1.378-5.235,4.2,4.2,0,0,0-3.523-1.888,4.455,4.455,0,0,0-3.461,1.5,5.87,5.87,0,0,0-1.447,3.825l.05,10.734a2.271,2.271,0,0,0,.931,1.768c.629.522.931.919.931,1.189v.176c0,.422-.321.629-.975.629H101.2c-.686,0-1.026-.208-1.026-.629V231.8c0-.271.308-.667.931-1.189a2.278,2.278,0,0,0,.937-1.768V216.87a1.888,1.888,0,0,0-.516-1.346,7.222,7.222,0,0,0-1.026-.893.969.969,0,0,1-.516-.761v-.132c0-.3.283-.566.843-.805l4.763-2.1a1.214,1.214,0,0,1,1.12-.069.956.956,0,0,1,.371.875v2.636a7.551,7.551,0,0,1,2.781-2.636,7.846,7.846,0,0,1,3.9-.988,9.35,9.35,0,0,1,4.643,1.164,8.349,8.349,0,0,1,3.247,3.265,6.8,6.8,0,0,1,2.875-3.265,8.55,8.55,0,0,1,4.4-1.164,8.179,8.179,0,0,1,6,2.353q2.359,2.353,2.731,7.55Z" transform="translate(-32.257 -69.547)" fill="#2e4294"/>
    <path id="Path_168" data-name="Path 168" d="M186.4,225.94a.887.887,0,0,1,.963-.359.68.68,0,0,1,.535.805,7.588,7.588,0,0,1-2.756,4.5,9.251,9.251,0,0,1-6.349,2.083,11.506,11.506,0,0,1-8.406-3.146,11.041,11.041,0,0,1-3.228-8.23,10.394,10.394,0,0,1,3.228-7.9,11.414,11.414,0,0,1,8.079-3.114,10.746,10.746,0,0,1,6.185,1.567,5.291,5.291,0,0,1,.327,8.639,12.584,12.584,0,0,1-5.442,2.416,23.456,23.456,0,0,1-6.77.22,8.645,8.645,0,0,0,2.85,4.228,7.242,7.242,0,0,0,4.625,1.542,7.55,7.55,0,0,0,3.825-.912A5.826,5.826,0,0,0,186.4,225.94Zm-8.733-13.528A4.788,4.788,0,0,0,173.7,214.4a7.814,7.814,0,0,0-1.542,4.945,15.73,15.73,0,0,0,.138,2.146,22.89,22.89,0,0,0,6.21-.264,4.641,4.641,0,0,0,2.127-7.55,3.838,3.838,0,0,0-2.97-1.265Z" transform="translate(-57.16 -69.518)" fill="#2e4294"/>
    <path id="Path_169" data-name="Path 169" d="M227.626,228.813a2.554,2.554,0,0,0,.862,1.768c.547.522.818.919.818,1.189v.176c0,.447-.346.673-1.026.673h-6.82c-.686,0-1.026-.227-1.026-.673v-.176c0-.271.283-.667.862-1.189a2.2,2.2,0,0,0,.818-1.768l-.466-8.632q-.327-7.38-4.908-7.38a4.492,4.492,0,0,0-3.549,1.542,5.871,5.871,0,0,0-1.353,4v10.514a2.215,2.215,0,0,0,.956,1.749c.629.5.956.893.956,1.164v.176c0,.447-.34.673-1.026.673h-7.236c-.629,0-.982-.227-.982-.673v-.176c0-.271.308-.661.931-1.164a2.227,2.227,0,0,0,.937-1.749V216.871a1.887,1.887,0,0,0-.541-1.39,6.29,6.29,0,0,0-1.051-.868.938.938,0,0,1-.516-.742v-.132c0-.3.283-.566.843-.805l4.53-2.1c.5-.208.862-.233,1.1-.069a.994.994,0,0,1,.346.875v2.907a6.978,6.978,0,0,1,2.85-2.863,8.664,8.664,0,0,1,4.247-1.032,8.45,8.45,0,0,1,6.072,2.372q2.479,2.378,2.806,7.336Z" transform="translate(-70.925 -69.548)" fill="#2e4294"/>
    <path id="Path_170" data-name="Path 170" d="M256.114,230.146a6.292,6.292,0,0,1-4.788-1.888,7.646,7.646,0,0,1-1.749-5.392V210.415h-2.649c-.529,0-.793-.252-.793-.761v-.629a.7.7,0,0,1,.793-.805h1.447a3.775,3.775,0,0,0,2.869-1.164,5.587,5.587,0,0,0,1.378-3.177c.094-.629.409-.988.937-.988h.7c.591,0,.887.333.887.988l.05,4.341h5.883a.831.831,0,0,1,.629.22.774.774,0,0,1,.233.585v.629c0,.51-.277.761-.837.761h-5.883v12.527a3.624,3.624,0,0,0,.742,2.435,2.4,2.4,0,0,0,1.888.875c1.888,0,2.97-.774,3.316-2.328a.818.818,0,0,1,.56-.447.912.912,0,0,1,.673.088.629.629,0,0,1,.308.585,5.744,5.744,0,0,1-1.8,4.2A6.487,6.487,0,0,1,256.114,230.146Z" transform="translate(-86.446 -66.672)" fill="#2e4294"/>
    <path id="Path_171" data-name="Path 171" d="M287.961,233.015a12.616,12.616,0,0,1-9.2-3.36,10.816,10.816,0,0,1-3.454-8.047,10.268,10.268,0,0,1,3.36-7.833,11.609,11.609,0,0,1,8.217-3.146,12.359,12.359,0,0,1,8.878,3.291,10.659,10.659,0,0,1,3.454,8.028,10.835,10.835,0,0,1-11.256,11.067Zm.7-1.705a4.266,4.266,0,0,0,3.643-1.988,9.412,9.412,0,0,0,1.4-5.524,14.836,14.836,0,0,0-2.127-8.1q-2.12-3.36-5.3-3.354a4.75,4.75,0,0,0-4,1.944,9.084,9.084,0,0,0-1.472,5.568,14.6,14.6,0,0,0,2.221,7.921Q285.256,231.31,288.66,231.31Z" transform="translate(-97.266 -69.54)" fill="#2e4294"/>
    <path id="Path_172" data-name="Path 172" d="M139.266,48.673c0,14.132-11.955,25.583-26.7,25.583S85.86,62.8,85.86,48.673s11.955-25.583,26.7-25.583,26.7,11.458,26.7,25.583" transform="translate(-27.017)" fill="#fca333"/>
    <path id="Path_173" data-name="Path 173" d="M187.409,31.292l-.749-.686a27.4,27.4,0,0,0-37.575,0L127.574,51.181a24.664,24.664,0,0,0-4.5,30.264,16.988,16.988,0,0,0,1.8,2.706,1.258,1.258,0,0,0,.107.145l.264.333a26.7,26.7,0,0,0,2.322,2.517l.755.717a27.09,27.09,0,0,0,2.1,1.812l16.7,16.007,16.944-16.233a21.956,21.956,0,0,0,1.825-1.586l21.518-20.575a24.7,24.7,0,0,0,0-36" transform="translate(-39.599 -0.023)" fill="#2e4294"/>
  </g>
</svg>
